<?xml version="1.0" encoding="UTF-8" standalone="no"?>
<svg width="20px" height="19px" viewBox="0 0 20 19" version="1.1" xmlns="http://www.w3.org/2000/svg" xmlns:xlink="http://www.w3.org/1999/xlink">
    <!-- Generator: Sketch 41.2 (35397) - http://www.bohemiancoding.com/sketch -->
    <title>calendar</title>
    <desc>Created with Sketch.</desc>
    <defs></defs>
    <g id="Page-1" stroke="none" stroke-width="1" fill="none" fill-rule="evenodd">
        <g id="Event-Page-3" transform="translate(-235.000000, -511.000000)" fill="#CE5100">
            <g id="Group-7" transform="translate(0.000000, 410.000000)">
                <g id="Group-3" transform="translate(202.000000, 99.000000)">
                    <g id="Date" transform="translate(0.000000, 2.000000)">
                        <g id="calendar" transform="translate(33.000000, 0.000000)">
                            <g id="Group">
                                <path d="M0.769230769,18.3091037 L19.2136752,18.3091037 C19.6068376,18.3091037 19.9145299,18.0042343 19.9145299,17.6146789 L19.9145299,2.11714891 C19.9145299,1.72759351 19.6068376,1.42272406 19.2136752,1.42272406 L15.7435897,1.42272406 L15.7435897,0.829922371 C15.7435897,0.440366972 15.4358974,0.13549753 15.042735,0.13549753 C14.6495726,0.13549753 14.3418803,0.440366972 14.3418803,0.829922371 L14.3418803,1.42272406 L5.76068376,1.42272406 L5.76068376,0.829922371 C5.76068376,0.440366972 5.45299145,0.13549753 5.05982906,0.13549753 C4.66666667,0.13549753 4.35897436,0.440366972 4.35897436,0.829922371 L4.35897436,1.42272406 L0.769230769,1.42272406 C0.376068376,1.42272406 0.0683760684,1.72759351 0.0683760684,2.11714891 L0.0683760684,17.6316161 C0.0683760684,18.0042343 0.393162393,18.3091037 0.769230769,18.3091037 L0.769230769,18.3091037 Z M1.47008547,2.81157375 L4.35897436,2.81157375 L4.35897436,3.18419195 C4.35897436,3.57374735 4.66666667,3.8786168 5.05982906,3.8786168 C5.45299145,3.8786168 5.76068376,3.57374735 5.76068376,3.18419195 L5.76068376,2.81157375 L14.3418803,2.81157375 L14.3418803,3.18419195 C14.3418803,3.57374735 14.6495726,3.8786168 15.042735,3.8786168 C15.4358974,3.8786168 15.7435897,3.57374735 15.7435897,3.18419195 L15.7435897,2.81157375 L18.5299145,2.81157375 L18.5299145,4.60691602 L1.47008547,4.60691602 L1.47008547,2.81157375 L1.47008547,2.81157375 Z M1.47008547,5.9957657 L18.5128205,5.9957657 L18.5128205,16.9371912 L1.47008547,16.9371912 L1.47008547,5.9957657 L1.47008547,5.9957657 Z" id="Shape"></path>
                                <path d="M15.042735,9.17995766 L4.95726496,9.17995766 C4.56410256,9.17995766 4.25641026,9.4848271 4.25641026,9.8743825 C4.25641026,10.2639379 4.56410256,10.5688073 4.95726496,10.5688073 L15.042735,10.5688073 C15.4358974,10.5688073 15.7435897,10.2639379 15.7435897,9.8743825 C15.7435897,9.4848271 15.4358974,9.17995766 15.042735,9.17995766 L15.042735,9.17995766 Z" id="Shape"></path>
                                <path d="M10,12.5335215 L4.95726496,12.5335215 C4.56410256,12.5335215 4.25641026,12.838391 4.25641026,13.2279464 C4.25641026,13.6175018 4.56410256,13.9223712 4.95726496,13.9223712 L10,13.9223712 C10.3931624,13.9223712 10.7008547,13.6175018 10.7008547,13.2279464 C10.7008547,12.838391 10.3931624,12.5335215 10,12.5335215 L10,12.5335215 Z" id="Shape"></path>
                            </g>
                        </g>
                    </g>
                </g>
            </g>
        </g>
    </g>
</svg>