<?xml version="1.0" encoding="UTF-8" standalone="no"?>
<svg width="22px" height="25px" viewBox="0 0 22 25" version="1.1" xmlns="http://www.w3.org/2000/svg" xmlns:xlink="http://www.w3.org/1999/xlink">
    <!-- Generator: Sketch 41.2 (35397) - http://www.bohemiancoding.com/sketch -->
    <title>Icons-Master-SVG_guest-01</title>
    <desc>Created with Sketch.</desc>
    <defs></defs>
    <g id="Page-1" stroke="none" stroke-width="1" fill="none" fill-rule="evenodd">
        <g id="Event-Page-3" transform="translate(-651.000000, -510.000000)" stroke="#CE5100" stroke-width="0.7" fill="#CE5100">
            <g id="Group-7" transform="translate(0.000000, 410.000000)">
                <g id="Group-3" transform="translate(202.000000, 99.000000)">
                    <g id="Location" transform="translate(427.000000, 2.000000)">
                        <g id="Icons-Master-SVG_guest-01" transform="translate(23.000000, 0.000000)">
                            <path d="M14.6594203,12.326087 C13.8985507,11.3115942 12.7318841,10.4492754 11.1594203,10.0942029 C12.0724638,9.63768116 12.7318841,8.67391304 12.7318841,7.55797101 C12.7318841,7.10144928 12.6304348,6.64492754 12.4275362,6.28985507 C13.0869565,5.93478261 13.7971014,5.68115942 14.6086957,5.68115942 C16.9927536,5.68115942 18.9710145,7.60869565 19.1231884,9.94202899 C17.0942029,10.0434783 15.5724638,11.1086957 14.6594203,12.326087 M9.89130435,18.7173913 C8.77536232,17.1956522 6.89855072,15.8768116 4.41304348,15.7753623 C4.51449275,12.884058 6.94927536,10.5507246 9.89130435,10.6014493 C12.8333333,10.6014493 15.2173913,12.884058 15.3695652,15.7753623 C12.8333333,15.8768116 11.0072464,17.1956522 9.89130435,18.7173913 M10.5507246,21.9130435 C10.5507246,22.2173913 10.5,22.4202899 10.3985507,22.5724638 C10.2971014,22.7246377 10.1956522,22.7753623 9.99275362,22.7753623 L9.73913043,22.7753623 C9.53623188,22.7753623 9.43478261,22.7246377 9.33333333,22.5724638 C9.23188406,22.4202899 9.18115942,22.1666667 9.18115942,21.9130435 C9.18115942,21.3550725 9.38405797,20.5942029 9.84057971,19.7826087 C10.2971014,20.5434783 10.5507246,21.3550725 10.5507246,21.9130435 M0.507246377,9.94202899 C0.65942029,7.55797101 2.58695652,5.68115942 5.02173913,5.68115942 C5.88405797,5.68115942 6.64492754,5.93478261 7.35507246,6.34057971 C7.20289855,6.69565217 7.05072464,7.10144928 7.05072464,7.55797101 C7.05072464,8.67391304 7.65942029,9.63768116 8.62318841,10.0942029 C7.10144928,10.4492754 5.88405797,11.3115942 5.12318841,12.326087 C4.15942029,11.1086957 2.63768116,9.99275362 0.507246377,9.94202899 M2.73913043,2.84057971 C2.73913043,1.52173913 3.80434783,0.507246377 5.07246377,0.507246377 C6.34057971,0.507246377 7.4057971,1.52173913 7.4057971,2.84057971 C7.4057971,4.15942029 6.39130435,5.17391304 5.07246377,5.17391304 C3.75362319,5.17391304 2.73913043,4.15942029 2.73913043,2.84057971 M9.89130435,5.22463768 C11.1594203,5.22463768 12.173913,6.23913043 12.173913,7.55797101 C12.173913,8.87681159 11.2101449,9.89130435 9.89130435,9.89130435 C8.57246377,9.89130435 7.55797101,8.87681159 7.55797101,7.55797101 C7.55797101,6.23913043 8.62318841,5.22463768 9.89130435,5.22463768 M12.326087,2.84057971 C12.326087,1.52173913 13.3405797,0.507246377 14.6086957,0.507246377 C15.8768116,0.507246377 16.942029,1.52173913 16.942029,2.84057971 C16.942029,4.15942029 15.8768116,5.17391304 14.6086957,5.17391304 C13.3405797,5.17391304 12.326087,4.15942029 12.326087,2.84057971 M15.9275362,5.37681159 C16.8405797,4.92028986 17.5,3.95652174 17.5,2.84057971 C17.5,1.26811594 16.1811594,0 14.6086957,0 C13.0362319,0 11.7681159,1.26811594 11.7681159,2.84057971 C11.7681159,3.95652174 12.3768116,4.86956522 13.2898551,5.37681159 C12.884058,5.47826087 12.5289855,5.63043478 12.1231884,5.83333333 C11.615942,5.17391304 10.8043478,4.7173913 9.84057971,4.7173913 C8.87681159,4.7173913 8.06521739,5.17391304 7.55797101,5.88405797 C7.20289855,5.63043478 6.79710145,5.47826087 6.34057971,5.37681159 C7.25362319,4.92028986 7.86231884,3.95652174 7.86231884,2.84057971 C7.86231884,1.26811594 6.5942029,0 5.02173913,0 C3.44927536,0 2.23188406,1.26811594 2.23188406,2.84057971 C2.23188406,3.9057971 2.84057971,4.86956522 3.75362319,5.32608696 C1.62318841,5.88405797 0,7.8115942 0,10.1956522 C0,10.3478261 0.101449275,10.4492754 0.253623188,10.4492754 L0.304347826,10.4492754 L0.355072464,10.4492754 C2.43478261,10.4492754 3.9057971,11.5652174 4.76811594,12.7826087 C4.36231884,13.442029 4.10869565,14.0507246 4.05797101,14.6086957 C3.95652174,15.0652174 3.85507246,15.5724638 3.85507246,16.0797101 C3.85507246,16.2318841 3.95652174,16.3333333 4.10869565,16.3333333 C6.69565217,16.3333333 8.52173913,17.7536232 9.53623188,19.2246377 C8.92753623,20.1376812 8.62318841,21.1521739 8.62318841,21.8623188 C8.62318841,22.2681159 8.72463768,22.5724638 8.87681159,22.826087 C9.07971014,23.0797101 9.38405797,23.2318841 9.73913043,23.2318841 L9.99275362,23.2318841 C10.3478261,23.2318841 10.6521739,23.1304348 10.8550725,22.826087 C11.0072464,22.5724638 11.1086957,22.2681159 11.1086957,21.8623188 C11.1086957,21.1521739 10.8043478,20.1884058 10.1956522,19.2246377 C11.2608696,17.7536232 13.0362319,16.3333333 15.6231884,16.3333333 C15.7753623,16.3333333 15.8768116,16.2318841 15.8768116,16.0797101 C15.8768116,15.7246377 15.826087,15.3695652 15.7753623,15.0144928 C15.7753623,14.4057971 15.5217391,13.5942029 15.0144928,12.7826087 C15.8768116,11.5652174 17.3478261,10.4492754 19.4275362,10.4492754 C19.5797101,10.4492754 19.6811594,10.3478261 19.6811594,10.1956522 C19.6811594,7.91304348 18.057971,5.93478261 15.9275362,5.37681159" id="Fill-1"></path>
                        </g>
                    </g>
                </g>
            </g>
        </g>
    </g>
</svg>