<?xml version="1.0" encoding="UTF-8" standalone="no"?>
<svg width="20px" height="20px" viewBox="0 0 20 20" version="1.1" xmlns="http://www.w3.org/2000/svg" xmlns:xlink="http://www.w3.org/1999/xlink">
    <!-- Generator: Sketch 41.2 (35397) - http://www.bohemiancoding.com/sketch -->
    <title>arrow</title>
    <desc>Created with Sketch.</desc>
    <defs></defs>
    <g id="Page-1" stroke="none" stroke-width="1" fill="none" fill-rule="evenodd">
        <g id="Event-Page-3" transform="translate(-375.000000, -510.000000)" fill="#CE5100">
            <g id="Group-7" transform="translate(0.000000, 410.000000)">
                <g id="Group-3" transform="translate(202.000000, 99.000000)">
                    <g id="Group-15" transform="translate(124.000000, 1.000000)">
                        <g id="arrow" transform="translate(49.000000, 0.000000)">
                            <g id="Group">
                                <path d="M10,0 C4.4859375,0 0,4.4859375 0,10 C0,15.5140625 4.4859375,20 10,20 C15.5140625,20 20,15.5140625 20,10 C20,4.4859375 15.5140625,0 10,0 Z M10,18.75 C5.1753125,18.75 1.25,14.8246875 1.25,10 C1.25,5.1753125 5.1753125,1.25 10,1.25 C14.8246875,1.25 18.75,5.1753125 18.75,10 C18.75,14.8246875 14.8246875,18.75 10,18.75 Z" id="Shape"></path>
                                <path d="M13.6371875,7.67875 L10.136875,9.2528125 L5.98375,5.099375 C5.7396875,4.8553125 5.3440625,4.8553125 5.1,5.099375 C4.8559375,5.3434375 4.8559375,5.7390625 5.1,5.983125 L9.558125,10.441875 C9.5671875,10.4509375 9.579375,10.4540625 9.58875,10.4625 C9.6334375,10.5015625 9.6815625,10.5334375 9.7340625,10.5584375 C9.753125,10.5675 9.770625,10.5775 9.7909375,10.5840625 C9.8571875,10.6084375 9.926875,10.625 9.99875,10.625 L10,10.625 L10,10.625 C10.00125,10.625 10.0025,10.624375 10.00375,10.624375 C10.08625,10.62375 10.1678125,10.6053125 10.2453125,10.5725 C10.2490625,10.570625 10.2525,10.571875 10.25625,10.57 L14.1496875,8.81875 C14.4646875,8.6771875 14.605,8.3071875 14.4634375,7.9921875 C14.32125,7.678125 13.9525,7.5378125 13.6371875,7.67875 L13.6371875,7.67875 Z" id="Shape"></path>
                            </g>
                        </g>
                    </g>
                </g>
            </g>
        </g>
    </g>
</svg>