<?xml version="1.0" encoding="utf-8"?>
<!-- Generator: Adobe Illustrator 19.1.0, SVG Export Plug-In . SVG Version: 6.00 Build 0)  -->
<svg version="1.1" id="Ebene_1" xmlns="http://www.w3.org/2000/svg" xmlns:xlink="http://www.w3.org/1999/xlink" x="0px" y="0px"
	 viewBox="-880.2 516 42.4 45.8" style="enable-background:new -880.2 516 42.4 45.8;" xml:space="preserve">
<style type="text/css">
	.st0{fill:#CE5100;}
</style>
<path class="st0" d="M-858.8,529.2c-0.3,0-0.5-0.2-0.5-0.5c0-2.4,1.1-4.6,3.2-6c-1.8-1.3-3.3-3.4-3.3-6.2c0-0.3,0.2-0.5,0.5-0.5
	s0.5,0.2,0.5,0.5c0,2.7,1.6,4.6,3.3,5.6c1.4-0.7,2.8-0.9,3.6-0.5c0.4,0.2,0.6,0.6,0.6,1.1c0,0.4-0.2,0.8-0.5,1
	c-0.7,0.5-2.2,0.3-3.8-0.5c-1,0.6-3.2,2.3-3.1,5.4C-858.3,529-858.5,529.2-858.8,529.2C-858.8,529.2-858.8,529.2-858.8,529.2z
	 M-854,522.7c0.9,0.4,1.8,0.5,2,0.3c0,0,0.1-0.1,0.1-0.2c0-0.1-0.1-0.2-0.1-0.3C-852.4,522.4-853.1,522.4-854,522.7z"/>
<path class="st0" d="M-838.3,561.8h-41.4c-0.3,0-0.5-0.2-0.5-0.5v-32c0-0.3,0.2-0.5,0.5-0.5h41.4c0.3,0,0.5,0.2,0.5,0.5v32
	C-837.8,561.6-838,561.8-838.3,561.8z M-879.2,560.8h40.4v-31h-40.4V560.8z"/>
<path class="st0" d="M-838.3,545.8h-41.4c-0.3,0-0.5-0.2-0.5-0.5s0.2-0.5,0.5-0.5h41.4c0.3,0,0.5,0.2,0.5,0.5
	S-838,545.8-838.3,545.8z"/>
<path class="st0" d="M-859,561.8c-0.3,0-0.5-0.2-0.5-0.5v-32c0-0.3,0.2-0.5,0.5-0.5s0.5,0.2,0.5,0.5v32
	C-858.5,561.6-858.7,561.8-859,561.8z"/>
</svg>
