<?xml version="1.0" encoding="UTF-8" standalone="no"?>
<svg width="14px" height="14px" viewBox="0 0 14 14" version="1.1" xmlns="http://www.w3.org/2000/svg" xmlns:xlink="http://www.w3.org/1999/xlink">
    <!-- Generator: Sketch 41.2 (35397) - http://www.bohemiancoding.com/sketch -->
    <title>briefcase</title>
    <desc>Created with Sketch.</desc>
    <defs></defs>
    <g id="Page-1" stroke="none" stroke-width="1" fill="none" fill-rule="evenodd">
        <g id="Profile-Page" transform="translate(-150.000000, -497.000000)" fill="#7F7F7F">
            <g id="Group-3" transform="translate(130.000000, 90.000000)">
                <g id="briefcase" transform="translate(20.000000, 407.000000)">
                    <path d="M9.77142857,2.20285714 L9.77142857,1.13142857 C9.77142857,0.505714286 9.26571429,0 8.64,0 L5.42,0 C4.79428571,0 4.28857143,0.505714286 4.28857143,1.13142857 L4.28857143,2.20285714 L0,2.20285714 L0,6.16571429 C0,6.16571429 0.34,6.24857143 0.505714286,6.28571429 L0.505714286,14 L13.5514286,14 L13.5514286,6.26857143 C13.68,6.24 13.9971429,6.16571429 13.9971429,6.16571429 L13.9971429,2.20285714 L9.77142857,2.20285714 L9.77142857,2.20285714 Z M4.85428571,1.13142857 C4.85428571,0.802857143 5.12285714,0.565714286 5.42,0.565714286 L8.63714286,0.565714286 C8.96571429,0.565714286 9.20285714,0.834285714 9.20285714,1.13142857 L9.20285714,2.20285714 L4.85428571,2.20285714 L4.85428571,1.13142857 L4.85428571,1.13142857 Z M0.625714286,2.8 L4.28857143,2.8 L9.77142857,2.8 L13.3742857,2.8 L13.3742857,5.72 C12.6828571,5.88571429 10.52,6.33714286 8.63714286,6.54285714 L8.63714286,5.78 L5.45142857,5.78 L5.45142857,6.55428571 C3.46571429,6.33142857 1.30857143,5.86285714 0.625714286,5.72 L0.625714286,2.8 L0.625714286,2.8 Z M8.01142857,6.34571429 L8.01142857,8.25142857 L6.01428571,8.25142857 L6.01428571,6.34571429 L8.01142857,6.34571429 L8.01142857,6.34571429 Z M12.9885714,13.4028571 L1.07428571,13.4028571 L1.07428571,6.41142857 C2.08,6.63142857 3.83714286,6.98 5.45428571,7.13142857 L5.45428571,8.84571429 L8.61142857,8.84571429 L8.64,8.84571429 L8.64,7.10857143 C10.2142857,6.92857143 11.9971429,6.58571429 12.9885714,6.38285714 L12.9885714,13.4028571 L12.9885714,13.4028571 Z" id="Shape"></path>
                </g>
            </g>
        </g>
    </g>
</svg>