<?xml version="1.0" encoding="UTF-8" standalone="no"?>
<svg width="16px" height="11px" viewBox="0 0 16 11" version="1.1" xmlns="http://www.w3.org/2000/svg" xmlns:xlink="http://www.w3.org/1999/xlink">
    <!-- Generator: Sketch 41.2 (35397) - http://www.bohemiancoding.com/sketch -->
    <title>menu</title>
    <desc>Created with Sketch.</desc>
    <defs></defs>
    <g id="Page-1" stroke="none" stroke-width="1" fill="none" fill-rule="evenodd">
        <g id="Mobile-Portrait" transform="translate(-284.000000, -20.000000)" fill="#CE5100">
            <g id="NAVBAR">
                <g id="menu" transform="translate(284.000000, 20.000000)">
                    <g id="Capa_1">
                        <g id="Group">
                            <path d="M0.603773585,1.35849057 L15.3962264,1.35849057 C15.7295094,1.35849057 16,1.088 16,0.754716981 C16,0.421433962 15.7295094,0.150943396 15.3962264,0.150943396 L0.603773585,0.150943396 C0.270490566,0.150943396 0,0.421433962 0,0.754716981 C0,1.088 0.270490566,1.35849057 0.603773585,1.35849057 Z" id="Shape"></path>
                            <path d="M0.603773585,5.88679245 L15.3962264,5.88679245 C15.7295094,5.88679245 16,5.61630189 16,5.28301887 C16,4.94973585 15.7295094,4.67924528 15.3962264,4.67924528 L0.603773585,4.67924528 C0.270490566,4.67924528 0,4.94973585 0,5.28301887 C0,5.61630189 0.270490566,5.88679245 0.603773585,5.88679245 Z" id="Shape"></path>
                            <path d="M0.603773585,10.4150943 L15.3962264,10.4150943 C15.7295094,10.4150943 16,10.1446038 16,9.81132075 C16,9.47803774 15.7295094,9.20754717 15.3962264,9.20754717 L0.603773585,9.20754717 C0.270490566,9.20754717 0,9.47803774 0,9.81132075 C0,10.1446038 0.270490566,10.4150943 0.603773585,10.4150943 Z" id="Shape"></path>
                        </g>
                    </g>
                </g>
            </g>
        </g>
    </g>
</svg>