<?xml version="1.0" encoding="UTF-8" standalone="no"?>
<svg width="49px" height="49px" viewBox="0 0 49 49" version="1.1" xmlns="http://www.w3.org/2000/svg" xmlns:xlink="http://www.w3.org/1999/xlink">
    <!-- Generator: Sketch 42 (36781) - http://www.bohemiancoding.com/sketch -->
    <title>business (2)</title>
    <desc>Created with Sketch.</desc>
    <defs></defs>
    <g id="Page-1" stroke="none" stroke-width="1" fill="none" fill-rule="evenodd">
        <g id="Admin-Interface-Frontpage" transform="translate(-744.000000, -203.000000)" fill-rule="nonzero" fill="#CE5100">
            <g id="Payments-Overview" transform="translate(50.000000, 130.000000)">
                <g id="Group-4" transform="translate(694.000000, 73.000000)">
                    <g id="business-(2)">
                        <g id="Capa_1">
                            <g id="Statics">
                                <path d="M48.2333333,2.3530303 C48.6969697,1.65454545 48.5045455,0.716666667 47.8060606,0.253030303 C47.1060606,-0.209090909 46.169697,-0.0181818182 45.7060606,0.681818182 L40.1015152,9.16515152 C39.8681818,9.12727273 39.6363636,9.09242424 39.3939394,9.09242424 C36.8909091,9.09242424 34.8484848,11.1333333 34.8484848,13.6378788 C34.8484848,14.119697 34.9439394,14.5757576 35.0833333,15.0121212 L29.6712121,21.9136364 C28.9727273,21.4772727 28.1560606,21.2136364 27.2742424,21.2136364 C24.830303,21.2136364 22.8439394,23.1575758 22.7469697,25.5772727 L14.1848485,30.5636364 C13.3515152,29.4939394 12.0651515,28.7893939 10.6060606,28.7893939 C8.1,28.7893939 6.06060606,30.830303 6.06060606,33.3348485 C6.06060606,34.319697 6.38484848,35.2287879 6.91818182,35.9742424 L0.248484848,46.1393939 C-0.210606061,46.8409091 -0.0166666667,47.7787879 0.683333333,48.2378788 C0.939393939,48.4060606 1.22878788,48.4863636 1.51363636,48.4863636 C2.00757576,48.4863636 2.49242424,48.2469697 2.78181818,47.8030303 L9.41060606,37.7030303 C9.79393939,37.8060606 10.1924242,37.880303 10.6060606,37.880303 C13.05,37.880303 15.0363636,35.9393939 15.1333333,33.5151515 L23.6954545,28.5318182 C24.5272727,29.6030303 25.8136364,30.3045455 27.2727273,30.3045455 C29.7787879,30.3045455 31.8181818,28.2651515 31.8181818,25.7590909 C31.8181818,25.2787879 31.7242424,24.8212121 31.5863636,24.3863636 L36.9954545,17.4863636 C37.6939394,17.9212121 38.5106061,18.1848485 39.3924242,18.1848485 C41.8969697,18.1848485 43.9378788,16.1454545 43.9378788,13.6393939 C43.9378788,12.4772727 43.4863636,11.4287879 42.769697,10.6242424 L48.2333333,2.3530303 Z M10.6060606,34.85 C9.76969697,34.85 9.09090909,34.1727273 9.09090909,33.3348485 C9.09090909,32.5 9.76969697,31.819697 10.6060606,31.819697 C11.4424242,31.819697 12.1212121,32.5 12.1212121,33.3348485 C12.1212121,34.1727273 11.4424242,34.85 10.6060606,34.85 Z M27.2727273,27.2742424 C26.4363636,27.2742424 25.7575758,26.5969697 25.7575758,25.7590909 C25.7575758,24.9242424 26.4363636,24.2439394 27.2727273,24.2439394 C28.1090909,24.2439394 28.7878788,24.9242424 28.7878788,25.7590909 C28.7878788,26.5969697 28.1090909,27.2742424 27.2727273,27.2742424 Z M39.3939394,15.1530303 C38.5575758,15.1530303 37.8787879,14.4742424 37.8787879,13.6378788 C37.8787879,12.8030303 38.5575758,12.1227273 39.3939394,12.1227273 C40.230303,12.1227273 40.9090909,12.8030303 40.9090909,13.6378788 C40.9090909,14.4742424 40.2287879,15.1530303 39.3939394,15.1530303 Z M9.09090909,45.4560606 C8.2530303,45.4560606 7.57575758,46.1363636 7.57575758,46.9712121 C7.57575758,47.8090909 8.2530303,48.4863636 9.09090909,48.4863636 C9.92878788,48.4863636 10.6060606,47.8090909 10.6060606,46.9712121 C10.6060606,46.1363636 9.93030303,45.4560606 9.09090909,45.4560606 Z M16.6666667,45.4560606 C15.8287879,45.4560606 15.1515152,46.1363636 15.1515152,46.9712121 C15.1515152,47.8090909 15.8287879,48.4863636 16.6666667,48.4863636 C17.5045455,48.4863636 18.1818182,47.8090909 18.1818182,46.9712121 C18.1818182,46.1363636 17.5060606,45.4560606 16.6666667,45.4560606 Z M24.2424242,45.4560606 C23.4045455,45.4560606 22.7272727,46.1363636 22.7272727,46.9712121 C22.7272727,47.8090909 23.4045455,48.4863636 24.2424242,48.4863636 C25.080303,48.4863636 25.7575758,47.8090909 25.7575758,46.9712121 C25.7575758,46.1363636 25.0818182,45.4560606 24.2424242,45.4560606 Z M31.8181818,45.4560606 C30.980303,45.4560606 30.3030303,46.1363636 30.3030303,46.9712121 C30.3030303,47.8090909 30.980303,48.4863636 31.8181818,48.4863636 C32.6575758,48.4863636 33.3333333,47.8090909 33.3333333,46.9712121 C33.3333333,46.1363636 32.6575758,45.4560606 31.8181818,45.4560606 Z M39.3939394,45.4560606 C38.5560606,45.4560606 37.8787879,46.1363636 37.8787879,46.9712121 C37.8787879,47.8090909 38.5560606,48.4863636 39.3939394,48.4863636 C40.2333333,48.4863636 40.9090909,47.8090909 40.9090909,46.9712121 C40.9090909,46.1363636 40.2333333,45.4560606 39.3939394,45.4560606 Z M46.969697,45.4560606 C46.1318182,45.4560606 45.4545455,46.1363636 45.4545455,46.9712121 C45.4545455,47.8090909 46.1318182,48.4863636 46.969697,48.4863636 C47.8090909,48.4863636 48.4848485,47.8090909 48.4848485,46.9712121 C48.4848485,46.1363636 47.8090909,45.4560606 46.969697,45.4560606 Z M1.51515152,40.9106061 C2.3530303,40.9106061 3.03030303,40.2333333 3.03030303,39.3954545 C3.03030303,38.5606061 2.3530303,37.880303 1.51515152,37.880303 C0.677272727,37.880303 0,38.5606061 0,39.3954545 C0,40.2333333 0.677272727,40.9106061 1.51515152,40.9106061 Z M1.51515152,33.3348485 C2.3530303,33.3348485 3.03030303,32.6575758 3.03030303,31.819697 C3.03030303,30.9848485 2.3530303,30.3045455 1.51515152,30.3045455 C0.677272727,30.3045455 0,30.9848485 0,31.819697 C0,32.6575758 0.677272727,33.3348485 1.51515152,33.3348485 Z M1.51515152,25.7590909 C2.3530303,25.7590909 3.03030303,25.0818182 3.03030303,24.2439394 C3.03030303,23.4090909 2.3530303,22.7287879 1.51515152,22.7287879 C0.677272727,22.7287879 0,23.4075758 0,24.2439394 C0,25.0818182 0.677272727,25.7590909 1.51515152,25.7590909 Z M1.51515152,18.1833333 C2.3530303,18.1833333 3.03030303,17.5075758 3.03030303,16.6681818 C3.03030303,15.8318182 2.3530303,15.1530303 1.51515152,15.1530303 C0.677272727,15.1530303 0,15.8318182 0,16.6681818 C0,17.5090909 0.677272727,18.1833333 1.51515152,18.1833333 Z M1.51515152,10.6075758 C2.3530303,10.6075758 3.03030303,9.93181818 3.03030303,9.09242424 C3.03030303,8.25606061 2.3530303,7.57727273 1.51515152,7.57727273 C0.677272727,7.57727273 0,8.25606061 0,9.09242424 C0,9.93333333 0.677272727,10.6075758 1.51515152,10.6075758 Z M1.51515152,3.03181818 C2.3530303,3.03181818 3.03030303,2.35606061 3.03030303,1.51666667 C3.03030303,0.68030303 2.3530303,0.00151515152 1.51515152,0.00151515152 C0.677272727,0.00151515152 0,0.68030303 0,1.51666667 C0,2.35757576 0.677272727,3.03181818 1.51515152,3.03181818 Z" id="Shape"></path>
                            </g>
                        </g>
                    </g>
                </g>
            </g>
        </g>
    </g>
</svg>