<?xml version="1.0" encoding="UTF-8" standalone="no"?>
<svg width="50px" height="44px" viewBox="0 0 50 44" version="1.1" xmlns="http://www.w3.org/2000/svg" xmlns:xlink="http://www.w3.org/1999/xlink">
    <!-- Generator: Sketch 42 (36781) - http://www.bohemiancoding.com/sketch -->
    <title>cash</title>
    <desc>Created with Sketch.</desc>
    <defs></defs>
    <g id="Page-1" stroke="none" stroke-width="1" fill="none" fill-rule="evenodd">
        <g id="Admin-Interface-Frontpage" transform="translate(-80.000000, -207.000000)" fill-rule="nonzero" fill="#CE5100">
            <g id="Payments-Overview" transform="translate(50.000000, 130.000000)">
                <g id="Group-3" transform="translate(30.000000, 72.000000)">
                    <g id="cash" transform="translate(0.000000, 5.000000)">
                        <g id="Capa_1">
                            <g id="Group">
                                <path d="M18.6842324,29.0190871 L26.8273859,31.4830871 C26.8170124,31.5348518 26.7962656,31.5969694 26.7755187,31.6487341 C26.5576763,32.2388518 26.1116183,32.5701459 25.3854772,32.6840282 C22.7091286,33.1084988 18.2692946,32.8393224 18.2278008,32.8393224 C17.5431535,32.7979106 16.9518672,33.3155576 16.9103734,33.9988518 C16.8688797,34.6821459 17.3875519,35.2722635 18.0721992,35.3136753 C18.2692946,35.3240282 22.8232365,35.6035576 25.779668,35.1273224 C28.7153527,34.66144 29.5556017,32.0835576 29.4,30.4581459 C29.3481328,29.9508518 29.0058091,29.5263812 28.5182573,29.38144 L19.4,26.6275576 C14.8979253,25.2713224 9.96016598,27.7767341 9.7526971,27.8802635 C9.73195021,27.8906165 9.70082988,27.9009694 9.68008299,27.9216753 L0.603319502,33.3983812 C0.012033195,33.7503812 -0.174688797,34.5164988 0.178008299,35.1066165 C0.41659751,35.4896753 0.821161826,35.7070871 1.24647303,35.7070871 C1.46431535,35.7070871 1.68215768,35.6449694 1.88962656,35.5310871 L10.9248963,30.0957929 C11.3190871,29.8887341 15.2921162,27.9941459 18.6842324,29.0190871 Z" id="Shape"></path>
                                <path d="M49.7630705,26.9381459 C49.0473029,25.6336753 46.8170124,23.5527341 43.4352697,25.0435576 C40.240249,26.4619106 33.4871369,29.7023812 33.4145228,29.73344 C32.7921162,30.0336753 32.5327801,30.7687341 32.83361,31.3899106 C33.1344398,32.0110871 33.8813278,32.2699106 34.493361,31.9696753 C34.5659751,31.9386165 41.2775934,28.7084988 44.4414938,27.3108518 C45.3439834,26.9070871 46.1012448,26.9070871 46.7547718,27.3108518 C46.7755187,27.3212047 46.7858921,27.3315576 46.806639,27.3419106 L29.8875519,39.7136753 C28.6842324,40.5936753 27.1593361,40.9560282 25.6966805,40.7282635 L10.6033195,38.3263812 C10.2506224,38.2746165 9.88755187,38.3677929 9.60746888,38.5955576 L5.79004149,41.7739106 C5.26099585,42.2087341 5.18838174,42.9955576 5.63443983,43.5235576 C5.88340249,43.81344 6.23609959,43.9687341 6.58879668,43.9687341 C6.86887967,43.9687341 7.14896266,43.8755576 7.38755187,43.6788518 L10.7692946,40.8628518 L25.3128631,43.1819106 C27.4290456,43.5235576 29.6385892,42.9852047 31.3709544,41.7221459 L49.4207469,28.5324988 C49.9082988,28.1597929 50.0639004,27.4868518 49.7630705,26.9381459 Z" id="Shape"></path>
                                <path d="M26.7029046,25.50944 C28.6427386,25.50944 30.4580913,24.7536753 31.8377593,23.3870871 C34.6697095,20.5607341 34.6697095,15.9743812 31.8377593,13.1480282 C30.4684647,11.78144 28.6427386,11.0256753 26.7029046,11.0256753 C24.7630705,11.0256753 22.9477178,11.78144 21.5680498,13.1480282 C18.7360996,15.9743812 18.7360996,20.5607341 21.5680498,23.3870871 C22.9477178,24.7536753 24.7630705,25.50944 26.7029046,25.50944 Z M23.3315353,14.9080282 C24.2340249,14.0073224 25.426971,13.5103812 26.7029046,13.5103812 C27.9788382,13.5103812 29.1717842,14.0073224 30.0742739,14.9080282 C31.9311203,16.7612047 31.9311203,19.7842635 30.0742739,21.63744 C29.1717842,22.5381459 27.9788382,23.0350871 26.7029046,23.0350871 C25.426971,23.0350871 24.2340249,22.5381459 23.3315353,21.63744 C21.4746888,19.7842635 21.4746888,16.7612047 23.3315353,14.9080282 Z" id="Shape"></path>
                                <path d="M35.2195021,11.3569694 C36.7340249,11.3569694 38.1551867,10.7668518 39.2236515,9.70049882 C41.433195,7.49532235 41.433195,3.91320471 39.2236515,1.70802824 C38.1551867,0.641675294 36.7340249,0.0515576471 35.2195021,0.0515576471 C33.7049793,0.0515576471 32.2838174,0.641675294 31.2153527,1.70802824 C29.0058091,3.91320471 29.0058091,7.49532235 31.2153527,9.70049882 C32.2838174,10.7772047 33.7153527,11.3569694 35.2195021,11.3569694 Z M32.9788382,3.46802824 C33.5804979,2.86755765 34.3792531,2.53626353 35.2298755,2.53626353 C36.0804979,2.53626353 36.8792531,2.86755765 37.4809129,3.46802824 C38.7153527,4.70002824 38.7153527,6.71885176 37.4809129,7.95085176 C36.8792531,8.55132235 36.0804979,8.88261647 35.2298755,8.88261647 C34.3792531,8.88261647 33.5804979,8.55132235 32.9788382,7.95085176 C31.7443983,6.70849882 31.7443983,4.70002824 32.9788382,3.46802824 Z" id="Shape"></path>
                            </g>
                        </g>
                    </g>
                </g>
            </g>
        </g>
    </g>
</svg>