<?xml version="1.0" encoding="UTF-8"?>
<svg width="22px" height="22px" viewBox="0 0 22 22" version="1.1" xmlns="http://www.w3.org/2000/svg" xmlns:xlink="http://www.w3.org/1999/xlink">
    <!-- Generator: Sketch 41 (35326) - http://www.bohemiancoding.com/sketch -->
    <title>Check</title>
    <desc>Created with Sketch.</desc>
    <defs>
        <filter x="-50%" y="-50%" width="200%" height="200%" filterUnits="objectBoundingBox" id="filter-1">
            <feOffset dx="0" dy="2" in="SourceAlpha" result="shadowOffsetOuter1"></feOffset>
            <feGaussianBlur stdDeviation="2" in="shadowOffsetOuter1" result="shadowBlurOuter1"></feGaussianBlur>
            <feColorMatrix values="0 0 0 0 0   0 0 0 0 0   0 0 0 0 0  0 0 0 0.1 0" type="matrix" in="shadowBlurOuter1" result="shadowMatrixOuter1"></feColorMatrix>
            <feMerge>
                <feMergeNode in="shadowMatrixOuter1"></feMergeNode>
                <feMergeNode in="SourceGraphic"></feMergeNode>
            </feMerge>
        </filter>
        <polygon id="path-2" points="16 0 16 16 0 16 0 0"></polygon>
    </defs>
    <g id="Page-1" stroke="none" stroke-width="1" fill="none" fill-rule="evenodd">
        <g id="Admin-Interface-Event" transform="translate(-192.000000, -627.000000)">
            <g id="Table" filter="url(#filter-1)" transform="translate(50.000000, 539.000000)">
                <g id="Row" transform="translate(0.000000, 89.000000)">
                    <g id="Check" transform="translate(145.000000, 0.000000)">
                        <g id="Icon-24px">
                            <mask id="mask-3" fill="white">
                                <use xlink:href="#path-2"></use>
                            </mask>
                            <g id="a"></g>
                            <path d="M8,1.33333333 C4.32,1.33333333 1.33333333,4.32 1.33333333,8 C1.33333333,11.68 4.32,14.6666667 8,14.6666667 C11.68,14.6666667 14.6666667,11.68 14.6666667,8 C14.6666667,4.32 11.68,1.33333333 8,1.33333333 L8,1.33333333 Z" id="Shape" fill="#00C329" mask="url(#mask-3)"></path>
                            <polygon id="Shape" fill="#FFFFFF" mask="url(#mask-3)" points="6.60606061 10.0613636 4.60151515 8.05681818 3.93333333 8.725 6.60606061 11.3977273 12.3333333 5.67045455 11.6651515 5.00227273"></polygon>
                        </g>
                    </g>
                </g>
            </g>
        </g>
    </g>
</svg>