<svg id="Ebene_1" data-name="Ebene 1" xmlns="http://www.w3.org/2000/svg" width="68.84" height="78.05" viewBox="0 0 68.84 78.05"><defs><style>.cls-1{fill:#fff;}</style></defs><title>chef-one</title><path class="cls-1" d="M1265.8,530.28V508.21a6,6,0,0,0-6-6h-0.07V542.8a14.85,14.85,0,0,0,4.41,11.16,15.51,15.51,0,0,0,11.33,4.41,15.08,15.08,0,0,0,11.63-5.32l4.11-4.83s-4.47-1.34-7.42,1.45a14.19,14.19,0,0,1-4,2.83,10.69,10.69,0,0,1-4.54.89,10,10,0,0,1-7.33-3.09,10.45,10.45,0,0,1-3.09-7.7A10,10,0,0,1,1268,535a10.74,10.74,0,0,1,7.7-3,11.45,11.45,0,0,1,4.52.82,13.83,13.83,0,0,1,4.09,2.9,6,6,0,0,0,6.94.91l-3.69-4.45a15.22,15.22,0,0,0-11.75-5.19l-0.42,0a15.8,15.8,0,0,0-9.58,3.24" transform="translate(-1240.13 -502.25)"/><path class="cls-1" d="M1287.39,539a6.27,6.27,0,0,0,2.21-.42l-0.36-.43c-0.22,0-.44,0-0.65,0a6,6,0,0,1-4.27-1.78,13.4,13.4,0,0,0-3.94-2.8,11,11,0,0,0-4.33-.78,10.5,10.5,0,0,0-6.11,1.8,13,13,0,0,1,9.61-.12,14.36,14.36,0,0,1,4.24,3,5,5,0,0,0,3.59,1.5" transform="translate(-1240.13 -502.25)"/><path class="cls-1" d="M1274.84,534.11a10.73,10.73,0,0,0-5.27,1.29,12.51,12.51,0,0,1,3.46-.47,12,12,0,0,1,4.71.86,14.36,14.36,0,0,1,4.24,3,5,5,0,0,0,3.59,1.5,7,7,0,0,0,2.21-.22s-0.55-.36-0.57-0.36a5.63,5.63,0,0,1-4.11-1.82,13.93,13.93,0,0,0-3.94-2.9,11,11,0,0,0-4.33-.88" transform="translate(-1240.13 -502.25)"/><path class="cls-1" d="M1244.94,578.78a3.26,3.26,0,0,0,1.39-.27,4.79,4.79,0,0,0,1.22-.87l1,1a4.62,4.62,0,0,1-3.56,1.63,4.77,4.77,0,0,1-3.47-1.35,4.9,4.9,0,0,1,0-6.84,4.88,4.88,0,0,1,3.55-1.37,4.65,4.65,0,0,1,3.59,1.59l-1,1.08a4.34,4.34,0,0,0-1.25-.88,3.49,3.49,0,0,0-1.38-.25,3.28,3.28,0,0,0-2.35.91,3.05,3.05,0,0,0-1,2.31,3.19,3.19,0,0,0,.94,2.35A3.06,3.06,0,0,0,1244.94,578.78Z" transform="translate(-1240.13 -502.25)"/><path class="cls-1" d="M1250.44,580.2V571H1252v4h4.58v-4h1.56v9.23h-1.56v-3.78H1252v3.78h-1.56Z" transform="translate(-1240.13 -502.25)"/><path class="cls-1" d="M1267.19,571v1.47h-4.93v2.44h4.43v1.39h-4.43v2.47h5.09v1.47h-6.64V571h6.49Z" transform="translate(-1240.13 -502.25)"/><path class="cls-1" d="M1271,572.42V575h4.09v1.44H1271v3.8h-1.56V571h6.16v1.45H1271Z" transform="translate(-1240.13 -502.25)"/><path class="cls-1" d="M1276.6,580a1,1,0,0,1-.28-0.7,1,1,0,0,1,1-1,1,1,0,0,1,.7.28,0.93,0.93,0,0,1,.29.69,1,1,0,0,1-1,1A0.93,0.93,0,0,1,1276.6,580Z" transform="translate(-1240.13 -502.25)"/><path class="cls-1" d="M1287.91,578.92a5.06,5.06,0,0,1-6.92,0,4.85,4.85,0,0,1,0-6.82,5.06,5.06,0,0,1,6.92,0A4.85,4.85,0,0,1,1287.91,578.92Zm-1.14-5.78a3.24,3.24,0,0,0-4.64,0,3.45,3.45,0,0,0,0,4.74,3.24,3.24,0,0,0,4.64,0A3.45,3.45,0,0,0,1286.76,573.14Z" transform="translate(-1240.13 -502.25)"/><path class="cls-1" d="M1298.2,571h1.56v9.23h-1.69l-5.23-6.74v6.74h-1.56V571h1.56l5.36,6.9V571Z" transform="translate(-1240.13 -502.25)"/><path class="cls-1" d="M1308.8,571v1.47h-4.93v2.44h4.42v1.39h-4.42v2.47H1309v1.47h-6.64V571h6.49Z" transform="translate(-1240.13 -502.25)"/></svg>