<?xml version="1.0" encoding="UTF-8" standalone="no"?>
<svg width="110px" height="102px" viewBox="0 0 110 102" version="1.1" xmlns="http://www.w3.org/2000/svg" xmlns:xlink="http://www.w3.org/1999/xlink">
    <!-- Generator: Sketch 42 (36781) - http://www.bohemiancoding.com/sketch -->
    <title>Icons-Master-SVG_CHEF</title>
    <desc>Created with Sketch.</desc>
    <defs></defs>
    <g id="Page-1" stroke="none" stroke-width="1" fill="none" fill-rule="evenodd">
        <g id="Frontpage-Host" transform="translate(-250.000000, -621.000000)" fill-rule="nonzero" fill="#CE5100">
            <g id="Group" transform="translate(130.000000, 610.000000)">
                <g id="1" transform="translate(0.000000, 11.000000)">
                    <g id="Icons-Master-SVG_CHEF" transform="translate(120.000000, 0.000000)">
                        <g id="Ebene_1">
                            <path d="M83.3542445,101.829997 C77.1086815,101.829997 69.9022627,100.869141 62.4556299,98.2267878 C46.1210805,91.9812248 29.5463172,95.1040063 18.496475,97.025718 C12.7313399,97.9865738 8.88791656,98.7072157 6.72599091,97.9865738 C3.60320942,97.025718 4.80427922,92.9420807 6.72599091,86.4563037 C9.84877241,75.4064615 15.3736935,57.1502004 4.56406526,40.3352232 C-0.720641883,31.9277345 -1.44128377,22.3191761 2.88256753,14.3921154 C6.72599091,7.42591048 13.6921958,3.34227314 21.6192565,3.34227314 C27.3843916,3.34227314 32.1886708,5.98462672 36.2723081,9.8280501 C36.5125221,9.58783613 36.7527361,9.10740821 36.99295,8.86719425 C39.8755176,5.26398483 45.4004387,0.699919571 54.5285692,0.699919571 C63.8969137,0.699919571 69.4218348,5.26398483 72.5446163,9.10740821 C72.7848302,9.34762217 73.0250442,9.8280501 73.2652582,10.0682641 C77.3488955,6.22484068 82.6336026,3.58248711 88.3987377,3.58248711 C96.3257984,3.58248711 103.532217,7.66612444 107.135427,14.3921154 C111.459278,22.3191761 110.738636,31.9277345 105.453929,40.3352232 C94.8845147,56.6697725 99.9290078,73.7249638 103.292003,85.0150199 C105.213715,91.7410108 106.654999,96.3050761 103.772431,97.9865738 C102.331147,99.1876436 94.1638728,101.829997 83.3542445,101.829997 Z M41.0765874,91.9812248 C48.2830062,91.9812248 55.729639,92.9420807 63.4164857,95.8246482 C81.9129608,102.550639 100.409436,97.5061459 102.571361,96.0648621 C104.012645,95.3442203 102.571361,90.780155 101.130078,85.7356618 C97.7670822,73.9651777 92.482375,56.4295586 103.532217,39.1341534 C108.336496,31.4473066 109.057138,22.55939 105.213715,15.5931852 C101.85072,9.34762217 95.8453705,5.98462672 88.6389517,5.98462672 C83.3542445,5.98462672 78.5499653,8.62698029 74.7065419,12.2301897 C76.8684676,16.0736131 78.0695374,20.8778923 78.0695374,25.2017436 C78.0695374,32.1679485 74.9467559,36.9722277 70.1424767,36.9722277 C65.8186254,36.9722277 63.4164857,34.3298741 63.4164857,29.5255949 C63.4164857,24.4811017 66.5392672,17.2746829 71.5837604,11.7497618 C71.3435465,11.2693339 70.8631185,10.7889059 70.6229046,10.548692 C67.980551,7.18569652 62.9360578,3.10205918 54.5285692,3.10205918 C46.3612945,3.10205918 41.5570153,6.94548256 38.9146617,10.308478 C38.6744477,10.7889059 38.4342338,11.0291199 37.9538059,11.5095478 C42.998299,17.2746829 46.1210805,24.7213157 46.1210805,29.7658089 C46.1210805,31.9277345 45.6406526,33.6092322 44.6797968,34.8103021 C43.478727,36.2515858 41.7972292,36.9722277 39.8755176,36.9722277 C34.8310244,36.9722277 31.4680289,31.9277345 31.4680289,24.7213157 C31.4680289,20.1572504 32.6690987,15.8333991 34.8310244,11.9899757 C31.2278149,8.38676633 26.6637497,5.98462672 21.6192565,5.98462672 C14.6530516,5.98462672 8.40748864,9.58783613 5.04449318,15.5931852 C1.20106981,22.55939 1.68149773,31.4473066 6.48577695,39.1341534 C17.7758331,56.6697725 12.250912,75.6466755 8.88791656,87.1769456 C7.92706072,90.539941 6.48577695,95.5844342 7.20641883,95.8246482 L7.20641883,95.8246482 C8.88791656,96.3050761 12.9715539,95.5844342 17.7758331,94.8637923 C24.2616101,93.4225086 32.4288848,91.9812248 41.0765874,91.9812248 Z M73.0250442,14.1519014 C68.7011929,19.1963946 66.0588393,25.4419576 66.0588393,29.7658089 C66.0588393,31.4473066 66.5392672,32.6483764 67.0196952,33.3690183 C67.740337,34.3298741 68.9414069,34.5700881 70.3826906,34.5700881 C74.226114,34.5700881 75.9076117,29.7658089 75.9076117,25.2017436 C75.9076117,21.3583202 74.7065419,17.5148969 73.0250442,14.1519014 Z M36.99295,13.6714735 C35.3114523,17.0344689 34.1103825,20.8778923 34.1103825,24.7213157 C34.1103825,29.7658089 36.0320942,34.5700881 40.1157315,34.5700881 C41.5570153,34.5700881 42.5178711,34.0896602 42.998299,33.3690183 C43.7189409,32.6483764 43.9591549,31.2070926 43.9591549,29.7658089 C43.9591549,25.2017436 41.3168013,18.7159667 36.99295,13.6714735 Z" id="Shape"></path>
                        </g>
                    </g>
                </g>
            </g>
        </g>
    </g>
</svg>