<?xml version="1.0" encoding="UTF-8" standalone="no"?>
<svg width="16px" height="16px" viewBox="0 0 16 16" version="1.1" xmlns="http://www.w3.org/2000/svg" xmlns:xlink="http://www.w3.org/1999/xlink">
    <!-- Generator: Sketch 42 (36781) - http://www.bohemiancoding.com/sketch -->
    <title>clock (2)</title>
    <desc>Created with Sketch.</desc>
    <defs></defs>
    <g id="Page-1" stroke="none" stroke-width="1" fill="none" fill-rule="evenodd">
        <g id="Invite-Page" transform="translate(-1051.000000, -954.000000)" fill="#555555">
            <g id="Your-Invites" transform="translate(220.000000, 829.000000)">
                <g id="Group-2" transform="translate(831.000000, 123.000000)">
                    <g id="clock-(2)" transform="translate(0.000000, 2.000000)">
                        <g id="Capa_1">
                            <path d="M7.86361905,0 C10.0342857,0 11.999619,0.882666667 13.4262857,2.30361905 C14.8472381,3.73066667 15.7299048,5.696 15.7299048,7.86666667 C15.7299048,10.0373333 14.8472381,12.0026667 13.4262857,13.4297143 C11.9992381,14.8506667 10.0342857,15.7333333 7.86361905,15.7333333 C5.69295238,15.7333333 3.728,14.8506667 2.30704762,13.4297143 C0.88,12.0026667 0.00304761905,10.0377143 0.00304761905,7.86666667 C0.00304761905,5.696 0.879619048,3.73066667 2.30666667,2.30361905 C3.728,0.882666667 5.69295238,0 7.86361905,0 L7.86361905,0 Z M11.8727619,7.43733333 C12.1085714,7.43733333 12.296,7.63085714 12.296,7.86666667 C12.296,8.10247619 12.1085714,8.296 11.8727619,8.296 L7.87580952,8.296 L7.86361905,8.296 C7.70628571,8.296 7.5672381,8.20533333 7.49485714,8.07847619 L7.4887619,8.07238095 L7.4887619,8.07238095 L7.48266667,8.06019048 L7.48266667,8.06019048 L7.48266667,8.05409524 L7.48266667,8.05409524 L7.47657143,8.04190476 L7.47657143,8.04190476 L7.47047619,8.02971429 L7.47047619,8.02971429 L7.47047619,8.02361905 L7.47047619,8.02361905 L7.46438095,8.01142857 L7.46438095,8.01142857 L7.45828571,8.00533333 L7.45828571,8.00533333 L7.45828571,7.99314286 L7.45828571,7.99314286 L7.45219048,7.98095238 L7.45219048,7.98095238 L7.45219048,7.97485714 L7.45219048,7.97485714 L7.44609524,7.96266667 L7.44609524,7.96266667 L7.44609524,7.95047619 L7.44609524,7.95047619 L7.44609524,7.94438095 L7.44609524,7.93828571 L7.44,7.93219048 L7.44,7.93219048 L7.44,7.92 L7.44,7.92 L7.44,7.90780952 L7.44,7.90780952 L7.44,7.89714286 L7.44,7.89714286 L7.44,7.89104762 L7.44,7.89104762 L7.44,7.87885714 L7.44,7.87885714 L7.44,7.86666667 L7.44,7.86666667 L7.44,2.74514286 C7.44,2.50933333 7.62742857,2.32190476 7.8632381,2.32190476 C8.09904762,2.32190476 8.29257143,2.50933333 8.29257143,2.74514286 L8.29257143,7.43733333 L11.8727619,7.43733333 Z M12.8217143,2.90857143 C11.552,1.63885714 9.79847619,0.858666667 7.86361905,0.858666667 C5.9287619,0.858666667 4.1752381,1.63847619 2.90552381,2.90857143 C1.64190476,4.17828571 0.855619048,5.93180952 0.855619048,7.86666667 C0.855619048,9.80152381 1.64152381,11.5550476 2.90552381,12.8251429 C4.1752381,14.0948571 5.9287619,14.8750476 7.86361905,14.8750476 C9.79847619,14.8750476 11.552,14.0948571 12.8217143,12.8251429 C14.0914286,11.5554286 14.8777143,9.80190476 14.8777143,7.86666667 C14.8777143,5.93180952 14.0918095,4.17828571 12.8217143,2.90857143 L12.8217143,2.90857143 Z" id="Shape"></path>
                        </g>
                    </g>
                </g>
            </g>
        </g>
    </g>
</svg>