<?xml version="1.0" encoding="UTF-8" standalone="no"?>
<svg width="16px" height="15px" viewBox="0 0 16 15" version="1.1" xmlns="http://www.w3.org/2000/svg" xmlns:xlink="http://www.w3.org/1999/xlink">
    <!-- Generator: Sketch 42 (36781) - http://www.bohemiancoding.com/sketch -->
    <title>Combined Shape</title>
    <desc>Created with Sketch.</desc>
    <defs></defs>
    <g id="Page-1" stroke="none" stroke-width="1" fill="none" fill-rule="evenodd">
        <g id="Invite-Page" transform="translate(-659.000000, -697.000000)" fill="#FFFFFF">
            <g id="Share" transform="translate(220.000000, 410.000000)">
                <g id="Link" transform="translate(40.000000, 228.000000)">
                    <g id="Send" transform="translate(370.000000, 41.000000)">
                        <g id="messenger" transform="translate(29.000000, 18.000000)">
                            <g id="Capa_1">
                                <g id="Group">
                                    <path d="M16,1.37931034 L16,10.4827586 C16,11.2336552 15.3715862,11.862069 14.6206897,11.862069 L6.62068966,11.862069 L3.86206897,14.8965517 L3.86206897,11.862069 L1.37931034,11.862069 C0.628413793,11.862069 0,11.2336552 0,10.4827586 L0,1.37931034 C0,0.628413793 0.628413793,0 1.37931034,0 L14.6206897,0 C15.3715862,0 16,0.628413793 16,1.37931034 Z M2.48275862,8.55172414 L5.24137931,5.51724138 L10.2068966,9.10344828 L13.5172414,2.75862069 L10.2068966,6.62068966 L5.24137931,3.03448276 L2.48275862,8.55172414 Z" id="Combined-Shape"></path>
                                </g>
                            </g>
                        </g>
                    </g>
                </g>
            </g>
        </g>
    </g>
</svg>