<?xml version="1.0" encoding="UTF-8" standalone="no"?>
<svg width="51px" height="46px" viewBox="0 0 51 46" version="1.1" xmlns="http://www.w3.org/2000/svg" xmlns:xlink="http://www.w3.org/1999/xlink">
    <!-- Generator: Sketch 42 (36781) - http://www.bohemiancoding.com/sketch -->
    <title>dollar-symbol</title>
    <desc>Created with Sketch.</desc>
    <defs></defs>
    <g id="Page-1" stroke="none" stroke-width="1" fill="none" fill-rule="evenodd">
        <g id="Admin-Interface-Frontpage" transform="translate(-406.000000, -205.000000)" fill-rule="nonzero" fill="#CE5100">
            <g id="Payments-Overview" transform="translate(50.000000, 130.000000)">
                <g id="Group-5" transform="translate(356.500000, 72.000000)">
                    <g id="dollar-symbol" transform="translate(0.000000, 3.000000)">
                        <g id="Capa_1">
                            <g id="Group">
                                <path d="M43.1955852,6.71591376 C38.8732033,2.39353183 33.1237166,0.0116016427 27.0148871,0.0116016427 C20.7931211,0.0116016427 14.9717659,2.46540041 10.6288501,6.92125257 C10.1565708,7.40379877 10.1668378,8.18408624 10.649384,8.66663244 C11.1319302,9.1389117 11.9122177,9.12864476 12.3947639,8.64609856 C16.2756674,4.67279261 21.4604723,2.48593429 27.0148871,2.48593429 C38.2777207,2.47566735 47.4358316,11.6337782 47.4358316,22.8966119 C47.4358316,34.1594456 38.2777207,43.3175565 27.0148871,43.3175565 C15.7520534,43.3175565 6.60420945,34.1594456 6.60420945,22.8966119 L6.60420945,22.6399384 L8.62679671,24.6727926 C8.86293634,24.9089322 9.1812115,25.0321355 9.49948665,25.0321355 C9.81776181,25.0321355 10.12577,24.9089322 10.3721766,24.6727926 C10.8547228,24.1902464 10.8547228,23.4099589 10.3721766,22.9274127 L6.24486653,18.7898357 C5.76232033,18.3072895 4.98203285,18.3072895 4.49948665,18.7898357 L0.361909651,22.9274127 C-0.12063655,23.4099589 -0.12063655,24.1902464 0.361909651,24.6727926 C0.844455852,25.1553388 1.62474333,25.1553388 2.10728953,24.6727926 L4.14014374,22.6399384 L4.14014374,22.8966119 C4.14014374,29.0054415 6.52207392,34.7549281 10.8444559,39.0773101 C15.1668378,43.399692 20.9163244,45.7816222 27.025154,45.7816222 C33.1339836,45.7816222 38.8834702,43.399692 43.2058522,39.0773101 C47.5179671,34.7549281 49.8998973,29.0054415 49.8998973,22.8966119 C49.8998973,16.7877823 47.5179671,11.0382957 43.1955852,6.71591376 Z" id="Shape"></path>
                                <path d="M27.0148871,8.58449692 C26.337269,8.58449692 25.7828542,9.1389117 25.7828542,9.81652977 L25.7828542,12.8042094 L25.0025667,12.8042094 C21.8916838,12.8042094 19.3557495,15.3401437 19.3557495,18.4510267 C19.3557495,21.5619097 21.8916838,24.0978439 25.0025667,24.0978439 L29.0272074,24.0978439 C30.7828542,24.0978439 32.2099589,25.5249487 32.2099589,27.2805955 C32.2099589,29.0362423 30.7828542,30.463347 29.0272074,30.463347 L21.7890144,30.463347 C21.1113963,30.463347 20.5569815,31.0177618 20.5569815,31.6953799 C20.5569815,32.3729979 21.1113963,32.9274127 21.7890144,32.9274127 L25.7828542,32.9274127 L25.7828542,35.9561602 C25.7828542,36.6337782 26.337269,37.188193 27.0148871,37.188193 C27.6925051,37.188193 28.2469199,36.6337782 28.2469199,35.9561602 L28.2469199,32.9274127 L29.0682752,32.9274127 L29.099076,32.9274127 C32.1791581,32.886345 34.6740246,30.3709446 34.6740246,27.2805955 C34.6740246,24.1697125 32.1380903,21.6337782 29.0272074,21.6337782 L25.0025667,21.6337782 C23.2469199,21.6337782 21.8198152,20.2066735 21.8198152,18.4510267 C21.8198152,16.6953799 23.2469199,15.2682752 25.0025667,15.2682752 L32.1072895,15.2682752 C32.7849076,15.2682752 33.3393224,14.7138604 33.3393224,14.0362423 C33.3393224,13.3586242 32.7849076,12.8042094 32.1072895,12.8042094 L28.2469199,12.8042094 L28.2469199,9.81652977 C28.2469199,9.1389117 27.7027721,8.58449692 27.0148871,8.58449692 Z" id="Shape"></path>
                            </g>
                        </g>
                    </g>
                </g>
            </g>
        </g>
    </g>
</svg>