<?xml version="1.0" encoding="UTF-8"?>
<svg width="24px" height="24px" viewBox="0 0 24 24" version="1.1" xmlns="http://www.w3.org/2000/svg" xmlns:xlink="http://www.w3.org/1999/xlink">
    <!-- Generator: Sketch 41 (35326) - http://www.bohemiancoding.com/sketch -->
    <title>icons-headder_gast-01</title>
    <desc>Created with Sketch.</desc>
    <defs>
        <filter x="-50%" y="-50%" width="200%" height="200%" filterUnits="objectBoundingBox" id="filter-1">
            <feOffset dx="0" dy="2" in="SourceAlpha" result="shadowOffsetOuter1"></feOffset>
            <feGaussianBlur stdDeviation="2" in="shadowOffsetOuter1" result="shadowBlurOuter1"></feGaussianBlur>
            <feColorMatrix values="0 0 0 0 0   0 0 0 0 0   0 0 0 0 0  0 0 0 0.1 0" type="matrix" in="shadowBlurOuter1" result="shadowMatrixOuter1"></feColorMatrix>
            <feMerge>
                <feMergeNode in="shadowMatrixOuter1"></feMergeNode>
                <feMergeNode in="SourceGraphic"></feMergeNode>
            </feMerge>
        </filter>
    </defs>
    <g id="Page-1" stroke="none" stroke-width="1" fill="none" fill-rule="evenodd">
        <g id="Admin-Interface-Event" transform="translate(-326.000000, -199.000000)" stroke="#7F7F7F">
            <g id="Table" filter="url(#filter-1)" transform="translate(50.000000, 140.000000)">
                <g id="Location" transform="translate(281.000000, 60.000000)">
                    <g id="icons-headder_gast-01" transform="translate(0.000000, 2.000000)">
                        <g id="Ebene_1">
                            <g id="Group">
                                <circle id="Oval" cx="7" cy="7" r="7"></circle>
                                <path d="M7.02333333,3.57 C6.76666667,3.57 6.48666667,3.59333333 6.20666667,3.68666667 C5.46,3.92 4.83,4.48 4.50333333,5.25 C4.36333333,5.6 4.27,5.97333333 4.27,6.3 C4.27,7.35 4.97,8.09666667 5.57666667,8.75 C5.74,8.93666667 5.92666667,9.1 6.04333333,9.28666667 C6.58,9.94 6.86,10.5466667 6.97666667,10.85 C7.11666667,10.5466667 7.39666667,9.91666667 7.91,9.28666667 C8.07333333,9.1 8.23666667,8.91333333 8.42333333,8.70333333 C9.05333333,8.02666667 9.70666667,7.30333333 9.70666667,6.27666667 C9.70666667,5.88 9.63666667,5.55333333 9.47333333,5.22666667 L9.47333333,5.22666667 C9.07666667,4.29333333 8.23666667,3.66333333 7.23333333,3.57 C7.21,3.57 7.11666667,3.57 7.02333333,3.57 L7.02333333,3.57 Z" id="Shape"></path>
                            </g>
                        </g>
                    </g>
                </g>
            </g>
        </g>
    </g>
</svg>