<?xml version="1.0" encoding="UTF-8" standalone="no"?>
<svg width="94px" height="110px" viewBox="0 0 94 110" version="1.1" xmlns="http://www.w3.org/2000/svg" xmlns:xlink="http://www.w3.org/1999/xlink">
    <!-- Generator: Sketch 42 (36781) - http://www.bohemiancoding.com/sketch -->
    <title>Icons-Master-SVG_guest-01</title>
    <desc>Created with Sketch.</desc>
    <defs></defs>
    <g id="Page-1" stroke="none" stroke-width="1" fill="none" fill-rule="evenodd" opacity="0.900000036">
        <g id="Frontpage-Host" transform="translate(-663.000000, -610.000000)" fill-rule="nonzero" fill="#CE5100">
            <g id="Group" transform="translate(130.000000, 610.000000)">
                <g id="2" transform="translate(404.500000, 0.000000)">
                    <g id="Icons-Master-SVG_guest-01" transform="translate(129.000000, 0.000000)">
                        <g id="Ebene_1">
                            <path d="M75.2228495,25.5869565 C79.5341398,23.4347826 82.6478495,18.8913043 82.6478495,13.6304348 C82.6478495,6.2173913 76.4204301,0.239130435 68.9954301,0.239130435 C61.5704301,0.239130435 55.5825269,6.2173913 55.5825269,13.6304348 C55.5825269,18.8913043 58.4567204,23.1956522 62.7680108,25.5869565 C60.8518817,26.0652174 59.1752688,26.7826087 57.2591398,27.7391304 C54.8639785,24.6304348 51.0317204,22.4782609 46.480914,22.4782609 C41.9301075,22.4782609 38.0978495,24.6304348 35.7026882,27.9782609 C34.0260753,26.7826087 32.1099462,26.0652174 29.9543011,25.5869565 C34.2655914,23.4347826 37.1397849,18.8913043 37.1397849,13.6304348 C37.1397849,6.2173913 31.1518817,0.239130435 23.7268817,0.239130435 C16.3018817,0.239130435 10.5534946,6.2173913 10.5534946,13.6304348 C10.5534946,18.6521739 13.4276882,23.1956522 17.7389785,25.3478261 C7.67930108,27.9782609 0.0147849462,37.0652174 0.0147849462,48.3043478 C0.0147849462,49.0217391 0.493817204,49.5 1.21236559,49.5 L1.45188172,49.5 L1.69139785,49.5 C11.5115591,49.5 18.4575269,54.7608696 22.5293011,60.5 C20.613172,63.6086957 19.4155914,66.4782609 19.1760753,69.1086957 C18.697043,71.2608696 18.2180108,73.6521739 18.2180108,76.0434783 C18.2180108,76.7608696 18.697043,77.2391304 19.4155914,77.2391304 C31.630914,77.2391304 40.2534946,83.9347826 45.0438172,90.8695652 C42.1696237,95.173913 40.7325269,99.9565217 40.7325269,103.304348 C40.7325269,105.217391 41.2115591,106.652174 41.9301075,107.847826 C42.888172,109.043478 44.3252688,109.76087 46.0018817,109.76087 L47.1994624,109.76087 C48.8760753,109.76087 50.313172,109.282609 51.2712366,107.847826 C51.9897849,106.652174 52.4688172,105.217391 52.4688172,103.304348 C52.4688172,99.9565217 51.0317204,95.4130435 48.1575269,90.8695652 C53.1873656,83.9347826 61.5704301,77.2391304 73.7857527,77.2391304 C74.5043011,77.2391304 74.9833333,76.7608696 74.9833333,76.0434783 C74.9833333,74.3695652 74.7438172,72.6956522 74.5043011,71.0217391 C74.5043011,68.1521739 73.3067204,64.326087 70.9115591,60.5 C74.9833333,54.7608696 81.9293011,49.5 91.7494624,49.5 C92.4680108,49.5 92.947043,49.0217391 92.947043,48.3043478 C92.947043,37.5434783 85.2825269,28.2173913 75.2228495,25.5869565 Z M58.2172043,13.6304348 C58.2172043,7.41304348 63.0075269,2.63043478 68.9954301,2.63043478 C74.9833333,2.63043478 80.013172,7.41304348 80.013172,13.6304348 C80.013172,19.8478261 74.9833333,24.6304348 68.9954301,24.6304348 C63.0075269,24.6304348 58.2172043,19.8478261 58.2172043,13.6304348 Z M46.7204301,24.8695652 C52.7083333,24.8695652 57.4986559,29.6521739 57.4986559,35.8695652 C57.4986559,42.0869565 52.9478495,46.8695652 46.7204301,46.8695652 C40.4930108,46.8695652 35.7026882,42.0869565 35.7026882,35.8695652 C35.7026882,29.6521739 40.7325269,24.8695652 46.7204301,24.8695652 Z M12.9486559,13.6304348 C12.9486559,7.41304348 17.9784946,2.63043478 23.9663978,2.63043478 C29.9543011,2.63043478 34.9841398,7.41304348 34.9841398,13.6304348 C34.9841398,19.8478261 30.1938172,24.6304348 23.9663978,24.6304348 C17.7389785,24.6304348 12.9486559,19.8478261 12.9486559,13.6304348 Z M2.40994624,47.1086957 C3.12849462,35.8695652 12.2301075,27.0217391 23.7268817,27.0217391 C27.7986559,27.0217391 31.3913978,28.2173913 34.7446237,30.1304348 C34.0260753,31.8043478 33.3075269,33.7173913 33.3075269,35.8695652 C33.3075269,41.1304348 36.1817204,45.673913 40.7325269,47.826087 C33.547043,49.5 27.7986559,53.5652174 24.205914,58.3478261 C19.6551075,52.6086957 12.4696237,47.3478261 2.40994624,47.1086957 Z M49.8341398,103.543478 C49.8341398,104.978261 49.5946237,105.934783 49.1155914,106.652174 C48.6365591,107.369565 48.1575269,107.608696 47.1994624,107.608696 L46.0018817,107.608696 C45.0438172,107.608696 44.5647849,107.369565 44.0857527,106.652174 C43.6067204,105.934783 43.3672043,104.73913 43.3672043,103.543478 C43.3672043,100.913043 44.3252688,97.326087 46.480914,93.5 C48.6365591,97.0869565 49.8341398,100.913043 49.8341398,103.543478 Z M46.7204301,88.4782609 C41.4510753,81.3043478 32.5889785,75.0869565 20.8526882,74.6086957 C21.3317204,60.9782609 32.8284946,49.9782609 46.7204301,50.2173913 C60.6123656,50.2173913 71.8696237,60.9782609 72.588172,74.6086957 C60.6123656,75.0869565 51.9897849,81.3043478 46.7204301,88.4782609 Z M69.2349462,58.3478261 C65.6422043,53.5652174 60.1333333,49.5 52.7083333,47.826087 C57.0196237,45.673913 60.1333333,41.1304348 60.1333333,35.8695652 C60.1333333,33.7173913 59.6543011,31.5652174 58.6962366,29.8913043 C61.8099462,28.2173913 65.163172,27.0217391 68.9954301,27.0217391 C80.2526882,27.0217391 89.5938172,36.1086957 90.3123656,47.1086957 C80.7317204,47.5869565 73.5462366,52.6086957 69.2349462,58.3478261 Z" id="Shape"></path>
                        </g>
                    </g>
                </g>
            </g>
        </g>
    </g>
</svg>