<?xml version="1.0" encoding="UTF-8" standalone="no"?>
<svg width="35px" height="32px" viewBox="0 0 35 32" version="1.1" xmlns="http://www.w3.org/2000/svg" xmlns:xlink="http://www.w3.org/1999/xlink">
    <!-- Generator: Sketch 3.6.1 (26313) - http://www.bohemiancoding.com/sketch -->
    <title>Fill 174</title>
    <desc>Created with Sketch.</desc>
    <defs></defs>
    <g id="Page-1" stroke="none" stroke-width="1" fill="none" fill-rule="evenodd">
        <g id="CHEF-ONE_Relaunch_Home" transform="translate(-1045.000000, -14.000000)" fill="#888B87">
            <g id="Group-178" transform="translate(845.000000, 14.000000)">
                <path d="M202.75,30.263 L202.92,29.79 L202.89,29.855 L202.94,29.805 L202.92,29.79 L202.89,29.855 L202.94,29.805 L202.89,29.861 L202.95,29.821 L202.94,29.805 L202.89,29.861 L202.95,29.821 L202.94,29.782 L202.93,29.629 C202.93,29.351 203.03,28.837 203.21,28.198 C203.74,26.267 204.84,23.146 204.84,19.641 C204.84,17.231 204.31,14.626 202.72,12.125 C201.84,10.752 201.45,9.335 201.45,8.009 C201.45,6.351 202.06,4.837 203.09,3.739 C204.13,2.643 205.58,1.956 207.34,1.954 C209.23,1.949 210.93,3.088 212.18,4.619 C213.42,6.137 214.15,8.039 214.15,9.29 C214.15,9.79 214.03,10.163 213.86,10.379 C213.69,10.592 213.47,10.72 213.02,10.728 C212.75,10.727 212.53,10.658 212.33,10.531 C212.03,10.342 211.76,9.996 211.57,9.511 C211.38,9.027 211.27,8.416 211.28,7.748 C211.27,6.318 211.76,4.646 212.79,3.367 C213.82,2.088 215.35,1.175 217.58,1.169 C219.86,1.175 221.43,2.127 222.49,3.452 C223.55,4.777 224.05,6.5 224.05,7.939 C224.05,8.79 223.87,9.535 223.58,10.02 C223.44,10.263 223.27,10.441 223.08,10.557 C222.9,10.672 222.7,10.734 222.46,10.735 C221.95,10.729 221.69,10.587 221.51,10.371 C221.32,10.151 221.2,9.784 221.21,9.285 C221.2,8.051 221.96,6.169 223.24,4.668 C224.51,3.154 226.25,2.027 228.13,2.032 C229.89,2.033 231.34,2.721 232.38,3.817 C233.41,4.915 234.02,6.429 234.02,8.087 C234.02,9.413 233.63,10.83 232.76,12.203 C231.17,14.689 230.64,17.235 230.64,19.583 C230.64,21.87 231.13,23.976 231.62,25.711 C231.86,26.579 232.1,27.355 232.28,28.008 C232.45,28.658 232.56,29.192 232.56,29.526 C232.56,29.677 232.54,29.781 232.52,29.835 L232.45,29.918 L232.45,29.917 C232.43,29.938 232.2,30.044 231.88,30.148 C230.9,30.477 228.91,30.934 226.5,30.932 C224.62,30.932 222.48,30.657 220.33,29.843 C217.93,28.933 215.52,28.631 213.28,28.631 C211.02,28.631 208.93,28.938 207.2,29.242 C205.48,29.547 204.09,29.843 203.34,29.838 C203.13,29.839 202.99,29.815 202.92,29.79 L202.75,30.263 L202.59,30.735 C202.83,30.814 203.07,30.837 203.34,30.838 C204.3,30.833 205.66,30.525 207.37,30.227 C209.08,29.927 211.11,29.631 213.28,29.631 C215.43,29.631 217.72,29.921 219.98,30.777 C222.26,31.644 224.52,31.932 226.5,31.932 C228.19,31.932 229.67,31.721 230.8,31.474 C231.36,31.351 231.83,31.219 232.19,31.098 C232.56,30.972 232.8,30.875 232.99,30.763 C233.2,30.63 233.36,30.424 233.44,30.206 C233.53,29.987 233.56,29.761 233.56,29.526 C233.56,29.009 233.42,28.428 233.24,27.747 C232.69,25.716 231.64,22.8 231.64,19.583 C231.64,17.381 232.13,15.052 233.6,12.741 C234.57,11.217 235.02,9.607 235.02,8.087 C235.02,6.185 234.32,4.422 233.11,3.131 C231.9,1.841 230.16,1.03 228.13,1.032 C225.84,1.036 223.87,2.369 222.47,4.023 C221.08,5.69 220.22,7.685 220.21,9.285 C220.21,9.932 220.35,10.54 220.74,11.009 C221.12,11.481 221.74,11.741 222.46,11.735 C222.88,11.736 223.29,11.616 223.62,11.4 C224.13,11.075 224.48,10.563 224.71,9.968 C224.94,9.37 225.05,8.678 225.05,7.939 C225.05,6.278 224.49,4.366 223.28,2.831 C222.07,1.296 220.16,0.163 217.58,0.169 C215.06,0.163 213.19,1.251 212.01,2.742 C210.82,4.233 210.28,6.101 210.28,7.748 C210.28,8.776 210.48,9.727 210.93,10.466 C211.36,11.203 212.1,11.734 213.02,11.728 C213.7,11.735 214.29,11.464 214.65,10.993 C215.01,10.525 215.14,9.929 215.15,9.29 C215.14,7.69 214.31,5.675 212.95,3.988 C211.59,2.313 209.65,0.958 207.34,0.954 C205.32,0.952 203.58,1.763 202.37,3.054 C201.15,4.344 200.45,6.107 200.45,8.009 C200.45,9.53 200.9,11.14 201.87,12.664 C203.35,14.982 203.84,17.374 203.84,19.641 C203.84,21.839 203.38,23.913 202.9,25.635 C202.67,26.496 202.43,27.27 202.25,27.934 C202.06,28.602 201.93,29.149 201.93,29.629 C201.93,29.843 201.96,30.054 202.06,30.263 C202.15,30.472 202.36,30.661 202.59,30.735 L202.75,30.263" id="Fill-174"></path>
            </g>
        </g>
    </g>
</svg>