<?xml version="1.0" encoding="UTF-8" standalone="no"?>
<svg width="40px" height="40px" viewBox="0 0 40 40" version="1.1" xmlns="http://www.w3.org/2000/svg" xmlns:xlink="http://www.w3.org/1999/xlink">
    <!-- Generator: Sketch 41.2 (35397) - http://www.bohemiancoding.com/sketch -->
    <title>Twitter</title>
    <desc>Created with Sketch.</desc>
    <defs></defs>
    <g id="Page-1" stroke="none" stroke-width="1" fill="none" fill-rule="evenodd">
        <g id="Front-Page" transform="translate(-697.000000, -4917.000000)" fill="#7F7F7F">
            <g id="Footer" transform="translate(0.000000, 4817.000000)">
                <g id="Content" transform="translate(130.000000, 60.000000)">
                    <g id="Let's-be-friends" transform="translate(507.000000, 0.000000)">
                        <g id="Twitter" transform="translate(60.000000, 40.000000)">
                            <path d="M19.763,39.78 C8.8825,39.78 0.03,30.928 0.03,20.0475 C0.03,9.1665 8.8825,0.3145 19.763,0.3145 C30.644,0.3145 39.496,9.1665 39.496,20.0475 C39.496,30.928 30.644,39.78 19.763,39.78 L19.763,39.78 Z M19.763,1.8145 C9.7095,1.8145 1.53,9.9935 1.53,20.0475 C1.53,30.101 9.7095,38.28 19.763,38.28 C29.817,38.28 37.996,30.101 37.996,20.0475 C37.996,9.9935 29.817,1.8145 19.763,1.8145 L19.763,1.8145 Z" id="Twitter-Circle"></path>
                            <path d="M28.38,12.4275 C27.637,12.8785 26.816,13.2065 25.9385,13.382 C25.2395,12.617 24.2405,12.139 23.1345,12.139 C21.0145,12.139 19.294,13.903 19.294,16.0785 C19.294,16.387 19.327,16.687 19.393,16.9755 C16.2,16.811 13.3695,15.2445 11.4735,12.858 C11.1425,13.442 10.9535,14.1195 10.9535,14.8405 C10.9535,16.207 11.6315,17.413 12.663,18.1195 C12.034,18.1005 11.4405,17.9215 10.9215,17.628 L10.9215,17.6765 C10.9215,19.586 12.246,21.179 14.005,21.5395 C13.683,21.632 13.343,21.678 12.9925,21.678 C12.745,21.678 12.5035,21.6545 12.2695,21.6085 C12.7585,23.173 14.1765,24.3125 15.858,24.3425 C14.5435,25.4 12.886,26.03 11.0865,26.03 C10.7765,26.03 10.47,26.012 10.17,25.976 C11.87,27.092 13.8905,27.7445 16.0595,27.7445 C23.127,27.7445 26.9905,21.7425 26.9905,16.536 C26.9905,16.3645 26.9875,16.1935 26.981,16.0255 C27.7315,15.4695 28.3835,14.7765 28.8965,13.9865 C28.2085,14.2995 27.4675,14.5115 26.6905,14.6065 C27.484,14.1195 28.093,13.347 28.38,12.4275"></path>
                        </g>
                    </g>
                </g>
            </g>
        </g>
    </g>
</svg>