<?xml version="1.0" encoding="utf-8"?>
<!-- Generator: Adobe Illustrator 19.2.1, SVG Export Plug-In . SVG Version: 6.00 Build 0)  -->
<svg version="1.1" id="Ebene_1" xmlns="http://www.w3.org/2000/svg" xmlns:xlink="http://www.w3.org/1999/xlink" x="0px" y="0px"
	 viewBox="0 0 60 60" style="enable-background:new 0 0 60 60;" xml:space="preserve">
<style type="text/css">
	.st0{fill:none;stroke:#FFFFFF;stroke-width:2;stroke-miterlimit:10;}
	.st1{fill:none;stroke:#FFFFFF;stroke-width:2;stroke-linecap:round;stroke-linejoin:round;stroke-miterlimit:10;}
</style>
<g>
	<circle class="st0" cx="30" cy="30" r="30"/>
	<path class="st1" d="M30.1,15.3c-1.1,0-2.3,0.1-3.5,0.5c-3.2,1-5.9,3.4-7.3,6.7c-0.6,1.5-1,3.1-1,4.5c0,4.5,3,7.7,5.6,10.5
		c0.7,0.8,1.5,1.5,2,2.3c2.3,2.8,3.5,5.4,4,6.7c0.6-1.3,1.8-4,4-6.7c0.7-0.8,1.4-1.6,2.2-2.5c2.7-2.9,5.5-6,5.5-10.4
		c0-1.7-0.3-3.1-1-4.5l0,0c-1.7-4-5.3-6.7-9.6-7.1C30.9,15.3,30.5,15.3,30.1,15.3z"/>
</g>
</svg>
