<?xml version="1.0" encoding="UTF-8" standalone="no"?>
<svg width="42px" height="42px" viewBox="0 0 42 42" version="1.1" xmlns="http://www.w3.org/2000/svg" xmlns:xlink="http://www.w3.org/1999/xlink">
    <!-- Generator: Sketch 41.2 (35397) - http://www.bohemiancoding.com/sketch -->
    <title>Group 16</title>
    <desc>Created with Sketch.</desc>
    <defs></defs>
    <g id="Symbols" stroke="none" stroke-width="1" fill="none" fill-rule="evenodd">
        <g id="Group-16" transform="translate(1.000000, 1.000000)">
            <g>
                <g id="messenger" transform="translate(12.000000, 13.000000)" fill="#555555">
                    <g id="Capa_1">
                        <g id="Group">
                            <path d="M16,1.37931034 L16,10.4827586 C16,11.2336552 15.3715862,11.862069 14.6206897,11.862069 L6.62068966,11.862069 L3.86206897,14.8965517 L3.86206897,11.862069 L1.37931034,11.862069 C0.628413793,11.862069 0,11.2336552 0,10.4827586 L0,1.37931034 C0,0.628413793 0.628413793,0 1.37931034,0 L14.6206897,0 C15.3715862,0 16,0.628413793 16,1.37931034 Z M2.48275862,8.55172414 L5.24137931,3.03448276 L10.2068966,6.62068966 L13.5172414,2.75862069 L10.2068966,9.10344828 L5.24137931,5.51724138 L2.48275862,8.55172414 Z" id="Combined-Shape"></path>
                        </g>
                    </g>
                </g>
                <circle id="Oval-3" stroke="#555555" cx="20" cy="20" r="20"></circle>
            </g>
        </g>
    </g>
</svg>