<svg id="Ebene_1" data-name="Ebene 1" xmlns="http://www.w3.org/2000/svg" viewBox="0 0 30 30"><defs><style>.cls-1{fill:#fff;}</style></defs><title>icons_header</title><path class="cls-1" d="M15,30.09a15,15,0,1,1,15-15A15,15,0,0,1,15,30.09ZM15,0.82A14.27,14.27,0,1,0,29.27,15.09,14.28,14.28,0,0,0,15,.82Z"/><path class="cls-1" d="M21.06,10.14a0.37,0.37,0,0,1-.2-0.06,0.37,0.37,0,0,1-.11-0.51,2.58,2.58,0,0,0,.19-2.65,2.06,2.06,0,0,0-1.86-1.08,2.18,2.18,0,0,0-1.42.59A3.48,3.48,0,0,1,18,8c0,1-.48,1.66-1.19,1.66A1,1,0,0,1,15.8,8.53a3.66,3.66,0,0,1,.93-2.17h0a2.2,2.2,0,0,0-1.79-.83,2.15,2.15,0,0,0-1.73.77,3.77,3.77,0,0,1,.94,2.25,1,1,0,0,1-1,1.12c-0.75,0-1.25-.7-1.25-1.73a3.4,3.4,0,0,1,.37-1.54,2.08,2.08,0,0,0-1.35-.57A2.06,2.06,0,0,0,9.06,6.9a2.58,2.58,0,0,0,.19,2.65,0.37,0.37,0,1,1-.62.39,3.3,3.3,0,0,1-.21-3.39,2.78,2.78,0,0,1,4.27-.78,2.85,2.85,0,0,1,2.25-1,2.91,2.91,0,0,1,2.32,1,2.87,2.87,0,0,1,1.82-.71,2.81,2.81,0,0,1,2.5,1.46A3.3,3.3,0,0,1,21.37,10,0.37,0.37,0,0,1,21.06,10.14ZM17.12,7a2.85,2.85,0,0,0-.59,1.49c0,0.4.19,0.4,0.32,0.4A0.81,0.81,0,0,0,17.3,8,2.73,2.73,0,0,0,17.12,7ZM12.81,7a2.67,2.67,0,0,0-.18.94,0.87,0.87,0,0,0,.51,1,0.21,0.21,0,0,0,.2-0.07,0.55,0.55,0,0,0,.08-0.32A3,3,0,0,0,12.81,7Z"/><path class="cls-1" d="M15,25.4a7.29,7.29,0,1,1,7.29-7.29A7.3,7.3,0,0,1,15,25.4Zm0-13.85a6.56,6.56,0,1,0,6.56,6.56A6.57,6.57,0,0,0,15,11.55Z"/><path class="cls-1" d="M20.36,14.08a0.37,0.37,0,0,1-.28-0.13,6.56,6.56,0,0,0-10.14,0,0.37,0.37,0,0,1-.64-0.29,5.13,5.13,0,0,0-.66-3.7,3.3,3.3,0,0,1-.21-3.39,2.81,2.81,0,0,1,2.5-1.46,2.77,2.77,0,0,1,1.77.68,2.88,2.88,0,0,1,2.25-1,2.93,2.93,0,0,1,2.32,1,2.88,2.88,0,0,1,1.82-.71,2.8,2.8,0,0,1,2.5,1.46A3.3,3.3,0,0,1,21.36,10a5,5,0,0,0-.65,3.68A0.37,0.37,0,0,1,20.36,14.08ZM15,10.81a7.27,7.27,0,0,1,4.89,1.89,5.43,5.43,0,0,1,.85-3.12,2.57,2.57,0,0,0,.19-2.64,2.06,2.06,0,0,0-1.86-1.08,2.31,2.31,0,0,0-1.61.78,0.37,0.37,0,0,1-.57-0.06,2.2,2.2,0,0,0-2-1.06,2.13,2.13,0,0,0-1.89,1,0.37,0.37,0,0,1-.27.17,0.37,0.37,0,0,1-.3-0.11,2.24,2.24,0,0,0-1.56-.75A2.06,2.06,0,0,0,9.06,6.9a2.57,2.57,0,0,0,.19,2.65,5.51,5.51,0,0,1,.86,3.14A7.27,7.27,0,0,1,15,10.81Z"/></svg>
