<?xml version="1.0" encoding="utf-8"?>
<!-- Generator: Adobe Illustrator 19.1.0, SVG Export Plug-In . SVG Version: 6.00 Build 0)  -->
<svg version="1.1" id="Ebene_1" xmlns="http://www.w3.org/2000/svg" xmlns:xlink="http://www.w3.org/1999/xlink" x="0px" y="0px"
	 viewBox="-879.3 519.4 45.8 45.8" style="enable-background:new -879.3 519.4 45.8 45.8;" xml:space="preserve">
<style type="text/css">
	.st0{fill:#555555;}
</style>
<path class="st0" d="M-872.4,565.2c-0.1,0-0.3-0.1-0.4-0.1c-1.6-1.6-1.8-3.5-1.6-4.7c-1.8,0.2-3.5-0.4-4.8-1.7
	c-0.1-0.1-0.2-0.3-0.1-0.5c0.1-0.2,0.2-0.3,0.4-0.3c0.1,0,6.2-1.4,13.6-9c4.3-4.4,6.2-8.9,7.8-12.9c1.2-3,2.3-5.6,4.2-7.5l0,0
	c6-6,10.1-9,12.1-9c0,0,0,0,0,0c0.5,0,0.8,0.2,1.1,0.5c0.2,0.2,0.3,0.5,0.3,0.8c-0.1,1.2-2,2.9-5.2,5.5c-2.1,1.8-5.1,4.2-5.1,5.1
	c0.2,0.2,0.3,0.3,0.6,0.3c0,0,0,0,0,0c1.4,0,4-2.6,6.2-4.8c2.2-2.3,4.2-4.2,5.5-4.2c0,0,0,0,0,0c0.3,0,0.6,0.1,0.9,0.4
	c1.3,1.3-1.1,3.6-4,6.7c-2.1,2.2-5.3,5.5-4.5,6.3c1,0,3.4-2.9,5.2-5.1c2.7-3.2,4.4-5.2,5.6-5.2c0.3,0,0.6,0.1,0.8,0.3
	c1,1,0.3,2.9-2,5.9c-1.5,2-3.7,4.4-6.6,7.3c-1.9,1.9-4.5,3-7.5,4.2c-4,1.6-8.5,3.5-12.9,7.8c-7.6,7.5-8.9,13.6-9,13.6
	c0,0.2-0.2,0.3-0.3,0.4C-872.3,565.2-872.4,565.2-872.4,565.2z M-873.4,560.1c-0.1,0.9-0.1,2.2,0.7,3.5c0.7-2,2.8-7.2,9-13.2
	c4.5-4.5,9.1-6.3,13.2-8c2.9-1.2,5.4-2.2,7.2-4c2.8-2.8,5-5.3,6.5-7.2c2.7-3.5,2.3-4.4,2.1-4.6c-0.7-0.2-3.3,3-4.9,4.9
	c-2.8,3.3-4.5,5.4-5.8,5.4c-0.3,0-0.6-0.1-0.8-0.3c-1.6-1.6,1.4-4.6,4.5-7.7c1.6-1.6,4.6-4.7,4-5.3c0,0-0.1-0.1-0.2-0.1l0,0
	c-0.9,0-3,2.1-4.8,3.9c-2.6,2.6-5,5.1-6.9,5.1c0,0,0,0,0,0c-0.5,0-0.9-0.2-1.3-0.5c-0.2-0.2-0.3-0.5-0.3-0.8
	c0.1-1.3,2.1-3.1,5.5-5.9c1.9-1.6,5-4.2,4.8-4.8c0,0-0.1-0.1-0.4-0.1c0,0,0,0,0,0c-1.7,0-5.8,3.2-11.4,8.7c-1.8,1.8-2.8,4.3-4,7.2
	c-1.7,4.1-3.5,8.7-8,13.2c-6.1,6.1-11.2,8.3-13.2,9c1.3,0.9,2.7,0.9,3.5,0.7c0,0,0,0,0-0.1c0.4-1.2,1-2.1,1.7-2.3
	c0.4-0.1,0.8,0,1,0.3l0.1,0.1c0.3,0.3,0.4,0.7,0.3,1C-871.2,559.1-872.2,559.8-873.4,560.1z M-872.2,557.9c-0.2,0-0.5,0.4-0.8,1
	c0.6-0.3,1-0.6,1-0.8L-872.2,557.9z"/>
<g>
	<path class="st0" d="M-860.6,544.1c0,0-0.1,0-0.1,0c-3.1-0.8-6.3-1.6-10.1-5.5c-3.2-3.2-5.5-6.7-6.6-10c-1.1-3.2-0.8-5.9,0.7-7.4
		c0.1-0.1,0.3-0.2,0.6-0.2c0,0,0,0,0,0c1.7,0,6.9,4.8,18.6,17.1c0.1,0.1,0.2,0.4,0.1,0.6l-0.3,0.7c-0.7,1.5-1.4,3.1-2.4,4.7
		C-860.3,544-860.4,544.1-860.6,544.1z M-876.1,521.9c-1.2,1.3-1.3,3.6-0.4,6.4c1,3.1,3.3,6.5,6.4,9.6c3.5,3.6,6.3,4.4,9.3,5.2
		c0.8-1.4,1.5-2.9,2.2-4.2l0.2-0.4C-862.7,534-874.2,521.9-876.1,521.9z"/>
	<path class="st0" d="M-841.6,563.6c0,0-0.1,0-0.1,0c-0.2-0.1-0.3-0.2-0.3-0.4c0-0.1-1.5-6.2-9-13.7c-1.7-1.7-3.4-3-5.1-3.8
		c-0.2-0.1-0.3-0.3-0.3-0.4s3.9-2,4.1-1.8c0.6,0.7,1.2,1.3,1.8,1.9c0.7,0.7,1.3,1.3,1.8,1.9c7.5,7.6,13.6,8.9,13.6,8.9
		c0.2,0,0.3,0.2,0.4,0.3c0.1,0.2,0,0.4-0.1,0.5c-1.2,1.2-3,1.8-4.8,1.6c0.2,1.8-0.4,3.5-1.6,4.8
		C-841.3,563.5-841.5,563.6-841.6,563.6z M-854.8,545.3c1.5,0.9,3,2,4.5,3.5c6.1,6.1,8.3,11.2,9,13.2c1-1.5,0.8-3.2,0.7-3.9
		c0-0.2,0-0.3,0.1-0.5s0.3-0.2,0.5-0.1c0.7,0.1,2.4,0.3,3.9-0.7c-2-0.7-7.2-2.8-13.2-9c-0.6-0.6-1.2-1.2-1.8-1.9
		c-0.5-0.5-1-1.1-1.6-1.6C-853.5,544.7-854.2,545-854.8,545.3z"/>
</g>
</svg>
