<svg id="Ebene_1" data-name="Ebene 1" xmlns="http://www.w3.org/2000/svg" viewBox="0 0 30 30"><defs><style>.cls-1{fill:#fff;}</style></defs><title>icons_header</title><path class="cls-1" d="M15,30A15,15,0,1,1,30,15,15,15,0,0,1,15,30ZM15,0.73A14.27,14.27,0,1,0,29.27,15,14.28,14.28,0,0,0,15,.73Z"/><path class="cls-1" d="M23.33,21.55H6.64a0.18,0.18,0,0,1-.19-0.19V9A0.18,0.18,0,0,1,6.64,8.8h16.7a0.18,0.18,0,0,1,.19.19V21.36A0.18,0.18,0,0,1,23.33,21.55ZM6.82,21.17H23.15v-12H6.82v12Z"/><path class="cls-1" d="M23.33,21.67H6.64a0.3,0.3,0,0,1-.31-0.31V9a0.3,0.3,0,0,1,.31-0.31h16.7a0.3,0.3,0,0,1,.31.31V21.36A0.3,0.3,0,0,1,23.33,21.67ZM6.64,8.92A0.06,0.06,0,0,0,6.57,9V21.36a0.06,0.06,0,0,0,.06.06h16.7a0.06,0.06,0,0,0,.06-0.06V9a0.06,0.06,0,0,0-.06-0.06H6.64ZM23.27,21.29H6.7V9H23.27V21.29ZM6.94,21.05H23V9.29H6.94V21.05Z"/><path class="cls-1" d="M15,19.35a1.23,1.23,0,0,1-1.08-.52,2.13,2.13,0,0,1-.34-1.27,7.48,7.48,0,0,1,1.19-3.65A9.77,9.77,0,0,0,6.67,9.17a0.19,0.19,0,0,1,0-.37A10.17,10.17,0,0,1,15,13.57,10.09,10.09,0,0,1,23.37,8.8a0.19,0.19,0,1,1,0,.37,9.88,9.88,0,0,0-8.16,4.77,7.7,7.7,0,0,1,1.23,3.65,2.21,2.21,0,0,1-.34,1.27A1.49,1.49,0,0,1,15,19.35Zm0-5.07a6.68,6.68,0,0,0-1,3.28,2,2,0,0,0,.26,1,1,1,0,0,0,1.57,0,1.66,1.66,0,0,0,.26-1A7.22,7.22,0,0,0,15,14.28Z"/><path class="cls-1" d="M15,19.47a1.34,1.34,0,0,1-1.18-.58,2.23,2.23,0,0,1-.36-1.33,7.54,7.54,0,0,1,1.17-3.65A9.72,9.72,0,0,0,6.67,9.29a0.31,0.31,0,0,1,0-.62A10.25,10.25,0,0,1,15,13.35a10.2,10.2,0,0,1,8.39-4.67,0.31,0.31,0,1,1,0,.62,9.74,9.74,0,0,0-8,4.65,7.72,7.72,0,0,1,1.21,3.65,2.34,2.34,0,0,1-.36,1.33A1.62,1.62,0,0,1,15,19.47ZM6.67,8.92a0.06,0.06,0,0,0,0,.13c4.8,0,7.48,3.67,8.19,4.79l0,0.06,0,0.06a7.34,7.34,0,0,0-1.17,3.59A2,2,0,0,0,14,18.75a1.11,1.11,0,0,0,1,.47,1.37,1.37,0,0,0,1-.44,2.11,2.11,0,0,0,.31-1.19A7.54,7.54,0,0,0,15.1,14l0-.07,0-.06A10,10,0,0,1,23.37,9a0.06,0.06,0,1,0,0-.13,10,10,0,0,0-8.28,4.71l-0.1.16-0.1-.15A10,10,0,0,0,6.67,8.92ZM15,19.1a1,1,0,0,1-.88-0.42,2.06,2.06,0,0,1-.28-1.11,6.83,6.83,0,0,1,1.06-3.34L15,14l0.1,0.18a7.35,7.35,0,0,1,1.06,3.34,1.76,1.76,0,0,1-.29,1.12A1,1,0,0,1,15,19.1Zm0-4.57a6.44,6.44,0,0,0-.92,3,1.84,1.84,0,0,0,.24,1,0.89,0.89,0,0,0,1.36,0,1.53,1.53,0,0,0,.24-1A6.89,6.89,0,0,0,15,14.53Z"/></svg>
