<svg id="Ebene_1" data-name="Ebene 1" xmlns="http://www.w3.org/2000/svg" viewBox="0 0 30 30"><defs><style>.cls-1{fill:#666;}</style></defs><title>icons_header</title><path class="cls-1" d="M15,30.17a15,15,0,1,1,15-15A15,15,0,0,1,15,30.17ZM15,0.9A14.27,14.27,0,1,0,29.27,15.17,14.28,14.28,0,0,0,15,.9Z"/><path class="cls-1" d="M19.52,23.44a9.63,9.63,0,0,1-3.41-.6,12.87,12.87,0,0,0-7-.17,4.56,4.56,0,0,1-1.92.15h0c-0.64-.22-0.41-1-0.1-2.08,0.5-1.73,1.35-4.62-.33-7.24a4.2,4.2,0,0,1-.28-4.32A3.52,3.52,0,0,1,12,8.25a3.63,3.63,0,0,1,2.94-1.35,3.7,3.7,0,0,1,3,1.41h0a3.68,3.68,0,0,1,2.4-1,3.56,3.56,0,0,1,3.18,1.86,4.2,4.2,0,0,1-.28,4.32c-1.64,2.57-.86,5.25-0.34,7,0.32,1.11.56,1.91,0,2.27A8,8,0,0,1,19.52,23.44Zm-6.81-1.92a10.25,10.25,0,0,1,3.66.63,9.12,9.12,0,0,0,6.13,0,4.71,4.71,0,0,0-.3-1.44C21.67,19,20.8,16,22.62,13.14a3.48,3.48,0,0,0,.25-3.58,2.81,2.81,0,0,0-2.54-1.48,3,3,0,0,0-2,.87A4.49,4.49,0,0,1,18.86,11c0,1.23-.58,2.06-1.44,2.06a1.22,1.22,0,0,1-1.27-1.37,4.75,4.75,0,0,1,1.19-2.77l0.07-.08-0.06-.08a3,3,0,0,0-2.44-1.13,2.93,2.93,0,0,0-2.38,1.09l0,0.05a5,5,0,0,1,1.28,2.92,1.5,1.5,0,0,1-.28.94,1.11,1.11,0,0,1-.92.42c-0.91,0-1.52-.87-1.52-2.15a4.34,4.34,0,0,1,.52-2A2.89,2.89,0,0,0,9.66,8,2.81,2.81,0,0,0,7.13,9.52a3.48,3.48,0,0,0,.25,3.58c1.85,2.9.95,6,.41,7.84a6.72,6.72,0,0,0-.29,1.2A7.46,7.46,0,0,0,9,21.95,20.23,20.23,0,0,1,12.71,21.52Zm5.1-12a4,4,0,0,0-.92,2.17c0,0.56.27,0.64,0.53,0.64,0.49,0,.71-0.67.71-1.33A3.71,3.71,0,0,0,17.81,9.52Zm-5.7-.09a3.65,3.65,0,0,0-.32,1.47c0,0.68.25,1.42,0.79,1.42,0.14,0,.47,0,0.47-0.63A4.13,4.13,0,0,0,12.11,9.43Z"/></svg>