<?xml version="1.0" encoding="utf-8"?>
<!-- Generator: Adobe Illustrator 19.1.0, SVG Export Plug-In . SVG Version: 6.00 Build 0)  -->
<svg version="1.1" id="Ebene_1" xmlns="http://www.w3.org/2000/svg" xmlns:xlink="http://www.w3.org/1999/xlink" x="0px" y="0px"
	 viewBox="-882.3 523.5 45.8 31.1" style="enable-background:new -882.3 523.5 45.8 31.1;" xml:space="preserve">
<style type="text/css">
	.st0{fill:#CE5100;}
</style>
<path class="st0" d="M-881.8,554.6c-0.3,0-0.5-0.2-0.5-0.5c0-0.3,0.2-0.5,0.5-0.5c6.2,0,10.9-3.9,13.4-8c-1.1-2.1-1.7-4.1-1.7-5.7
	c0-0.9,0.2-1.7,0.6-2.2c0.4-0.6,1.1-0.9,1.8-0.9c1.4,0,2.3,1.1,2.3,2.9c0,1.6-0.7,3.8-1.9,5.9c2.3,4,6.8,7.9,12.9,7.9
	c0.3,0,0.5,0.2,0.5,0.5s-0.2,0.5-0.5,0.5c-6.4,0-11-3.8-13.5-7.9C-870.6,550.7-875.5,554.6-881.8,554.6
	C-881.8,554.6-881.8,554.6-881.8,554.6z M-867.7,537.8c-0.5,0-0.8,0.2-1,0.5c-0.3,0.4-0.4,0.9-0.4,1.6c0,1.3,0.4,3,1.3,4.7
	c0.9-1.8,1.5-3.5,1.4-4.9C-866.4,538.4-866.8,537.8-867.7,537.8z"/>
<path class="st0" d="M-854.4,554.6c-0.1,0-0.2,0-0.2-0.1c-0.2-0.1-0.3-0.3-0.3-0.5l0.2-7.4c0-0.1,0-0.1,0.1-0.2l11.3-22.7
	c0.1-0.1,0.2-0.2,0.3-0.3c0.1,0,0.3,0,0.4,0l5.9,3c0.2,0.1,0.3,0.4,0.2,0.7l-11.3,22.5c0,0.1-0.1,0.1-0.1,0.2l-6.1,4.6
	C-854.2,554.6-854.3,554.6-854.4,554.6z M-853.7,546.8l-0.2,6.3l5.2-3.9l11-22l-5-2.5L-853.7,546.8z"/>
<path class="st0" d="M-848.2,550C-848.2,550-848.2,550-848.2,550c-0.3,0-0.5-0.3-0.5-0.5c0-0.8-0.1-3.1-1.3-3.7
	c-1.2-0.6-3.2,0.8-3.8,1.3c-0.2,0.2-0.5,0.2-0.7,0c-0.2-0.2-0.2-0.5,0-0.7c0.1-0.1,2.9-2.5,5-1.5c2.1,1,1.9,4.5,1.9,4.7
	C-847.7,549.8-847.9,550-848.2,550z"/>
<path class="st0" d="M-850.3,544c-0.1,0-0.2,0-0.2-0.1c-0.2-0.1-0.3-0.4-0.2-0.7l8.4-16.8c0.1-0.2,0.4-0.3,0.7-0.2
	c0.2,0.1,0.3,0.4,0.2,0.7l-8.4,16.8C-849.9,543.9-850.1,544-850.3,544z"/>
<path class="st0" d="M-847.9,544.8c-0.1,0-0.2,0-0.2-0.1c-0.2-0.1-0.3-0.4-0.2-0.7l8.4-16.8c0.1-0.2,0.4-0.3,0.7-0.2
	c0.2,0.1,0.3,0.4,0.2,0.7l-8.4,16.8C-847.5,544.7-847.7,544.8-847.9,544.8z"/>
</svg>
