<?xml version="1.0" encoding="utf-8"?>
<!-- Generator: Adobe Illustrator 19.2.1, SVG Export Plug-In . SVG Version: 6.00 Build 0)  -->
<svg version="1.1" id="Ebene_1" xmlns="http://www.w3.org/2000/svg" xmlns:xlink="http://www.w3.org/1999/xlink" x="0px" y="0px"
	 viewBox="0 0 60 60" style="enable-background:new 0 0 60 60;" xml:space="preserve">
<style type="text/css">
	.st0{fill:none;stroke:#FFFFFF;stroke-width:2;stroke-miterlimit:10;}
	.st1{fill:none;stroke:#FFFFFF;stroke-width:2;stroke-linecap:round;stroke-linejoin:round;stroke-miterlimit:10;}
</style>
<g>
	<g>
		<circle class="st0" cx="30" cy="30" r="30"/>
		<path class="st1" d="M17.6,19.1c-2.6-4.1-0.2-8.8,4.1-8.8c4.7,0,7.7,7.9,4.6,7.9c-3,0-2.5-8.5,3.7-8.5s6.8,8.5,3.9,8.5
			c-3.4,0-0.1-7.8,4.6-7.8c4.3,0,6.7,4.7,4.1,8.8"/>
		<circle class="st1" cx="30" cy="36.2" r="14.2"/>
		<path class="st1" d="M19,27.2C21.6,24,25.6,22,30,22s8.4,2,11,5.2c-0.4-2.4-0.4-5.3,1.4-8.1c2.6-4.1,0.2-8.8-4.1-8.8
			c-1.5,0-2.8,0.8-3.8,1.8c-0.9-1.4-2.4-2.5-4.6-2.5s-3.6,1-4.5,2.4c-1-1-2.3-1.8-3.7-1.8c-4.3,0-6.7,4.7-4.1,8.8
			C19.3,21.8,19.4,24.7,19,27.2z"/>
	</g>
</g>
</svg>
