<?xml version="1.0" encoding="UTF-8" standalone="no"?>
<svg width="40px" height="40px" viewBox="0 0 40 40" version="1.1" xmlns="http://www.w3.org/2000/svg" xmlns:xlink="http://www.w3.org/1999/xlink">
    <!-- Generator: Sketch 41.2 (35397) - http://www.bohemiancoding.com/sketch -->
    <title>FB</title>
    <desc>Created with Sketch.</desc>
    <defs></defs>
    <g id="Page-1" stroke="none" stroke-width="1" fill="none" fill-rule="evenodd">
        <g id="Front-Page" transform="translate(-637.000000, -4916.000000)" fill="#7F7F7F">
            <g id="Footer" transform="translate(0.000000, 4817.000000)">
                <g id="Content" transform="translate(130.000000, 60.000000)">
                    <g id="Let's-be-friends" transform="translate(507.000000, 0.000000)">
                        <g id="FB" transform="translate(0.000000, 39.000000)">
                            <g id="Group-4">
                                <path d="M19.7635,39.78 C8.8825,39.78 0.0305,30.928 0.0305,20.0475 C0.0305,9.1665 8.8825,0.3145 19.7635,0.3145 C30.6445,0.3145 39.4965,9.1665 39.4965,20.0475 C39.4965,30.928 30.6445,39.78 19.7635,39.78 L19.7635,39.78 Z M19.7635,1.8145 C9.7095,1.8145 1.5305,9.9935 1.5305,20.0475 C1.5305,30.101 9.7095,38.28 19.7635,38.28 C29.817,38.28 37.9965,30.101 37.9965,20.0475 C37.9965,9.9935 29.817,1.8145 19.7635,1.8145 L19.7635,1.8145 Z" id="Facebook-Circle"></path>
                                <g id="facebook-letter-logo" transform="translate(15.513500, 10.797250)">
                                    <g id="Capa_1">
                                        <path d="M1.85489356,3.57552204 L1.85489356,6.11736195 L0.0292871287,6.11736195 L0.0292871287,9.22553364 L1.85489356,9.22553364 L1.85489356,18.4619269 L5.60507673,18.4619269 L5.60507673,9.22579118 L8.12162376,9.22579118 C8.12162376,9.22579118 8.35730941,7.73544664 8.47155446,6.10590139 L5.61925743,6.10590139 L5.61925743,3.98071926 C5.61925743,3.66308585 6.02814109,3.23582599 6.4322698,3.23582599 L8.4755099,3.23582599 L8.4755099,4.29234342e-05 L5.69739851,4.29234342e-05 C1.76219307,-0.000171693735 1.85489356,3.11109049 1.85489356,3.57552204 Z" id="Facebook"></path>
                                    </g>
                                </g>
                            </g>
                        </g>
                    </g>
                </g>
            </g>
        </g>
    </g>
</svg>