<?xml version="1.0" encoding="utf-8"?>
<!-- Generator: Adobe Illustrator 17.0.0, SVG Export Plug-In . SVG Version: 6.00 Build 0)  -->
<!DOCTYPE svg PUBLIC "-//W3C//DTD SVG 1.1//EN" "http://www.w3.org/Graphics/SVG/1.1/DTD/svg11.dtd">
<svg version="1.1" id="Layer_1" xmlns="http://www.w3.org/2000/svg" xmlns:xlink="http://www.w3.org/1999/xlink" x="0px" y="0px"
	 width="32.249px" height="69.092px" viewBox="239.876 221.455 32.249 69.092"
	 enable-background="new 239.876 221.455 32.249 69.092" xml:space="preserve">
<path fill="#FFFFFF" d="M250.503,225.014c2.694-2.565,6.527-3.432,10.142-3.54c3.823-0.034,7.645-0.014,11.469-0.012
	c0.015,4.033,0.016,8.068-0.001,12.101c-2.471-0.004-4.943,0.006-7.414-0.004c-1.567-0.098-3.176,1.09-3.46,2.643
	c-0.038,2.699-0.014,5.399-0.012,8.098c3.624,0.015,7.248-0.005,10.872,0.009c-0.265,3.904-0.75,7.791-1.318,11.662
	c-3.201,0.03-6.404-0.003-9.605,0.017c-0.029,11.515,0.015,23.03-0.022,34.545c-4.755,0.019-9.512-0.009-14.267,0.013
	c-0.09-11.517,0.007-23.039-0.049-34.557c-2.32-0.024-4.641,0.017-6.96-0.019c0.009-3.871,0.003-7.743,0.004-11.613
	c2.318-0.028,4.638,0.006,6.956-0.016c0.07-3.764-0.071-7.531,0.073-11.292C247.141,230.072,248.276,227.071,250.503,225.014z"/>
</svg>
