<?xml version="1.0" encoding="utf-8"?>
<!-- Generator: Adobe Illustrator 19.1.0, SVG Export Plug-In . SVG Version: 6.00 Build 0)  -->
<svg version="1.1" id="Ebene_1" xmlns="http://www.w3.org/2000/svg" xmlns:xlink="http://www.w3.org/1999/xlink" x="0px" y="0px"
	 viewBox="-879.9 518.1 45.8 45.8" style="enable-background:new -879.9 518.1 45.8 45.8;" xml:space="preserve">
<style type="text/css">
	.st0{fill:#CE5100;}
</style>
<g>
	<path class="st0" d="M-857,563.9c-12.6,0-22.9-10.3-22.9-22.9s10.3-22.9,22.9-22.9s22.9,10.3,22.9,22.9S-844.4,563.9-857,563.9z
		 M-857,519.1c-12.1,0-21.9,9.8-21.9,21.9c0,12.1,9.8,21.9,21.9,21.9c12.1,0,21.9-9.8,21.9-21.9C-835.1,528.9-844.9,519.1-857,519.1
		z"/>
	<path class="st0" d="M-847.9,533.4c-0.1,0-0.2,0-0.3-0.1c-0.2-0.1-0.3-0.5-0.1-0.7c0.9-1.4,1-2.9,0.3-4.1c-0.6-1.1-1.6-1.7-2.9-1.7
		c-0.8,0-1.6,0.4-2.2,1c0.4,0.7,0.6,1.6,0.6,2.4c0,1.5-0.7,2.5-1.8,2.5c-0.9,0-1.5-0.6-1.5-1.7c0-1,0.5-2.3,1.4-3.3c0,0,0,0,0,0
		c-0.5-0.6-1.3-1.3-2.8-1.3c-1.1,0-2,0.4-2.7,1.2c0.9,1.1,1.5,2.4,1.5,3.4c0,1-0.6,1.7-1.5,1.7c-1.1,0-1.8-1-1.8-2.6
		c0-0.8,0.2-1.7,0.6-2.4c-0.6-0.6-1.4-0.9-2.2-0.9c-1.2,0-2.2,0.6-2.8,1.7c-0.7,1.3-0.6,2.8,0.2,4.1c0.1,0.2,0.1,0.5-0.2,0.7
		c-0.2,0.1-0.5,0.1-0.7-0.2c-1-1.6-1.1-3.6-0.3-5.2c0.8-1.4,2.1-2.2,3.7-2.2c1,0,1.9,0.4,2.7,1.1c0.6-0.7,1.7-1.5,3.4-1.5
		c1.8,0,2.9,0.9,3.5,1.6c0.8-0.7,1.8-1.1,2.8-1.1c1.6,0,3,0.8,3.8,2.2c0.8,1.6,0.7,3.5-0.4,5.2
		C-847.6,533.3-847.7,533.4-847.9,533.4z M-853.9,528.6c-0.6,0.8-1,1.7-1,2.4c0,0.2,0,0.4,0.1,0.5c0,0,0.1,0.1,0.4,0.1
		c0.5,0,0.8-0.7,0.8-1.5C-853.5,529.6-853.7,529.1-853.9,528.6z M-860.4,528.4c-0.2,0.5-0.3,1-0.3,1.6c0,0.8,0.3,1.6,0.8,1.6
		c0.2,0,0.5,0,0.5-0.7C-859.4,530.3-859.8,529.3-860.4,528.4z"/>
	<path class="st0" d="M-857,556.7c-6.1,0-11.1-5-11.1-11.1c0-6.1,5-11.1,11.1-11.1c6.1,0,11.1,5,11.1,11.1
		C-845.9,551.7-850.9,556.7-857,556.7z M-857,535.5c-5.6,0-10.1,4.5-10.1,10.1c0,5.6,4.5,10.1,10.1,10.1s10.1-4.5,10.1-10.1
		C-846.9,540-851.4,535.5-857,535.5z"/>
	<g>
		<path class="st0" d="M-854.4,549.7c-1.4,0-2.2-0.5-2.6-1c-0.4,0.5-1.3,1-2.7,1c-2.5,0-3.4-1.1-3.4-2.1c0-0.8,0.6-1.7,1.7-1.7
			c0.5,0,0.7,0.2,0.9,0.3c0.2,0.2,0.3,0.5,0.3,0.8c0,0.6-0.5,1.2-1.2,1.2c-0.3,0-0.5-0.2-0.5-0.5s0.2-0.5,0.5-0.5
			c0.2,0,0.2-0.1,0.2-0.2c0-0.1-0.1-0.1-0.2-0.1c-0.5,0-0.7,0.4-0.7,0.7c0,0.5,0.7,1.1,2.4,1.1c1.8,0,2.2-1,2.2-1.1
			c0.1-0.2,0.3-0.3,0.5-0.3c0.2,0,0.4,0.1,0.5,0.3c0,0,0.4,1.1,2.1,1.1c1.8,0,2.3-0.7,2.3-1.1c0-0.6-0.4-0.7-0.7-0.7
			c-0.1,0-0.2,0-0.2,0.1c0,0,0,0.2,0.2,0.2c0.3,0,0.5,0.2,0.5,0.5s-0.2,0.5-0.5,0.5c-0.8,0-1.2-0.6-1.2-1.2c0-0.3,0.1-0.6,0.3-0.8
			c0.2-0.2,0.4-0.3,0.9-0.3c1,0,1.7,0.7,1.7,1.7C-851.1,548.6-852,549.7-854.4,549.7z"/>
	</g>
	<path class="st0" d="M-865.2,539.4c-0.1,0-0.1,0-0.2,0c-0.2-0.1-0.3-0.3-0.3-0.5c0.3-2.2,0-4.1-1-5.6c-1.1-1.7-1.2-3.6-0.4-5.2
		c0.8-1.4,2.2-2.2,3.8-2.2c1,0,2,0.4,2.8,1c0.7-0.8,1.8-1.5,3.4-1.5c1.5,0,2.7,0.6,3.6,1.7c2.3-2,5.3-1.2,6.5,1.1
		c0.9,1.6,0.8,3.5-0.3,5.2c-1.4,2.1-1.3,4.2-1,5.7c0,0.2-0.1,0.4-0.3,0.5c-0.2,0.1-0.4,0-0.6-0.1c-2-2.4-4.8-3.7-7.8-3.7
		c-3,0-6,1.4-7.8,3.7C-864.9,539.3-865.1,539.4-865.2,539.4z M-857,534.5c2.8,0,5.5,1,7.5,3c-0.1-1.4,0.2-3.1,1.3-4.9
		c0.8-1.3,0.9-2.9,0.2-4.1c-0.6-1.1-1.6-1.7-2.8-1.7c-1.1,0-2,0.7-2.5,1.3c-0.1,0.1-0.3,0.2-0.4,0.1c-0.2,0-0.3-0.1-0.4-0.2
		c-0.7-1.1-1.7-1.7-3.1-1.7c-1.2,0-2.3,0.5-3,1.6c-0.1,0.1-0.2,0.2-0.4,0.2c-0.2,0-0.3-0.1-0.4-0.2c-0.6-0.7-1.5-1.1-2.4-1.1
		c-1.3,0-2.3,0.6-2.9,1.7c-0.7,1.2-0.5,2.8,0.3,4.1c0.9,1.4,1.4,3,1.3,4.8C-862.6,535.6-859.8,534.5-857,534.5z"/>
</g>
</svg>
