<?xml version="1.0" encoding="UTF-8" standalone="no"?>
<svg width="30px" height="30px" viewBox="0 0 30 30" version="1.1" xmlns="http://www.w3.org/2000/svg" xmlns:xlink="http://www.w3.org/1999/xlink">
    <!-- Generator: Sketch 41.2 (35397) - http://www.bohemiancoding.com/sketch -->
    <title>creative-process</title>
    <desc>Created with Sketch.</desc>
    <defs></defs>
    <g id="Page-1" stroke="none" stroke-width="1" fill="none" fill-rule="evenodd">
        <g id="Job-Page@1x" transform="translate(-132.000000, -1148.000000)" fill="#CE5100">
            <g id="Group-3" transform="translate(130.000000, 1148.000000)">
                <g id="creative-process" transform="translate(2.000000, 0.000000)">
                    <g id="Capa_1">
                        <g id="Group">
                            <path d="M20.0578776,15.4605306 C21.6776939,13.8406531 23.5370204,11.596102 23.5370204,8.59212245 C23.5370816,3.8847551 19.7073673,0.0550408163 15,0.0550408163 C10.2926327,0.0550408163 6.46297959,3.8847551 6.46297959,8.59218367 C6.46297959,11.596102 8.32230612,13.8407755 9.94218367,15.4605918 C10.6970816,16.2154898 10.7010612,17.6067551 10.6814694,18.6713878 L10.5361837,18.6713878 C10.1980408,18.6713878 9.92393878,18.9454898 9.92393878,19.2836327 L9.92393878,26.8053061 C9.92393878,27.1433878 10.1980408,27.417551 10.5361837,27.417551 L11.3504694,27.417551 L11.3504694,28.9653061 C11.3504694,29.303449 11.6246327,29.577551 11.9627143,29.577551 L18.0373469,29.577551 C18.3754286,29.577551 18.6495918,29.303449 18.6495918,28.9653061 L18.6495918,27.417551 L19.4639388,27.417551 C19.8020204,27.417551 20.0761837,27.1433878 20.0761837,26.8053061 L20.0761837,19.2836327 C20.0761837,18.9454898 19.8020204,18.6713878 19.4639388,18.6713878 L19.3185918,18.6713878 C19.299,17.6066327 19.3029796,16.2154898 20.0578776,15.4605306 Z M17.4250408,28.3531224 L12.574898,28.3531224 L12.574898,27.4176122 L17.4250408,27.4176122 L17.4250408,28.3531224 Z M11.1484286,26.1930612 L11.1484286,24.8727551 L16.9303469,24.8727551 C17.2684286,24.8727551 17.5425918,24.5986531 17.5425918,24.2605102 C17.5425918,23.9223061 17.2684286,23.6482653 16.9303469,23.6482653 L11.1484286,23.6482653 L11.1484286,19.8958776 L18.8516327,19.8958776 L18.8516327,21.2161837 L13.3583878,21.2161837 C13.0202449,21.2161837 12.7461429,21.4903469 12.7461429,21.8284286 C12.7461429,22.1665714 13.0202449,22.4406735 13.3583878,22.4406735 L18.8516327,22.4406735 L18.8516327,26.1930612 L11.1484286,26.1930612 Z M16.1583673,18.6713878 L18.3708367,11.8760816 C18.4462653,11.6444082 18.3771429,11.3900204 18.1946939,11.2283265 C18.0123673,11.0667551 17.7514286,11.0287347 17.5304082,11.1314694 L16.5034898,11.6090816 L15.572449,10.1256735 C15.4588776,9.94469388 15.259898,9.83522449 15.0454898,9.83895918 C14.8318163,9.84189796 14.635102,9.95608163 14.526551,10.1401224 L13.6523878,11.6223061 L12.4463265,11.1211224 C12.2242653,11.0289184 11.968898,11.0750816 11.7933673,11.2392857 C11.6177755,11.4034286 11.5544694,11.6550612 11.6314286,11.8828163 L13.9286327,18.6713878 L11.9061429,18.6713878 C11.928,17.4489184 11.9150204,15.7018163 10.8079592,14.5946939 C9.26485714,13.0516531 7.68734694,11.1317755 7.68734694,8.59218367 C7.68734694,4.56 10.9677551,1.27959184 14.9998776,1.27959184 C19.032,1.27959184 22.3124694,4.56 22.3124694,8.59218367 C22.3124694,11.1317755 20.7350204,13.0516531 19.1919184,14.5946939 C18.0849184,15.7017551 18.0718776,17.4489184 18.0936735,18.6713878 L16.1583673,18.6713878 Z M15.0426122,18.1429592 L13.224551,12.7705102 L13.6743673,12.9574286 C13.9564898,13.074551 14.2815306,12.9660612 14.4366122,12.7030408 L15.0702245,11.6287959 L15.7534898,12.7174286 C15.9175102,12.9787347 16.2503265,13.0771224 16.5303061,12.9471429 L16.7708571,12.8352245 L15.0426122,18.1429592 Z" id="Shape"></path>
                            <path d="M29.3877551,6.80938776 L26.7025102,6.80938776 C26.3644286,6.80938776 26.0902653,7.0834898 26.0902653,7.42163265 C26.0902653,7.75977551 26.3644286,8.03387755 26.7025102,8.03387755 L29.3877551,8.03387755 C29.7258367,8.03387755 30,7.75977551 30,7.42163265 C30,7.08342857 29.7258367,6.80938776 29.3877551,6.80938776 Z" id="Shape"></path>
                            <path d="M25.9401429,5.48002041 C26.0667551,5.48002041 26.1945306,5.44083673 26.3040612,5.35971429 L27.9517959,4.13902041 C28.2235714,3.93777551 28.2806327,3.55432653 28.0793265,3.28261224 C27.8780204,3.01089796 27.4945102,2.95383673 27.2229796,3.15514286 L25.5751837,4.37571429 C25.3034694,4.57702041 25.2463469,4.96046939 25.4476531,5.23212245 C25.5677755,5.3942449 25.7527347,5.48002041 25.9401429,5.48002041 Z" id="Shape"></path>
                            <path d="M27.9517959,10.7040612 L26.3040612,9.4834898 C26.0322857,9.2822449 25.648898,9.33936735 25.4477143,9.61095918 C25.2464082,9.88273469 25.3035306,10.2661224 25.5752449,10.4673673 L27.2229796,11.6880612 C27.3325714,11.7691837 27.4602857,11.8083673 27.586898,11.8083673 C27.7743061,11.8083673 27.9592653,11.7226531 28.0793265,11.5604694 C28.2806327,11.2888163 28.2235102,10.9053673 27.9517959,10.7040612 Z" id="Shape"></path>
                            <path d="M3.90973469,7.42163265 C3.90973469,7.0834898 3.63557143,6.80938776 3.2974898,6.80938776 L0.612244898,6.80938776 C0.274102041,6.80938776 0,7.0834898 0,7.42163265 C0,7.75977551 0.274102041,8.03387755 0.612244898,8.03387755 L3.2974898,8.03387755 C3.63563265,8.03387755 3.90973469,7.75971429 3.90973469,7.42163265 Z" id="Shape"></path>
                            <path d="M4.42481633,4.37571429 L2.77702041,3.15514286 C2.50530612,2.95389796 2.12191837,3.01102041 1.92067347,3.28267347 C1.71936735,3.55438776 1.7764898,3.93777551 2.04820408,4.13902041 L3.696,5.35971429 C3.80559184,5.44083673 3.93330612,5.48002041 4.05991837,5.48002041 C4.24732653,5.48002041 4.43228571,5.39430612 4.55234694,5.23212245 C4.75371429,4.96046939 4.69659184,4.57702041 4.42481633,4.37571429 Z" id="Shape"></path>
                            <path d="M3.696,9.4834898 L2.04820408,10.7040612 C1.77642857,10.9053673 1.71936735,11.2888163 1.92067347,11.5604694 C2.04073469,11.7225918 2.22569388,11.8083673 2.41310204,11.8083673 C2.53971429,11.8083673 2.6674898,11.7691837 2.77702041,11.6880612 L4.42481633,10.4673673 C4.69653061,10.2661224 4.75365306,9.88267347 4.55234694,9.61102041 C4.35116327,9.33930612 3.96765306,9.28218367 3.696,9.4834898 Z" id="Shape"></path>
                        </g>
                    </g>
                </g>
            </g>
        </g>
    </g>
</svg>