<?xml version="1.0" encoding="UTF-8" standalone="no"?>
<svg width="30px" height="30px" viewBox="0 0 30 30" version="1.1" xmlns="http://www.w3.org/2000/svg" xmlns:xlink="http://www.w3.org/1999/xlink">
    <!-- Generator: Sketch 41.2 (35397) - http://www.bohemiancoding.com/sketch -->
    <title>web-development</title>
    <desc>Created with Sketch.</desc>
    <defs></defs>
    <g id="Page-1" stroke="none" stroke-width="1" fill="none" fill-rule="evenodd">
        <g id="Job-Page@1x" transform="translate(-130.000000, -932.000000)" fill="#CE5100">
            <g id="Group-3" transform="translate(130.000000, 932.000000)">
                <g id="web-development">
                    <g id="Capa_1">
                        <g id="Group">
                            <path d="M14.9523061,21.3137755 C11.4945306,21.3137755 8.68144898,18.4875306 8.68144898,15.0135918 C8.68144898,11.5396531 11.4945306,8.71334694 14.9523061,8.71334694 C18.4100204,8.71334694 21.2231633,11.5396531 21.2231633,15.0135918 C21.2231633,18.4875306 18.4100816,21.3137755 14.9523061,21.3137755 Z M14.9523061,9.93783673 C12.1697143,9.93783673 9.90593878,12.2147755 9.90593878,15.0135918 C9.90593878,17.8123469 12.1697143,20.0892857 14.9523061,20.0892857 C17.734898,20.0892857 19.9986735,17.8123469 19.9986735,15.0135918 C19.9986735,12.2147755 17.734898,9.93783673 14.9523061,9.93783673 Z" id="Shape"></path>
                            <path d="M15.7060408,30 L15.7059796,30 L14.1716939,30 C12.6667959,30 11.4423673,28.7707347 11.4423061,27.2597143 L11.4423061,24.8439796 C11.1180612,24.7271633 10.7982857,24.5935102 10.4856735,24.4440612 L8.78779592,26.1506939 C8.27228571,26.6690204 7.58657143,26.954449 6.85702041,26.954449 C6.12753061,26.9545102 5.44169388,26.6691429 4.92606122,26.1508776 L3.84110204,25.0602245 C2.77891837,23.9927143 2.77885714,22.2552857 3.84097959,21.1872245 L5.54191837,19.4775918 C5.39240816,19.1620408 5.25863265,18.8390204 5.14187755,18.5113469 L2.74212245,18.5112245 C2.01238776,18.5112245 1.32679592,18.2258571 0.811285714,17.7076531 C0.296571429,17.1904286 0.0130408163,16.5026327 0.0130408163,15.7712449 L0.0130408163,14.2288776 C0.0130408163,12.7181633 1.23728571,11.488898 2.74206122,11.4885918 L5.142,11.4885918 C5.25881633,11.1607959 5.39253061,10.8378367 5.54191837,10.5224082 L3.84116327,8.81283673 C3.32644898,8.29555102 3.04285714,7.6077551 3.04285714,6.87636735 C3.04285714,6.14510204 3.32632653,5.45730612 3.84104082,4.93989796 L4.92606122,3.84930612 C5.44102041,3.33165306 6.12679592,3.04659184 6.85708163,3.04659184 C7.5872449,3.04659184 8.27295918,3.33159184 8.78797959,3.84918367 L10.4859184,5.55587755 C10.7984082,5.40655102 11.1181837,5.27283673 11.4424898,5.15608163 L11.4424898,2.74022449 C11.4423673,1.22926531 12.6666735,0 14.1715714,0 L15.7058571,0 C17.2108163,0 18.4351837,1.22926531 18.4351837,2.74022449 L18.4351837,5.15608163 C18.7594898,5.27289796 19.0792653,5.40661224 19.3917551,5.556 L21.0896939,3.84930612 C21.6048367,3.33097959 22.2906122,3.04542857 23.0204082,3.04542857 C23.7500816,3.04542857 24.4359184,3.33091837 24.951551,3.84936735 L26.0363265,4.93953061 C27.0985102,6.00716327 27.0985714,7.74465306 26.0365714,8.81271429 L24.335449,10.5226531 C24.4841633,10.8370408 24.6175102,11.1598163 24.7345102,11.4886531 L27.1354898,11.4888367 C27.8655306,11.4888367 28.5509388,11.7742041 29.0662653,12.2924082 C29.5809796,12.8096939 29.864449,13.4974898 29.864449,14.2288776 L29.8645714,15.771 C29.8645714,17.2817143 28.6403265,18.5110408 27.1354898,18.5114082 L24.7345714,18.5114082 C24.6175714,18.8401837 24.4842245,19.1630204 24.3355102,19.4774694 L26.0365102,21.1873469 C26.5512245,21.7045714 26.8347551,22.3923061 26.8347551,23.1236327 C26.8347551,23.854898 26.5513469,24.5426327 26.0366939,25.060102 L24.9516122,26.1507551 C24.4367755,26.6683469 23.751,26.9534082 23.0205306,26.9534082 C22.2903061,26.9534082 21.6045918,26.6684082 21.0895714,26.1508776 L19.3916327,24.4441224 C19.0790816,24.5935714 18.7593673,24.7272245 18.4351837,24.8439184 L18.435,27.2599592 C18.4352449,27.9909184 18.1518367,28.6786531 17.6369388,29.1962449 C17.1213061,29.7145102 16.4356531,29.9999388 15.7060408,30 Z M10.3657347,23.0917347 C10.4633878,23.0917347 10.5617143,23.1151837 10.6521429,23.1633673 C11.1587755,23.4334286 11.6903878,23.6557347 12.2323469,23.824102 C12.4871633,23.9032653 12.6607959,24.1390408 12.6607959,24.4058571 L12.6607959,27.2597143 C12.6608571,28.0988571 13.3386122,28.7815102 14.1717551,28.7815102 L15.7059796,28.7815102 C16.1089592,28.7815102 16.4879388,28.6236122 16.7731837,28.3368367 C17.0592245,28.0492653 17.2167551,27.6668571 17.2166327,27.2600204 L17.2168163,24.4056735 C17.2168776,24.1388571 17.390449,23.9030816 17.6453265,23.8239184 C18.187102,23.6556122 18.7186531,23.4333673 19.225102,23.1633673 C19.4622245,23.0370612 19.7540816,23.0807755 19.9436327,23.2713061 L21.9533878,25.2914082 C22.237898,25.5773878 22.6169388,25.7349184 23.0205306,25.7349184 C23.4242449,25.7349184 23.8032857,25.5773878 24.0877959,25.2914082 L25.1728163,24.2007551 C25.4587959,23.9131837 25.6163265,23.5305918 25.6163265,23.1235102 C25.6163265,22.7164898 25.4587959,22.3340204 25.1727551,22.0465714 L23.1630612,20.0264082 C22.975102,19.8374694 22.9317551,19.5482449 23.056102,19.3125306 C23.3226122,18.8073673 23.5435102,18.2725714 23.7127959,17.7227755 C23.7914694,17.4672245 24.0276735,17.2929184 24.2950408,17.2929184 L27.1354286,17.2929184 C27.968449,17.2927347 28.6462653,16.6099592 28.6462653,15.7709388 L28.6461429,14.2289388 C28.6461429,13.8217959 28.4886122,13.4392041 28.2025102,13.1516327 C27.9175102,12.8650408 27.5389592,12.7072653 27.1364694,12.7072653 L24.2949796,12.7070204 C24.0276122,12.7069592 23.7915306,12.5325918 23.7127959,12.2771633 C23.5435102,11.7274286 23.322551,11.1925714 23.056102,10.6875306 C22.9316939,10.4517551 22.9750408,10.1625306 23.1630612,9.97359184 L25.1727551,7.9534898 C25.7635102,7.35942857 25.7635102,6.39281633 25.1726939,5.79893878 L24.0878571,4.70877551 C23.8024898,4.42181633 23.423449,4.26391837 23.0205306,4.26391837 C22.617551,4.26391837 22.2386939,4.42181633 21.9538163,4.70846939 L19.9437551,6.72881633 C19.7542041,6.91928571 19.4622245,6.96306122 19.2251633,6.83669388 C18.7190204,6.56681633 18.1874082,6.3445102 17.6452041,6.17595918 C17.3903878,6.09679592 17.2167551,5.86102041 17.2167551,5.59420408 L17.2167551,2.74022449 C17.2167551,1.90114286 16.539,1.2184898 15.7058571,1.2184898 L14.1715714,1.2184898 C13.338551,1.2184898 12.6607959,1.90114286 12.6607959,2.74022449 L12.6607959,5.59414286 C12.6607959,5.86095918 12.4871633,6.09673469 12.2323469,6.17595918 C11.6901429,6.34438776 11.1585306,6.56669388 10.6522653,6.83657143 C10.4151429,6.96287755 10.1232857,6.91916327 9.93379592,6.72863265 L7.92410204,4.70853061 C7.63959184,4.42255102 7.26061224,4.26502041 6.85702041,4.26502041 C6.45342857,4.26502041 6.07438776,4.42255102 5.7897551,4.70865306 L4.70479592,5.79918367 C4.4187551,6.08669388 4.26122449,6.46922449 4.26122449,6.87636735 C4.26128571,7.28338776 4.41881633,7.66591837 4.70485714,7.95342857 L6.7144898,9.97346939 C6.9025102,10.1624694 6.94579592,10.4516939 6.82138776,10.6874694 C6.55297959,11.196 6.33171429,11.7307347 6.16365306,12.2769184 C6.08504082,12.5325306 5.84883673,12.7069592 5.58140816,12.7069592 L2.74212245,12.7069592 C1.90916327,12.7071429 1.23140816,13.3897959 1.23140816,14.2287551 L1.23140816,15.7711224 C1.23140816,16.1782041 1.38893878,16.5606735 1.67497959,16.8481837 C1.96022449,17.1348367 2.33902041,17.2927347 2.74163265,17.2927347 L5.58140816,17.2928571 C5.84883673,17.2928571 6.08504082,17.4673469 6.16365306,17.722898 C6.33153061,18.2685306 6.55279592,18.8033265 6.82144898,19.3124082 C6.94585714,19.5481837 6.9025102,19.8374082 6.7144898,20.0264082 L4.70485714,22.0463878 C4.11410204,22.6403878 4.11404082,23.6069388 4.70491837,24.2007551 L5.78981633,25.2914082 C6.07506122,25.5781224 6.45410204,25.7359592 6.85702041,25.7359592 C7.25993878,25.7359592 7.63885714,25.5780612 7.92397959,25.2913469 L9.93373469,23.2712449 C10.0509184,23.153449 10.2073469,23.0917347 10.3657347,23.0917347 Z" id="Shape"></path>
                        </g>
                    </g>
                </g>
            </g>
        </g>
    </g>
</svg>