<svg id="Ebene_1" data-name="Ebene 1" xmlns="http://www.w3.org/2000/svg" viewBox="0 0 30 30"><defs><style>.cls-1{fill:#fff;}</style></defs><title>icons_header</title><path class="cls-1" d="M15.75,17.61h-2.1V16.47a2.65,2.65,0,0,1,.18-1.11,4.07,4.07,0,0,1,.77-1L16,13a1.64,1.64,0,0,0,.43-1.16,1.57,1.57,0,0,0-.45-1.15,1.55,1.55,0,0,0-1.16-.46,1.68,1.68,0,0,0-1.18.44A1.76,1.76,0,0,0,13,11.88H10.79a3.83,3.83,0,0,1,1.29-2.6,4.13,4.13,0,0,1,2.77-.94,4,4,0,0,1,2.7.9,3.16,3.16,0,0,1,1,2.53A2.83,2.83,0,0,1,18,13.64a8.27,8.27,0,0,1-.54.63L17,14.75l-0.52.5-0.34.36a1.77,1.77,0,0,0-.34,1.16v0.84Zm-1,4.14a1.44,1.44,0,0,1-1-.4,1.28,1.28,0,0,1-.43-1,1.32,1.32,0,0,1,.42-1,1.39,1.39,0,0,1,1-.41,1.44,1.44,0,0,1,1,.4,1.28,1.28,0,0,1,.43,1,1.32,1.32,0,0,1-.42,1A1.39,1.39,0,0,1,14.73,21.74Z"/><path class="cls-1" d="M15,30A15,15,0,1,1,30,15,15,15,0,0,1,15,30ZM15,0.73A14.27,14.27,0,1,0,29.27,15,14.28,14.28,0,0,0,15,.73Z"/></svg>
