<?xml version="1.0" encoding="utf-8"?>
<!-- Generator: Adobe Illustrator 19.2.1, SVG Export Plug-In . SVG Version: 6.00 Build 0)  -->
<svg version="1.1" id="Ebene_1" xmlns="http://www.w3.org/2000/svg" xmlns:xlink="http://www.w3.org/1999/xlink" x="0px" y="0px"
	 viewBox="0 0 30 30" style="enable-background:new 0 0 30 30;" xml:space="preserve">
<style type="text/css">
	.st0{fill:#fff;}
	.st1{fill:#fff;stroke:#fff;stroke-width:0.25;stroke-miterlimit:10;}
</style>
<title>icons_header</title>
<path class="st0" d="M15,30C6.7,30,0,23.3,0,15S6.7,0,15,0s15,6.7,15,15S23.3,30,15,30z M15,1.1C7.3,1.1,1.1,7.3,1.1,15
	S7.3,28.9,15,28.9S28.9,22.7,28.9,15c0,0,0,0,0,0C28.9,7.3,22.7,1.1,15,1.1z"/>
<path class="st1" d="M19.8,19.8L19.8,19.8c-0.2,0.2-0.5,0.2-0.6,0l-8.9-8.9c-0.2-0.2-0.2-0.5,0-0.6l0,0c0.2-0.2,0.5-0.2,0.6,0
	l8.9,8.9C20,19.3,20,19.6,19.8,19.8z"/>
<path class="st1" d="M19.8,10.2L19.8,10.2c0.2,0.2,0.2,0.5,0,0.6l-8.9,8.9c-0.2,0.2-0.5,0.2-0.6,0l0,0c-0.2-0.2-0.2-0.5,0-0.6
	l8.9-8.9C19.3,10,19.6,10,19.8,10.2z"/>
</svg>
