<?xml version="1.0" encoding="utf-8"?>
<!-- Generator: Adobe Illustrator 19.1.0, SVG Export Plug-In . SVG Version: 6.00 Build 0)  -->
<svg version="1.1" id="Ebene_1" xmlns="http://www.w3.org/2000/svg" xmlns:xlink="http://www.w3.org/1999/xlink" x="0px" y="0px"
	 viewBox="-882 523.1 45.9 40.8" style="enable-background:new -882 523.1 45.9 40.8;" xml:space="preserve">
<style type="text/css">
	.st0{fill:#CE5100;}
</style>
<g>
	<path class="st0" d="M-865,562.4l-0.4-0.1c-8.9-1.5-15.7-8.8-16.5-17.7c-0.9-10.5,6.5-19.9,16.8-21.3l1-0.1l-2.2,3.6l5.1,3.2
		l-1.3,5.1l2.9,12.6L-865,562.4z M-866,524.4c-9.3,1.8-15.7,10.4-14.9,20.1c0.7,8.4,7,15.2,15.3,16.8l5.1-13.7l-2.9-12.6l1.1-4.7
		l-5.3-3.4L-866,524.4z"/>
	<path class="st0" d="M-863.3,557.8l-0.4,0c-7.2-0.6-12.9-6.3-13.6-13.6c-0.7-8,4.9-15.1,12.8-16.2l0.2,0l3.1,1.9l-1.3,5.1l2.8,12.6
		L-863.3,557.8z M-864.4,529c-7.3,1.1-12.5,7.8-11.8,15.1c0.6,6.6,5.7,11.8,12.3,12.6l3.3-9.2l-2.8-12.6l1.1-4.7L-864.4,529z"/>
</g>
<g>
	<path class="st0" d="M-855.8,563.9c-0.6,0-1.3,0-1.9-0.1c-1.8-0.1-3.4-0.6-4.7-1l-0.6-0.2l7.8-13.5l-0.5-12.9l2-4.4l-4.6-4.2
		l2.9-3.2h0.2c0.2,0,0.4,0,0.6,0.1c0.2,0,0.3,0,0.4,0l0,0c5.3,0.5,10,3,13.4,7.1c3.4,4.1,5,9.2,4.5,14.4c-0.4,5.2-2.9,10-7,13.4
		C-846.7,562.3-851.1,563.9-855.8,563.9z M-861.5,562c1.1,0.4,2.5,0.7,3.9,0.8c5,0.5,9.9-1,13.8-4.3c3.8-3.2,6.2-7.7,6.6-12.7
		c0.5-5-1-9.8-4.2-13.7c-3.2-3.9-7.7-6.2-12.7-6.7c-0.2,0-0.4,0-0.5-0.1c-0.1,0-0.1,0-0.2,0l-1.9,2.1l4.4,4l-2.2,4.8l0.5,12.9
		L-861.5,562z"/>
	<path class="st0" d="M-855.9,559.2c-0.5,0-0.9,0-1.4-0.1c-1-0.1-2-0.3-2.7-0.5l-0.6-0.2l5.5-9.3l-0.5-12.9l2-4.4l-3.8-3.4l2.2,0.7
		c0.2,0.1,0.4,0.1,0.6,0.1l0,0c8.2,0.8,14.3,8.2,13.5,16.3C-841.7,553.4-848.1,559.2-855.9,559.2z M-859,557.8
		c0.6,0.1,1.2,0.3,1.9,0.3c7.8,0.7,14.5-4.9,15.2-12.7c0.7-7.4-4.6-14-11.9-15.2l1.4,1.3l-2.2,4.8l0.5,12.9L-859,557.8z"/>
</g>
</svg>
