<?xml version="1.0" encoding="UTF-8" standalone="no"?>
<svg width="30px" height="20px" viewBox="0 0 30 20" version="1.1" xmlns="http://www.w3.org/2000/svg" xmlns:xlink="http://www.w3.org/1999/xlink">
    <!-- Generator: Sketch 41.2 (35397) - http://www.bohemiancoding.com/sketch -->
    <title>Capa_1</title>
    <desc>Created with Sketch.</desc>
    <defs></defs>
    <g id="Page-1" stroke="none" stroke-width="1" fill="none" fill-rule="evenodd">
        <g id="Job-Page@1x" transform="translate(-130.000000, -750.000000)" fill="#CE5100">
            <g id="Group-3" transform="translate(130.000000, 748.000000)">
                <g id="customer-reviews" transform="translate(0.000000, 2.000000)">
                    <g id="Capa_1">
                        <g id="Group">
                            <g id="Shape">
                                <path d="M27.3379592,5.59793878 C25.6693469,4.31706122 23.4599388,3.61163265 21.1165714,3.61163265 C19.6996531,3.61163265 18.3319592,3.87 17.103,4.35704082 C16.4887347,3.18783673 15.4639592,2.15240816 14.1603673,1.39891837 C12.6255918,0.511714286 10.8007959,0.0427959184 8.8834898,0.0427959184 C6.54012245,0.0427959184 4.33071429,0.74822449 2.66210204,2.02910204 C0.945367347,3.34677551 0,5.11377551 0,7.00444898 C0,8.70728571 0.778959184,10.3279592 2.20016327,11.596898 L2.22434694,15.7451633 C2.22557143,15.9616531 2.33540816,16.1717755 2.52808163,16.2704694 C2.75681633,16.3877143 2.97495918,16.3596735 3.13493878,16.2762245 L7.43828571,13.874449 C7.91540816,13.9354286 8.40042857,13.9662857 8.8834898,13.9662857 L8.88385714,13.9662857 C10.2828367,13.9662857 11.655551,13.7095102 12.8919184,13.2209388 C13.3430816,14.0851837 14.0182041,14.8757755 14.8951224,15.5489388 C16.5637347,16.8298163 18.7732041,17.5351837 21.1165714,17.5351837 C21.6019592,17.5351837 22.0897347,17.5039592 22.5693673,17.4423673 L26.878102,19.7131837 C27.1226327,19.8377143 27.3039184,19.8072857 27.4782857,19.6966531 C27.6588367,19.582102 27.7744898,19.3890612 27.7757755,19.1751429 L27.7999592,15.1658571 C29.2210408,13.8969796 30,12.2761837 30,10.5734082 C30,8.68273469 29.0546327,6.91579592 27.3379592,5.59793878 Z M8.88379592,12.7417347 L8.88342857,12.7417347 C8.38487755,12.7417347 7.884,12.7048776 7.39481633,12.6323878 C7.21965306,12.606551 7.05091837,12.6573061 6.92259184,12.7598571 L3.44265306,14.7021429 L3.42306122,11.3234694 C3.42330612,11.3112245 3.42306122,11.2988571 3.42244898,11.2864898 C3.41442857,11.114449 3.33440816,10.9537347 3.20179592,10.8437755 C1.92679592,9.78569388 1.2244898,8.42216327 1.2244898,7.00444898 C1.2244898,3.84091837 4.66034694,1.26722449 8.8834898,1.26722449 C12.0123061,1.26722449 14.8410612,2.72877551 15.9948367,4.87959184 C15.6076531,5.09387755 15.2396939,5.33344898 14.8950612,5.59793878 C13.1783878,6.91573469 12.2330204,8.68273469 12.2330204,10.5734082 C12.2330204,11.0879388 12.3036735,11.5932245 12.4401429,12.0829592 C11.3471633,12.5148367 10.129102,12.7417347 8.88379592,12.7417347 Z M26.7981429,14.4127347 C26.6656531,14.5226939 26.5856327,14.6835306 26.5776122,14.8555102 C26.577,14.8666531 26.5768776,14.8777347 26.5768776,14.8888163 L26.5572857,18.1599796 L23.0662041,16.3201224 C22.9393469,16.2233265 22.7753878,16.1761224 22.605,16.2013469 C22.1156939,16.2739592 21.6148776,16.3107551 21.116449,16.3107551 C17.658,16.3107551 14.7281633,14.5845918 13.7802857,12.2220612 C13.7763673,12.210551 13.7713469,12.1993469 13.7666327,12.1879592 C13.5657551,11.6755714 13.4573878,11.1337959 13.4573878,10.5734082 C13.4573878,7.34797959 16.9470612,4.83612245 21.116449,4.83612245 C25.2858367,4.83612245 28.7755102,7.40987755 28.7755102,10.5734082 C28.7755102,11.9910612 28.0732041,13.3545918 26.7981429,14.4127347 Z"></path>
                                <path d="M24.7132653,8.52214286 L17.5196939,8.52214286 C17.181551,8.52214286 16.907449,8.7962449 16.907449,9.13438776 C16.907449,9.47253061 17.181551,9.74663265 17.5196939,9.74663265 L24.7132653,9.74663265 C25.0512857,9.74663265 25.3255102,9.47253061 25.3255102,9.13438776 C25.3255102,8.7962449 25.0513469,8.52214286 24.7132653,8.52214286 Z"></path>
                                <path d="M24.7132653,11.2940204 L17.5196939,11.2940204 C17.181551,11.2940204 16.907449,11.5681224 16.907449,11.9062653 C16.907449,12.2444082 17.181551,12.5185102 17.5196939,12.5185102 L24.7132653,12.5185102 C25.0512857,12.5185102 25.3255102,12.2444082 25.3255102,11.9062653 C25.3255102,11.5681224 25.0513469,11.2940204 24.7132653,11.2940204 Z"></path>
                            </g>
                        </g>
                    </g>
                </g>
            </g>
        </g>
    </g>
</svg>