<?xml version="1.0" encoding="UTF-8" standalone="no"?>
<svg width="40px" height="40px" viewBox="0 0 40 40" version="1.1" xmlns="http://www.w3.org/2000/svg" xmlns:xlink="http://www.w3.org/1999/xlink">
    <!-- Generator: Sketch 41.2 (35397) - http://www.bohemiancoding.com/sketch -->
    <title>IG</title>
    <desc>Created with Sketch.</desc>
    <defs></defs>
    <g id="Page-1" stroke="none" stroke-width="1" fill="none" fill-rule="evenodd">
        <g id="Front-Page" transform="translate(-757.000000, -4917.000000)" fill="#7F7F7F">
            <g id="Footer" transform="translate(0.000000, 4817.000000)">
                <g id="Content" transform="translate(130.000000, 60.000000)">
                    <g id="Let's-be-friends" transform="translate(507.000000, 0.000000)">
                        <g id="IG" transform="translate(120.000000, 40.000000)">
                            <path d="M19.763,39.78 C8.8825,39.78 0.03,30.928 0.03,20.0475 C0.03,9.1665 8.8825,0.3145 19.763,0.3145 C30.644,0.3145 39.496,9.1665 39.496,20.0475 C39.496,30.928 30.644,39.78 19.763,39.78 L19.763,39.78 Z M19.763,1.8145 C9.7095,1.8145 1.53,9.9935 1.53,20.0475 C1.53,30.101 9.7095,38.28 19.763,38.28 C29.817,38.28 37.996,30.101 37.996,20.0475 C37.996,9.9935 29.817,1.8145 19.763,1.8145 L19.763,1.8145 Z" id="Instagram-Circle"></path>
                            <g id="instagram-logo" transform="translate(11.500000, 11.500000)">
                                <g id="Layer_1">
                                    <g id="Group">
                                        <path d="M11.5205647,0 L4.39096471,0 C1.96978824,0 0,1.96988235 0,4.39105882 L0,11.5206588 C0,13.9419294 1.96978824,15.9117176 4.39096471,15.9117176 L11.5205647,15.9117176 C13.9419294,15.9117176 15.9117176,13.9418353 15.9117176,11.5206588 L15.9117176,4.39105882 C15.9118118,1.96988235 13.9419294,0 11.5205647,0 Z M14.5000471,11.5206588 C14.5000471,13.1634824 13.1634824,14.4999529 11.5206588,14.4999529 L4.39096471,14.4999529 C2.74823529,14.5000471 1.41176471,13.1634824 1.41176471,11.5206588 L1.41176471,4.39105882 C1.41176471,2.74832941 2.74823529,1.41176471 4.39096471,1.41176471 L11.5205647,1.41176471 C13.1633882,1.41176471 14.4999529,2.74832941 14.4999529,4.39105882 L14.4999529,11.5206588 L14.5000471,11.5206588 Z" id="Shape"></path>
                                        <path d="M7.95585882,3.856 C5.69505882,3.856 3.85581176,5.69524706 3.85581176,7.95604706 C3.85581176,10.2167529 5.69505882,12.0559059 7.95585882,12.0559059 C10.2166588,12.0559059 12.0559059,10.2167529 12.0559059,7.95604706 C12.0559059,5.69524706 10.2166588,3.856 7.95585882,3.856 Z M7.95585882,10.6440471 C6.4736,10.6440471 5.26757647,9.43821176 5.26757647,7.95595294 C5.26757647,6.4736 6.47350588,5.26767059 7.95585882,5.26767059 C9.43821176,5.26767059 10.6441412,6.4736 10.6441412,7.95595294 C10.6441412,9.43821176 9.43811765,10.6440471 7.95585882,10.6440471 Z" id="Shape"></path>
                                        <path d="M12.2278588,2.65891765 C11.9558588,2.65891765 11.6886588,2.76903529 11.4965647,2.96197647 C11.3035294,3.15397647 11.1925647,3.42127059 11.1925647,3.69421176 C11.1925647,3.96630588 11.3036235,4.23350588 11.4965647,4.42644706 C11.6885647,4.61844706 11.9558588,4.72950588 12.2278588,4.72950588 C12.5008,4.72950588 12.7671529,4.61844706 12.9600941,4.42644706 C13.1530353,4.23350588 13.2631529,3.96621176 13.2631529,3.69421176 C13.2631529,3.42127059 13.1530353,3.15397647 12.9600941,2.96197647 C12.7680941,2.76903529 12.5008,2.65891765 12.2278588,2.65891765 Z" id="Shape"></path>
                                    </g>
                                </g>
                            </g>
                        </g>
                    </g>
                </g>
            </g>
        </g>
    </g>
</svg>