<?xml version="1.0" encoding="utf-8"?>
<!-- Generator: Adobe Illustrator 19.2.1, SVG Export Plug-In . SVG Version: 6.00 Build 0)  -->
<svg version="1.1" id="Ebene_1" xmlns="http://www.w3.org/2000/svg" xmlns:xlink="http://www.w3.org/1999/xlink" x="0px" y="0px"
	 viewBox="0 0 60 60" style="enable-background:new 0 0 60 60;" xml:space="preserve">
<style type="text/css">
	.st0{fill:none;stroke:#999999;stroke-miterlimit:10;}
	.st1{fill:none;stroke:#999999;stroke-linecap:round;stroke-linejoin:round;stroke-miterlimit:10;}
</style>
<g>
	<circle class="st0" cx="30" cy="31" r="20"/>
	<path class="st1" d="M21.7,23.7c-1.7-2.7-0.1-5.9,2.7-5.9c3.1,0,5.2,5.2,3,5.2c-2,0-1.7-5.7,2.4-5.7s4.6,5.7,2.6,5.7
		c-2.3,0-0.1-5.2,3-5.2c2.8,0,4.4,3.1,2.7,5.9"/>
	<circle class="st1" cx="30" cy="35.1" r="9.5"/>
	<path class="st1" d="M22.7,29.1c1.7-2.1,4.4-3.4,7.3-3.4c3,0,5.6,1.4,7.3,3.5c-0.3-1.6-0.2-3.5,1-5.4c1.7-2.7,0.1-5.9-2.7-5.9
		c-1,0-1.9,0.5-2.6,1.2c-0.6-0.9-1.6-1.7-3.1-1.7c-1.4,0-2.4,0.7-3,1.6c-0.7-0.7-1.5-1.2-2.5-1.2c-2.8,0-4.4,3.1-2.7,5.9
		C22.9,25.5,23,27.5,22.7,29.1z"/>
	<g>
		<path class="st1" d="M34.5,37.7c0.2-0.3,0.3-0.7,0.3-0.8C34.9,36.9,34.8,37.2,34.5,37.7z"/>
		<path class="st1" d="M25.4,37.7c-0.2-0.5-0.3-0.8-0.3-0.8C25.1,37,25.2,37.3,25.4,37.7z"/>
		<path class="st1" d="M34.9,36.9c-0.4-0.4-2.6-1.8-4.9,0.5c-2.3-2.3-4.5-0.9-4.9-0.5c0,0,0.1,0.3,0.4,0.8c0,0,0,0,0,0
			c0.6,1.1,1.9,2.8,4.6,2.8s4-1.8,4.6-2.8c0,0,0,0,0,0C34.8,37.2,34.9,36.9,34.9,36.9z"/>
	</g>
</g>
</svg>
