<?xml version="1.0" encoding="UTF-8" standalone="no"?>
<svg width="13px" height="22px" viewBox="0 0 13 22" version="1.1" xmlns="http://www.w3.org/2000/svg" xmlns:xlink="http://www.w3.org/1999/xlink">
    <!-- Generator: Sketch 41.2 (35397) - http://www.bohemiancoding.com/sketch -->
    <title>knife-fork</title>
    <desc>Created with Sketch.</desc>
    <defs></defs>
    <g id="Page-1" stroke="none" stroke-width="1" fill="none" fill-rule="evenodd" stroke-linecap="round" stroke-linejoin="round">
        <g id="Dashboard" transform="translate(-975.000000, -20.000000)" stroke="#CE5100" stroke-width="0.8">
            <g id="NAVBAR">
                <g id="knife-fork" transform="translate(975.000000, 21.000000)">
                    <path d="M0.466666667,5.55555556 C0.466666667,3.29 0.598888889,0.0433333333 1.48888889,0.0433333333 C2.37833333,0.0433333333 0.955,5.64444444 1.88777778,5.64444444 C3.31166667,5.64444444 2.11166667,0.0433333333 3.08833333,0.0433333333 C4.11,0.0433333333 3.08833333,5.64444444 4.28833333,5.64444444 C5.26666667,5.64444444 3.8,0.0433333333 4.68944444,0.0433333333 C5.57722222,0.0433333333 5.66611111,3.33333333 5.66611111,5.55555556 C5.66611111,7.77777778 3.44388889,9.95666667 3.44388889,13.9994444 C3.44388889,18.0444444 4.68944444,19.9566667 4.68944444,19.9566667 C2.99888889,19.9566667 2.33277778,17.9555556 2.99888889,17.9555556 L3.08833333,17.9555556 C3.75666667,17.9555556 3.04444444,19.9566667 1.4,19.9566667 C1.4,19.9566667 2.64555556,17.9988889 2.64555556,13.9994444 C2.64555556,10 0.466666667,7.82111111 0.466666667,5.55555556" id="Stroke-1"></path>
                    <path d="M10.1561111,0.0433333333 C11.0438889,0.0433333333 10.5122222,9.95666667 10.5122222,13.9561111 C10.5122222,17.9555556 11.7555556,19.9111111 11.7555556,19.9111111 C10.0672222,19.9111111 9.40111111,17.91 10.0672222,17.91 L10.1105556,17.91 C10.7766667,17.91 10.0672222,19.9111111 8.42222222,19.9111111 C8.42222222,19.9111111 9.66555556,17.9555556 9.66555556,13.9561111 C9.66555556,9.95666667 7.31111111,9.77888889 7.31111111,5.91166667 C7.35444444,2.48888889 8.68944444,0.0433333333 10.1561111,0.0433333333 Z" id="Stroke-2"></path>
                </g>
            </g>
        </g>
    </g>
</svg>