<?xml version="1.0" encoding="UTF-8" standalone="no"?>
<svg width="42px" height="31px" viewBox="0 0 42 31" version="1.1" xmlns="http://www.w3.org/2000/svg" xmlns:xlink="http://www.w3.org/1999/xlink">
    <!-- Generator: Sketch 3.6.1 (26313) - http://www.bohemiancoding.com/sketch -->
    <title>Group</title>
    <desc>Created with Sketch.</desc>
    <defs></defs>
    <style>#Fill-142{fill:#7f7f7f;}</style>
    <g id="Page-1" stroke="none" stroke-width="3" fill="none" fill-rule="evenodd">
        <g id="CHEF-ONE_Relaunch_Home" transform="translate(-827.000000, -19.000000)" stroke-width="2" fill="#888B87">
            <g id="Group-149" transform="translate(421.000000, 19.000000)">
                <g id="Group" transform="translate(406.000000, 0.000000)">
                    <path d="M40.786,29.938 L40.786,29.438 L1.676,29.438 L1.676,1.044 L40.286,1.044 L40.286,29.938 L40.786,29.938 L40.786,29.438 L40.786,29.938 L41.286,29.938 L41.286,0.544 C41.286,0.413 41.233,0.284 41.139,0.191 C41.046,0.098 40.918,0.044 40.786,0.044 L1.176,0.044 C1.044,0.044 0.915,0.098 0.822,0.191 C0.729,0.284 0.676,0.413 0.676,0.544 L0.676,29.938 C0.676,30.07 0.729,30.199 0.822,30.292 C0.915,30.385 1.044,30.438 1.176,30.438 L40.786,30.438 C40.918,30.438 41.046,30.385 41.139,30.292 C41.233,30.199 41.286,30.07 41.286,29.938 L40.786,29.938" id="Fill-142"></path>
                    <path d="M40.786,0.044 C33.33,0.044 27.422,3.641 23.404,8.063 C21.392,10.276 19.846,12.698 18.797,15.002 C17.751,17.308 17.197,19.49 17.195,21.264 C17.196,22.37 17.409,23.331 17.916,24.059 C18.42,24.79 19.259,25.224 20.255,25.215 C21.318,25.225 22.203,24.733 22.729,23.931 C23.262,23.131 23.489,22.074 23.49,20.855 C23.481,17.265 21.492,12.127 17.724,7.811 C13.958,3.504 8.363,0.043 1.176,0.044 C0.9,0.044 0.676,0.268 0.676,0.544 C0.676,0.82 0.9,1.044 1.176,1.044 C8.029,1.046 13.341,4.328 16.972,8.47 C20.601,12.603 22.5,17.621 22.49,20.855 C22.492,21.948 22.273,22.821 21.899,23.373 C21.518,23.922 21.036,24.204 20.255,24.215 C19.52,24.205 19.078,23.956 18.734,23.483 C18.395,23.006 18.193,22.242 18.194,21.264 C18.192,19.699 18.703,17.622 19.708,15.417 C21.213,12.104 23.821,8.497 27.38,5.734 C30.942,2.97 35.442,1.045 40.786,1.044 C41.062,1.044 41.286,0.82 41.286,0.544 C41.286,0.268 41.062,0.045 40.786,0.044" id="Fill-143"></path>
                </g>
            </g>
        </g>
    </g>
</svg>
