<?xml version="1.0" encoding="utf-8"?>
<!-- Generator: Adobe Illustrator 19.2.1, SVG Export Plug-In . SVG Version: 6.00 Build 0)  -->
<svg version="1.1" id="Ebene_1" xmlns="http://www.w3.org/2000/svg" xmlns:xlink="http://www.w3.org/1999/xlink" x="0px" y="0px"
	 viewBox="0 0 45.8 45.8" style="enable-background:new 0 0 45.8 45.8;" xml:space="preserve">
<style type="text/css">
	.st0{fill:#CE5100;}
</style>
<g>
	<path class="st0" d="M23,0.1C10.4,0.1,0.1,10.3,0.1,23S10.4,45.8,23,45.8c12.6,0,22.9-10.3,22.9-22.9S35.6,0.1,23,0.1z M23,44.8
		C10.9,44.8,1.1,35,1.1,23C1.1,10.9,10.9,1.1,23,1.1S44.9,10.9,44.9,23C44.9,35,35.1,44.8,23,44.8z"/>
	<path class="st0" d="M35.3,24.9c0.5-0.4,1-1.1,1-1.9c0-1.6-1.2-2.1-2.3-2.3l2.3-11.6c0-0.2,0-0.4-0.2-0.5c-0.2-0.1-0.4-0.1-0.5-0.1
		c0,0-2.5,1.2-4.9,1.4c-2.4,0.2-7-0.7-7-0.7c-0.2,0-0.3,0-0.4,0.1c-0.1,0.1-0.2,0.3-0.2,0.4l1.3,9c-0.5,0.2-1.5,0.7-2.3,1.9
		c-1,1.4-2.7,1.6-3.6,1.7v-0.5c0-0.3-0.2-0.5-0.5-0.5H8c-0.3,0-0.5,0.2-0.5,0.5c0,3,1.5,5.3,3.3,6.7c-1.8,1.4-3.3,3.6-3.3,6.7
		c0,0.3,0.2,0.5,0.5,0.5h10c0.3,0,0.5-0.2,0.5-0.5v-1.1c1.3,0.2,3.5,0.6,4.3,1.3c1.5,1.1,3.6,1.1,4.8,1.1h3c1.5,0,3.1-0.7,3.1-2.2
		c0-0.6-0.2-1.1-0.5-1.5c0.5-0.1,1.1-0.3,1.6-0.7c0.4-0.4,0.7-0.9,0.7-1.5c0-0.7-0.2-1.3-0.6-1.7c0.4-0.1,0.7-0.3,1-0.5
		c0.4-0.4,0.6-0.8,0.6-1.4C36.5,25.9,36,25.3,35.3,24.9z M30.8,11c1.7-0.1,3.4-0.7,4.3-1.1L33,20.6c-0.1,0-0.3,0-0.4,0
		c-0.2-1.7-1.6-3-3.3-3c-1.7,0-3.1,1.2-3.3,2.8c-0.2-0.1-0.3-0.2-0.4-0.2c-0.2-0.3-0.2-0.8-0.2-0.9c0,0,0,0,0,0c0,0,0-0.1,0-0.1
		l-1.2-8.7C25.6,10.6,28.8,11.2,30.8,11z M31.6,20.5c-0.5,0-1.1,0-1.7,0c-1,0-2.1-0.1-3-0.1c0.2-1.1,1.2-1.9,2.3-1.9
		C30.4,18.6,31.4,19.4,31.6,20.5z M17.5,34.7h-9c0.2-2.6,1.6-4.4,3.2-5.6c1.8,1.1,3.5,1.3,4.3,0.7c0.4-0.3,0.6-0.7,0.6-1.1v-0.3
		c0-0.5-0.2-0.9-0.6-1.1c-0.8-0.6-2.5-0.4-4.3,0.7c-1.6-1.1-3-3-3.2-5.6h9V34.7z M12.7,28.6c1.2-0.6,2.3-0.7,2.7-0.5
		c0.1,0.1,0.1,0.1,0.1,0.3v0.3c0,0.2-0.1,0.3-0.1,0.3C15,29.3,13.9,29.2,12.7,28.6z M35.3,27.6c-0.5,0.4-1.4,0.5-1.7,0.4
		c-0.3,0-0.5,0.2-0.5,0.4s0.1,0.5,0.4,0.6c0.1,0,1.1,0.3,1.1,1.5c0,0.3-0.1,0.6-0.3,0.8c-0.6,0.5-1.7,0.5-2.1,0.5
		c-0.2,0-0.5,0.1-0.5,0.4c-0.1,0.2,0.1,0.5,0.3,0.6c0,0,0.9,0.4,0.9,1.4c0,0.9-1.6,1.2-2.1,1.2h-3c-1.1,0-3,0-4.2-0.9
		c-1.2-0.9-3.9-1.4-4.9-1.5v-9.6c1,0,3.2-0.3,4.4-2.1c0.5-0.8,1.1-1.2,1.5-1.4c0,0.3,0.1,0.6,0.4,0.9c0.2,0.3,0.6,0.6,1.4,0.6
		c0.2,0,2.6,0,3.7,0.1c1.1,0,2.1,0.1,2.6,0.1c2.5,0,2.8,0.8,2.8,1.4c0,1.2-1.4,1.6-1.4,1.6c-0.2,0.1-0.4,0.3-0.4,0.5
		c0,0.2,0.2,0.4,0.5,0.5c0.2,0,1.6,0.2,1.6,1.4C35.5,27.2,35.4,27.5,35.3,27.6z"/>
</g>
</svg>
