<?xml version="1.0" encoding="UTF-8" standalone="no"?>
<svg width="116px" height="116px" viewBox="0 0 116 116" version="1.1" xmlns="http://www.w3.org/2000/svg" xmlns:xlink="http://www.w3.org/1999/xlink">
    <!-- Generator: Sketch 42 (36781) - http://www.bohemiancoding.com/sketch -->
    <title>Icons-Master-SVG_money</title>
    <desc>Created with Sketch.</desc>
    <defs></defs>
    <g id="Page-1" stroke="none" stroke-width="1" fill="none" fill-rule="evenodd">
        <g id="Frontpage-Host" transform="translate(-1067.000000, -610.000000)" fill-rule="nonzero" fill="#CE5100">
            <g id="Group" transform="translate(130.000000, 610.000000)">
                <g id="3" transform="translate(809.000000, 0.000000)">
                    <g id="Icons-Master-SVG_money" transform="translate(128.000000, 0.000000)">
                        <g id="Ebene_1">
                            <g id="Group">
                                <path d="M58,0.252173913 C26.226087,0.252173913 0.252173913,25.973913 0.252173913,58 C0.252173913,90.026087 26.226087,115.495652 58,115.495652 C89.773913,115.495652 115.747826,89.5217391 115.747826,57.7478261 C115.747826,25.973913 89.773913,0.252173913 58,0.252173913 Z M58,112.973913 C27.4869565,112.973913 2.77391304,88.2608696 2.77391304,58 C2.77391304,27.4869565 27.4869565,2.77391304 58,2.77391304 C88.5130435,2.77391304 113.226087,27.4869565 113.226087,58 C113.226087,88.2608696 88.5130435,112.973913 58,112.973913 Z" id="Shape"></path>
                                <path d="M89.0173913,62.7913043 C90.2782609,61.7826087 91.5391304,60.0173913 91.5391304,58 C91.5391304,53.9652174 88.5130435,52.7043478 85.7391304,52.2 L91.5391304,22.9478261 C91.5391304,22.4434783 91.5391304,21.9391304 91.0347826,21.6869565 C90.5304348,21.4347826 90.026087,21.4347826 89.773913,21.4347826 C89.773913,21.4347826 83.4695652,24.4608696 77.4173913,24.9652174 C71.3652174,25.4695652 59.7652174,23.2 59.7652174,23.2 C59.2608696,23.2 59.0086957,23.2 58.7565217,23.4521739 C58.5043478,23.7043478 58.2521739,24.2086957 58.2521739,24.4608696 L61.5304348,47.1565217 C60.2695652,47.6608696 57.7478261,48.9217391 55.7304348,51.9478261 C53.2086957,55.4782609 48.9217391,55.9826087 46.6521739,56.2347826 L46.6521739,54.973913 C46.6521739,54.2173913 46.1478261,53.7130435 45.3913043,53.7130435 L20.173913,53.7130435 C19.4173913,53.7130435 18.9130435,54.2173913 18.9130435,54.973913 C18.9130435,62.5391304 22.6956522,68.3391304 27.2347826,71.8695652 C22.6956522,75.4 18.9130435,80.9478261 18.9130435,88.7652174 C18.9130435,89.5217391 19.4173913,90.026087 20.173913,90.026087 L45.3913043,90.026087 C46.1478261,90.026087 46.6521739,89.5217391 46.6521739,88.7652174 L46.6521739,85.9913043 C49.9304348,86.4956522 55.4782609,87.5043478 57.4956522,89.2695652 C61.2782609,92.0434783 66.573913,92.0434783 69.6,92.0434783 L77.1652174,92.0434783 C80.9478261,92.0434783 84.9826087,90.2782609 84.9826087,86.4956522 C84.9826087,84.9826087 84.4782609,83.7217391 83.7217391,82.7130435 C84.9826087,82.4608696 86.4956522,81.9565217 87.7565217,80.9478261 C88.7652174,79.9391304 89.5217391,78.6782609 89.5217391,77.1652174 C89.5217391,75.4 89.0173913,73.8869565 88.0086957,72.8782609 C89.0173913,72.626087 89.773913,72.1217391 90.5304348,71.6173913 C91.5391304,70.6086957 92.0434783,69.6 92.0434783,68.0869565 C92.0434783,65.3130435 90.7826087,63.8 89.0173913,62.7913043 Z M77.6695652,27.7391304 C81.9565217,27.4869565 86.2434783,25.973913 88.5130435,24.9652174 L83.2173913,51.9478261 L82.2086957,51.9478261 C81.7043478,47.6608696 78.173913,44.3826087 73.8869565,44.3826087 C69.6,44.3826087 66.0695652,47.4086957 65.5652174,51.4434783 C65.0608696,51.1913043 64.8086957,50.9391304 64.5565217,50.9391304 C64.0521739,50.1826087 64.0521739,48.9217391 64.0521739,48.6695652 L64.0521739,48.6695652 L64.0521739,48.4173913 L61.026087,26.4782609 C64.5565217,26.7304348 72.626087,28.2434783 77.6695652,27.7391304 Z M79.6869565,51.6956522 L75.4,51.6956522 C72.8782609,51.6956522 70.1043478,51.4434783 67.8347826,51.4434783 C68.3391304,48.6695652 70.8608696,46.6521739 73.6347826,46.6521739 C76.6608696,46.9043478 79.1826087,48.9217391 79.6869565,51.6956522 Z M44.1304348,87.5043478 L21.4347826,87.5043478 C21.9391304,80.9478261 25.4695652,76.4086957 29.5043478,73.3826087 C34.0434783,76.1565217 38.3304348,76.6608696 40.3478261,75.1478261 C41.3565217,74.3913043 41.8608696,73.3826087 41.8608696,72.373913 L41.8608696,71.6173913 C41.8608696,70.3565217 41.3565217,69.3478261 40.3478261,68.8434783 C38.3304348,67.3304348 34.0434783,67.8347826 29.5043478,70.6086957 C25.4695652,67.8347826 21.9391304,63.0434783 21.4347826,56.4869565 L44.1304348,56.4869565 L44.1304348,87.5043478 Z M32.026087,72.1217391 C35.0521739,70.6086957 37.826087,70.3565217 38.8347826,70.8608696 C39.0869565,71.1130435 39.0869565,71.1130435 39.0869565,71.6173913 L39.0869565,72.373913 C39.0869565,72.8782609 38.8347826,73.1304348 38.8347826,73.1304348 C37.826087,73.8869565 35.0521739,73.6347826 32.026087,72.1217391 Z M89.0173913,69.6 C87.7565217,70.6086957 85.4869565,70.8608696 84.7304348,70.6086957 C83.973913,70.6086957 83.4695652,71.1130435 83.4695652,71.6173913 C83.4695652,72.1217391 83.7217391,72.8782609 84.4782609,73.1304348 C84.7304348,73.1304348 87.2521739,73.8869565 87.2521739,76.9130435 C87.2521739,77.6695652 87,78.426087 86.4956522,78.9304348 C84.9826087,80.1913043 82.2086957,80.1913043 81.2,80.1913043 C80.6956522,80.1913043 79.9391304,80.4434783 79.9391304,81.2 C79.6869565,81.7043478 80.1913043,82.4608696 80.6956522,82.7130435 C80.6956522,82.7130435 82.9652174,83.7217391 82.9652174,86.2434783 C82.9652174,88.5130435 78.9304348,89.2695652 77.6695652,89.2695652 L70.1043478,89.2695652 C67.3304348,89.2695652 62.5391304,89.2695652 59.5130435,87 C56.4869565,84.7304348 49.6782609,83.4695652 47.1565217,83.2173913 L47.1565217,59.0086957 C49.6782609,59.0086957 55.226087,58.2521739 58.2521739,53.7130435 C59.5130435,51.6956522 61.026087,50.6869565 62.0347826,50.1826087 C62.0347826,50.9391304 62.2869565,51.6956522 63.0434783,52.4521739 C63.5478261,53.2086957 64.5565217,53.9652174 66.573913,53.9652174 C67.0782609,53.9652174 73.1304348,53.9652174 75.9043478,54.2173913 C78.6782609,54.2173913 81.2,54.4695652 82.4608696,54.4695652 C88.7652174,54.4695652 89.5217391,56.4869565 89.5217391,58 C89.5217391,61.026087 85.9913043,62.0347826 85.9913043,62.0347826 C85.4869565,62.2869565 84.9826087,62.7913043 84.9826087,63.2956522 C84.9826087,63.8 85.4869565,64.3043478 86.2434783,64.5565217 C86.7478261,64.5565217 90.2782609,65.0608696 90.2782609,68.0869565 C89.5217391,68.5913043 89.2695652,69.3478261 89.0173913,69.6 Z" id="Shape"></path>
                            </g>
                        </g>
                    </g>
                </g>
            </g>
        </g>
    </g>
</svg>