<?xml version="1.0" encoding="UTF-8" standalone="no"?>
<svg width="20px" height="21px" viewBox="0 0 20 21" version="1.1" xmlns="http://www.w3.org/2000/svg" xmlns:xlink="http://www.w3.org/1999/xlink">
    <!-- Generator: Sketch 41.2 (35397) - http://www.bohemiancoding.com/sketch -->
    <title>nature</title>
    <desc>Created with Sketch.</desc>
    <defs></defs>
    <g id="Page-1" stroke="none" stroke-width="1" fill="none" fill-rule="evenodd">
        <g id="Discover-Page-1" transform="translate(-460.000000, -786.000000)" fill="#CE5100">
            <g id="Content" transform="translate(130.000000, 420.000000)">
                <g id="Group-5" transform="translate(0.000000, 96.000000)">
                    <g id="Group-6" transform="translate(0.000000, 250.000000)">
                        <g id="nature" transform="translate(330.000000, 20.000000)">
                            <g id="Layer_1">
                                <path d="M19.9457959,0.539920099 C19.9047755,0.398579545 19.7868163,0.293299006 19.6416735,0.269245384 C9.91379592,-1.35247514 2.47081633,4.69253906 0.504285714,9.28910866 C-0.953836735,12.6965146 1.4075102,16.0338832 2.22661224,17.0425426 C1.28383673,18.9107617 0.867020408,20.3506712 0.846489796,20.4214844 C0.788653061,20.6245721 0.906204082,20.8361133 1.10918367,20.8941442 C1.1442449,20.9042312 1.17934694,20.9090909 1.21440816,20.9090909 C1.38044898,20.9090909 1.53346939,20.7995224 1.58159184,20.6316779 C1.59081633,20.5992933 1.98526531,19.2544957 2.85665306,17.5046662 C3.38102041,17.6345313 4.88897959,17.9631143 6.71734694,17.9631143 C9.70334694,17.9631143 13.5435102,17.0862802 15.342898,13.0357564 C16.073551,11.3909624 16.1284082,9.95129794 16.176898,8.68111151 C16.2112245,7.78451172 16.2433061,6.93773438 16.5041633,6.11427557 C17.4665306,3.07686257 19.8099592,0.952466264 19.8334694,0.931352983 C19.9431837,0.833341619 19.9868163,0.681015625 19.9457959,0.539920099 Z M15.7757551,5.88317294 C15.4835918,6.80517401 15.4496327,7.70214134 15.4130612,8.65199396 C15.3653061,9.9118892 15.3153061,11.2147053 14.6443673,12.7251012 C12.0882449,18.4796751 4.88546939,17.1910298 3.21987755,16.8058043 C4.51306122,14.4190643 6.62987755,11.5480256 9.77355102,10.1719052 C9.96722449,10.0873295 10.0552653,9.86182173 9.97057143,9.66845348 C9.8862449,9.47524858 9.6604898,9.38712003 9.46755102,9.47149148 C6.21326531,10.8958416 4.04183673,13.8013068 2.79289796,15.9880629 C2.73363265,16.0918732 2.67636735,16.1947035 2.62004082,16.296962 C1.76755102,15.1528018 0.0333877551,12.3322798 1.20661224,9.59004439 C3.02795918,5.33361506 9.81457143,-0.223629261 18.7695918,0.913833452 C17.9699184,1.76824751 16.5138367,3.55323864 15.7757551,5.88317294 Z" id="Shape"></path>
                            </g>
                        </g>
                    </g>
                </g>
            </g>
        </g>
    </g>
</svg>