<?xml version="1.0" encoding="UTF-8" standalone="no"?>
<svg width="24px" height="22px" viewBox="0 0 24 22" version="1.1" xmlns="http://www.w3.org/2000/svg" xmlns:xlink="http://www.w3.org/1999/xlink">
    <!-- Generator: Sketch 41.2 (35397) - http://www.bohemiancoding.com/sketch -->
    <title>omnivore</title>
    <desc>Created with Sketch.</desc>
    <defs></defs>
    <g id="Page-1" stroke="none" stroke-width="1" fill="none" fill-rule="evenodd">
        <g id="Confirm-2" transform="translate(-634.000000, -270.000000)" stroke="#CE5100" stroke-width="0.8">
            <g id="Content" transform="translate(130.000000, 110.000000)">
                <g id="Button-1" transform="translate(470.000000, 146.000000)">
                    <g id="omnivore" transform="translate(35.000000, 14.000000)">
                        <path d="M0.341611111,8.45777778 C-0.979,4.49716667 2.58988889,-1.41777778 9.92322222,1.02666667 C17.4044444,3.52122222 21.9523333,8.99494444 21.9523333,14.3733333 C21.9523333,20.3860556 12.9549444,25.8121111 9.77777778,16.8678889 C8.21394444,12.4177778 2.83616667,15.8888889 0.341611111,8.45777778 Z" id="Stroke-1"></path>
                        <path d="M15.5955556,9.43616667 C17.4527222,10.4127222 18.2856667,12.5638333 17.4527222,14.8622222 C16.6216111,17.1587778 15.3016111,16.3282778 14.3250556,14.8622222 C13.0050556,12.9072778 12.0266667,10.4127222 12.9072778,9.43616667 C13.7860556,8.50788889 15.5955556,9.43616667 15.5955556,9.43616667 Z" id="Stroke-2"></path>
                    </g>
                </g>
            </g>
        </g>
    </g>
</svg>