<?xml version="1.0" encoding="utf-8"?>
<!-- Generator: Adobe Illustrator 19.1.0, SVG Export Plug-In . SVG Version: 6.00 Build 0)  -->
<svg version="1.1" id="Ebene_1" xmlns="http://www.w3.org/2000/svg" xmlns:xlink="http://www.w3.org/1999/xlink" x="0px" y="0px"
	 viewBox="-881.9 518.9 45.8 44.3" style="enable-background:new -881.9 518.9 45.8 44.3;" xml:space="preserve">
<style type="text/css">
	.st0{fill:#CE5100;}
</style>
<path class="st0" d="M-850.6,563.2c-5,0-9.1-3.6-11.4-10c-1.3-3.7-4-4.6-7.2-5.5c-4.3-1.3-9.2-2.8-12.1-11.7v0
	c-1.5-4.4-0.1-9.6,3.3-13.1c2.3-2.3,7.7-5.8,16.9-2.7c14.9,5,24.9,16.1,24.9,27.8c0,7-5.8,13.9-12.6,15.1
	C-849.3,563.1-850,563.2-850.6,563.2z M-880.3,535.6c2.8,8.3,7.4,9.8,11.5,11c3.3,1,6.3,2,7.8,6.2c2.4,6.8,6.8,10.1,12.2,9.2
	c6.3-1.1,11.8-7.7,11.8-14.1c0-11.2-9.7-22-24.3-26.8c-8.7-2.9-13.7,0.3-15.9,2.5C-880.4,526.8-881.7,531.6-880.3,535.6
	L-880.3,535.6z"/>
<path class="st0" d="M-848.5,552.3c-1.6,0-3.1-1.7-4.1-3.1c-2.9-4.2-4.8-9.5-2.9-11.7c2-2.2,5.9-0.2,6.1-0.1l0,0
	c4.2,2.2,5.8,6.9,4,11.7c-0.7,2-1.7,3.1-2.9,3.2C-848.3,552.3-848.4,552.3-848.5,552.3z M-852.9,537.5c-0.7,0-1.4,0.2-1.9,0.7
	c-1.5,1.7,0.3,6.6,3,10.5c1.2,1.8,2.5,2.8,3.4,2.7c1-0.1,1.7-1.5,2.1-2.6c1.6-4.3,0.1-8.5-3.6-10.5
	C-849.9,538.2-851.4,537.5-852.9,537.5z"/>
</svg>
