<?xml version="1.0" encoding="UTF-8" standalone="no"?>
<svg width="15px" height="15px" viewBox="0 0 15 15" version="1.1" xmlns="http://www.w3.org/2000/svg" xmlns:xlink="http://www.w3.org/1999/xlink">
    <!-- Generator: Sketch 41.2 (35397) - http://www.bohemiancoding.com/sketch -->
    <title>open-book</title>
    <desc>Created with Sketch.</desc>
    <defs></defs>
    <g id="Page-1" stroke="none" stroke-width="1" fill="none" fill-rule="evenodd">
        <g id="Profile-Page" transform="translate(-150.000000, -550.000000)" fill="#7F7F7F">
            <g id="Group-3" transform="translate(130.000000, 90.000000)">
                <g id="open-book" transform="translate(20.000000, 460.000000)">
                    <g id="Layer_1">
                        <g id="Group">
                            <path d="M8.5104386,7.09973684 C8.55459064,7.18608187 8.6424269,7.23596491 8.73324561,7.23596491 C8.77116959,7.23596491 8.81008772,7.22722222 8.84628655,7.20877193 C8.86099415,7.20128655 10.3296491,6.45523392 11.0539766,6.22643275 C11.1852339,6.18476608 11.2580702,6.04453216 11.2164035,5.91330409 C11.1749708,5.78204678 11.0357602,5.70894737 10.9032749,5.75038012 C10.1402632,5.99166667 8.68160819,6.7327193 8.61973684,6.76415205 C8.49695906,6.82652047 8.44807018,6.97675439 8.5104386,7.09973684 L8.5104386,7.09973684 Z" id="Shape"></path>
                            <path d="M8.73324561,4.24184211 C8.77116959,4.24184211 8.81008772,4.23309942 8.84628655,4.21464912 C8.86099415,4.20716374 10.3296491,3.46111111 11.0539766,3.23230994 C11.1852339,3.19064327 11.2580702,3.05040936 11.2164035,2.91918129 C11.1749708,2.78792398 11.0357602,2.71482456 10.9032749,2.75625731 C10.1402632,2.99754386 8.68160819,3.73859649 8.61973684,3.77002924 C8.4969883,3.83239766 8.44807018,3.98260234 8.5104386,4.10561404 C8.55459064,4.19192982 8.6424269,4.24184211 8.73324561,4.24184211 L8.73324561,4.24184211 Z" id="Shape"></path>
                            <path d="M14.7213158,3.74280702 C14.5833333,3.74280702 14.4718129,3.85459064 14.4718129,3.99230994 L14.4718129,13.7233041 C14.4718129,14.1359942 14.1359649,14.4718421 13.7232749,14.4718421 L7.73497076,14.4718421 L7.73497076,13.8977193 C8.09877193,13.7704678 9.04640351,13.4738012 9.9805848,13.4738012 C12.1540936,13.4738012 13.6299708,13.955117 13.6446784,13.9600877 C13.7197661,13.9850292 13.8036257,13.9725731 13.8692398,13.9256433 C13.9343567,13.8787427 13.9727778,13.8033918 13.9727778,13.7232749 L13.9727778,2.74476608 C13.9727778,2.62774854 13.8916959,2.52643275 13.7773977,2.50122807 C13.7773977,2.50122807 13.5817836,2.4575731 13.2474269,2.39616959 C13.1124269,2.37122807 12.9819591,2.46105263 12.9569883,2.59628655 C12.9320468,2.73201754 13.0216082,2.86201754 13.1571053,2.88695906 C13.2846199,2.91040936 13.3914035,2.93111111 13.4737427,2.94760234 L13.4737427,13.3916959 C12.9083333,13.2434795 11.652807,12.9747661 9.98055556,12.9747661 C8.89342105,12.9747661 7.82552632,13.3318129 7.4951462,13.4528363 C7.20146199,13.3230994 6.31371345,12.9747661 5.23979532,12.9747661 C3.52114035,12.9747661 2.10540936,13.2582164 1.49710526,13.402193 L1.49710526,2.9378655 C1.99538012,2.81535088 3.46701754,2.49523392 5.23979532,2.49523392 C6.14953216,2.49523392 6.92973684,2.77842105 7.23590643,2.90643275 L7.23590643,12.7252632 C7.23590643,12.8150877 7.28429825,12.8981871 7.36239766,12.9423392 C7.44049708,12.9867544 7.53681287,12.9854971 7.61391813,12.9390936 C7.63862573,12.924386 10.1107895,11.4477485 12.305,10.7164327 C12.4070468,10.6822515 12.4756725,10.587193 12.4756725,10.4796491 L12.4756725,0.249619883 C12.4756725,0.167777778 12.4354971,0.0911695906 12.3681287,0.0445321637 C12.3012573,-0.00213450292 12.2154386,-0.0128654971 12.1383333,0.0158479532 C10.1419883,0.764619883 8.12195906,2.02166667 8.10172515,2.03415205 C7.98494152,2.10725146 7.94926901,2.26119883 8.02236842,2.37798246 C8.09523392,2.49476608 8.24918129,2.5304386 8.36619883,2.45733918 C8.38464912,2.44561404 10.1419883,1.35225146 11.9766374,0.614444444 L11.9766374,10.3010234 C10.2734503,10.8928655 8.49517544,11.8592398 7.73491228,12.2918713 L7.73491228,2.74476608 C7.73491228,2.65020468 7.68152047,2.56385965 7.59692982,2.52146199 C7.55400585,2.50026316 6.53152047,1.99622807 5.23979532,1.99622807 C2.98520468,1.99622807 1.25184211,2.48403509 1.17897661,2.50497076 C1.07192982,2.53540936 0.998070175,2.63347953 0.998070175,2.74476608 L0.998070175,13.7233333 C0.998070175,13.8014327 1.035,13.8752924 1.0971345,13.9224561 C1.14105263,13.9556433 1.19394737,13.9728655 1.24760234,13.9728655 C1.27055556,13.9728655 1.29350877,13.9696199 1.31596491,13.9631287 C1.33318713,13.9583918 3.05856725,13.4738304 5.23979532,13.4738304 C6.15201754,13.4738304 6.93149123,13.7577778 7.23590643,13.8852632 L7.23590643,14.4718713 L1.24760234,14.4718713 C0.834912281,14.4718713 0.499064327,14.1360234 0.499064327,13.7233333 L0.499064327,3.99233918 C0.499064327,3.85461988 0.387280702,3.74283626 0.249561404,3.74283626 C0.111842105,3.74283626 5.84795321e-05,3.85461988 5.84795321e-05,3.99233918 L5.84795321e-05,13.7233333 C5.84795321e-05,14.4112281 0.559707602,14.9709064 1.24763158,14.9709064 L13.7232749,14.9709064 C14.4111696,14.9709064 14.970848,14.4112573 14.970848,13.7233333 L14.970848,3.99233918 C14.9708187,3.85459064 14.8592982,3.74280702 14.7213158,3.74280702 L14.7213158,3.74280702 Z" id="Shape"></path>
                            <path d="M8.5104386,5.60266082 C8.55459064,5.68900585 8.6424269,5.73888889 8.73324561,5.73888889 C8.77116959,5.73888889 8.81008772,5.7301462 8.84628655,5.71169591 C8.86099415,5.70421053 10.3296491,4.95815789 11.0539766,4.72935673 C11.1852339,4.68769006 11.2580702,4.54745614 11.2164035,4.41622807 C11.1749708,4.28497076 11.0357602,4.21187135 10.9032749,4.25330409 C10.1402632,4.49459064 8.68160819,5.23564327 8.61973684,5.26707602 C8.49695906,5.32944444 8.44807018,5.47967836 8.5104386,5.60266082 L8.5104386,5.60266082 Z" id="Shape"></path>
                            <path d="M8.5104386,8.59681287 C8.55459064,8.68315789 8.6424269,8.73304094 8.73324561,8.73304094 C8.77116959,8.73304094 8.81008772,8.72429825 8.84628655,8.70584795 C8.86099415,8.69836257 10.3296491,7.95230994 11.0539766,7.72350877 C11.1852339,7.68184211 11.2580702,7.54160819 11.2164035,7.41038012 C11.1749708,7.27912281 11.0357602,7.20602339 10.9032749,7.24745614 C10.1402632,7.48874269 8.68160819,8.22979532 8.61973684,8.26122807 C8.49695906,8.32359649 8.44807018,8.47383041 8.5104386,8.59681287 L8.5104386,8.59681287 Z" id="Shape"></path>
                            <path d="M6.04526316,4.6305848 C4.50453216,4.26903509 2.75368421,4.72964912 2.68008772,4.74935673 C2.54710526,4.78502924 2.4680117,4.92175439 2.50368421,5.055 C2.53362573,5.16652047 2.6344152,5.23988304 2.74447368,5.23988304 C2.76593567,5.23988304 2.78763158,5.2371345 2.80935673,5.23140351 C2.82608187,5.22666667 4.51178363,4.78327485 5.93152047,5.11637427 C6.065,5.1475731 6.2,5.06447368 6.23143275,4.93023392 C6.26283626,4.79625731 6.17950292,4.66201754 6.04526316,4.6305848 L6.04526316,4.6305848 Z" id="Shape"></path>
                            <path d="M6.04526316,6.12766082 C4.50453216,5.76637427 2.75368421,6.22672515 2.68008772,6.24643275 C2.54710526,6.28210526 2.4680117,6.41885965 2.50368421,6.55207602 C2.53362573,6.66359649 2.6344152,6.73695906 2.74447368,6.73695906 C2.76593567,6.73695906 2.78763158,6.73421053 2.80935673,6.72847953 C2.82608187,6.72374269 4.51178363,6.28035088 5.93152047,6.61345029 C6.065,6.64464912 6.2,6.56154971 6.23143275,6.42730994 C6.26283626,6.29333333 6.17950292,6.15909357 6.04526316,6.12766082 L6.04526316,6.12766082 Z" id="Shape"></path>
                            <path d="M8.5104386,10.0938889 C8.55459064,10.1802339 8.6424269,10.230117 8.73324561,10.230117 C8.77116959,10.230117 8.81008772,10.2213743 8.84628655,10.202924 C8.86099415,10.1954386 10.3296491,9.44938596 11.0539766,9.2205848 C11.1852339,9.17891813 11.2580702,9.03868421 11.2164035,8.90745614 C11.1749708,8.77622807 11.0357602,8.70309942 10.9032749,8.74453216 C10.1402632,8.98581871 8.68160819,9.72687135 8.61973684,9.75830409 C8.49695906,9.82067251 8.44807018,9.97090643 8.5104386,10.0938889 L8.5104386,10.0938889 Z" id="Shape"></path>
                            <path d="M6.04526316,7.62473684 C4.50453216,7.26345029 2.75368421,7.72353801 2.68008772,7.74350877 C2.54710526,7.77918129 2.4680117,7.91593567 2.50368421,8.04915205 C2.53362573,8.16067251 2.6344152,8.23429825 2.74447368,8.23429825 C2.76593567,8.23429825 2.78763158,8.23131579 2.80935673,8.22555556 C2.82608187,8.22081871 4.51178363,7.7774269 5.93152047,8.11052632 C6.065,8.14172515 6.2,8.05862573 6.23143275,7.92438596 C6.26283626,7.79040936 6.17950292,7.65616959 6.04526316,7.62473684 L6.04526316,7.62473684 Z" id="Shape"></path>
                            <path d="M6.04526316,10.6188889 C4.50453216,10.2573392 2.75368421,10.7179532 2.68008772,10.7376608 C2.54710526,10.7733333 2.4680117,10.9100877 2.50368421,11.0433041 C2.53362573,11.1548246 2.6344152,11.2284503 2.74447368,11.2284503 C2.76593567,11.2284503 2.78763158,11.2254678 2.80935673,11.2197076 C2.82608187,11.2149708 4.51178363,10.7715789 5.93152047,11.1046784 C6.065,11.135614 6.2,11.0527778 6.23143275,10.918538 C6.26283626,10.7845614 6.17950292,10.6503216 6.04526316,10.6188889 L6.04526316,10.6188889 Z" id="Shape"></path>
                            <path d="M6.04526316,9.12181287 C4.50453216,8.76026316 2.75368421,9.22061404 2.68008772,9.2405848 C2.54710526,9.27625731 2.4680117,9.4130117 2.50368421,9.54622807 C2.53362573,9.65774854 2.6344152,9.73137427 2.74447368,9.73137427 C2.76593567,9.73137427 2.78763158,9.72839181 2.80935673,9.72263158 C2.82608187,9.71789474 4.51178363,9.27450292 5.93152047,9.60760234 C6.065,9.63880117 6.2,9.55570175 6.23143275,9.42146199 C6.26283626,9.28748538 6.17950292,9.15324561 6.04526316,9.12181287 L6.04526316,9.12181287 Z" id="Shape"></path>
                        </g>
                    </g>
                </g>
            </g>
        </g>
    </g>
</svg>