<?xml version="1.0" encoding="utf-8"?>
<!-- Generator: Adobe Illustrator 19.2.1, SVG Export Plug-In . SVG Version: 6.00 Build 0)  -->
<svg version="1.1" id="Ebene_1" xmlns="http://www.w3.org/2000/svg" xmlns:xlink="http://www.w3.org/1999/xlink" x="0px" y="0px"
	 viewBox="0 0 126.6 60.1" style="enable-background:new 0 0 126.6 60.1;" xml:space="preserve">
<style type="text/css">
	.st0{fill:#B8B8B8;}
	.st1{fill:#FFFFFF;}
	.st2{opacity:0.2;fill:url(#SVGID_1_);enable-background:new    ;}
	.st3{fill:#EE7F00;}
	.st4{fill:#383A41;}
</style>
<path class="st0" d="M121.7,60.1H4.9c-2.7,0-4.9-2.2-4.9-4.9V6.9C0,4.2,2.2,2,4.9,2h116.8c2.7,0,4.9,2.2,4.9,4.9v48.3
	C126.6,57.9,124.4,60.1,121.7,60.1z"/>
<path class="st1" d="M121.3,58.1H5.2c-2.9,0-5.2-2.4-5.2-5.2V5.2C0,2.4,2.4,0,5.2,0h116.1c2.9,0,5.2,2.4,5.2,5.2v47.6
	C126.6,55.8,124.2,58.1,121.3,58.1z"/>
<linearGradient id="SVGID_1_" gradientUnits="userSpaceOnUse" x1="63.2515" y1="3.9" x2="63.2515" y2="62" gradientTransform="matrix(1 0 0 -1 0 62)">
	<stop  offset="0" style="stop-color:#000000"/>
	<stop  offset="1" style="stop-color:#FFFFFF"/>
</linearGradient>
<path class="st2" d="M121.3,58.1H5.2c-2.9,0-5.2-2.4-5.2-5.2V5.2C0,2.4,2.4,0,5.2,0h116.1c2.9,0,5.2,2.4,5.2,5.2v47.6
	C126.6,55.8,124.2,58.1,121.3,58.1z"/>
<g id="layer1" transform="translate(85.788367,-282.23124)">
	<path id="path66" class="st3" d="M-33.2,300.7c-0.9,0-1.9,0.2-2.7,0.6c-1.2,0.6-2.3,1.5-3.2,2.8c-0.6,0.8-1.1,1.8-1.5,2.9
		c-0.7,2-0.7,3.7,0,4.8c0.4,0.6,1.3,1.4,3.1,1.4h0c3.3,0,5.8-2.2,7.4-6.5c0.4-1.1,1-3.3,0-4.7C-30.7,301.1-31.8,300.7-33.2,300.7
		L-33.2,300.7z M-13.2,300.7c-0.9,0-1.9,0.2-2.7,0.6c-1.2,0.6-2.3,1.5-3.2,2.8c-0.6,0.8-1.1,1.8-1.5,2.9c-0.7,2-0.7,3.7,0,4.8
		c0.4,0.6,1.3,1.4,3.1,1.4h0c3.3,0,5.8-2.2,7.4-6.5c0.4-1.1,1-3.3,0-4.7C-10.7,301.1-11.7,300.7-13.2,300.7z M-43.9,300.8
		c-1.1,0-2.2,0-3.1,0.5c-1,0.5-1.8,1.4-2.4,3.4c-0.1,0.4-0.2,0.8-0.2,1.1c0,0.3,0,0.6,0.2,0.8c0.1,0.3,0.4,0.5,0.7,0.8
		c0.3,0.2,0.6,0.4,1,0.5c0,0,0.2,0.1,0.5,0.1c0.2,0.1,0.5,0.2,0.7,0.2c0.1,0,0.2,0.1,0.3,0.1c0.1,0.1,0.2,0.1,0.3,0.3
		c0,0.1,0.1,0.2,0.1,0.2c0,0.1,0,0.2,0,0.3c-0.1,0.3-0.2,0.4-0.5,0.5c-0.3,0.1-0.6,0.1-1.2,0.1h-7.1l-1.1,3.1h7.6c0.7,0,2,0,3.3-0.5
		c1.3-0.5,2.5-1.6,3-3.8c0.2-0.8,0.1-1.5-0.2-2c-0.3-0.5-0.9-0.9-1.7-1.1c0,0-0.2-0.1-0.4-0.1c-0.2-0.1-0.5-0.1-0.6-0.2
		c-0.2-0.1-0.4-0.2-0.5-0.3c-0.1-0.2-0.1-0.3-0.1-0.5c0.1-0.2,0.2-0.4,0.4-0.5c0.2-0.1,0.5-0.2,0.8-0.2h4.4c0,0,0.1-0.1,0.1-0.1
		c0.8-1.1,1.8-2.1,2.9-2.7H-43.9z M-23.9,300.8c-2,0-3.4,1-4.1,2.9l-3.4,9.2h3.7l1.7-4.7l3.2,0l0.9-2.5l-3.2,0l0.5-1.5
		c0.1-0.3,0.4-0.5,0.7-0.5c0.2,0,2.6,0,3.8,0c0,0,0.1-0.1,0.1-0.1c0.8-1.1,2-2.1,3-2.7H-23.9L-23.9,300.8z M-6.9,300.8l-4.4,12.1
		h3.7l1.6-4.3c0.1,0.2,1,4.3,1,4.3H-1c0,0-0.7-3-1.2-4.2c-0.1-0.3-0.3-0.7-0.5-1c1.1-0.4,2.7-1.3,3.4-3.1c0.4-1.1,0.4-2-0.1-2.6
		c-0.6-0.8-1.7-1.2-3.4-1.2H-6.9L-6.9,300.8z M0.8,300.8c0.2,0.2,0.4,0.4,0.6,0.6c0.4,0.6,0.6,1.4,0.5,2.2h2.2l-3.4,9.2h3.4l3.4-9.2
		h4.3l1-2.9H0.8z M-4.4,303.3h0.6c1.1,0,1.5,0.3,1.2,1.4c-0.4,1-1,1.6-2.2,1.6h0l-0.6,0L-4.4,303.3L-4.4,303.3z M-34.1,303.4
		L-34.1,303.4c1.1,0,1.4,0.7,0.4,3.4h0c-1,2.8-1.8,3.5-2.9,3.5h0c-1.1,0-1.5-0.7-0.5-3.5C-36.3,304.7-35.3,303.4-34.1,303.4
		L-34.1,303.4z M-14.1,303.4L-14.1,303.4c1.1,0,1.4,0.7,0.4,3.4c-1,2.8-1.8,3.5-2.9,3.5h0c-1.1,0-1.5-0.7-0.5-3.5
		C-16.3,304.7-15.3,303.4-14.1,303.4L-14.1,303.4z"/>
	<path id="path98" class="st4" d="M-52.3,314.2c-0.2,0-0.4,0-0.5,0.1c-0.1,0.1-0.2,0.2-0.3,0.5c-0.1,0.2-0.1,0.4,0,0.4
		c0.1,0.1,0.2,0.1,0.4,0.1c0.2,0,0.4,0,0.5-0.1c0.1-0.1,0.2-0.2,0.3-0.5c0.1-0.2,0.1-0.4,0-0.4C-51.9,314.2-52.1,314.2-52.3,314.2z
		 M-50.3,314.2c-0.2,0-0.4,0-0.5,0.1c-0.1,0.1-0.2,0.2-0.3,0.5c-0.1,0.2-0.1,0.4,0,0.4c0.1,0.1,0.2,0.1,0.4,0.1c0.2,0,0.4,0,0.5-0.1
		c0.1-0.1,0.2-0.2,0.3-0.5c0.1-0.2,0.1-0.4,0-0.4C-49.9,314.2-50,314.2-50.3,314.2z M-12.5,315.8c-0.3,0-0.5,0-0.8,0.1
		c-0.3,0.1-0.5,0.2-0.8,0.3c-0.2,0.1-0.4,0.3-0.6,0.5c-0.2,0.2-0.3,0.5-0.4,0.8c-0.1,0.3-0.1,0.5-0.1,0.6c0,0.2,0,0.3,0.1,0.5
		c0.1,0.1,0.2,0.2,0.3,0.3c0.1,0.1,0.2,0.2,0.4,0.3c0.1,0.1,0.3,0.1,0.4,0.2c0.1,0.1,0.2,0.1,0.3,0.2c0.1,0.1,0.2,0.2,0.2,0.3
		c0,0.1,0,0.2,0,0.4c0,0.1-0.1,0.2-0.2,0.3c-0.1,0.1-0.2,0.2-0.3,0.2c-0.1,0.1-0.2,0.1-0.4,0.2c-0.1,0-0.3,0.1-0.4,0.1
		c-0.2,0-0.4,0-0.6-0.1c-0.2-0.1-0.3-0.1-0.4-0.2c-0.1-0.1-0.2-0.1-0.2-0.2c-0.1-0.1-0.1-0.1-0.2-0.1c0,0-0.1,0-0.1,0
		c0,0-0.1,0-0.1,0.1s-0.1,0.1-0.1,0.2c0,0.1-0.1,0.1-0.1,0.2c-0.1,0.1-0.1,0.3-0.1,0.3c0,0.1,0,0.1,0,0.2c0,0,0.1,0.1,0.1,0.1
		c0.1,0.1,0.2,0.1,0.3,0.2c0.1,0,0.3,0.1,0.4,0.1c0.2,0,0.4,0.1,0.6,0.1c0.3,0,0.6,0,0.9-0.1c0.3-0.1,0.6-0.2,0.8-0.4
		c0.3-0.2,0.5-0.4,0.7-0.6c0.2-0.2,0.4-0.5,0.5-0.8c0.1-0.2,0.1-0.5,0.1-0.6c0-0.2-0.1-0.3-0.1-0.5c-0.1-0.1-0.2-0.2-0.3-0.3
		c-0.1-0.1-0.2-0.2-0.4-0.3c-0.1-0.1-0.3-0.1-0.4-0.2s-0.2-0.1-0.3-0.2c-0.1-0.1-0.2-0.2-0.2-0.3c0-0.1,0-0.2,0-0.3
		c0-0.1,0.1-0.2,0.1-0.3c0.1-0.1,0.1-0.1,0.2-0.2c0.1-0.1,0.2-0.1,0.3-0.1c0.1,0,0.2,0,0.4,0c0.2,0,0.3,0,0.4,0.1
		c0.1,0,0.2,0.1,0.3,0.1c0.1,0.1,0.2,0.1,0.2,0.1c0.1,0,0.1,0.1,0.1,0.1c0,0,0.1,0,0.1,0c0,0,0.1,0,0.1-0.1c0,0,0.1-0.1,0.1-0.2
		c0-0.1,0.1-0.1,0.1-0.2c0-0.1,0.1-0.1,0.1-0.2c0-0.1,0-0.1,0-0.1c0,0,0-0.1,0-0.1c0,0,0,0,0-0.1c0,0-0.1-0.1-0.1-0.1
		c-0.1,0-0.2-0.1-0.3-0.1c-0.1,0-0.2-0.1-0.4-0.1C-12.2,315.8-12.3,315.8-12.5,315.8L-12.5,315.8z M6.8,315.8
		c-0.5,0-0.9,0.1-1.4,0.2c-0.4,0.1-0.8,0.4-1.2,0.6c-0.4,0.3-0.7,0.6-1,1c-0.3,0.4-0.5,0.8-0.7,1.3c-0.2,0.5-0.3,0.9-0.3,1.3
		c0,0.4,0.1,0.7,0.3,1c0.2,0.3,0.4,0.5,0.7,0.6c0.3,0.1,0.7,0.2,1.2,0.2c0.2,0,0.3,0,0.5,0c0.2,0,0.3,0,0.5-0.1
		c0.2,0,0.3-0.1,0.5-0.1c0.2,0,0.3-0.1,0.4-0.1c0.1,0,0.2-0.1,0.3-0.2c0.1-0.1,0.1-0.2,0.1-0.2l0.9-2.4c0-0.1,0-0.1,0-0.2
		c0,0,0-0.1,0-0.1c0,0,0-0.1-0.1-0.1c0,0-0.1,0-0.1,0h-2c0,0-0.1,0-0.1,0c0,0-0.1,0-0.1,0.1c0,0-0.1,0.1-0.1,0.1
		c0,0.1-0.1,0.1-0.1,0.2C5,319.1,5,319.2,5,319.3c0,0.1,0,0.1,0.1,0.1h1.1l-0.5,1.4c-0.1,0.1-0.3,0.1-0.4,0.1c-0.1,0-0.3,0-0.4,0
		c-0.3,0-0.5,0-0.7-0.1c-0.2-0.1-0.3-0.2-0.4-0.4c-0.1-0.2-0.1-0.4-0.1-0.7c0-0.3,0.1-0.6,0.2-0.9c0.1-0.3,0.3-0.6,0.4-0.9
		c0.2-0.3,0.4-0.5,0.6-0.7c0.2-0.2,0.5-0.3,0.8-0.4c0.3-0.1,0.6-0.2,0.8-0.2c0.3,0,0.5,0,0.7,0.1c0.2,0.1,0.3,0.1,0.5,0.2
		c0.1,0.1,0.2,0.1,0.3,0.2c0.1,0.1,0.1,0.1,0.2,0.1c0,0,0.1,0,0.1,0c0,0,0.1,0,0.1-0.1c0,0,0.1-0.1,0.1-0.2c0-0.1,0.1-0.1,0.1-0.2
		c0.1-0.2,0.1-0.3,0.1-0.3c0-0.1,0-0.1,0-0.2c0,0-0.1-0.1-0.2-0.2c-0.1-0.1-0.2-0.1-0.3-0.2c-0.1-0.1-0.3-0.1-0.5-0.1
		C7.3,315.8,7,315.8,6.8,315.8z M-31.1,315.8c-0.2,0-0.3,0-0.4,0c-0.1,0-0.2,0-0.2,0.1s-0.1,0.1-0.1,0.1c0,0.1,0,0.2,0,0.3l-0.5,5.2
		c0,0.1,0,0.1,0,0.2c0,0,0,0.1,0.1,0.1c0.1,0,0.1,0,0.2,0c0.1,0,0.2,0,0.4,0c0.2,0,0.3,0,0.4,0c0.1,0,0.2,0,0.3,0
		c0.1,0,0.1-0.1,0.2-0.1c0,0,0.1-0.1,0.1-0.2l2.3-3.8h0l-0.4,3.8c0,0.1,0,0.1,0,0.2c0,0,0,0.1,0.1,0.1c0.1,0,0.1,0,0.2,0
		c0.1,0,0.2,0,0.4,0c0.2,0,0.3,0,0.4,0s0.2,0,0.3,0c0.1,0,0.1-0.1,0.2-0.1c0,0,0.1-0.1,0.1-0.2l3.3-5.2c0.1-0.1,0.1-0.2,0.1-0.3
		c0-0.1,0-0.1,0-0.2c0,0-0.1-0.1-0.1-0.1c-0.1,0-0.2,0-0.3,0c-0.1,0-0.3,0-0.3,0c-0.1,0-0.2,0-0.2,0c0,0-0.1,0-0.1,0.1
		c0,0-0.1,0.1-0.1,0.1l-2.7,4.6h0l0.5-4.6c0-0.1,0-0.1,0-0.1c0,0,0-0.1-0.1-0.1c0,0-0.1,0-0.2,0c-0.1,0-0.2,0-0.4,0
		c-0.1,0-0.3,0-0.3,0c-0.1,0-0.2,0-0.2,0c-0.1,0-0.1,0-0.1,0.1c0,0-0.1,0.1-0.1,0.1l-2.8,4.6h0l0.6-4.6c0-0.1,0-0.1,0-0.1
		c0,0,0-0.1-0.1-0.1c0,0-0.1,0-0.2,0C-30.9,315.8-31,315.8-31.1,315.8L-31.1,315.8z M-16.6,315.8c-0.1,0-0.2,0-0.3,0
		c-0.1,0-0.1,0-0.2,0c-0.1,0-0.1,0-0.1,0.1c0,0,0,0.1-0.1,0.1l-2.1,5.7c0,0,0,0.1,0,0.1c0,0,0,0,0.1,0.1c0,0,0.1,0,0.2,0
		c0.1,0,0.2,0,0.3,0c0.1,0,0.2,0,0.3,0c0.1,0,0.1,0,0.2,0c0.1,0,0.1,0,0.1-0.1c0,0,0-0.1,0.1-0.1l2.1-5.7c0,0,0-0.1,0-0.1
		c0,0,0,0-0.1-0.1c0,0-0.1,0-0.2,0C-16.4,315.8-16.5,315.8-16.6,315.8L-16.6,315.8z M-53.7,315.8c-0.1,0-0.2,0-0.3,0
		c-0.1,0-0.1,0-0.2,0c-0.1,0-0.1,0-0.1,0.1c0,0,0,0.1-0.1,0.1l-1.3,3.6c-0.1,0.4-0.2,0.7-0.2,1c0,0.3,0.1,0.5,0.2,0.7
		c0.1,0.2,0.3,0.3,0.6,0.4c0.3,0.1,0.6,0.1,1,0.1c0.4,0,0.8-0.1,1.1-0.2c0.3-0.1,0.7-0.3,0.9-0.5c0.3-0.2,0.5-0.4,0.7-0.7
		c0.2-0.3,0.4-0.6,0.5-1l1.3-3.6c0,0,0-0.1,0-0.1c0,0,0,0-0.1-0.1c0,0-0.1,0-0.2,0c-0.1,0-0.2,0-0.3,0c-0.1,0-0.2,0-0.3,0
		c-0.1,0-0.1,0-0.2,0c-0.1,0-0.1,0-0.1,0.1c0,0,0,0.1-0.1,0.1l-1.3,3.6c-0.1,0.2-0.2,0.4-0.3,0.6c-0.1,0.2-0.2,0.3-0.4,0.4
		c-0.1,0.1-0.3,0.2-0.5,0.3c-0.2,0.1-0.4,0.1-0.5,0.1c-0.2,0-0.3,0-0.5-0.1c-0.1-0.1-0.2-0.1-0.3-0.3c-0.1-0.1-0.1-0.3-0.1-0.4
		c0-0.2,0.1-0.4,0.1-0.6l1.3-3.5c0,0,0-0.1,0-0.1c0,0,0,0-0.1-0.1c0,0-0.1,0-0.2,0C-53.5,315.8-53.6,315.8-53.7,315.8L-53.7,315.8z
		 M-8.8,315.8c-0.1,0-0.2,0-0.3,0c-0.1,0-0.1,0-0.2,0c-0.1,0-0.1,0-0.1,0.1c0,0,0,0.1-0.1,0.1l-1.3,3.6c-0.1,0.4-0.2,0.7-0.2,1
		c0,0.3,0.1,0.5,0.2,0.7c0.1,0.2,0.3,0.3,0.6,0.4c0.3,0.1,0.6,0.1,1,0.1c0.4,0,0.8-0.1,1.1-0.2c0.3-0.1,0.7-0.3,0.9-0.5
		c0.3-0.2,0.5-0.4,0.7-0.7c0.2-0.3,0.4-0.6,0.5-1l1.3-3.6c0,0,0-0.1,0-0.1c0,0,0,0-0.1-0.1c0,0-0.1,0-0.2,0c-0.1,0-0.2,0-0.3,0
		c-0.1,0-0.2,0-0.3,0c-0.1,0-0.1,0-0.2,0c-0.1,0-0.1,0-0.1,0.1c0,0,0,0.1-0.1,0.1l-1.3,3.6c-0.1,0.2-0.2,0.4-0.3,0.6
		c-0.1,0.2-0.2,0.3-0.4,0.4c-0.1,0.1-0.3,0.2-0.5,0.3c-0.2,0.1-0.4,0.1-0.5,0.1c-0.2,0-0.3,0-0.5-0.1c-0.1-0.1-0.2-0.1-0.3-0.3
		c-0.1-0.1-0.1-0.3-0.1-0.4c0-0.2,0.1-0.4,0.1-0.6l1.3-3.5c0,0,0-0.1,0-0.1c0,0,0,0-0.1-0.1c0,0-0.1,0-0.2,0
		C-8.5,315.8-8.6,315.8-8.8,315.8L-8.8,315.8z M1.7,315.8c-0.1,0-0.2,0-0.3,0c-0.1,0-0.1,0-0.2,0c0,0-0.1,0-0.1,0.1
		c0,0,0,0.1-0.1,0.1l-1,2.8c-0.1,0.2-0.2,0.4-0.2,0.7c-0.1,0.2-0.2,0.5-0.2,0.7h0c0-0.1,0-0.2,0-0.4c0-0.1,0-0.2,0-0.4
		c0-0.1,0-0.3-0.1-0.4c0-0.1,0-0.3-0.1-0.4l-0.4-2.2c0-0.1,0-0.2-0.1-0.3c0-0.1-0.1-0.1-0.1-0.2c0,0-0.1-0.1-0.2-0.1
		c-0.1,0-0.2,0-0.3,0h-0.7c-0.1,0-0.2,0-0.4,0.1c-0.1,0.1-0.2,0.2-0.2,0.3l-2,5.4c0,0,0,0.1,0,0.1c0,0,0,0,0.1,0.1c0,0,0.1,0,0.2,0
		c0.1,0,0.2,0,0.3,0c0.1,0,0.2,0,0.3,0c0.1,0,0.1,0,0.2,0c0,0,0.1,0,0.1-0.1c0,0,0-0.1,0.1-0.1l1.1-3.1c0.1-0.2,0.2-0.5,0.2-0.7
		c0.1-0.2,0.1-0.4,0.2-0.7h0c0,0.2,0,0.4,0,0.6c0,0.2,0,0.4,0.1,0.5l0.5,2.8c0,0.2,0,0.3,0.1,0.4c0,0.1,0.1,0.2,0.1,0.2
		c0,0.1,0.1,0.1,0.2,0.1c0.1,0,0.2,0,0.3,0h0.5c0.1,0,0.1,0,0.2,0c0.1,0,0.1,0,0.2-0.1c0.1,0,0.1-0.1,0.1-0.1c0-0.1,0.1-0.1,0.1-0.2
		l2-5.4c0,0,0-0.1,0-0.1c0,0,0,0-0.1-0.1c0,0-0.1,0-0.2,0C1.9,315.9,1.8,315.8,1.7,315.8L1.7,315.8z M-41.6,315.9
		c-0.1,0-0.2,0-0.3,0.1c-0.1,0.1-0.2,0.2-0.2,0.3l-1.9,5.2c0,0.1,0,0.2,0,0.3s0.1,0.1,0.2,0.1h3c0,0,0.1,0,0.1,0c0,0,0.1,0,0.1-0.1
		c0,0,0.1-0.1,0.1-0.1c0-0.1,0.1-0.1,0.1-0.2s0.1-0.2,0.1-0.2c0-0.1,0-0.1,0-0.1c0,0,0-0.1,0-0.1c0,0,0,0-0.1,0h-2.2l0.6-1.7h1.8
		c0,0,0.1,0,0.1,0c0,0,0.1,0,0.1-0.1s0.1-0.1,0.1-0.1c0-0.1,0.1-0.1,0.1-0.2c0-0.1,0.1-0.2,0.1-0.2c0-0.1,0-0.1,0-0.1
		c0,0,0-0.1,0-0.1s0,0-0.1,0h-1.8l0.5-1.5h2.1c0,0,0.1,0,0.1,0s0.1,0,0.1-0.1c0,0,0.1-0.1,0.1-0.1c0-0.1,0.1-0.1,0.1-0.2
		c0-0.1,0.1-0.2,0.1-0.2c0-0.1,0-0.1,0-0.1c0,0,0-0.1,0-0.1c0,0,0,0-0.1,0H-41.6L-41.6,315.9z M-36.6,315.9c-0.1,0-0.2,0-0.3,0.1
		c-0.1,0.1-0.2,0.2-0.2,0.3l-2,5.4c0,0,0,0.1,0,0.1c0,0,0,0,0.1,0.1c0,0,0.1,0,0.2,0c0.1,0,0.2,0,0.3,0c0.1,0,0.2,0,0.3,0
		c0.1,0,0.1,0,0.2,0c0.1,0,0.1,0,0.1-0.1c0,0,0-0.1,0.1-0.1l0.8-2.3h0.4c0.1,0,0.2,0,0.3,0.1c0.1,0,0.1,0.1,0.2,0.2
		c0,0.1,0.1,0.2,0.1,0.3c0,0.1,0,0.3,0,0.4l0,1.3c0,0,0,0.1,0,0.1c0,0,0,0,0.1,0.1c0,0,0.1,0,0.2,0c0.1,0,0.2,0,0.3,0
		c0.2,0,0.3,0,0.4,0c0.1,0,0.2,0,0.2,0c0.1,0,0.1,0,0.1-0.1c0,0,0-0.1,0-0.1c0,0,0-0.1,0-0.1c0-0.1,0-0.1,0-0.3l-0.1-1.2
		c0-0.1,0-0.3,0-0.4c0-0.1,0-0.2-0.1-0.3c0-0.1-0.1-0.2-0.1-0.2c-0.1-0.1-0.1-0.1-0.2-0.2c0.2-0.1,0.4-0.1,0.6-0.2
		c0.2-0.1,0.3-0.2,0.5-0.3c0.1-0.1,0.3-0.3,0.4-0.4c0.1-0.2,0.2-0.3,0.3-0.5c0.1-0.2,0.1-0.4,0.1-0.6c0-0.2,0-0.3-0.1-0.5
		s-0.2-0.2-0.4-0.3c-0.2-0.1-0.4-0.1-0.6-0.2c-0.1,0-0.2,0-0.3,0c-0.1,0-0.2,0-0.4,0H-36.6L-36.6,315.9z M-21.9,315.9
		c-0.1,0-0.2,0-0.3,0.1c-0.1,0.1-0.2,0.2-0.2,0.3l-1.9,5.2c0,0.1-0.1,0.2,0,0.3c0,0.1,0.1,0.1,0.2,0.1h3c0,0,0.1,0,0.1,0
		c0,0,0.1,0,0.1-0.1c0,0,0.1-0.1,0.1-0.1c0-0.1,0.1-0.1,0.1-0.2h0c0-0.1,0.1-0.2,0.1-0.2c0-0.1,0-0.1,0-0.1c0,0,0-0.1,0-0.1
		c0,0,0,0-0.1,0h-2.2l0.6-1.7h1.8c0,0,0.1,0,0.1,0c0,0,0.1,0,0.1-0.1s0.1-0.1,0.1-0.1c0-0.1,0.1-0.1,0.1-0.2c0-0.1,0.1-0.2,0.1-0.2
		c0-0.1,0-0.1,0-0.1c0,0,0-0.1,0-0.1c0,0,0,0-0.1,0H-22l0.5-1.5h2.1c0,0,0.1,0,0.1,0c0,0,0.1,0,0.1-0.1c0,0,0.1-0.1,0.1-0.1
		c0-0.1,0.1-0.1,0.1-0.2c0-0.1,0.1-0.2,0.1-0.2c0-0.1,0-0.1,0-0.1c0,0,0-0.1,0-0.1c0,0,0,0-0.1,0H-21.9L-21.9,315.9z M-47.4,315.9
		c-0.1,0-0.2,0-0.3,0.1s-0.2,0.2-0.2,0.3l-1.9,5.2c0,0.1-0.1,0.2,0,0.3c0,0.1,0.1,0.1,0.2,0.1h1.6c0.2,0,0.5,0,0.7,0
		c0.2,0,0.4-0.1,0.6-0.1c0.2-0.1,0.4-0.1,0.6-0.2c0.2-0.1,0.3-0.2,0.5-0.3c0.2-0.1,0.3-0.3,0.4-0.5c0.1-0.2,0.2-0.4,0.3-0.6
		c0.1-0.2,0.1-0.4,0.1-0.6c0-0.2,0-0.3-0.1-0.4c-0.1-0.1-0.2-0.2-0.3-0.3c-0.1-0.1-0.3-0.1-0.4-0.2c0.2,0,0.3-0.1,0.4-0.2
		c0.1-0.1,0.3-0.2,0.4-0.3c0.1-0.1,0.2-0.2,0.3-0.4c0.1-0.1,0.2-0.3,0.2-0.4c0.1-0.3,0.1-0.5,0.1-0.7c0-0.2-0.1-0.4-0.2-0.5
		c-0.1-0.1-0.3-0.2-0.5-0.3c-0.2-0.1-0.5-0.1-0.9-0.1C-45.9,315.9-47.4,315.9-47.4,315.9z M-46.9,316.8h0.6c0.2,0,0.3,0,0.4,0.1
		s0.2,0.1,0.2,0.1c0.1,0.1,0.1,0.1,0.1,0.2c0,0.1,0,0.2-0.1,0.3c0,0.1-0.1,0.2-0.2,0.3c-0.1,0.1-0.2,0.2-0.2,0.3
		c-0.1,0.1-0.2,0.1-0.3,0.2c-0.1,0-0.3,0.1-0.4,0.1h-0.7C-47.4,318.3-46.9,316.8-46.9,316.8z M-36.1,316.8h0.5c0.1,0,0.2,0,0.3,0
		c0.1,0,0.1,0,0.2,0c0.2,0.1,0.3,0.2,0.3,0.3c0,0.1,0,0.3,0,0.5c0,0.1-0.1,0.2-0.2,0.4c-0.1,0.1-0.2,0.2-0.3,0.3
		c-0.1,0.1-0.2,0.1-0.4,0.2c-0.1,0-0.3,0.1-0.5,0.1h-0.6L-36.1,316.8z M-47.8,319.2h0.7c0.2,0,0.4,0,0.5,0.1c0.1,0,0.2,0.1,0.3,0.2
		c0.1,0.1,0.1,0.2,0.1,0.3c0,0.1,0,0.2-0.1,0.4c0,0.1-0.1,0.3-0.2,0.4c-0.1,0.1-0.2,0.2-0.3,0.3c-0.1,0.1-0.2,0.1-0.4,0.2
		s-0.3,0.1-0.4,0.1h-0.9C-48.4,320.9-47.8,319.2-47.8,319.2z"/>
</g>
</svg>
