<?xml version="1.0" encoding="utf-8"?>
<!-- Generator: Adobe Illustrator 19.2.1, SVG Export Plug-In . SVG Version: 6.00 Build 0)  -->
<svg version="1.1" id="Ebene_1" xmlns="http://www.w3.org/2000/svg" xmlns:xlink="http://www.w3.org/1999/xlink" x="0px" y="0px"
	 viewBox="0 0 126.6 60.1" style="enable-background:new 0 0 126.6 60.1;" xml:space="preserve">
<style type="text/css">
	.st0{fill:#B8B8B8;}
	.st1{fill:#FFFFFF;}
	.st2{opacity:0.2;fill:url(#SVGID_1_);}
	.st3{fill-rule:evenodd;clip-rule:evenodd;fill:#187FAB;}
	.st4{fill-rule:evenodd;clip-rule:evenodd;fill:#195A7F;}
	.st5{opacity:0.2;fill:url(#SVGID_2_);}
	.st6{fill:#0066B0;}
	.st7{fill:#F7A333;}
	.st8{opacity:0.2;fill:url(#SVGID_3_);}
	.st9{fill:#E40520;}
	.st10{fill:#FAB31E;}
	.st11{opacity:0.2;fill:url(#SVGID_4_);}
</style>
<g>
	<path class="st0" d="M121.7,60.1H4.9c-2.7,0-4.9-2.2-4.9-4.9V6.9C0,4.1,2.2,2,4.9,2h116.8c2.7,0,4.9,2.2,4.9,4.9v48.3
		C126.6,57.9,124.4,60.1,121.7,60.1z"/>
	<path class="st1" d="M121.3,58.1H5.2c-2.9,0-5.2-2.4-5.2-5.2V5.2C0,2.3,2.4,0,5.2,0h116.1c2.9,0,5.2,2.4,5.2,5.2v47.6
		C126.6,55.7,124.2,58.1,121.3,58.1z"/>
	<linearGradient id="SVGID_1_" gradientUnits="userSpaceOnUse" x1="63.2815" y1="58.0926" x2="63.2815" y2="-4.672929e-02">
		<stop  offset="0" style="stop-color:#000000"/>
		<stop  offset="1" style="stop-color:#FFFFFF"/>
	</linearGradient>
	<path class="st2" d="M121.3,58.1H5.2c-2.9,0-5.2-2.4-5.2-5.2V5.2C0,2.3,2.4,0,5.2,0h116.1c2.9,0,5.2,2.4,5.2,5.2v47.6
		C126.6,55.7,124.2,58.1,121.3,58.1z"/>
</g>
<g>
	<path class="st9" d="M67.5,29.1c0,7.5-6,13.5-13.5,13.5c-7.5,0-13.5-6-13.5-13.5c0-7.5,6-13.5,13.5-13.5
		C61.5,15.6,67.5,21.7,67.5,29.1"/>
	<path class="st10" d="M72.1,15.6c-3.5,0-6.7,1.3-9.1,3.5c-0.5,0.4-0.9,0.9-1.4,1.4h2.7c0.4,0.5,0.7,0.9,1,1.4h-4.8
		c-0.3,0.5-0.5,0.9-0.8,1.4h6.3c0.2,0.5,0.4,0.9,0.6,1.4h-7.5c-0.2,0.5-0.3,0.9-0.4,1.4h8.3c0.2,0.9,0.3,1.9,0.3,2.9
		c0,1.5-0.2,2.9-0.7,4.3h-7.5c0.2,0.5,0.4,1,0.6,1.4h6.3c-0.2,0.5-0.5,1-0.8,1.4h-4.8c0.3,0.5,0.7,1,1,1.4h2.7
		c-0.4,0.5-0.9,1-1.4,1.4c2.4,2.2,5.6,3.5,9.1,3.5c7.5,0,13.5-6,13.5-13.5C85.6,21.7,79.6,15.6,72.1,15.6"/>
	<polygon class="st1" points="47.7,32.7 46.2,32.7 47.1,27.4 45.2,32.7 44.2,32.7 44.1,27.4 43.2,32.7 41.8,32.7 42.9,25.8 
		45.1,25.8 45.1,30.1 46.5,25.8 48.8,25.8 	"/>
	<path class="st1" d="M51.3,30.2c-0.2,0-0.2,0-0.3,0c-0.8,0-1.3,0.3-1.3,0.8c0,0.3,0.2,0.6,0.5,0.6C50.8,31.6,51.3,31,51.3,30.2
		 M52.4,32.7h-1.2l0-0.6c-0.4,0.5-0.9,0.7-1.5,0.7c-0.8,0-1.3-0.6-1.3-1.5c0-1.4,0.9-2.1,2.6-2.1c0.2,0,0.4,0,0.6,0
		c0-0.2,0.1-0.3,0.1-0.4c0-0.4-0.3-0.5-0.9-0.5c-0.7,0-1.3,0.2-1.6,0.3c0-0.1,0.2-1.3,0.2-1.3C50,27.1,50.4,27,51,27
		c1.3,0,1.9,0.6,1.9,1.6c0,0.3,0,0.6-0.1,1.1C52.7,30.5,52.4,32.3,52.4,32.7"/>
	<path class="st1" d="M72,26l-0.2,1.5c-0.5-0.3-0.9-0.4-1.3-0.4c-1.1,0-1.9,1.1-1.9,2.6c0,1,0.5,1.7,1.4,1.7c0.4,0,0.8-0.1,1.2-0.4
		L71,32.6c-0.5,0.1-0.9,0.2-1.3,0.2c-1.6,0-2.6-1.1-2.6-3c0-2.4,1.4-4.2,3.3-4.2C71,25.7,71.8,25.9,72,26"/>
	<path class="st1" d="M74.4,30.2c-0.2,0-0.2,0-0.3,0c-0.8,0-1.3,0.3-1.3,0.8c0,0.3,0.2,0.6,0.5,0.6C73.9,31.6,74.4,31,74.4,30.2
		 M75.4,32.7h-1.2l0-0.6c-0.4,0.5-0.9,0.7-1.5,0.7c-0.8,0-1.3-0.6-1.3-1.5c0-1.4,0.9-2.1,2.6-2.1c0.2,0,0.4,0,0.6,0
		c0-0.2,0.1-0.3,0.1-0.4c0-0.4-0.3-0.5-0.9-0.5c-0.7,0-1.3,0.2-1.6,0.3c0-0.1,0.2-1.3,0.2-1.3c0.7-0.2,1.2-0.3,1.8-0.3
		c1.3,0,1.9,0.6,1.9,1.6c0,0.3,0,0.6-0.1,1.1C75.8,30.5,75.5,32.3,75.4,32.7"/>
	<path class="st1" d="M58.9,32.6c-0.4,0.1-0.7,0.2-1.1,0.2c-0.7,0-1.2-0.4-1.2-1.2c0-0.2,0.1-0.9,0.2-1.5c0.1-0.5,0.6-3.8,0.6-3.8
		h1.5l-0.2,0.8h0.7l-0.2,1.3h-0.7c-0.2,1.1-0.4,2.4-0.4,2.6c0,0.3,0.2,0.4,0.5,0.4c0.2,0,0.3,0,0.4-0.1L58.9,32.6z"/>
	<path class="st1" d="M63.3,32.5c-0.5,0.2-1,0.2-1.5,0.2c-1.6,0-2.5-0.9-2.5-2.5c0-1.9,1.1-3.3,2.6-3.3c1.2,0,2,0.8,2,2
		c0,0.4-0.1,0.8-0.2,1.4h-2.9c-0.1,0.8,0.4,1.1,1.3,1.1c0.5,0,1-0.1,1.5-0.4L63.3,32.5z M62.5,29.2c0-0.1,0.2-1-0.7-1
		c-0.5,0-0.8,0.4-0.9,1H62.5z"/>
	<path class="st1" d="M53.2,28.9c0,0.7,0.3,1.2,1.1,1.6c0.6,0.3,0.7,0.4,0.7,0.6c0,0.3-0.3,0.5-0.8,0.5c-0.4,0-0.8-0.1-1.3-0.2
		c0,0-0.2,1.2-0.2,1.3c0.3,0.1,0.6,0.1,1.5,0.2c1.5,0,2.3-0.6,2.3-1.9c0-0.8-0.3-1.2-1-1.6c-0.6-0.3-0.7-0.3-0.7-0.6
		c0-0.3,0.2-0.5,0.7-0.5c0.3,0,0.7,0,1.1,0.1l0.2-1.3c-0.4-0.1-1-0.1-1.3-0.1C53.8,27,53.2,27.8,53.2,28.9"/>
	<path class="st1" d="M83.2,32.7h-1.4l0.1-0.5c-0.4,0.4-0.8,0.6-1.4,0.6c-1.1,0-1.8-0.9-1.8-2.3c0-1.9,1.1-3.4,2.4-3.4
		c0.6,0,1,0.2,1.4,0.8l0.3-2h1.4L83.2,32.7z M81,31.4c0.7,0,1.2-0.8,1.2-1.9c0-0.7-0.3-1.1-0.8-1.1c-0.7,0-1.1,0.8-1.1,1.9
		C80.3,31,80.5,31.4,81,31.4"/>
	<path class="st1" d="M76.8,27.1c-0.2,1.7-0.5,3.5-0.8,5.2l-0.1,0.4h1.5c0.5-3.4,0.6-4.1,1.5-4c0.1-0.7,0.4-1.3,0.6-1.6
		c-0.6-0.1-1,0.2-1.4,0.9c0-0.3,0.1-0.6,0.1-0.8H76.8z"/>
	<path class="st1" d="M64.7,27.1c-0.2,1.7-0.5,3.5-0.8,5.2l-0.1,0.4h1.5c0.5-3.4,0.6-4.1,1.5-4c0.1-0.7,0.4-1.3,0.6-1.6
		c-0.6-0.1-1,0.2-1.4,0.9c0-0.3,0.1-0.6,0.1-0.8H64.7z"/>
	<path class="st1" d="M83.8,32.2c0-0.2,0.2-0.4,0.4-0.4c0.2,0,0.4,0.2,0.4,0.4c0,0.2-0.2,0.4-0.4,0.4C84,32.7,83.8,32.5,83.8,32.2
		 M84.3,32.6c0.2,0,0.3-0.1,0.3-0.3c0-0.2-0.1-0.3-0.3-0.3c-0.2,0-0.3,0.1-0.3,0.3C84,32.4,84.1,32.6,84.3,32.6 M84.2,32.4
		L84.2,32.4L84.1,32h0.2c0,0,0.1,0,0.1,0c0,0,0,0.1,0,0.1c0,0,0,0.1-0.1,0.1l0.1,0.2h-0.1l-0.1-0.2h-0.1V32.4z M84.2,32.2L84.2,32.2
		c0.1,0,0.1,0,0.1,0c0,0,0,0,0,0c0,0,0,0,0,0C84.3,32.1,84.3,32.1,84.2,32.2L84.2,32.2L84.2,32.2z"/>
</g>
</svg>
