<?xml version="1.0" encoding="utf-8"?>
<!-- Generator: Adobe Illustrator 19.2.1, SVG Export Plug-In . SVG Version: 6.00 Build 0)  -->
<svg version="1.1" id="Ebene_1" xmlns="http://www.w3.org/2000/svg" xmlns:xlink="http://www.w3.org/1999/xlink" x="0px" y="0px"
	 viewBox="0 0 126.6 60.1" style="enable-background:new 0 0 126.6 60.1;" xml:space="preserve">
<style type="text/css">
	.st0{fill:#B8B8B8;}
	.st1{fill:#FFFFFF;}
	.st2{opacity:0.2;fill:url(#SVGID_1_);}
	.st3{fill-rule:evenodd;clip-rule:evenodd;fill:#187FAB;}
	.st4{fill-rule:evenodd;clip-rule:evenodd;fill:#195A7F;}
	.st5{opacity:0.2;fill:url(#SVGID_2_);}
	.st6{fill:#0066B0;}
	.st7{fill:#F7A333;}
	.st8{opacity:0.2;fill:url(#SVGID_3_);}
	.st9{fill:#E40520;}
	.st10{fill:#FAB31E;}
	.st11{opacity:0.2;fill:url(#SVGID_4_);}
</style>
<path class="st0" d="M121.7,60.1H4.9c-2.7,0-4.9-2.2-4.9-4.9V6.9C0,4.2,2.2,2,4.9,2h116.8c2.7,0,4.9,2.2,4.9,4.9v48.3
	C126.6,57.9,124.4,60.1,121.7,60.1z"/>
<path class="st1" d="M121.3,58.1H5.2c-2.9,0-5.2-2.4-5.2-5.2V5.2C0,2.4,2.4,0,5.2,0h116.1c2.9,0,5.2,2.4,5.2,5.2v47.6
	C126.6,55.8,124.2,58.1,121.3,58.1z"/>
<linearGradient id="SVGID_1_" gradientUnits="userSpaceOnUse" x1="63.2815" y1="58.1393" x2="63.2815" y2="-2.604793e-09">
	<stop  offset="0" style="stop-color:#000000"/>
	<stop  offset="1" style="stop-color:#FFFFFF"/>
</linearGradient>
<path class="st2" d="M121.3,58.1H5.2c-2.9,0-5.2-2.4-5.2-5.2V5.2C0,2.4,2.4,0,5.2,0h116.1c2.9,0,5.2,2.4,5.2,5.2v47.6
	C126.6,55.8,124.2,58.1,121.3,58.1z"/>
<g>
	<path class="st3" d="M87.7,22.6c-1.8,0-3.3,0.5-4.4,0.7l-0.3,2.8c0.6-0.3,2.3-0.8,3.8-0.8c1.4,0,2.3,0.3,2,1.5
		c-4.3,0-7.2,0.9-7.8,3.7c-0.9,4.8,4.4,4.6,6.5,2.6l-0.3,1.2H91l1.7-7.6C93.3,23.4,90.4,22.6,87.7,22.6 M87.9,30.4
		c-0.2,1-1,1.5-2,1.5c-0.9,0-1.6-0.7-1.1-1.6c0.4-0.8,1.6-0.9,2.3-0.9h0.9C88.1,29.8,88,30.1,87.9,30.4"/>
	<polygon class="st3" points="95.9,19.6 92.7,34.2 96.6,34.2 99.9,19.6 	"/>
	<path class="st3" d="M78,19.7h-7.1l-3.2,14.6h4.1l1.1-4.8h2.9c2.9,0,5.3-1.8,5.9-4.8C82.5,21.2,80,19.7,78,19.7 M77.9,24.6
		c-0.3,1.1-1.4,2-2.4,2h-1.9l0.9-4h2.1C77.5,22.6,78.1,23.5,77.9,24.6"/>
	<path class="st4" d="M50.3,22.6c-1.8,0-3.2,0.5-4.3,0.7l-0.3,2.8c0.5-0.3,2.2-0.8,3.7-0.8c1.4,0,2.3,0.3,2,1.5
		c-4.3,0-7.1,0.9-7.7,3.7c-0.8,4.8,4.3,4.6,6.4,2.6l-0.3,1.2h3.8l1.6-7.6C55.9,23.4,52.9,22.6,50.3,22.6 M50.6,30.4
		c-0.2,1-1.1,1.5-2,1.5c-0.8,0-1.6-0.7-1-1.6c0.4-0.8,1.6-0.9,2.3-0.9h1C50.7,29.8,50.6,30.1,50.6,30.4"/>
	<polygon class="st4" points="56.9,22.8 60.7,22.8 61.3,29.6 65.1,22.8 69.1,22.8 59.9,39.1 55.7,39.1 58.5,34.3 	"/>
	<path class="st4" d="M40.8,19.7h-7.2l-3.2,14.6h4.2l1-4.8h3c2.9,0,5.3-1.8,5.9-4.8C45.3,21.2,42.9,19.7,40.8,19.7 M40.6,24.6
		c-0.3,1.1-1.3,2-2.4,2h-2l0.9-4h2.1C40.2,22.6,40.9,23.5,40.6,24.6"/>
</g>
</svg>
