<?xml version="1.0" encoding="UTF-8"?>
<svg width="50px" height="30px" viewBox="0 0 50 30" version="1.1" xmlns="http://www.w3.org/2000/svg" xmlns:xlink="http://www.w3.org/1999/xlink">
    <!-- Generator: Sketch 41.2 (35397) - http://www.bohemiancoding.com/sketch -->
    <title>Paypal-dark</title>
    <desc>Created with Sketch.</desc>
    <defs></defs>
    <g id="Page-1" stroke="none" stroke-width="1" fill="none" fill-rule="evenodd">
        <g id="Order-&amp;-Payment---Error" transform="translate(-659.000000, -899.000000)">
            <g id="Payment-Details" transform="translate(129.000000, 479.000000)">
                <g id="Paypal" transform="translate(0.000000, 410.000000)">
                    <g id="Paypal-dark" transform="translate(555.000000, 25.000000) scale(1, -1) translate(-555.000000, -25.000000) translate(530.000000, 10.000000)">
                        <rect id="Rectangle" fill="#00457C" x="0" y="0" width="50" height="30" rx="2"></rect>
                        <path d="M39.2131072,19.0033091 L38.2047248,12.5874242 C38.185083,12.4632376 38.2810742,12.3507727 38.4068448,12.3507727 L39.4212465,12.3507727 C39.5891518,12.3507727 39.7323466,12.4730585 39.7583244,12.639063 L40.7527675,18.9396318 C40.7724093,19.0638184 40.6764181,19.1762833 40.5503307,19.1762833 L39.4155441,19.1762833 C39.314484,19.1762833 39.2286306,19.1031019 39.2131072,19.0033091" id="Shape" fill="#FFFFFF"></path>
                        <path d="M26.567459,16.9034152 L25.3848351,16.9034152 C25.2717366,16.9034152 25.1659246,16.8473412 25.102564,16.7535676 L23.471031,14.3509372 L22.7797679,16.6597941 C22.7363659,16.804256 22.6033089,16.9034152 22.4525109,16.9034152 L21.2901624,16.9034152 C21.1498189,16.9034152 21.0509765,16.7652893 21.0962792,16.632549 L22.3983376,12.8100097 L21.173579,11.0818519 C21.0775879,10.9462604 21.1745295,10.7587133 21.3408508,10.7587133 L22.5222074,10.7587133 C22.6340387,10.7587133 22.7389004,10.8135201 22.8028945,10.9053929 L26.7356811,16.5818606 C26.8297715,16.7177689 26.7328299,16.9034152 26.567459,16.9034152" id="Shape" fill="#FFFFFF"></path>
                        <path d="M36.1865659,14.6132814 C36.0728338,13.9410264 35.5393383,13.4895828 34.8585297,13.4895828 C34.5173334,13.4895828 34.2439328,13.5995133 34.0684242,13.8073357 C33.8941828,14.0132574 33.8289215,14.3069333 33.8840451,14.6335567 C33.9898572,15.3001093 34.5322231,15.765809 35.2025773,15.765809 C35.5368039,15.765809 35.8079869,15.6549281 35.9869803,15.4452048 C36.167241,15.2338975 36.2382047,14.9386376 36.1865659,14.6132814 M37.8263358,16.9034469 L36.6497312,16.9034469 C36.548988,16.9034469 36.4631345,16.8302655 36.4472944,16.7304727 L36.3956556,16.4016317 L36.3132869,16.5207494 C36.0585777,16.890458 35.4905508,17.0143278 34.9234742,17.0143278 C33.6236334,17.0143278 32.5132406,16.0290719 32.2971812,14.6474961 C32.1847163,13.9581337 32.3443848,13.2995013 32.7353191,12.8398208 C33.0942564,12.417523 33.6065261,12.2416976 34.2170046,12.2416976 C35.2649874,12.2416976 35.8460032,12.9145862 35.8460032,12.9145862 L35.793414,12.587646 C35.7737722,12.4634594 35.8697634,12.3509945 35.9958508,12.3509945 L37.0552385,12.3509945 C37.2234606,12.3509945 37.3663386,12.4729635 37.3926332,12.638968 L38.0287726,16.6667954 C38.0484144,16.790982 37.9521064,16.9034469 37.8263358,16.9034469" id="Shape" fill="#FFFFFF"></path>
                        <path d="M18.6611132,14.6132814 C18.5473811,13.9410264 18.0138856,13.4895828 17.333077,13.4895828 C16.9918807,13.4895828 16.7184801,13.5995133 16.5429715,13.8073357 C16.3690469,14.0132574 16.3034688,14.3069333 16.3585924,14.6335567 C16.4644044,15.3001093 17.0067704,15.765809 17.6771245,15.765809 C18.0113512,15.765809 18.2825342,15.6549281 18.4615276,15.4452048 C18.6417882,15.2338975 18.712752,14.9386376 18.6611132,14.6132814 M20.3008831,16.9034469 L19.1242785,16.9034469 C19.0235353,16.9034469 18.9376818,16.8302655 18.9218417,16.7304727 L18.8702029,16.4016317 L18.788151,16.5207494 C18.533125,16.890458 17.965098,17.0143278 17.3980215,17.0143278 C16.0981807,17.0143278 14.9877878,16.0290719 14.7717285,14.6474961 C14.6592636,13.9581337 14.8189321,13.2995013 15.2098664,12.8398208 C15.5688037,12.417523 16.0810734,12.2416976 16.6915519,12.2416976 C17.7395346,12.2416976 18.3205505,12.9145862 18.3205505,12.9145862 L18.2679613,12.587646 C18.2483195,12.4634594 18.3443107,12.3509945 18.4703981,12.3509945 L19.5297857,12.3509945 C19.6980079,12.3509945 19.8408858,12.4729635 19.8671804,12.638968 L20.5033199,16.6667954 C20.5229617,16.790982 20.4266537,16.9034469 20.3008831,16.9034469" id="Shape" fill="#FFFFFF"></path>
                        <path d="M13.24021,16.8751881 C13.1058858,15.9932099 12.4323636,15.9932099 11.7807008,15.9932099 L11.4100418,15.9932099 L11.6701367,17.6399494 C11.68566,17.7394254 11.7715135,17.8126068 11.8722567,17.8126068 L12.0423797,17.8126068 C12.4859032,17.8126068 12.9047161,17.8126068 13.1207755,17.5601152 C13.2500309,17.4090004 13.2889976,17.1847042 13.24021,16.8751881 M12.9566718,19.1764417 L10.4995513,19.1764417 C10.3313292,19.1764417 10.1884512,19.0541559 10.1621566,18.8881514 L9.16866389,12.5875826 C9.14902213,12.463396 9.2450133,12.3509311 9.3707839,12.3509311 L10.5442205,12.3509311 C10.7121258,12.3509311 10.8550038,12.4732169 10.8812984,12.6389046 L11.1496301,14.338867 C11.1756079,14.5048716 11.3188027,14.6271573 11.486708,14.6271573 L12.2641414,14.6271573 C13.8826856,14.6271573 14.8169362,15.4102932 15.0608742,16.9629424 C15.1708047,17.6415334 15.0653094,18.1750289 14.7475565,18.5485391 C14.3981233,18.9591152 13.7787743,19.1764417 12.9566718,19.1764417" id="Shape" fill="#FFFFFF"></path>
                        <path d="M30.7656311,16.8751881 C30.6313068,15.9932099 29.9577846,15.9932099 29.3061218,15.9932099 L28.9354628,15.9932099 L29.1955577,17.6399494 C29.211081,17.7394254 29.2969345,17.8126068 29.3976777,17.8126068 L29.5678007,17.8126068 C30.0113242,17.8126068 30.4301372,17.8126068 30.6461965,17.5601152 C30.775452,17.4090004 30.8144187,17.1847042 30.7656311,16.8751881 M30.4820928,19.1764417 L28.0249724,19.1764417 C27.8567502,19.1764417 27.7138723,19.0541559 27.6875777,18.8881514 L26.6940849,12.5875826 C26.6744432,12.463396 26.7707511,12.3509311 26.8962049,12.3509311 L28.157079,12.3509311 C28.2746128,12.3509311 28.3747224,12.4364678 28.3930969,12.5524176 L28.6750512,14.338867 C28.701029,14.5048716 28.8442237,14.6271573 29.0121291,14.6271573 L29.7895625,14.6271573 C31.4081066,14.6271573 32.3423573,15.4102932 32.5862952,16.9629424 C32.6962257,17.6415334 32.5907305,18.1750289 32.2729775,18.5485391 C31.9235443,18.9591152 31.3041954,19.1764417 30.4820928,19.1764417" id="Shape" fill="#FFFFFF"></path>
                    </g>
                </g>
            </g>
        </g>
    </g>
</svg>