<svg id="Ebene_1" data-name="Ebene 1" xmlns="http://www.w3.org/2000/svg" viewBox="0 0 89.76 101.15"><defs><style>.cls-1{fill:none;}.cls-1,.cls-2{stroke:#ce5100;stroke-miterlimit:10;}.cls-2{fill:#fff;}</style></defs><title>people</title><path class="cls-1" d="M1127.3,1440.26c-22.29,0-31.28,26.78-22.68,26.78h1c8.6,0-.39-26.78-22.68-26.78h0a22.19,22.19,0,0,1,44.38,0h0Z" transform="translate(-1082.42 -1397.72)"/><circle class="cls-1" cx="22.69" cy="10.47" r="9.97"/><path class="cls-1" d="M1171.68,1440.26c-22.29,0-31.28,26.78-22.68,26.78h1c8.6,0-.39-26.78-22.68-26.78h0a22.19,22.19,0,0,1,44.38,0h0Z" transform="translate(-1082.42 -1397.72)"/><circle class="cls-1" cx="67.07" cy="10.47" r="9.97"/><path class="cls-2" d="M1153.69,1466.53c-26.5,0-37.2,31.85-27,31.85h1.16c10.23,0-.46-31.85-27-31.85h0a26.39,26.39,0,0,1,52.78,0h0Z" transform="translate(-1082.42 -1397.72)"/><circle class="cls-2" cx="44.88" cy="32.56" r="9.97"/></svg>