<?xml version="1.0" encoding="UTF-8"?>
<svg width="14px" height="14px" viewBox="0 0 14 14" version="1.1" xmlns="http://www.w3.org/2000/svg" xmlns:xlink="http://www.w3.org/1999/xlink">
    <!-- Generator: Sketch 41 (35326) - http://www.bohemiancoding.com/sketch -->
    <title>phone-call</title>
    <desc>Created with Sketch.</desc>
    <defs></defs>
    <style>#Shape{fill:#7f7f7f;}</style>
    <g id="Page-1" stroke="none" stroke-width="1" fill="none" fill-rule="evenodd">
        <g id="Admin-Interface-Event" transform="translate(-700.000000, -270.000000)" fill="#7F7F7F">
            <g id="Chef" transform="translate(680.000000, 140.000000)">
                <g id="Group-3" transform="translate(20.000000, 127.830065)">
                    <g id="phone-call" transform="translate(0.000000, 2.013072)">
                        <g id="Capa_1">
                            <g id="Group">
                                <path d="M11.0598819,8.72561341 C10.773384,8.42535142 10.4278143,8.26481531 10.0615696,8.26481531 C9.69827848,8.26481531 9.34975527,8.42237853 9.05144304,8.72264052 L8.1181097,9.65910118 C8.04131646,9.61748071 7.96452321,9.57883313 7.89068354,9.54018554 C7.78435443,9.48667351 7.68393249,9.43613436 7.59827848,9.38262232 C6.72401688,8.82371882 5.92950211,8.09536053 5.16747679,7.15295408 C4.79827848,6.68323731 4.55017722,6.28784281 4.37000844,5.88650252 C4.61220253,5.6635357 4.83667511,5.4316502 5.05524051,5.20868338 C5.13794093,5.12544243 5.22064135,5.03922859 5.30334177,4.95598765 C5.92359494,4.33168054 5.92359494,3.52305419 5.30334177,2.89874708 L4.49701266,2.08714784 C4.40545148,1.99498822 4.31093671,1.89985571 4.22232911,1.8047232 C4.04511392,1.62040396 3.85903797,1.43013894 3.66705485,1.25176548 C3.38055696,0.966367944 3.03794093,0.814750503 2.67760338,0.814750503 C2.31726582,0.814750503 1.96874262,0.966367944 1.67338397,1.25176548 C1.67043038,1.25473837 1.67043038,1.25473837 1.66747679,1.25771126 L0.663257384,2.27741287 C0.285198312,2.65794291 0.0695864979,3.12171391 0.0223291139,3.65980718 C-0.048556962,4.52789134 0.205451477,5.33651769 0.400388186,5.86569229 C0.878869198,7.16484565 1.59363713,8.3688665 2.65988186,9.65910118 C3.95355274,11.2139232 5.51009283,12.4417271 7.2881519,13.3068384 C7.96747679,13.6308835 8.87422785,14.0143865 9.88730802,14.0797901 C9.94933333,14.082763 10.0143122,14.0857359 10.073384,14.0857359 C10.7556624,14.0857359 11.3286582,13.8389859 11.7776034,13.3484589 C11.780557,13.3425131 11.7864641,13.3395402 11.7894177,13.3335944 C11.9430042,13.1463023 12.1202194,12.9768475 12.3062954,12.7955012 C12.4332996,12.6736126 12.5632574,12.5457783 12.6902616,12.4119982 C12.9826667,12.1057905 13.1362532,11.7490435 13.1362532,11.383378 C13.1362532,11.0147395 12.9797131,10.6609654 12.6814008,10.3636763 L11.0598819,8.72561341 L11.0598819,8.72561341 Z M12.1172658,11.8560676 C12.1143122,11.8560676 12.1143122,11.8590405 12.1172658,11.8560676 C12.0020759,11.980929 11.8839325,12.0938989 11.7569283,12.2187603 C11.5649451,12.4030796 11.3700084,12.5963175 11.1868861,12.8133385 C10.8885738,13.1344107 10.537097,13.2860282 10.0763376,13.2860282 C10.0320338,13.2860282 9.98477637,13.2860282 9.94047257,13.2830553 C9.06325738,13.2265704 8.24806751,12.881715 7.63667511,12.5873988 C5.96494515,11.7728267 4.49701266,10.6163721 3.27718143,9.15073682 C2.27000844,7.92887863 1.59659072,6.79918006 1.15059916,5.58624053 C0.875915612,4.84599068 0.775493671,4.26924983 0.819797468,3.72521078 C0.849333333,3.37738253 0.982244726,3.08901211 1.22739241,2.84226215 L2.2345654,1.82850633 C2.37929114,1.69175334 2.53287764,1.61743107 2.68351055,1.61743107 C2.8695865,1.61743107 3.02021941,1.73040093 3.11473418,1.82553344 C3.11768776,1.82850633 3.12064135,1.83147922 3.12359494,1.83445211 C3.30376371,2.0039069 3.47507173,2.17930747 3.65524051,2.3665996 C3.74680169,2.46173211 3.84131646,2.55686462 3.93583122,2.65497002 L4.74216034,3.46656926 C5.05524051,3.78169571 5.05524051,4.07303902 4.74216034,4.38816547 C4.65650633,4.47437931 4.57380591,4.56059314 4.4881519,4.64383409 C4.24005063,4.89950272 4.00376371,5.137334 3.74680169,5.36921949 C3.74089451,5.37516527 3.73498734,5.37813816 3.73203376,5.38408395 C3.47802532,5.63975257 3.5252827,5.88947541 3.57844726,6.0589302 C3.58140084,6.06784887 3.58435443,6.07676755 3.58730802,6.08568622 C3.79701266,6.59702347 4.09237131,7.07863181 4.54131646,7.65239977 L4.54427004,7.65537266 C5.35945992,8.66615559 6.21895359,9.45397171 7.16705485,10.0574686 C7.2881519,10.1347637 7.41220253,10.1971945 7.53034599,10.2566523 C7.63667511,10.3101643 7.73709705,10.3607035 7.82275105,10.4142155 C7.8345654,10.4201613 7.84637975,10.4290799 7.85819409,10.4350257 C7.95861603,10.4855649 8.0531308,10.509348 8.15059916,10.509348 C8.39574684,10.509348 8.54933333,10.3547577 8.5995443,10.3042185 L9.60967089,9.28748981 C9.71009283,9.18641152 9.8695865,9.06452299 10.0556624,9.06452299 C10.2387848,9.06452299 10.3894177,9.18046573 10.4809789,9.28154403 C10.4839325,9.28451692 10.4839325,9.28451692 10.4868861,9.28748981 L12.1143122,10.9255527 C12.4185316,11.2287876 12.4185316,11.5409412 12.1172658,11.8560676 L12.1172658,11.8560676 Z" id="Shape"></path>
                            </g>
                        </g>
                    </g>
                </g>
            </g>
        </g>
    </g>
</svg>
