<svg id="Ebene_1" data-name="Ebene 1" xmlns="http://www.w3.org/2000/svg" viewBox="0 0 50 61.89"><defs><style>.cls-1{fill:#ce5100;}.cls-2{fill:none;stroke:#fff;stroke-linecap:round;stroke-linejoin:round;stroke-width:0.68px;}</style></defs><title>place</title><path class="cls-1" d="M1061.43,2180.95a25,25,0,1,0-32.43,23.92,15.1,15.1,0,0,1,7.43,5.95,14.52,14.52,0,0,1,7.43-5.95A25.07,25.07,0,0,0,1061.43,2180.95Z" transform="translate(-1011.43 -2155.95)"/><path class="cls-1" d="M1036.43,2217.84c2.43,0,2.3-3.51,0-7C1034.13,2214.32,1034,2217.84,1036.43,2217.84Z" transform="translate(-1011.43 -2155.95)"/><path class="cls-2" d="M1038.86,2171.49c3.11-3.11,7.7-7.3,8.92-6.08s-8.38,6.89-7,8.11c1.89,1.89,7.84-7.3,9.19-5.95s-7.57,7.57-5.95,9.19c1.35,1.35,6.89-8.24,8.11-7s-3.11,5.81-6.08,8.92-9.05,3-14.59,8.38-6.35,9.86-6.35,9.86c-2.3-2.3-.41-5.95.41-5l0.14,0.14c0.95,0.95-2.84,2.7-5,.41,0,0,4.32-.95,9.86-6.35s5.27-11.49,8.38-14.59" transform="translate(-1011.43 -2155.95)"/><path class="cls-2" d="M1033.45,2182a24.71,24.71,0,0,0,1.89-3.78c-5.68-5.95-12.3-12.7-13.11-11.89-2,2-.54,7.16,4.19,11.89A13,13,0,0,0,1033.45,2182Z" transform="translate(-1011.43 -2155.95)"/><path class="cls-2" d="M1039,2182.16c-0.68.27-1.49,0.68-2.3,1.08a13.91,13.91,0,0,1,3.65,2.7c5.41,5.41,6.35,9.86,6.35,9.86a4.07,4.07,0,0,0,1.08-3.51,3.71,3.71,0,0,0,3.51-1.08s-4.32-.95-9.86-6.35A36.24,36.24,0,0,0,1039,2182.16Z" transform="translate(-1011.43 -2155.95)"/></svg>