<?xml version="1.0" encoding="UTF-8" standalone="no"?>
<svg width="94px" height="94px" viewBox="0 0 94 94" version="1.1" xmlns="http://www.w3.org/2000/svg" xmlns:xlink="http://www.w3.org/1999/xlink">
    <!-- Generator: Sketch 41.2 (35397) - http://www.bohemiancoding.com/sketch -->
    <title>Profile Picture</title>
    <desc>Created with Sketch.</desc>
    <defs>
        <filter x="-50%" y="-50%" width="200%" height="200%" filterUnits="objectBoundingBox" id="filter-1">
            <feOffset dx="0" dy="2" in="SourceAlpha" result="shadowOffsetOuter1"></feOffset>
            <feGaussianBlur stdDeviation="2" in="shadowOffsetOuter1" result="shadowBlurOuter1"></feGaussianBlur>
            <feColorMatrix values="0 0 0 0 0   0 0 0 0 0   0 0 0 0 0  0 0 0 0.05 0" type="matrix" in="shadowBlurOuter1" result="shadowMatrixOuter1"></feColorMatrix>
            <feMerge>
                <feMergeNode in="shadowMatrixOuter1"></feMergeNode>
                <feMergeNode in="SourceGraphic"></feMergeNode>
            </feMerge>
        </filter>
        <circle id="path-2" cx="40" cy="40" r="40"></circle>
    </defs>
    <g id="Page-1" stroke="none" stroke-width="1" fill="none" fill-rule="evenodd">
        <g id="Confirm-1" transform="translate(-673.000000, -264.000000)">
            <g id="Content" transform="translate(130.000000, 110.000000)">
                <g id="Profile-Picture" filter="url(#filter-1)" transform="translate(550.000000, 159.000000)">
                    <mask id="mask-3" fill="white">
                        <use xlink:href="#path-2"></use>
                    </mask>
                    <use id="Oval-2" stroke="#FFFFFF" stroke-width="5" fill="#D8D8D8" xlink:href="#path-2"></use>
                    <g id="icon_profile-01" mask="url(#mask-3)">
                        <g transform="translate(23.111111, 16.000000)" id="Ebene_1">
                            <g transform="translate(-0.000000, 0.000000)">
                                <g id="Group" stroke="#999999">
                                    <path d="M2.63391304,11.9176068 C-0.376811594,7.14529915 2.45681159,1.48923077 7.41565217,1.48923077 C12.9057971,1.48923077 16.6249275,10.6803419 12.7286957,10.6803419 C9.18666667,10.6803419 9.71797101,0.605470085 16.9791304,0.605470085 C24.2402899,0.605470085 25.1257971,10.6803419 21.5837681,10.6803419 C17.5104348,10.6803419 21.4066667,1.48923077 26.8968116,1.48923077 C31.8556522,1.48923077 34.6892754,6.96854701 31.6785507,11.9176068" id="Shape"></path>
                                    <ellipse id="Oval" stroke-width="1.5" cx="17.3333333" cy="32.0673504" rx="16.8246377" ry="16.791453"></ellipse>
                                    <path d="M4.40492754,21.4622222 C7.41565217,17.7504274 12.1973913,15.4526496 17.3333333,15.4526496 C22.6463768,15.4526496 27.2510145,17.9271795 30.2617391,21.6389744 C29.7304348,18.8109402 29.9075362,15.4526496 32.0327536,12.094359 C35.0434783,7.32205128 32.2098551,1.66598291 27.2510145,1.66598291 C25.48,1.66598291 23.886087,2.54974359 22.6463768,3.78700855 C21.5837681,2.19623932 19.8127536,0.782222222 17.1562319,0.782222222 C14.6768116,0.782222222 12.9057971,2.01948718 11.8431884,3.61025641 C10.6034783,2.37299145 9.18666667,1.48923077 7.41565217,1.48923077 C2.45681159,1.48923077 -0.376811594,6.96854701 2.63391304,11.9176068 C4.75913043,15.0991453 4.93623188,18.634188 4.40492754,21.4622222 Z" id="Shape" stroke-width="1.5"></path>
                                </g>
                            </g>
                        </g>
                    </g>
                </g>
            </g>
        </g>
    </g>
</svg>