<?xml version="1.0" encoding="UTF-8" standalone="no"?>
<svg width="22px" height="22px" viewBox="0 0 22 22" version="1.1" xmlns="http://www.w3.org/2000/svg" xmlns:xlink="http://www.w3.org/1999/xlink">
    <!-- Generator: Sketch 41.2 (35397) - http://www.bohemiancoding.com/sketch -->
    <title>Profile Picture</title>
    <desc>Created with Sketch.</desc>
    <defs>
        <rect id="path-1" x="0" y="0" width="1440" height="60"></rect>
        <filter x="-50%" y="-50%" width="200%" height="200%" filterUnits="objectBoundingBox" id="filter-2">
            <feOffset dx="0" dy="2" in="SourceAlpha" result="shadowOffsetOuter1"></feOffset>
            <feGaussianBlur stdDeviation="2" in="shadowOffsetOuter1" result="shadowBlurOuter1"></feGaussianBlur>
            <feColorMatrix values="0 0 0 0 0   0 0 0 0 0   0 0 0 0 0  0 0 0 0.1 0" type="matrix" in="shadowBlurOuter1"></feColorMatrix>
        </filter>
    </defs>
    <g id="Page-1" stroke="none" stroke-width="1" fill="none" fill-rule="evenodd">
        <g id="Discover-Page-1" transform="translate(-1300.000000, -20.000000)">
            <g id="NAVBAR">
                <g id="Rectangle">
                    <use fill="black" fill-opacity="1" filter="url(#filter-2)" xlink:href="#path-1"></use>
                    <use fill="#FFFFFF" fill-rule="evenodd" xlink:href="#path-1"></use>
                </g>
                <g id="Profile" transform="translate(1300.000000, 20.000000)" stroke-width="0.9" stroke="#CE5100">
                    <g id="Profile-Picture" transform="translate(1.000000, 1.000000)">
                        <g id="icons-headder_koch-01">
                            <g id="Ebene_1">
                                <g id="Group">
                                    <circle id="Oval" cx="10" cy="10" r="10"></circle>
                                    <path d="M5.86666667,6.36666667 C5,5 5.8,3.43333333 7.23333333,3.43333333 C8.8,3.43333333 9.8,6.06666667 8.76666667,6.06666667 C7.76666667,6.06666667 7.93333333,3.23333333 10,3.23333333 C12.0666667,3.23333333 12.2666667,6.06666667 11.3,6.06666667 C10.1666667,6.06666667 11.2666667,3.46666667 12.8333333,3.46666667 C14.2666667,3.46666667 15.0666667,5.03333333 14.2,6.4" id="Shape"></path>
                                    <circle id="Oval" cx="10" cy="12.0666667" r="4.73333333"></circle>
                                    <path d="M6.33333333,9.06666667 C7.2,8 8.53333333,7.33333333 10,7.33333333 C11.4666667,7.33333333 12.8,8 13.6666667,9.06666667 C13.5333333,8.26666667 13.5333333,7.3 14.1333333,6.36666667 C15,5 14.2,3.43333333 12.7666667,3.43333333 C12.2666667,3.43333333 11.8333333,3.7 11.5,4.03333333 C11.2,3.56666667 10.7,3.2 9.96666667,3.2 C9.23333333,3.2 8.76666667,3.53333333 8.46666667,4 C8.13333333,3.66666667 7.7,3.4 7.23333333,3.4 C5.8,3.4 5,4.96666667 5.86666667,6.33333333 C6.43333333,7.26666667 6.46666667,8.23333333 6.33333333,9.06666667 L6.33333333,9.06666667 Z" id="Shape"></path>
                                </g>
                            </g>
                        </g>
                    </g>
                </g>
            </g>
        </g>
    </g>
</svg>