<?xml version="1.0" encoding="utf-8"?>
<!-- Generator: Adobe Illustrator 19.2.1, SVG Export Plug-In . SVG Version: 6.00 Build 0)  -->
<svg version="1.1" id="Ebene_1" xmlns="http://www.w3.org/2000/svg" xmlns:xlink="http://www.w3.org/1999/xlink" x="0px" y="0px"
	 viewBox="0 0 200 200" style="enable-background:new 0 0 200 200;" xml:space="preserve">
<style type="text/css">
	.st0{fill:#FFFFFF;}
</style>
<path class="st0" d="M115.5,97.3c0.2-0.4,0.4-0.9,0.4-1.5c0-0.7-0.2-1.4-0.7-2c0.9-1.6,1.4-3.5,1.4-5.5c0-6.4-5.2-11.6-11.6-11.6
	c-6.4,0-11.6,5.2-11.6,11.6c0,6.4,5.2,11.6,11.6,11.6c2,0,3.9-0.5,5.5-1.4c0.6,0.4,1.3,0.7,2,0.7c0.5,0,1-0.1,1.5-0.4
	c1.9,2.8,5.6,7.7,7.7,7.9c0.1,0,0.1,0,0.2,0c0.4,0,0.8-0.2,1.1-0.4c0.3-0.3,0.5-0.8,0.4-1.3C123.2,103,118.3,99.3,115.5,97.3z
	 M95.3,88.4c0-5.4,4.4-9.7,9.7-9.7s9.7,4.4,9.7,9.7s-4.4,9.7-9.7,9.7S95.3,93.7,95.3,88.4z"/>
</svg>
