<?xml version="1.0" encoding="utf-8"?>
<!-- Generator: Adobe Illustrator 19.2.1, SVG Export Plug-In . SVG Version: 6.00 Build 0)  -->
<svg version="1.1" id="Ebene_1" xmlns="http://www.w3.org/2000/svg" xmlns:xlink="http://www.w3.org/1999/xlink" x="0px" y="0px"
	 viewBox="0 0 120 120" style="enable-background:new 0 0 120 120;" xml:space="preserve">
<style type="text/css">
	.st0{fill:#777777;}
	.st1{fill:none;stroke:#777777;stroke-miterlimit:10;}
	.st2{fill:none;stroke:#777777;stroke-linecap:round;stroke-linejoin:round;stroke-miterlimit:10;}
</style>
<g>
	<circle class="st1" cx="35.8" cy="21.5" r="9.5"/>
	<circle class="st1" cx="78.2" cy="21.5" r="9.5"/>
	<path class="st1" d="M82.2,77.2c-25.3,0-35.5,30.4-25.8,30.4h1.1c9.8,0-0.4-30.4-25.8-30.4l0,0c0-14,11.3-25.1,25.1-25.1
		S82.2,63.2,82.2,77.2L82.2,77.2z"/>
	<circle class="st1" cx="57" cy="42.6" r="9.5"/>
	<path class="st1" d="M58.4,52.2c0.3,0,0.7,0,1,0.1c0,0,0,0,0.1,0c3,0.3,5.8,1.1,8.2,2.3c0.1,0,0.1,0.1,0.2,0.1
		c0.3,0.1,0.5,0.3,0.8,0.4c3.9,2,7.2,5,9.5,8.7c4-6,11.2-11.6,21.2-11.6c0-11.8-9.7-21.1-21.3-21.1c-5.3,0-10.2,2-14,5.3
		c1.5,1.7,2.4,3.9,2.4,6.3c0,5.3-4.3,9.5-9.5,9.5c0.1,0,0.2,0,0.3,0C57.6,52.1,58,52.2,58.4,52.2z"/>
	<path class="st1" d="M35.7,63.7c4.2-6.5,11.3-10.9,19.4-11.5c0,0,0,0,0.1,0c0.6,0,1.1-0.1,1.7-0.1c0,0,0,0,0.1,0c0,0,0,0,0,0
		c-5.3,0-9.5-4.3-9.5-9.5c0-2.4,0.9-4.6,2.3-6.2C46,33,41.1,31,35.7,31c-11.6,0-21.1,9.3-21.1,21.1C24.6,52.1,31.7,57.7,35.7,63.7z"
		/>
</g>
</svg>
