<?xml version="1.0" encoding="UTF-8"?>
<svg width="50px" height="30px" viewBox="0 0 50 30" version="1.1" xmlns="http://www.w3.org/2000/svg" xmlns:xlink="http://www.w3.org/1999/xlink">
    <!-- Generator: Sketch 41.2 (35397) - http://www.bohemiancoding.com/sketch -->
    <title>Sofort</title>
    <desc>Created with Sketch.</desc>
    <defs></defs>
    <g id="Page-1" stroke="none" stroke-width="1" fill="none" fill-rule="evenodd">
        <g id="Order-&amp;-Payment---Error" transform="translate(-659.000000, -954.000000)">
            <g id="Payment-Details" transform="translate(129.000000, 479.000000)">
                <g id="Sofort" transform="translate(0.000000, 465.000000)">
                    <g transform="translate(530.000000, 10.000000)">
                        <rect id="Rectangle" fill="#EE7F00" x="0" y="0" width="50" height="30" rx="2"></rect>
                        <g id="Sofortüberweisung_Logo" transform="translate(4.000000, 11.000000)" fill="#FFFFFF">
                            <g id="svg4722">
                                <g id="layer1" transform="translate(0.041168, 0.037717)">
                                    <path d="M13.9531608,0.0113451082 C13.3765588,0.0113451082 12.817419,0.135850851 12.2922319,0.368194978 C11.5422683,0.701940058 10.8619197,1.25846658 10.3065632,1.99701625 C9.94581598,2.47647512 9.63694258,3.03223873 9.39516936,3.65381859 C8.93924258,4.82711541 8.94434339,5.77882006 9.41046813,6.40598906 C9.67476154,6.76049328 10.2241801,7.18403466 11.3412654,7.18523227 L11.3455474,7.18523227 C13.3804361,7.18523227 14.8994223,5.9320899 15.8614161,3.4605411 C16.1155111,2.80662494 16.4507789,1.58619076 15.8380603,0.762607734 C15.4679647,0.264784935 14.834845,0.0121433478 13.9531592,0.0113451082 L13.9531608,0.0113451082 Z M26.2313837,0.0113451082 C25.6552068,0.0113451082 25.0956253,0.135850851 24.5708632,0.368194978 C23.8204741,0.701940058 23.1406528,1.25846658 22.5852964,1.99701625 C22.2241241,2.47647512 21.9155734,3.03223873 21.6738005,3.65381859 C21.2174482,4.82711541 21.2229573,5.77882006 21.6895071,6.40598906 C21.9533751,6.76049328 22.5023691,7.18403466 23.6203045,7.18523227 L23.6237719,7.18523227 C25.6590857,7.18523227 27.178497,5.9320899 28.1396411,3.4605411 C28.3945858,2.80662494 28.7289867,1.58619076 28.1166927,0.762607734 C27.7461726,0.264784935 27.1130696,0.0121433478 26.2313837,0.0113451082 L26.2313837,0.0113451082 Z M7.41806784,0.110714892 C6.74841167,0.110714892 6.09788509,0.11066583 5.51491024,0.38850961 C4.93235993,0.666364675 4.41777284,1.22248496 4.02175754,2.3347015 C3.93592636,2.57383238 3.89052773,2.77986012 3.8845794,2.95870944 C3.87863264,3.13795763 3.91178631,3.29043856 3.98402056,3.42297821 C4.07325124,3.58466072 4.21772288,3.73677123 4.39830957,3.86491983 C4.5793208,3.9934673 4.79554419,4.09770159 5.02881988,4.16437102 C5.03774263,4.16676525 5.16016927,4.19947934 5.30888793,4.23940113 C5.45675594,4.27932291 5.62966478,4.32718049 5.73929085,4.35831919 C5.80345196,4.37668312 5.87392746,4.40066219 5.93766403,4.43699117 C6.00182514,4.47252141 6.05922591,4.52039861 6.09534252,4.58666869 C6.11913792,4.63058216 6.13190665,4.67890632 6.13318133,4.73040479 C6.13487846,4.78230312 6.12547842,4.8382471 6.10380783,4.89733105 C6.04942013,5.04823463 5.96698322,5.14563556 5.80976687,5.20511887 C5.65340013,5.2646017 5.42269887,5.28369469 5.07257412,5.28609039 L0.701940538,5.28609039 L0.0110513795,7.06938058 L4.68929046,7.06938058 C5.12949603,7.06938058 5.93426193,7.06942964 6.70759635,6.76044323 C7.48093025,6.45184883 8.22290475,5.83505154 8.53691238,4.60027556 C8.65503717,4.13638603 8.61846365,3.75832517 8.42513017,3.46130794 C8.23094656,3.16469007 7.87997167,2.94915657 7.36880601,2.81142713 C7.36880601,2.81142713 7.25454128,2.78019962 7.11984514,2.74387114 C6.9859986,2.70754266 6.83089349,2.66605922 6.75186077,2.64450136 C6.62098866,2.60937048 6.52026447,2.53830066 6.46077753,2.44767815 C6.40171513,2.3574555 6.38386335,2.24766297 6.41743112,2.1354826 C6.45269812,2.01891166 6.53769535,1.92589051 6.66006873,1.86161677 C6.78329224,1.79774141 6.9447509,1.76263016 7.13341021,1.76263016 L9.85280409,1.76263016 C9.8719248,1.73668124 9.88937083,1.70837391 9.90849154,1.68242499 C10.4052096,1.02212095 11.0064791,0.487974574 11.6650877,0.110714892 L7.41806784,0.110714892 L7.41806784,0.110714892 Z M19.6410116,0.110714892 C18.4308711,0.110714892 17.5300259,0.685943867 17.1046919,1.76263016 L15.0489551,7.06938058 L17.3010249,7.06938058 L18.3573491,4.34154978 L20.3476073,4.34279596 L20.9139649,2.88166681 L18.9301322,2.88042063 L19.249671,2.03448395 C19.3159564,1.88278165 19.4752714,1.76224698 19.708122,1.76224698 C19.8377189,1.76224698 21.2989274,1.76263948 22.0548398,1.76301235 C22.0743861,1.73666456 22.0918144,1.70837293 22.1109351,1.68242401 C22.6076531,1.02211997 23.3109142,0.487973593 23.9695228,0.110713911 L19.6410116,0.110713911 L19.6410116,0.110714892 Z M30.088695,0.114546638 L27.3917386,7.07369166 L29.6824635,7.07369166 L30.6627017,4.62413492 C30.7107165,4.72513651 31.2890302,7.07369166 31.2890302,7.07369166 L33.6974532,7.07369166 C33.6974532,7.07369166 33.2593928,5.3479017 32.937312,4.65086981 C32.8544553,4.47162162 32.768127,4.27082488 32.6525521,4.10275498 C33.3328313,3.86522107 34.3186162,3.35541486 34.7269532,2.32224317 C34.9776494,1.6870903 34.963265,1.17366038 34.6845248,0.797199423 C34.3467218,0.340096162 33.6592201,0.115744733 32.582076,0.114546638 L30.088695,0.114546638 Z M34.7872303,0.114644762 C34.9321244,0.222433102 35.0570272,0.345343838 35.16113,0.48586785 C35.4275479,0.846759942 35.5294982,1.27560346 35.4687361,1.76703887 L36.8327676,1.76703887 L34.7770313,7.07541864 L36.8310339,7.07541864 L38.8879948,1.76703887 L41.5271216,1.76703887 L42.1674231,0.114644762 L34.7872303,0.114644762 L34.7872303,0.114644762 Z M31.5979621,1.55133856 L31.976146,1.55133856 C32.6674717,1.55178012 32.9253318,1.74176996 32.6912071,2.33460632 C32.4715288,2.8911142 32.0763736,3.23487579 31.3251353,3.23487579 L31.3221797,3.23487579 L30.933389,3.23448329 L31.5979642,1.55132924 L31.5979621,1.55133856 Z M13.4127088,1.58583506 L13.4131266,1.58583506 C14.1167751,1.58663478 14.2778645,1.9699129 13.6600472,3.5579955 L13.6599428,3.5579955 C13.0251286,5.19039143 12.5645689,5.60116147 11.8711173,5.60116147 L11.8697909,5.60116147 C11.1941864,5.60076898 10.9571525,5.19909651 11.5894168,3.57428557 C12.061491,2.36146632 12.672949,1.58583506 13.4127156,1.58583506 L13.4127088,1.58583506 Z M25.6909318,1.58583506 L25.6917464,1.58583506 C26.3949704,1.58663478 26.5563998,1.9699129 25.9381574,3.5579955 C25.3037682,5.19039143 24.8427668,5.60116147 24.1497403,5.60116147 L24.148111,5.60116147 C23.4720809,5.60076898 23.2362031,5.19909651 23.8680429,3.57428557 C24.3396915,2.36146632 24.9515918,1.58583506 25.6909334,1.58583506 L25.6909318,1.58583506 Z" id="path66"></path>
                                </g>
                            </g>
                        </g>
                    </g>
                </g>
            </g>
        </g>
    </g>
</svg>