<?xml version="1.0" encoding="UTF-8" standalone="no"?>
<svg width="13px" height="12px" viewBox="0 0 13 12" version="1.1" xmlns="http://www.w3.org/2000/svg" xmlns:xlink="http://www.w3.org/1999/xlink">
    <!-- Generator: Sketch 41.2 (35397) - http://www.bohemiancoding.com/sketch -->
    <title>star (5)</title>
    <desc>Created with Sketch.</desc>
    <defs></defs>
    <g id="Page-1" stroke="none" stroke-width="1" fill="none" fill-rule="evenodd">
        <g id="Discover-Page-1" transform="translate(-253.000000, -799.000000)" fill="#CE5118">
            <g id="Content" transform="translate(130.000000, 420.000000)">
                <g id="Group-5" transform="translate(0.000000, 96.000000)">
                    <g id="Group-6" transform="translate(0.000000, 250.000000)">
                        <g transform="translate(75.000000, 33.000000)" id="star-(5)">
                            <g transform="translate(48.000000, 0.000000)">
                                <g id="Capa_1">
                                    <path d="M12.1358305,5.39625359 C12.3800077,5.15836252 12.4662025,4.80922384 12.3608809,4.4846689 C12.2553109,4.16011396 11.9803321,3.9284309 11.6425081,3.87926343 L8.63885525,3.44296425 C8.51092925,3.42434021 8.40039125,3.34413267 8.34325925,3.22816698 L7.00040884,0.507318857 C6.84963004,0.201636276 6.54360124,0.0116710652 6.20254804,0.0116710652 C5.86174324,0.0116710652 5.55571443,0.201636276 5.40493563,0.507318857 L4.06183682,3.22816698 C4.00470482,3.34413267 3.89391842,3.42434021 3.76599242,3.44296425 L0.762339605,3.87951175 C0.424764003,3.9284309 0.149785201,4.16011396 0.0442152003,4.4846689 C-0.0611064004,4.80922384 0.0250884002,5.15836252 0.269265602,5.39625359 L2.44251722,7.51393113 C2.53517042,7.60431981 2.57764682,7.73443977 2.55578762,7.86157989 L2.04284161,10.8521041 C1.98521281,11.1880818 2.12059081,11.5210796 2.39656321,11.7217226 C2.67228722,11.9226139 3.03122522,11.9486876 3.33352802,11.7895141 L6.01972564,10.3775636 C6.13423804,10.31747 6.27085804,10.31747 6.38537044,10.3775636 L9.07181646,11.7895141 C9.20297166,11.8585473 9.34505646,11.8925672 9.48639606,11.8925672 C9.66996366,11.8925672 9.85278606,11.8352051 10.0087813,11.7217226 C10.2847537,11.5210796 10.4201317,11.1880818 10.3625029,10.8521041 L9.84930846,7.86182821 C9.82744926,7.73443977 9.86992566,7.60456813 9.96257886,7.51417945 L12.1358305,5.39625359 Z" id="Shape"></path>
                                </g>
                            </g>
                        </g>
                    </g>
                </g>
            </g>
        </g>
    </g>
</svg>