<?xml version="1.0" encoding="UTF-8" standalone="no"?>
<svg width="16px" height="14px" viewBox="0 0 16 14" version="1.1" xmlns="http://www.w3.org/2000/svg" xmlns:xlink="http://www.w3.org/1999/xlink">
    <!-- Generator: Sketch 42 (36781) - http://www.bohemiancoding.com/sketch -->
    <title>twitter</title>
    <desc>Created with Sketch.</desc>
    <defs></defs>
    <g id="Page-1" stroke="none" stroke-width="1" fill="none" fill-rule="evenodd">
        <g id="Invite-Page" transform="translate(-1055.000000, -697.000000)" fill="#FFFFFF">
            <g id="Share" transform="translate(220.000000, 410.000000)">
                <g id="Link" transform="translate(40.000000, 228.000000)">
                    <g id="Send" transform="translate(750.000000, 41.000000)">
                        <g id="twitter" transform="translate(45.000000, 18.000000)">
                            <g id="Layer_1">
                                <path d="M11.1668772,0.00541635355 C9.31786355,0.0336947576 7.86105263,1.64600465 7.86105263,3.51288316 L7.86105263,3.96546359 C4.55522807,3.37145965 2.93033918,2.4662988 1.13734113,0.571141886 C0.0727641326,2.66431061 1.24940351,4.41804402 2.53810526,5.37979317 C1.66961404,5.37979317 0.941224172,5.26664806 0.380912281,4.75751082 C0.324896686,4.72923242 0.268849903,4.75751082 0.2968577,4.81409912 C0.77311501,6.56783253 2.3980039,7.8407071 3.65869786,8.20842083 C2.51006628,8.20842083 1.75363743,8.37812274 0.941192982,7.86898551 C0.885177388,7.8407071 0.829130604,7.86898551 0.857138402,7.92554232 C1.47346589,9.65099732 2.70615205,10.1884444 4.4991501,10.1884444 C3.60265107,10.8673151 2.3980039,11.5461857 0.128748538,11.6027425 C0.0446939571,11.6027425 -0.0113216374,11.7158876 0.0727329435,11.7724444 C0.913185185,12.4795935 2.98635478,13.0170406 5.89994542,13.0170406 C10.6905887,13.0170406 14.5847329,8.71755806 14.5847329,3.39973806 L14.5847329,3.11689104 C15.3411618,2.83404402 15.7613723,2.15517338 15.9854971,1.47630274 C15.9854971,1.44802433 15.9574893,1.41974593 15.9294503,1.41974593 L14.3325692,1.98547146 C14.3045614,1.98547146 14.2765536,1.92891465 14.3045614,1.90060476 C14.9769981,1.36315763 15.4812632,0.684286992 15.7053879,0.0336947576 C15.7053879,0.0336947576 15.6773801,0.00541635355 15.6493411,0.00541635355 C14.8929123,0.316573269 14.1645224,0.627698694 13.6042105,0.797432099 C13.5201559,0.825710503 13.4080936,0.825710503 13.3240702,0.769153695 C12.9598752,0.571141886 11.8672593,0.00541635355 11.1668772,0.00541635355" id="Shape"></path>
                            </g>
                        </g>
                    </g>
                </g>
            </g>
        </g>
    </g>
</svg>