<?xml version="1.0" encoding="utf-8"?>
<!-- Generator: Adobe Illustrator 19.1.0, SVG Export Plug-In . SVG Version: 6.00 Build 0)  -->
<svg version="1.1" id="Ebene_1" xmlns="http://www.w3.org/2000/svg" xmlns:xlink="http://www.w3.org/1999/xlink" x="0px" y="0px"
	 viewBox="-937 518.3 43.7 45.7" style="enable-background:new -937 518.3 43.7 45.7;" xml:space="preserve">
<style type="text/css">
	.st0{fill:#666666;}
</style>
<path class="st0" d="M-893.8,564h-42.7c-0.3,0-0.5-0.2-0.5-0.5v-31.7c0-0.3,0.2-0.5,0.5-0.5h42.7c0.3,0,0.5,0.2,0.5,0.5v31.7
	C-893.3,563.8-893.5,564-893.8,564z M-936,563h41.7v-30.7H-936V563z"/>
<path class="st0" d="M-915.1,532.3c-0.1,0-0.2,0-0.3-0.1c-0.2-0.1-0.3-0.3-0.2-0.5c0,0,0,0,0-0.1c-2.5-4.6-3.2-9.4-1.8-11.8
	c0.6-1,1.5-1.5,2.7-1.5s2.1,0.5,2.6,1.5c1.4,2.4,0.3,7.4-2.6,12.3C-914.8,532.2-914.9,532.3-915.1,532.3z M-914.7,519.3
	c-0.8,0-1.5,0.4-1.9,1.1c-1.2,2-0.6,6.2,1.5,10.3c2.3-4.2,3.2-8.4,2.1-10.4C-913.3,519.6-913.9,519.3-914.7,519.3z"/>
<path class="st0" d="M-915.1,556.8c-5,0-9.1-4.1-9.1-9.1s4.1-9.1,9.1-9.1s9.1,4.1,9.1,9.1C-906,552.7-910.1,556.8-915.1,556.8z
	 M-915.1,539.6c-4.5,0-8.1,3.6-8.1,8.1s3.6,8.1,8.1,8.1s8.1-3.6,8.1-8.1S-910.6,539.6-915.1,539.6z"/>
</svg>
