<svg id="Ebene_1" data-name="Ebene 1" xmlns="http://www.w3.org/2000/svg" width="143.12" height="81.06" viewBox="0 0 143.12 81.06"><defs><style>.cls-1{fill:#fff;}</style></defs><title>urban-foodie</title><path class="cls-1" d="M1368.77,577.48a1.81,1.81,0,1,1-3.63,0V568h-1.7v9.49a3.51,3.51,0,0,0,7,0V568h-1.7v9.49Z" transform="translate(-1363.45 -500.01)"/><path class="cls-1" d="M1383.14,572.5a4.52,4.52,0,0,0-4.51-4.51h-2.13v12.83h1.7v-3.48l3.05,3.48h2.28l-3.52-4A4.47,4.47,0,0,0,1383.14,572.5Zm-4.94-2.82h0.43a2.82,2.82,0,1,1,0,5.63h-0.43v-5.63Z" transform="translate(-1363.45 -500.01)"/><path class="cls-1" d="M1392.79,574.27a3.16,3.16,0,0,0,1.4-2.66,3.6,3.6,0,0,0-3.57-3.63h-2.07v12.83h2.36a3.65,3.65,0,0,0,3.64-3.64A3.2,3.2,0,0,0,1392.79,574.27Zm-2.21-.75h-0.34v-3.85h0.38A1.92,1.92,0,0,1,1390.58,573.53Zm0.33,5.59h-0.67v-3.9h0.67A2,2,0,0,1,1390.91,579.12Z" transform="translate(-1363.45 -500.01)"/><path class="cls-1" d="M1403,567.76l-5,13.06h1.82l0.67-1.79H1406l0.67,1.79h1.82l-5-13.06H1403Zm2.39,9.79H1401l2.17-5.75Z" transform="translate(-1363.45 -500.01)"/><polygon class="cls-1" points="54.39 75.74 49.59 67.74 49.16 67.74 49.16 80.8 50.85 80.8 50.85 73.07 55.58 80.91 56.09 80.91 56.09 67.97 54.39 67.97 54.39 75.74"/><polygon class="cls-1" points="69.83 80.8 71.52 80.8 71.52 75.23 75.66 75.23 75.66 73.53 71.52 73.53 71.52 69.67 75.66 69.67 75.66 67.97 69.83 67.97 69.83 80.8"/><path class="cls-1" d="M1450.14,567.73a6.67,6.67,0,1,0,6.68,6.68A6.68,6.68,0,0,0,1450.14,567.73Zm0,11.6a4.94,4.94,0,1,1,4.93-4.93A4.93,4.93,0,0,1,1450.14,579.34Z" transform="translate(-1363.45 -500.01)"/><path class="cls-1" d="M1467.61,567.73a6.67,6.67,0,1,0,6.68,6.68A6.68,6.68,0,0,0,1467.61,567.73Zm0,11.6a4.94,4.94,0,1,1,4.93-4.93A4.93,4.93,0,0,1,1467.61,579.34Z" transform="translate(-1363.45 -500.01)"/><path class="cls-1" d="M1481.51,568h-2.15v12.83h2.15A6.42,6.42,0,0,0,1481.51,568Zm0,11.14h-0.45v-9.44h0.45A4.72,4.72,0,0,1,1481.51,579.12Z" transform="translate(-1363.45 -500.01)"/><rect class="cls-1" x="129.57" y="67.97" width="1.7" height="12.83"/><polygon class="cls-1" points="143.12 69.67 143.12 67.97 137.29 67.97 137.29 80.8 143.12 80.8 143.12 79.11 138.99 79.11 138.99 75.23 143.12 75.23 143.12 73.53 138.99 73.53 138.99 69.67 143.12 69.67"/><path class="cls-1" d="M1462.88,524.33h0l-0.2-.08,0.15-.33q-0.11-.73-0.26-1.46a0.2,0.2,0,0,1-.14.1l-0.25.05c-0.2,0-.22.06-0.24,0.28a0.27,0.27,0,0,1-.33.27,0.78,0.78,0,0,1-.58-0.3,0.77,0.77,0,0,1,.6-0.32,3.15,3.15,0,0,0,.61-0.15l0.3-.08a27.92,27.92,0,0,0-.84-3.1,0.5,0.5,0,0,1-.21-0.12,0.9,0.9,0,0,0-.82-0.28,1.42,1.42,0,0,1-.32,0,5.28,5.28,0,0,1,.37-0.5c0.12-.14.23-0.3,0.36-0.46,0.22,0.15,0,.3,0,0.48s0.2,0.18.32,0.27a0.33,0.33,0,0,1,.17.32,0.16,0.16,0,0,0,.12.18,28.21,28.21,0,0,0-11-14.34,0.46,0.46,0,0,0-.29.25,0.39,0.39,0,0,1-.19.19,3,3,0,0,1-.49.05l0,0,0.19-.19c0.13,0,.23.12,0.33,0s-0.2-.07-0.24-0.11a1.77,1.77,0,0,0-.13-0.32,0.2,0.2,0,0,1,0-.29l0,0-0.44-.27c-0.06.05-.1,0.12-0.21,0.05l0-.15-0.92-.52-0.09,0a0.23,0.23,0,0,0,0,0q-0.6-.32-1.21-0.61l-0.24.27-0.08-.26c0-.06,0-0.12,0-0.18l-1-.43h0a6,6,0,0,1-.65.11,0.36,0.36,0,0,1-.14-0.07c0.16-.11.36-0.05,0.5-0.17l-0.81-.31,0.11,0.52-0.25-.09c0,0.09.06,0.14,0.07,0.2a0.26,0.26,0,0,1-.25.38l-0.29,0-0.16-.27-0.11.4,0.21,0.23a2,2,0,0,0-.37.1,2,2,0,0,0-.28.21h0a0.6,0.6,0,0,0-.39.37,0.47,0.47,0,0,0,0,.24,1,1,0,0,0,0,.15,0.43,0.43,0,0,1-.42-0.3,0.12,0.12,0,0,0-.19-0.1,0.5,0.5,0,0,1-.32,0,0.36,0.36,0,0,1-.26-0.24,0.31,0.31,0,0,1-.41,0,0.25,0.25,0,0,1,.07-0.08,1.8,1.8,0,0,0,.61-0.35A0.94,0.94,0,0,1,1442,503a2.52,2.52,0,0,0,.26-0.08c0.15-.07.25,0,0.26,0.15s0,0.16,0,.25a0.9,0.9,0,0,0,.47-0.15,0.16,0.16,0,0,0,.12-0.25c0-.07-0.07-0.14-0.1-0.21a0.15,0.15,0,0,0-.27-0.07,0.25,0.25,0,0,1,.11-0.28,0.19,0.19,0,0,0,.08-0.09,0.19,0.19,0,0,1,.3-0.12,0.32,0.32,0,0,0,.12,0c-0.07-.12-0.1-0.27-0.25-0.23a0.4,0.4,0,0,1-.33-0.06l-0.09.07a0.15,0.15,0,0,1-.22,0,0.15,0.15,0,0,1,0-.23l0.18-.28a0.12,0.12,0,0,0,0-.2,0.42,0.42,0,0,1-.27-0.25h0l-0.18,0-0.2,0-0.55.1-0.3,0a0.17,0.17,0,0,1,.11-0.1,1.38,1.38,0,0,0,.25-0.05,0.14,0.14,0,0,0,.1-0.18q-1.29-.31-2.62-0.5c0,0.15,0,.29,0,0.43a0.55,0.55,0,0,1-.13.45,1,1,0,0,1-.54.28c-0.24,0-.29.09-0.27,0.33a0.94,0.94,0,0,1,0,.18,0.24,0.24,0,0,1-.08.16,2.43,2.43,0,0,1-.35.12c-0.08-.29-0.07-0.33.11-0.4-0.07-.2-0.07-0.2.11-0.35a0.51,0.51,0,0,0,.1-0.17,0.18,0.18,0,0,1,.28-0.12l0.18,0,0.11-.34c-0.08-.16-0.27-0.06-0.33-0.2l0.45-.26-0.23-.22-0.19,0a0.36,0.36,0,0,1-.3,0l-0.55-.05a0.2,0.2,0,0,1-.22,0l0,0q-0.68-.05-1.36-0.07a0.31,0.31,0,0,1-.09.35,0.22,0.22,0,0,0,.07.31,1.53,1.53,0,0,1,.81,0,0.53,0.53,0,0,0,.25,0,0.12,0.12,0,0,0,.12-0.17c0-.11-0.06-0.2.07-0.25s0.17,0,.22.12l0,0.06c0.09,0.11.17,0.22,0.34,0.12a0.39,0.39,0,0,1,.14.07,2.37,2.37,0,0,0-.36.16,2.25,2.25,0,0,0-.27.24,0.54,0.54,0,0,0-.19-0.16,0.6,0.6,0,0,1-.28-0.09c-0.08,0-.15,0-0.17.09l0.17,0.19a0.84,0.84,0,0,1-.58.11,0.35,0.35,0,0,0-.33-0.12s0-.08,0-0.11c0-.18,0-0.22-0.19-0.19s-0.26.08-.25,0.32c0,0,0,.06,0,0.1a0.28,0.28,0,0,1-.18-0.36,0.19,0.19,0,0,0,0-.12,0.21,0.21,0,0,1,.06-0.25,0.25,0.25,0,0,0,.06-0.11,0.35,0.35,0,0,1,.25-0.27,0.18,0.18,0,0,0,.12-0.09h-0.9l-0.12.07s0,0.08,0,.13c-0.19,0-.19,0-0.24-0.1l0-.1-0.49,0-0.08.07-0.08.06-0.1,0-0.13-.08-0.72.05-0.06.05a0.19,0.19,0,0,1-.12,0,0.73,0.73,0,0,1-.51,0q-0.72.08-1.42,0.19a0.33,0.33,0,0,1,.11.36l-0.21,0a0.29,0.29,0,0,1-.4-0.2l0-.1q-0.62.11-1.23,0.25l-0.23.13-0.08-.05-0.76.19,0.38,0.22-0.12.21a0.4,0.4,0,0,0,.07.12,0.41,0.41,0,0,1,.14.34,0.2,0.2,0,0,1-.17.26,0.76,0.76,0,0,0-.2.1,0.12,0.12,0,0,1-.17-0.05,0.24,0.24,0,0,0,.18-0.25,0.77,0.77,0,0,1-.49-0.17,0.48,0.48,0,0,0,.28-0.6,0.36,0.36,0,0,1,0-.15q-0.64.17-1.26,0.37l-0.37.34a0.4,0.4,0,0,1-.13,0l0-.23q-0.92.32-1.82,0.69l0,0.08a0.22,0.22,0,0,1-.3.13l-0.09,0a28.24,28.24,0,0,0-11.84,9.81,0.69,0.69,0,0,0,.11.15,0.16,0.16,0,0,1,0,.26,0.19,0.19,0,0,1-.29,0l-0.06-.07q-0.76,1.14-1.42,2.36v0c0.07,0.18.05,0.24-.13,0.31l-0.06,0a28.15,28.15,0,0,0,34,39.57l-0.06,0a0.25,0.25,0,0,1-.05-0.29,0.17,0.17,0,0,1,.23,0l0,0a0.36,0.36,0,0,0,.44-0.15c0.06-.08.12-0.17,0.18-0.25a0.11,0.11,0,0,1,.19,0l-0.2.29,0.15,0.11A28.15,28.15,0,0,0,1462.88,524.33Zm-20.49-21.63a0.16,0.16,0,0,1,0,.06h-0.08a0.12,0.12,0,0,1,0-.06h0.07Zm18.83,17.61,0,0,0,0a0.08,0.08,0,0,1,0,0Zm-0.54.14c-0.06-.07-0.16-0.13-0.07-0.23a0.2,0.2,0,0,1,.28,0,0.5,0.5,0,0,1,.17.15c0.07,0.11.12,0.23,0.18,0.36-0.21.33-.46,0.33-0.8,0l0.19-.06C1460.75,520.61,1460.76,520.56,1460.68,520.46Zm-0.32,2.32a0.35,0.35,0,0,1,.46,0,0.52,0.52,0,0,1-.41.22,0.35,0.35,0,0,1-.15-0.1A0.43,0.43,0,0,1,1460.36,522.78Zm0.38,4.36v0.05h-0.29v-0.05h0.29Zm-0.08-9.25,0,0-0.09.1,0,0Zm-0.48-.92a0.33,0.33,0,0,1,.19-0.11,0.11,0.11,0,0,1,.12.16,3.32,3.32,0,0,1-.15.32,0.57,0.57,0,0,0-.12.21,1.67,1.67,0,0,0,.12.38,1.5,1.5,0,0,0,.09.16,0.42,0.42,0,0,1-.35-0.24,0.65,0.65,0,0,0-.23-0.38C1460,517.3,1460.06,517.12,1460.17,517Zm-0.1,6.14c-0.19.06-.19,0.06-0.25-0.15Zm-0.61-5.89-0.2.08a0.17,0.17,0,0,1,0-.08C1459.27,517.14,1459.33,517.12,1459.47,517.21Zm-1.18-2.93a1.13,1.13,0,0,1,.06-0.14,0.75,0.75,0,0,1,.12-0.11,0.4,0.4,0,0,1,.09.14,0.87,0.87,0,0,0,.22.45,0.33,0.33,0,0,1,.09.24,0.29,0.29,0,0,0,.2.4,0.65,0.65,0,0,1,.12.1,0.7,0.7,0,0,1-.54-0.07,0.21,0.21,0,0,1,0-.17c0-.3,0-0.3-0.19-0.44S1458.16,514.52,1458.29,514.28Zm0.81,2.33a0.07,0.07,0,0,1,0,0l0,0,0,0Zm-0.26-.08-0.11.12-0.1-.14a0.26,0.26,0,0,1,.12-0.07A0.27,0.27,0,0,1,1458.84,516.53Zm-2.27-3.6a0.28,0.28,0,0,1-.1.08,0.38,0.38,0,0,1-.12-0.07,0.24,0.24,0,0,1,.09-0.09A0.34,0.34,0,0,1,1456.57,512.93Zm-0.14-1.3-0.05.05-0.19-.19C1456.38,511.45,1456.41,511.53,1456.43,511.63Zm-0.47,2.08-0.07.08a0.22,0.22,0,0,1-.06-0.08,0.1,0.1,0,0,1,.07-0.06A0.15,0.15,0,0,1,1456,513.71Zm-0.14-1.36a0.32,0.32,0,0,1,.07.06l-0.07,0a0.16,0.16,0,0,1,0-.07A0.08,0.08,0,0,1,1455.81,512.35Zm-0.18-.68,0.1,0.06-0.06.06-0.1-.08A0.14,0.14,0,0,1,1455.63,511.67Zm-0.22.1,0.11,0.26C1455.29,511.94,1455.27,511.9,1455.41,511.78Zm0.22,2.21a0.62,0.62,0,0,1,.43,0,0.92,0.92,0,0,1-1.15.88,0.72,0.72,0,0,1,.45-0.79l-0.31-.12a0.47,0.47,0,0,1,0-.38Zm-1.87,3.3a0.19,0.19,0,0,1,.27,0,0.62,0.62,0,0,1,.16.24,0.24,0.24,0,0,1-.11.1,0.36,0.36,0,0,0-.4.1A0.43,0.43,0,0,1,1453.76,517.28Zm0-.91a0.16,0.16,0,0,1,0-.06,0.24,0.24,0,0,1,.09,0,0.18,0.18,0,0,1-.05.06Zm0.2,1.72a0.87,0.87,0,0,0,.09-0.15,0.17,0.17,0,0,1,.23-0.15h0.14a0.21,0.21,0,0,1,.18.21,0.2,0.2,0,0,1-.18.21,2.93,2.93,0,0,1-.37,0C1453.9,518.26,1453.87,518.19,1453.92,518.09Zm0.13,2.85,0.25,0a0.26,0.26,0,0,0,.26-0.26,0.5,0.5,0,0,1,.09-0.17,0.69,0.69,0,0,0,.51.23,0.33,0.33,0,0,1,.3.14v0a3.6,3.6,0,0,1-1.44.18,0.3,0.3,0,0,1-.08-0.06A0.54,0.54,0,0,1,1454,520.94Zm0.83-4.3a0.09,0.09,0,0,1-.05.07c-0.11,0-.13-0.07-0.15-0.18S1454.86,516.53,1454.87,516.64Zm-0.12-2.74c-0.15,0-.22-0.08-0.21-0.19s0.1-.14.24-0.09Zm0.28-2.66-0.35.13C1454.8,511.16,1454.84,511.14,1455,511.24Zm-0.26-2.37a0.14,0.14,0,0,1,0,.11,0.09,0.09,0,0,1-.09,0l-0.29-.17A0.27,0.27,0,0,1,1454.78,508.87Zm-0.22,5.22a0.55,0.55,0,0,1,.15.14,0.19,0.19,0,0,1,0,.17,2.37,2.37,0,0,1-.32.2C1454.31,514.45,1454.31,514.45,1454.56,514.1Zm-0.37,2.68a0.22,0.22,0,0,1-.22-0.17,0.15,0.15,0,0,1,.09-0.09,1.92,1.92,0,0,1,.24.15A0.46,0.46,0,0,1,1454.18,516.77Zm-0.84-9.72,0,0,0,0h0A0.22,0.22,0,0,1,1453.34,507.06Zm0.12,4a0.59,0.59,0,0,1,.7.26,0.73,0.73,0,0,1-.3,0,1,1,0,0,0-.5,0h-0.13A0.27,0.27,0,0,1,1453.46,511Zm0.41,1.62,0,0,0,0a0.25,0.25,0,0,1,0-.07Zm-1.46-2.24a0.09,0.09,0,0,1-.08-0.16c0.1-.17.25-0.14,0.39,0.1A2.08,2.08,0,0,1,1452.42,510.43Zm0.3,2.56c-0.16.23-.21,0.24-0.35,0.08A0.25,0.25,0,0,1,1452.72,513Zm-0.24-5.29a0.14,0.14,0,0,1,.23,0,0.15,0.15,0,0,1-.06.23,0.3,0.3,0,0,1-.4-0.06C1452.32,507.84,1452.39,507.76,1452.48,507.7Zm-0.21,6.17a0.46,0.46,0,0,0,.39-0.29,0.8,0.8,0,0,1,.31-0.32,0.17,0.17,0,0,1,.26.06,0.55,0.55,0,0,1,0,.56,2.11,2.11,0,0,1-.17.29,0.34,0.34,0,0,0-.34,0,0.31,0.31,0,0,0-.23.23,0.8,0.8,0,0,1-.16.21l0.16,0.17a0.13,0.13,0,0,1-.06,0l-0.6-.26a0.34,0.34,0,0,1-.14-0.38,0.21,0.21,0,0,1,.19-0.23C1452,513.93,1452.13,513.88,1452.27,513.87Zm-2.13,7.46a0.92,0.92,0,0,1-.18,0,1.2,1.2,0,0,1,1-.16,0.31,0.31,0,0,1-.1.09l-0.28,0Zm0.11,8.45-0.32,0C1450.07,529.59,1450.11,529.58,1450.24,529.78Zm-0.42-8.47c-0.08.08-.14,0-0.26,0C1449.74,521.24,1449.74,521.24,1449.82,521.31Zm-0.21-7.9a0.18,0.18,0,0,1,.07-0.05,0.08,0.08,0,0,1,0,0,0.39,0.39,0,0,1-.07.07Zm0.18,6.43v-0.06l0.13,0v0.07Zm0.07-3.58a0.63,0.63,0,0,1,.47-0.11A0.49,0.49,0,0,1,1449.86,516.26Zm0-.32a0.09,0.09,0,0,1,0,0l0.08,0a0.19,0.19,0,0,1-.06.05A0.12,0.12,0,0,1,1449.89,515.95Zm1.23-2a1.24,1.24,0,0,1,.06.33,0.87,0.87,0,0,1-.13.27C1450.75,514.3,1450.8,514.08,1451.13,513.92Zm0.37-2.07a0.11,0.11,0,0,1-.1-0.05,0.11,0.11,0,0,1,0-.1l0.25-.07,0,0.08A2.35,2.35,0,0,1,1451.5,511.85Zm0.07,5.22h-0.06a0.14,0.14,0,0,1-.09-0.18,0.07,0.07,0,0,1,.06,0C1451.59,516.9,1451.58,517,1451.57,517.07Zm-0.15-2.6a0.11,0.11,0,0,1,0,.1,0.28,0.28,0,0,1-.27.18,1.38,1.38,0,0,1,.1-0.25A0.14,0.14,0,0,1,1451.41,514.47Zm-0.18,2.48a0.44,0.44,0,0,1-.09.13,0.3,0.3,0,0,1-.06-0.12,0.32,0.32,0,0,1,.09-0.09A0.2,0.2,0,0,1,1451.24,517Zm-0.16.8a0.27,0.27,0,0,1,.18,0,0.35,0.35,0,0,1,.09.08l-0.2.32h-0.06a1.27,1.27,0,0,1-.06-0.23A0.23,0.23,0,0,1,1451.08,517.75Zm0.28,3a1.61,1.61,0,0,1,.31-0.08,0.22,0.22,0,0,1,.17.08,0.4,0.4,0,0,0,.47.26,2.27,2.27,0,0,1-.72.22,0.29,0.29,0,0,1-.32,0C1451.31,521.07,1451.5,521,1451.35,520.77Zm0.44-3.51a0.65,0.65,0,0,1,.12-0.11,0.45,0.45,0,0,1,.15,0c0.18,0,.22,0,0.2.24a1.65,1.65,0,0,1-.32,0A0.39,0.39,0,0,1,1451.79,517.26Zm-0.12-10a0.22,0.22,0,0,1,.05.08,0.15,0.15,0,0,1,0,.06,0.29,0.29,0,0,1,0-.08A0.18,0.18,0,0,1,1451.67,507.28Zm-0.21.29a0.42,0.42,0,0,1,.34.41,0.27,0.27,0,0,1-.35,0A0.33,0.33,0,0,1,1451.46,507.57Zm-0.05,2.73-0.07,0,0-.06a0.14,0.14,0,0,1,.06,0A0.12,0.12,0,0,1,1451.41,510.3Zm-0.32-4a0.62,0.62,0,0,0,.14.1c0.11,0.08.12,0.19,0,.23a1,1,0,0,1-.37,0c-0.1,0-.11-0.09-0.09-0.17s0-.26-0.2-0.26C1450.85,506,1450.93,506,1451.09,506.26Zm-0.45,8.29-0.17.23-0.16.19a0.18,0.18,0,0,1-.27.07,0.52,0.52,0,0,1,.26-0.29A0.3,0.3,0,0,1,1450.64,514.56Zm-0.51-1.14c-0.05-.17.07-0.22,0.18-0.28A0.25,0.25,0,0,1,1450.14,513.42Zm0.06-6.9-0.28,0C1450.06,506.34,1450.06,506.34,1450.2,506.52Zm-0.6.15,0.66,0.28a0.33,0.33,0,0,1,0,.1c-0.19,0-.36,0-0.54,0a0.3,0.3,0,0,1-.26-0.32A0.16,0.16,0,0,1,1449.59,506.67Zm0,9.37a1.7,1.7,0,0,0-.18.17,0.14,0.14,0,0,1-.2.05,0.16,0.16,0,0,1-.07-0.24,0.4,0.4,0,0,1,.22-0.15A0.19,0.19,0,0,1,1449.55,516Zm-0.78,1.46a1,1,0,0,1-.58.1,0.7,0.7,0,0,0,.3-0.69l0.68-.12a0.25,0.25,0,0,1,0,.11,0.62,0.62,0,0,0,0,.51,0.78,0.78,0,0,1,.06.22,0.13,0.13,0,0,1-.14.15,0.12,0.12,0,0,1-.14-0.12c0-.08,0-0.15,0-0.23a0.29,0.29,0,0,0,0-.14,0.2,0.2,0,0,0-.14-0.08,0.11,0.11,0,0,0-.09.15Zm-0.27-4.33a0.15,0.15,0,0,1-.15-0.18l0.28-.13a0.09,0.09,0,0,1,.14.08A0.36,0.36,0,0,1,1448.5,513.17Zm0.16,3.24c0,0.12,0,.15-0.12.13s-0.15-.07-0.1-0.22Zm0.49,3.58a1.35,1.35,0,0,1,.23-0.14,0.22,0.22,0,0,1-.11.27,0.13,0.13,0,0,1-.13,0A0.13,0.13,0,0,1,1449.15,520Zm0-14.53,0,0-0.05.07,0,0Zm-0.14.44a1.78,1.78,0,0,1,.29-0.19,0.21,0.21,0,0,1,0,.3,1.12,1.12,0,0,1-.29.24,0.11,0.11,0,0,1-.16-0.11A0.5,0.5,0,0,1,1449,505.9Zm-0.22,6a0.24,0.24,0,0,1-.32.11,0.45,0.45,0,0,1,.13-0.4,0.11,0.11,0,0,1,.2,0A0.39,0.39,0,0,1,1448.76,511.87Zm-0.27-6.74a0.22,0.22,0,0,1,.16.12c0,0.09-.07.12-0.15,0.13a0.45,0.45,0,0,1-.47-0.13A0.78,0.78,0,0,1,1448.49,505.13Zm-0.1,4.39a1.83,1.83,0,0,0,.38.06v0.07a0.66,0.66,0,0,1-.42,0,4.19,4.19,0,0,1-.49,0l0.16-.31A2.52,2.52,0,0,0,1448.4,509.52Zm-0.63-6.16c0.16,0,.16.05,0.2,0.34a0.28,0.28,0,0,1-.29.25,0.34,0.34,0,0,1-.33-0.23A0.47,0.47,0,0,1,1447.76,503.37Zm-0.28,2.53a0.08,0.08,0,0,1-.05,0,0.15,0.15,0,0,1-.09-0.06c0-.11-0.06-0.22-0.08-0.34A0.28,0.28,0,0,1,1447.48,505.9Zm0.36,0.4a0.43,0.43,0,0,1-.7-0.14A1,1,0,0,1,1447.84,506.3Zm-2.34-.69,0-.07,0.38-.23a0.5,0.5,0,0,1,0,.47,1,1,0,0,0-.08.47,0.23,0.23,0,0,1-.19.24,0.14,0.14,0,0,1-.21-0.11c0-.11,0-0.21-0.07-0.34l0.31-.34Zm0.46,10.55c0,0.08-.06.07-0.16-0.08Zm0,3.6,0.05,0,0,0,0,0Zm0-1.46a0.1,0.1,0,0,1,.07,0,0.08,0.08,0,0,1,0,.06,0.26,0.26,0,0,1-.08.08A0.23,0.23,0,0,1,1445.92,518.29Zm0-3.1,0.21,0.15C1446,515.44,1445.93,515.42,1445.92,515.19ZM1446,513a0.21,0.21,0,0,1,.31,0C1446.19,513.14,1446.1,513.15,1446,513Zm0-2.2,0.57-.14C1446.39,511,1446.19,511,1446,510.81Zm0.23,8.31,0.6-.14c0,0.1,0,.21,0,0.35l-0.6-.16v0Zm0.42-.75c0-.11.06-0.2,0.18-0.15a0.3,0.3,0,0,0,.26,0,0.11,0.11,0,1,1,.06.21A0.54,0.54,0,0,1,1446.64,518.38Zm0.61-5.24L1447,513C1447.18,512.89,1447.26,512.93,1447.26,513.13Zm-0.08-4.34,0.13,0v0l-0.13.06Zm0,8.79,0,0.06a0.31,0.31,0,0,1-.05.12c-0.27.22-.36,0.19-0.42-0.15a0.3,0.3,0,0,1,0-.08C1446.91,517.68,1447,517.8,1447.22,517.59Zm0.41,0.61c0,0.09,0,.15,0,0.21s0,0.36,0,.53,0,0.18-.1.2a0.23,0.23,0,0,1-.31-0.23A1,1,0,0,1,1447.63,518.19Zm-0.17-9.65,0,0,0,0,0,0Zm0.06,7.77a0.08,0.08,0,0,1,0,0l0,0a0.08,0.08,0,0,1,0,0Zm0-.45a0.16,0.16,0,0,1,.22.11C1447.67,516,1447.63,516,1447.57,515.87Zm0.2-1.3c-0.11,0-.15-0.07-0.12-0.16a0.09,0.09,0,0,1,.08,0C1447.82,514.42,1447.82,514.48,1447.77,514.57Zm-0.1-6.59c-0.06.12-.13,0.15-0.23,0.09a0.17,0.17,0,0,0-.27.08c0,0.07-.08.14-0.18,0.08A0.44,0.44,0,0,1,1447.66,508Zm-0.68,2.71a0.09,0.09,0,0,1-.06.06,0.08,0.08,0,0,1-.07,0,0.48,0.48,0,0,1,.09-0.14A0.43,0.43,0,0,1,1447,510.69Zm-0.13-1.84c0.09,0.12.06,0.17-.12,0.25v-0.23l-0.23.1a0.17,0.17,0,0,1-.13,0,0.19,0.19,0,0,1,0-.14,0.26,0.26,0,0,1,.05-0.11,0.46,0.46,0,0,1,.17-0.16c0.11,0,.12.08,0.16,0.16A0.9,0.9,0,0,0,1446.85,508.85Zm-0.45-3.78a0.12,0.12,0,0,1,.13-0.16,0.11,0.11,0,0,1,.12.16h-0.25Zm-0.45-2.05c0.11,0.36.15,0.37,0.47,0.19a0.46,0.46,0,0,1,.33-0.08c0,0.24,0,.31-0.21.37a1,1,0,0,0-.27.12,0.52,0.52,0,0,1-.66,0l-0.27-.18A0.78,0.78,0,0,1,1445.94,503Zm-0.53,4.08a0.3,0.3,0,0,1,.15.12,0.23,0.23,0,0,1-.09.16c-0.08.07-.18,0.12-0.27,0.19a1.23,1.23,0,0,0-.21.18,0.58,0.58,0,0,1-.73.17c-0.12-.05-0.12-0.18,0-0.26l0.39-.24,0.42-.28a1.07,1.07,0,0,1,.19-0.07A0.59,0.59,0,0,1,1445.41,507.09ZM1441,531.66a2.12,2.12,0,0,1-1.12-.09l0,0a0.56,0.56,0,0,1,.77-0.19l-0.15.22a0.64,0.64,0,0,0,.42-0.2,0.13,0.13,0,0,1,.2,0,0.15,0.15,0,0,1,0,.21A0.21,0.21,0,0,1,1441,531.66Zm0,20.74,0,0a0.08,0.08,0,0,1,0,0l0,0A0.08,0.08,0,0,1,1441,552.4Zm-1.06-1.25,0,0a0.08,0.08,0,0,1,0,0l0,0Zm-1.52-35.83a0.46,0.46,0,0,1-.39.23c-0.08,0-.15,0-0.14-0.1a0.22,0.22,0,0,1,.12-0.1,0.38,0.38,0,0,1,.1,0c0.14,0,.16,0,0.15-0.24a0.31,0.31,0,0,0,.14,0,0.52,0.52,0,0,1,.6,0,0.59,0.59,0,0,0,.34.06,0.2,0.2,0,0,1,.24.24,0.5,0.5,0,0,1-.33.45l-0.13-.17,0.14-.18a0.21,0.21,0,0,0-.3-0.17A0.63,0.63,0,0,1,1438.44,515.31Zm0.47,1.09a0.85,0.85,0,0,1-.2.09,0.16,0.16,0,0,1-.14,0,0.17,0.17,0,0,1,0-.15C1438.7,516.2,1438.8,516.24,1438.91,516.4Zm-0.45,7.07-0.16,0-0.13,0C1438.38,523.31,1438.38,523.31,1438.46,523.48Zm-1.36,3.84a1.61,1.61,0,0,1-.27-0.08,0.7,0.7,0,0,1,.55-0.28l1,0c0.2,0,.4,0,0.6-0.06a6.55,6.55,0,0,1-.66.46,0.7,0.7,0,0,1-.62,0,0.83,0.83,0,0,0-.27,0h-0.38Zm0.15,1.69a0.35,0.35,0,0,1-.29.18C1437.1,529,1437.1,529,1437.26,529Zm-0.67,2.15a0.47,0.47,0,0,1-.11.13h0v7.47h-1.7v-7.69h0a0.75,0.75,0,0,1-.18-0.2,0.4,0.4,0,0,1,.19-0.07v-5.15a0.25,0.25,0,0,1-.18-0.17,0.16,0.16,0,0,1,.12-0.19h0.06v-1.61a0.64,0.64,0,0,1-.17-0.09l0.17-.05v-4a0.23,0.23,0,0,1-.06-0.05,0.17,0.17,0,0,1,0-.25l0,0V519a0.2,0.2,0,0,1-.16-0.23h0.16v-1.3h1.7v7.86h0l0,0v3.95l0.24-.06a0.25,0.25,0,0,1-.24.24v1.61h0.13Zm-0.43,20.63c-0.19.14-.25,0.14-0.39,0C1436,551.69,1436,551.68,1436.16,551.79ZM1433.81,527a0.33,0.33,0,0,1,.46.07A0.32,0.32,0,0,1,1433.81,527Zm0.26,2.64h-0.27c0-.12,0-0.16.12-0.16A0.14,0.14,0,0,1,1434.07,529.68Zm0.13-11-0.06.14a0.32,0.32,0,0,1-.36.25h-0.41a0.15,0.15,0,0,1-.19-0.14l0.38-.09,0.32-.09a0.37,0.37,0,0,0,.23-0.22,1.55,1.55,0,0,1,.22-0.34,0.3,0.3,0,0,1,.16,0,0.26,0.26,0,0,1,0,.14,0.26,0.26,0,0,0,.05.43,0.2,0.2,0,0,1,0,.09A0.28,0.28,0,0,1,1434.2,518.65Zm-1.81,1.76c0-.23.12-0.34,0.24-0.32a0.28,0.28,0,0,1,.22.33h-0.46Zm0.36,0.17c0,0.2-.06.22-0.22,0.15Zm-0.15-1c0.06-.25.18-0.28,0.41-0.09Zm0-3.45a0.31,0.31,0,0,1,.19-0.25,0.24,0.24,0,0,1,0,.36,0.15,0.15,0,0,1-.14,0A0.14,0.14,0,0,1,1432.59,516.17Zm0.45,9.31a0.06,0.06,0,0,1,0,0,0.07,0.07,0,0,1,0,0,0.15,0.15,0,0,1-.06,0A0.18,0.18,0,0,1,1433,525.48Zm-0.06-9.92h0l-0.26.07a0.32,0.32,0,0,1,.16-0.43,0.19,0.19,0,0,1,.27.05A0.22,0.22,0,0,1,1433,515.56Zm0-6.73a1,1,0,0,1-.43-0.13,1.07,1.07,0,0,1-.27-0.38,0.27,0.27,0,0,1,.12-0.16,0.13,0.13,0,0,1,.19.07c0,0.08,0,.16.08,0.24s0.12,0.17.35,0.09l-0.22-.08a0.16,0.16,0,0,1,0-.06,1.51,1.51,0,0,1,.2-0.15,0.24,0.24,0,0,1,.34.15C1433.43,508.79,1433.35,508.88,1433,508.83Zm-2.42,9.79a0.18,0.18,0,0,1,.25,0,0.14,0.14,0,0,0,.22-0.12,0.22,0.22,0,0,1,.14-0.21l0.29,0.5a0.15,0.15,0,0,1-.06.05A3.73,3.73,0,0,1,1430.54,518.62Zm0.72,1.58a0.53,0.53,0,0,1-.14.1c0,0.29-.08.34-0.35,0.21,0-.11.05-0.22,0.09-0.33a0.27,0.27,0,0,1,.39-0.11A0.14,0.14,0,0,1,1431.27,520.2Zm-0.47-2.41c0-.16.08-0.18,0.18-0.19l0.38,0a0.27,0.27,0,0,1-.32.21A0.73,0.73,0,0,0,1430.8,517.78Zm0.63-3.28c-0.1.1-.18,0.11-0.26,0a0.46,0.46,0,0,1-.08-0.13c-0.06-.15-0.11-0.3-0.16-0.45l0,0,0.15,0.1,0.29,0.27C1431.51,514.36,1431.51,514.41,1431.42,514.5Zm-0.29-11.86-0.29-.11a0.23,0.23,0,0,1,.31.06Zm0.26,0.33-0.43-.05C1431.15,502.76,1431.19,502.77,1431.39,503Zm-0.53.22a0.12,0.12,0,0,1,.11,0,0.76,0.76,0,0,1,.15.09,0.38,0.38,0,0,0,.38.09,0.45,0.45,0,0,1,.29.09l0,0.07a0.51,0.51,0,0,1-.14,0l-0.65-.14a0.23,0.23,0,0,1-.12-0.08A0.12,0.12,0,0,1,1430.86,503.2Zm0.14,2.35c0.16,0.05.16,0.05,0.33,0.57A0.73,0.73,0,0,1,1431,505.55Zm0.46,6.74c0.11,0,.18,0,0.21.07a0.07,0.07,0,0,1,0,.06C1431.54,512.45,1431.51,512.38,1431.46,512.28Zm0-7.54c0.16-.27.25-0.29,0.59-0.13,0.17,0.08.19,0.12,0.13,0.29a1.31,1.31,0,0,1-.37,0A1.56,1.56,0,0,1,1431.41,504.74Zm0.64-.33c0.07-.1.14-0.09,0.26,0C1432.17,504.48,1432.17,504.48,1432.05,504.41Zm0.62-.24-0.17.15c-0.09-.15-0.06-0.21.16-0.4a5.67,5.67,0,0,0,.37.47,1.44,1.44,0,0,0,.35.25,0.53,0.53,0,0,0,.39,0,2.87,2.87,0,0,1,.59,0,0.57,0.57,0,0,0-.42.36c0.1,0,.27-0.08.28,0.12l-0.27,0c-0.28.07-.55,0.15-0.83,0.2a0.8,0.8,0,0,1-.65-0.17,0.23,0.23,0,0,1-.07-0.13,0.1,0.1,0,0,1,.14-0.11,0.65,0.65,0,0,1,.16.12,0.29,0.29,0,0,0,.36,0,0.45,0.45,0,0,0-.3-0.27l-0.38-.17a1.11,1.11,0,0,1,.51-0.16Zm3.2,11.91-0.1-.13c0.14-.12.27-0.11,0.33,0a3.87,3.87,0,0,1,.12.4,0.34,0.34,0,0,1,0,.12l-0.51-.34Zm-0.19-1.24a0.18,0.18,0,0,1,.24-0.08l0.34,0.14c-0.13.1-.21,0.18-0.3,0.24a0.19,0.19,0,0,1-.25,0A0.22,0.22,0,0,1,1435.69,514.84Zm0.5,2.39,0.18,0.18a0.36,0.36,0,0,1-.13.1c-0.11,0-.11-0.11-0.12-0.19A0.21,0.21,0,0,1,1436.19,517.23Zm0-3.26a0.35,0.35,0,0,1,.13-0.44l0,0,0.37-.15-0.19.71Zm0-2.7a0.31,0.31,0,0,1,.07-0.12,0.42,0.42,0,0,1,.09.13,0.21,0.21,0,0,1-.06.09A0.36,0.36,0,0,1,1436.21,511.28Zm-0.19-7.09a0.62,0.62,0,0,1-.28-0.1,0.16,0.16,0,0,1,0-.15,0.33,0.33,0,0,1,.47,0l0.25,0.24A2.43,2.43,0,0,1,1436,504.18Zm-0.14,1a0.5,0.5,0,0,1,.18,0,0.62,0.62,0,0,1-.61.64,0.1,0.1,0,0,1-.09-0.16,0.84,0.84,0,0,1,.1-0.13l-0.16-.28a0.67,0.67,0,0,1,.2,0A0.31,0.31,0,0,0,1435.89,505.18Zm-0.7,7.33a0.22,0.22,0,0,1,0-.26c0.07-.07.14-0.07,0.31,0a0.36,0.36,0,0,0,.07.39,0.26,0.26,0,0,1,0,.17c0,0.16-.07.23-0.18,0.23a0.24,0.24,0,0,1-.25-0.26A0.9,0.9,0,0,0,1435.18,512.51Zm0.1-3.17a0.53,0.53,0,0,1-.22.18,0.13,0.13,0,0,1-.16-0.18,3.69,3.69,0,0,1,.15-0.35l0.16,0.12A0.17,0.17,0,0,1,1435.29,509.33Zm-0.13-3.89c0,0.11-.14.1-0.28,0l0.15-.29A0.2,0.2,0,0,1,1435.16,505.44Zm-0.32-.44a0.36,0.36,0,0,1-.11-0.08,0.24,0.24,0,0,1,.09-0.09,0.35,0.35,0,0,1,.13.09A0.28,0.28,0,0,1,1434.84,505Zm0.15-.69a0.19,0.19,0,0,1-.27-0.07,0.11,0.11,0,0,1,0,0c0.13-.08.24-0.08,0.28,0A0.11,0.11,0,0,1,1435,504.32Zm-0.21,11.46c-0.13.1-.26,0.21-0.39,0.31a0.43,0.43,0,0,1-.18,0,0.61,0.61,0,0,1,0-.18A0.34,0.34,0,0,1,1434.78,515.77Zm-0.41-3.52a0.12,0.12,0,0,1,.08-0.08,0.28,0.28,0,0,1,.11.07l-0.13.1A0.2,0.2,0,0,1,1434.37,512.26Zm0-3.66c-0.16,0-.24,0-0.24-0.13a0.27,0.27,0,0,1,.25-0.18,0.26,0.26,0,0,1,.26.15C1434.65,508.53,1434.54,508.6,1434.36,508.6Zm0.06-1.83c-0.1,0-.2,0-0.34.07l-0.1-.17a0.78,0.78,0,0,1-.52.2,0.23,0.23,0,0,1,0-.07,0.33,0.33,0,0,0-.41-0.4h-0.22l0,0a0.33,0.33,0,0,1,.12-0.06h0.41a0.63,0.63,0,0,0,.18,0,0.88,0.88,0,0,1,.62,0,0.46,0.46,0,0,0,.19,0,0.2,0.2,0,0,1,.28.15C1434.63,506.62,1434.59,506.71,1434.42,506.77Zm-0.9,7.87a0.84,0.84,0,0,1,0-.2c0-.2.06-0.24,0.24-0.23s0.19,0.06.21,0.25c0,0,0,.05,0,0.08a0.25,0.25,0,0,1-.39.26A0.22,0.22,0,0,1,1433.52,514.64Zm0,1.9-0.24.29C1433.22,516.64,1433.27,516.58,1433.54,516.54Zm-0.19-8.55v0a0.36,0.36,0,0,1-.16,0,0.33,0.33,0,0,0-.39.09,0.35,0.35,0,0,1-.05-0.43Zm1-2.65a0.9,0.9,0,0,1-.16-0.18,0.84,0.84,0,0,1,.22,0,0.29,0.29,0,0,1,.09.12A0.3,0.3,0,0,1,1434.38,505.35Zm2.29,9.54a0.38,0.38,0,0,0,0-.44,0.46,0.46,0,0,1,.78.23l-0.15.07c-0.08,0-.2,0-0.15.15a0.45,0.45,0,0,0,.22.14s0.06,0,.09,0a0.17,0.17,0,0,1,.12.06,0.14,0.14,0,0,1-.05.12,0.58,0.58,0,0,1-.26.09,0.7,0.7,0,0,1-.57-0.24A0.2,0.2,0,0,1,1436.67,514.89Zm1.72-9.77a0.49,0.49,0,0,0,.14-0.49,0.24,0.24,0,0,1,.12-0.26,0.22,0.22,0,0,1,.26.05,1,1,0,0,1,.31.3,0.85,0.85,0,0,0,.3.26,0.16,0.16,0,0,1,.09.22l0,0.1a0.4,0.4,0,0,1-.57.3,0.25,0.25,0,0,0-.37.18,0.68,0.68,0,0,1-.27.36c-0.11.08-.2,0.18-0.32,0.25a2.44,2.44,0,0,1-.33.15l0,0.31-0.12-.23a1.41,1.41,0,0,1-.7-0.41,0.33,0.33,0,0,1,.14,0,0.23,0.23,0,0,0,.33-0.09,1.34,1.34,0,0,0,.37-0.54,0.16,0.16,0,0,1,.24-0.11l0,0c0.36,0.15.35,0.09,0.54-.22Zm1.95,12.41c0,0.12-.05.15-0.14,0.17h-0.11V517.5l-0.27.05a0.44,0.44,0,0,1,.3-0.21A0.22,0.22,0,0,1,1440.34,517.53Zm-0.2-1.08c0-.12.08-0.14,0.15-0.12l0,0.06Zm0.27-3.48a0.19,0.19,0,0,1,.07.12,0.55,0.55,0,0,1-.09.17,0.62,0.62,0,0,1-.09-0.15,0.25,0.25,0,0,1,0-.14A0.1,0.1,0,0,1,1440.4,513Zm-0.08-.47a0.23,0.23,0,0,1,.32,0l-0.13.22Zm-0.29,1.17c-0.11.25-.18,0.28-0.37,0.19s-0.32-.16-0.48-0.22a1.32,1.32,0,0,0-.28,0,0.1,0.1,0,0,1,.12-0.13,0.84,0.84,0,0,0,.25,0c0.31-.11.31-0.11,0.29-0.45a0.13,0.13,0,0,1,.14-0.16,0.39,0.39,0,0,1,.38.3,0.41,0.41,0,0,0-.26.47Zm-0.36,2.18h-0.07a0.08,0.08,0,0,1,0,0l0.06,0A0.13,0.13,0,0,1,1439.67,515.85Zm-0.25-3.35-0.26.39a0.19,0.19,0,0,1-.26.09,0.34,0.34,0,0,1-.29-0.36,1,1,0,0,0-.06-0.25A1,1,0,0,1,1439.42,512.5Zm-0.68-2.2a0.14,0.14,0,0,1,.23,0,0.09,0.09,0,0,1,0,.08A0.15,0.15,0,0,1,1438.74,510.3Zm0.33-2c0-.09,0-0.19.14-0.2a0.18,0.18,0,0,1,.2.2,0.16,0.16,0,0,1-.17.2A0.16,0.16,0,0,1,1439.07,508.31Zm0-1.92a0.17,0.17,0,0,1-.23-0.13,0.14,0.14,0,0,1,.11-0.2l0.28-.11a0.35,0.35,0,0,1,.17,0l0.7,0.17a0.24,0.24,0,0,1-.26.16A2.69,2.69,0,0,0,1439.07,506.39Zm0.56-2.33a0.14,0.14,0,0,1,0-.06,0,0,0,1,1,.09,0Zm-0.2-.41,0.44-.06C1439.84,503.81,1439.72,503.83,1439.44,503.65Zm-1.83,8.87a0.28,0.28,0,0,1-.19-0.08,0.18,0.18,0,0,1,0-.15,0.18,0.18,0,0,1,.13,0l0.4,0a0.37,0.37,0,0,0,.45-0.22,0.23,0.23,0,0,1-.15.32C1438,512.44,1437.82,512.49,1437.61,512.52Zm0.09,1.43a0.11,0.11,0,0,1-.07,0,0.07,0.07,0,0,1,0,0,0.34,0.34,0,0,1,.06-0.09A0.24,0.24,0,0,1,1437.7,513.95Zm-0.48-1.18a0.11,0.11,0,0,1,0-.1c0.05-.1.14-0.06,0.24,0C1437.38,512.75,1437.32,512.81,1437.22,512.76Zm0,0.46c0,0.07-.06.07-0.23,0l0.17-.35A0.22,0.22,0,0,1,1437.21,513.22Zm0.8-4.16a0.78,0.78,0,0,1-.21.08,0.16,0.16,0,0,1-.1-0.11,0.12,0.12,0,0,1,.16-0.11,0.61,0.61,0,0,1,.16.08v0.06Zm0,0.91a0.28,0.28,0,0,1,0,.1l-0.11-.1a0.26,0.26,0,0,1,.08-0.06A0.09,0.09,0,0,1,1438,510Zm0.32-3.22a0.21,0.21,0,0,1-.06-0.07,0.68,0.68,0,0,1,.09-0.12,0.31,0.31,0,0,1,.06.09A0.57,0.57,0,0,1,1438.33,506.75Zm0.12,3.21,0,0,0,0a0,0,0,0,1,0,0A0.07,0.07,0,0,1,1438.46,510Zm-0.85,10.8c0-.05.13-0.08,0.17,0a0.18,0.18,0,0,1,0,.17,0.46,0.46,0,0,1-.19,0l0-.07A1,1,0,0,1,1437.6,520.76Zm0-2.76a0.44,0.44,0,0,1,.08-0.11,0.32,0.32,0,0,1,.08.06,1,1,0,0,1-.12.17A0.3,0.3,0,0,1,1437.57,518Zm0.09,7a0.21,0.21,0,0,1-.3-0.1A0.25,0.25,0,0,1,1437.65,525Zm-0.75-7.61a0.34,0.34,0,0,1,.32.18c-0.2.16-.27,0.18-0.39,0.08a0.2,0.2,0,0,1-.08-0.16A0.21,0.21,0,0,1,1436.91,517.36Zm0.75-.31a0.43,0.43,0,0,1-.17,0c0.13-.28.2-0.33,0.38-0.29A2.8,2.8,0,0,1,1437.66,517Zm0.19-2.64c-0.11,0-.19,0-0.25-0.17l0.32,0A0.12,0.12,0,0,1,1437.85,514.41Zm1.55,1.66,0.08-.11a0.56,0.56,0,0,1,0,.12,0.07,0.07,0,0,1,0,0A0.19,0.19,0,0,1,1439.4,516.07Zm0,0.24a0.31,0.31,0,0,1-.1,0,0.25,0.25,0,0,1-.05-0.06l0.06,0Zm-0.05,3.65a0.3,0.3,0,0,1-.41,0A0.3,0.3,0,0,1,1439.36,520Zm-0.12-1.4,0-.36a0.51,0.51,0,0,1,.34-0.05,0.19,0.19,0,0,1,.13.1,0.16,0.16,0,0,1-.07.14A0.58,0.58,0,0,1,1439.24,518.56Zm0.73,4.76a0.43,0.43,0,0,0,.29,0,0.1,0.1,0,0,1,.07,0l0.11,0.08a0.23,0.23,0,0,1-.08.09,1.23,1.23,0,0,1-.85-0.13A0.53,0.53,0,0,1,1440,523.32Zm0,1.94a0.29,0.29,0,0,1-.12,0,0.16,0.16,0,0,1,0-.07,0.19,0.19,0,0,1,.08,0A0.26,0.26,0,0,1,1440,525.25Zm0,3.68a0.26,0.26,0,0,1-.24-0.21C1439.9,528.66,1440,528.73,1439.94,528.94Zm0.15,0.2a0.67,0.67,0,0,1,.62.14C1440.37,529.39,1440.2,529.35,1440.08,529.13Zm-0.17-2.5a0.66,0.66,0,0,1,1,.17A1,1,0,0,1,1439.91,526.64Zm0.41-1.35-0.22,0a0.48,0.48,0,0,1,.63-0.14,2.17,2.17,0,0,0,.87.16l0.16,0a0.19,0.19,0,0,1,0,.07,1,1,0,0,1-.64.05A2,2,0,0,0,1440.33,525.29Zm0.36-4.29a0.43,0.43,0,0,1-.19.08,2.33,2.33,0,0,1-.08-0.22,0.14,0.14,0,0,1,0-.1c0.12-.18.22-0.38,0.36-0.55a0.35,0.35,0,0,1,.6.09l-0.14.09a0.25,0.25,0,0,0-.1.07A1.65,1.65,0,0,1,1440.69,521Zm0.47-2.88a0.14,0.14,0,0,1-.14-0.18c0.12,0,.19,0,0.21.1A0.11,0.11,0,0,1,1441.15,518.11Zm0.15,0.17a0.07,0.07,0,0,1,0,.07c-0.1.05-.16,0-0.21-0.09C1441.18,518.17,1441.25,518.19,1441.3,518.28Zm0-3.7a0.45,0.45,0,0,1-.67-0.05l0.18-.16a1.77,1.77,0,0,0,.2-0.19,0.2,0.2,0,0,1,.19-0.1c0.13,0,.13-0.08.13-0.16a1.08,1.08,0,0,1,.55.39,0.38,0.38,0,0,1-.36.19A0.35,0.35,0,0,0,1441.35,514.58Zm-0.24-1.1a0.53,0.53,0,0,1,.26.42C1441.17,513.84,1441.12,513.76,1441.11,513.48Zm0.91,1.64-0.35-.15C1441.84,514.88,1441.9,514.9,1442,515.12Zm-0.11,4-0.34.37a0.21,0.21,0,0,1,0-.33,0.56,0.56,0,0,1,.2-0.1A0.29,0.29,0,0,1,1441.9,519.09Zm-0.11-2,0.08,0a0.18,0.18,0,0,1,.06.05,0.25,0.25,0,0,1-.09,0A0.14,0.14,0,0,1,1441.79,517.08Zm0.15,2.6a0.54,0.54,0,0,1-.4,0C1441.74,519.48,1441.83,519.49,1441.95,519.68Zm-0.16-2.86a0.24,0.24,0,0,1-.26-0.34,0.14,0.14,0,0,1,.19-0.11l0.29,0.47Zm0.52,2.84a0.09,0.09,0,1,1,0,.17c-0.1,0-.21.06-0.35,0.1l0-.25Zm0-9.23c-0.18,0-.24-0.07-0.24-0.16a0.19,0.19,0,0,1,.19-0.16,0.21,0.21,0,0,1,.18.2A0.4,0.4,0,0,1,1442.31,510.42Zm0.06,2.46c-0.16,0-.2-0.06-0.16-0.21Zm-0.28,5.46,0.06,0-0.07.07a0.17,0.17,0,0,1-.05-0.06A0.14,0.14,0,0,1,1442.09,518.34Zm0.31-2.78,0.05,0,0.05,0.18h0Zm0.07-.63,0,0,0.1,0a0.34,0.34,0,0,1-.11,0A0.08,0.08,0,0,1,1442.47,514.93Zm0,3.27a0.34,0.34,0,0,1,.16,0,0.54,0.54,0,0,1,0,.14,0.24,0.24,0,0,1-.08.11,0.12,0.12,0,0,1-.09-0.06A0.21,0.21,0,0,1,1442.47,518.2Zm0.11-.16a0.17,0.17,0,0,1,0-.28c0-.09-0.21-0.14,0-0.25l0.36,0.15a0.51,0.51,0,0,1,0,.46c-0.07.11-.18,0-0.28,0A0.36,0.36,0,0,0,1442.57,518Zm0.12-5.11a0.33,0.33,0,0,1,.28.24c0,0.13,0,.26,0,0.41l-0.2,0a0.31,0.31,0,0,1,0,.11,0.15,0.15,0,0,1-.09.06,0.09,0.09,0,0,1-.07-0.06,0.57,0.57,0,0,1,0-.33A0.29,0.29,0,0,0,1442.7,512.93Zm0.18,2.85,0,0.06a0.15,0.15,0,0,1,0-.07,0.08,0.08,0,0,1,.05,0A0,0,0,0,1,1442.87,515.78Zm0.06-1.74a0.21,0.21,0,0,1-.05-0.1,0.2,0.2,0,0,1,.1-0.09,0.42,0.42,0,0,1,.1.1Zm0.57-6.39a0.29,0.29,0,0,1-.1.07,0.3,0.3,0,0,1-.09-0.06,0.13,0.13,0,0,1,.05,0Zm-0.11-.33,0,0,0.09,0.09-0.05.05Zm0.19,7.33a0.24,0.24,0,0,1-.1,0,0.11,0.11,0,0,1,0-.08,0.07,0.07,0,0,1,.05,0A0.37,0.37,0,0,1,1443.57,514.63Zm-0.13.74,0.25,0.35a1,1,0,0,1-.63,0A1.15,1.15,0,0,1,1443.44,515.37Zm1-9.27a0.28,0.28,0,0,1-.35.06A0.26,0.26,0,0,1,1444.45,506.1Zm0-2.07a0.66,0.66,0,0,1,.09-0.09l0.08,0.07a0.37,0.37,0,0,1-.1.08A0.16,0.16,0,0,1,1444.42,504Zm-0.49,4.85a0.34,0.34,0,0,1-.07-0.08,0.25,0.25,0,0,1,.06-0.09,0.42,0.42,0,0,1,.07.11A0.16,0.16,0,0,1,1443.93,508.88Zm0.1,1.47a0.38,0.38,0,0,1,.25.23,0.31,0.31,0,0,1-.35-0.11,0.1,0.1,0,0,1,0-.09A0.1,0.1,0,0,1,1444,510.36Zm-0.16,2.5-0.1.39a0.51,0.51,0,0,1-.18-0.31,0.13,0.13,0,0,1,.08-0.1A0.69,0.69,0,0,1,1443.87,512.85Zm0,1.89a0.08,0.08,0,0,1,0,.06,0.09,0.09,0,0,1-.07,0,0.21,0.21,0,0,1,0-.09A0.24,0.24,0,0,1,1443.88,514.75Zm-0.17,3c-0.21.25-.43,0.25-0.53,0a0.21,0.21,0,0,1,0-.27,0.18,0.18,0,0,1,.27,0Zm-0.63,3.39c0.06-.06.13,0,0.16,0.05s0.07,0.17.12,0.29a0.3,0.3,0,0,1-.32-0.16A0.19,0.19,0,0,1,1443.08,521.16Zm0.27-1.51a0.41,0.41,0,0,1-.17-0.08l0.18-.2a0.22,0.22,0,0,1,.27-0.12,0.25,0.25,0,0,1,.13.29l-0.18-.06A1.36,1.36,0,0,1,1443.35,519.65Zm0.34-.57a0.67,0.67,0,0,1-.21,0,0.11,0.11,0,0,1,0-.08,0.29,0.29,0,0,1,.28-0.12,0.39,0.39,0,0,1,.1.09A0.57,0.57,0,0,1,1443.7,519.08Zm0.08-3.16c0.19,0,.19,0,0.25.12l0,0Zm0.67,2.41c0.11,0.27-.1.34-0.23,0.46a0.17,0.17,0,0,1-.29,0Zm0-1.61a0.12,0.12,0,0,1-.12-0.14c0-.11,0-0.21,0-0.32a1.06,1.06,0,0,1,.07-0.25l-0.25-.12a0.25,0.25,0,0,1,.38.19,0.53,0.53,0,0,0,.24.47A0.22,0.22,0,0,1,1444.42,516.72Zm0.21-2.21a0.3,0.3,0,0,1,.13.08,0.29,0.29,0,0,1-.11.11,1.37,1.37,0,0,1-.29-0.08A1.22,1.22,0,0,1,1444.64,514.51Zm-0.09-.21a0.09,0.09,0,0,1,.06,0l0.06,0,0,0-0.08,0A0.07,0.07,0,0,1,1444.54,514.3Zm0.25,3.07a0.41,0.41,0,0,1,0,.1,0.12,0.12,0,0,1,0,0,0.31,0.31,0,0,1,0-.07A0.19,0.19,0,0,1,1444.79,517.37Zm0,0.5-0.33,0C1444.6,517.76,1444.6,517.76,1444.81,517.88Zm0,0.6a1.59,1.59,0,0,1,.25-0.13,1.89,1.89,0,0,1-.05.26,0.15,0.15,0,0,1-.09.09,0.21,0.21,0,0,1-.13-0.09A0.14,0.14,0,0,1,1444.82,518.48Zm0.13-1.9a0.74,0.74,0,0,1,.17-0.11,0.15,0.15,0,0,1,.08.09,0.24,0.24,0,0,1-.11.11A0.4,0.4,0,0,1,1444.95,516.57Zm0.26,2.17a0.33,0.33,0,0,1,.15,0,0.31,0.31,0,0,1,0,.13,0.2,0.2,0,0,1-.29,0A1,1,0,0,1,1445.21,518.74Zm0-4a0.19,0.19,0,0,1-.16-0.24,0.22,0.22,0,0,1,.25-0.25,0.24,0.24,0,0,1,.25.23A0.38,0.38,0,0,1,1445.21,514.74Zm0-11.15-0.06,0,0,0a0.11,0.11,0,0,1,0-.05Zm-0.55-.87a0.33,0.33,0,0,1,.38.06,0.27,0.27,0,0,1,0,.35,1.55,1.55,0,0,1-.15.26c-0.09.12-.17,0.12-0.26,0a0.4,0.4,0,0,1-.06-0.14,0.41,0.41,0,0,0-.22-0.34A2.22,2.22,0,0,1,1444.7,502.72Zm-0.45.64,0.35,0.14a0.57,0.57,0,0,1,.12.1,0.48,0.48,0,0,1-.14.09,0.25,0.25,0,0,1-.17,0c-0.18-.12-0.36-0.25-0.53-0.39a0.16,0.16,0,0,1,0-.07A1.16,1.16,0,0,1,1444.25,503.36Zm-1.77.85,0.21,0.15a0.23,0.23,0,0,0,.34,0,0.37,0.37,0,0,1,.3-0.21,0.43,0.43,0,0,1,.35.19l0.06,0,0.09-.1a0.12,0.12,0,0,1,.2,0,0.13,0.13,0,0,1,0,.2l0,0a2.62,2.62,0,0,1-1,.26,0.3,0.3,0,0,1-.21-0.08,0.63,0.63,0,0,0-.24-0.21C1442.38,504.38,1442.4,504.29,1442.47,504.21Zm-0.43,3.34a3.25,3.25,0,0,0,.37.07c0.17,0,.21.14,0.1,0.27a0.54,0.54,0,0,1-.19.12l-0.32.14a0.5,0.5,0,0,1-.21.08,0.72,0.72,0,0,0-.45.14,1.19,1.19,0,0,1-.38.12,0.86,0.86,0,0,0-.46.2,2.29,2.29,0,0,1-.46.26,0.17,0.17,0,0,1-.16,0,0.23,0.23,0,0,1,0-.18,0.47,0.47,0,0,1,.13-0.18,1.42,1.42,0,0,0,.22-0.17,0.68,0.68,0,0,0,0-.25l0.23,0c0.15-.1.27-0.2,0.41-0.28a0.61,0.61,0,0,1,.46.09,0.57,0.57,0,0,0,0-.11,0.21,0.21,0,0,1-.06-0.23,0.33,0.33,0,0,1,.3-0.16A4.24,4.24,0,0,1,1442,507.55Zm-0.11-2.79a1.14,1.14,0,0,1-.46.23,0.12,0.12,0,0,1-.11,0,0.11,0.11,0,0,1,0-.11A0.53,0.53,0,0,1,1441.93,504.76Zm-0.69-.87a3.48,3.48,0,0,1,.1.4,0.33,0.33,0,0,1-.26-0.12,0.4,0.4,0,0,0,.12.33c0.09,0.07.25-.11,0.27,0.1l-0.41.21a0.38,0.38,0,0,1-.37,0l-0.26-.14a4.71,4.71,0,0,0,.29.76,0.16,0.16,0,0,1-.21-0.14,0.28,0.28,0,0,0-.32-0.28h-0.08c-0.18,0-.21-0.07-0.13-0.23a0.38,0.38,0,0,0-.14-0.58l0.16-.47,0.16,0.24a1.19,1.19,0,0,1,.92-0.2A0.21,0.21,0,0,1,1441.25,503.89Zm-0.41-.51a0.23,0.23,0,0,1,.07-0.08,0.8,0.8,0,0,1,.17.09,0.35,0.35,0,0,1-.14.07A0.37,0.37,0,0,1,1440.84,503.38Zm-0.68-1.79a0.19,0.19,0,0,1,.15.28l-0.19-.09Zm-2.95.64,0.06,0.06-0.11.1,0,0Zm0.05,0.52a0.45,0.45,0,0,1-.21.25C1437,502.74,1437,502.69,1437.27,502.75Zm-0.34-1.52,0,0,0,0-0.05,0Zm0,2.88a1,1,0,0,1,.14.21,0.25,0.25,0,0,0,.5-0.08,0.24,0.24,0,0,1,0-.06l0.09,0.14c0,0.07.09,0.11,0.17,0.06a0.16,0.16,0,0,0,0-.23l0,0a0.51,0.51,0,0,1-.2-0.17,0.44,0.44,0,0,1,.06-0.32,0.37,0.37,0,0,0,0-.36,0.26,0.26,0,0,1,0-.09H1438c0.2,0,.28-0.06.27-0.25a0.65,0.65,0,0,1,.37-0.62,0.76,0.76,0,0,1,.26-0.07c0.08,0,.17,0,0.25,0s0.22-.15.1-0.33a0.88,0.88,0,0,1-.13-0.3,0.22,0.22,0,0,1,.15-0.26,0.89,0.89,0,0,1,.57-0.05,0.21,0.21,0,0,1,.14.12,0.27,0.27,0,0,1-.1.15,1,1,0,0,1-.14.1c0.07,0.18.22,0.1,0.33,0.12a0.52,0.52,0,0,0,.44.39,0.82,0.82,0,0,0,.52,0h0.08l0.81,0.13a2.67,2.67,0,0,1-.31.37l-0.16-.13a0.27,0.27,0,0,0-.12-0.08,0.43,0.43,0,0,1-.4-0.08,0.37,0.37,0,0,0-.4.16,0.3,0.3,0,0,0,0,.19,1,1,0,0,0,.11.18,0.75,0.75,0,0,1-.46,0,0.21,0.21,0,0,1-.12-0.11,1.33,1.33,0,0,1-.07-0.22,0.46,0.46,0,0,0-.26-0.33,0.75,0.75,0,0,1-.18-0.16,0.27,0.27,0,0,0-.1.07,0.26,0.26,0,0,1-.26.19,0.16,0.16,0,0,0-.11.06,0.18,0.18,0,0,0-.06.13,0.14,0.14,0,0,0,.11.09,0.3,0.3,0,0,1,.32.09,2.23,2.23,0,0,1,.15.4,0.4,0.4,0,0,1,0,.1,2.73,2.73,0,0,1-.33.18,0.58,0.58,0,0,1-.19,0,0.41,0.41,0,0,0-.21,0,1.05,1.05,0,0,1-.62.2,0.22,0.22,0,0,0-.08,0,0.52,0.52,0,0,0,.31.4l-0.19.18c-0.09.09-.18,0.18-0.27,0.27a0.36,0.36,0,0,1-.39.17,0.3,0.3,0,0,0-.3.09,0.82,0.82,0,0,1-.73.2c-0.13,0-.18-0.09-0.12-0.19a1.15,1.15,0,0,0,.19-0.6A0.12,0.12,0,0,1,1437,504.11Zm-0.9-2.54c0.12,0.14.22,0.25,0.31,0.38a0.15,0.15,0,0,1,0,.13,0.12,0.12,0,0,1-.11,0c-0.09-.14-0.17-0.28-0.24-0.43A0.27,0.27,0,0,1,1436.05,501.58Zm-1,1.4a1.16,1.16,0,0,0,0-.75,1.25,1.25,0,0,1,.94,0c-0.07.21-.08,0.22-0.34,0.11-0.15.16-.14,0.24,0,0.31l0.4,0.16a0.14,0.14,0,0,0,.07,0,0.7,0.7,0,0,1,.48.07,0.16,0.16,0,0,1,.11,0,0.16,0.16,0,0,1,0,.13,0.15,0.15,0,0,1-.13.05,0.25,0.25,0,0,1-.13-0.07,0.39,0.39,0,0,0-.51,0,0.36,0.36,0,0,1-.24.05,0.53,0.53,0,0,0-.43.11,0.51,0.51,0,0,1-.47.13,0.18,0.18,0,0,0-.12,0l-0.42.23a0.14,0.14,0,0,0-.06.1,0.12,0.12,0,0,0,.06.09c0.09,0,.21,0,0.19.15a0.21,0.21,0,0,1-.12.14,0.24,0.24,0,0,1-.3-0.08l-0.07-.11a0.4,0.4,0,0,0-.42-0.23h-0.31a0.5,0.5,0,0,1-.14-0.08l0.39-.24,0.1,0.07a0.42,0.42,0,0,0,.59.09c0.19-.11.36-0.25,0.56-0.38l-0.12-.2C1434.92,502.81,1435,503,1435.09,503Zm0-.48a0.43,0.43,0,0,1-.11.08,0.18,0.18,0,0,1-.06-0.06,0.33,0.33,0,0,1,.08-0.08A0.25,0.25,0,0,1,1435,502.5Zm-0.87-2.1,0.12,0-0.11.07a0.21,0.21,0,0,1-.06-0.07A0.08,0.08,0,0,1,1434.17,500.41Zm-0.83.08a0.43,0.43,0,0,0,.42-0.16,0.43,0.43,0,0,1,.18-0.05l-0.12.22c0.21,0.27.21,0.27,0,.5l-0.13-.15-0.09,0a0.16,0.16,0,0,1-.26,0l-0.13-.16C1433.18,500.6,1433.22,500.47,1433.34,500.49Zm-0.37,0,0.07,0a0.18,0.18,0,0,1-.07,0,0.12,0.12,0,0,1,0,0Zm-0.33.93-0.1-.27a1.68,1.68,0,0,1,.53-0.34,0.12,0.12,0,0,1,.17.06,0.37,0.37,0,0,1-.12.57l0,0,0.08,0.17a2.2,2.2,0,0,1-.85.07l0-.07Zm0.34,0.77-0.11.08a0.27,0.27,0,0,1-.05-0.1,0.09,0.09,0,0,1,.06-0.06A0.38,0.38,0,0,1,1433,502.22Zm-0.69.11a1.48,1.48,0,0,1,.5.3c0.05,0.06.05,0.06,0.24,0l-0.15-.24,0.2,0.07c0.12,0,.19,0,0.17-0.12a0.23,0.23,0,0,1,.11-0.3,0.19,0.19,0,0,0,.05-0.08,0.3,0.3,0,0,1,.44-0.19,0.37,0.37,0,0,0,.05-0.49,0.52,0.52,0,0,1,.63,0c0.09,0,.12-0.22.27-0.08l-0.08.18c0.07,0.09.27,0.07,0.24,0.26l-0.23.09c0,0.12,0,.26-0.22.25a0.78,0.78,0,0,0,0,.11c0.12,0.24.1,0.3-.13,0.4s-0.18.08-.1,0.25a0.31,0.31,0,0,1,.24,0,0.29,0.29,0,0,1-.08.09,1,1,0,0,1-.59.19,0.29,0.29,0,0,0-.15,0,0.38,0.38,0,0,1-.48,0l-0.28.38,0.11,0.16c-0.24.16-.27,0.16-0.43,0a0.64,0.64,0,0,0-.15-0.14l-0.83-.43-0.16-.1,0.25-.06,0-.19Zm-1.5-.93a0.45,0.45,0,0,1,.26-0.46,1,1,0,0,1,.61-0.11,0.72,0.72,0,0,0,.21,0,0.27,0.27,0,0,0,.31.25,0.19,0.19,0,0,1-.25.17,0.85,0.85,0,0,0-.55.15,0.22,0.22,0,0,0-.07.17,0.45,0.45,0,0,0,.06.16,0.66,0.66,0,0,1-.59-0.06c0-.1.26,0,0.21-0.18Zm-0.08,3.21a1.8,1.8,0,0,0,.42-0.06l0,0.06a1.21,1.21,0,0,1-.75.31,0.67,0.67,0,0,1-.36-0.21l0.26-.23A1.93,1.93,0,0,0,1430.71,504.61Zm-0.19,9.45a0.44,0.44,0,0,1-.08.14,0.36,0.36,0,0,1-.08-0.14,0.26,0.26,0,0,1,.1-0.09A0.22,0.22,0,0,1,1430.53,514.06ZM1430,503.18a2.4,2.4,0,0,1-.21-0.35c0-.08,0-0.12.13-0.14a0.32,0.32,0,0,1,.12.09,1.48,1.48,0,0,1,.1.31,0.13,0.13,0,0,1-.06.1A0.09,0.09,0,0,1,1430,503.18Zm0.06,1.18,0,0-0.06,0a0.2,0.2,0,0,1,0-.06l0,0Zm0.6-2a0.39,0.39,0,0,0,0,.35c0.05,0.08,0,.14-0.09.17a0.31,0.31,0,0,1-.37-0.13,1.82,1.82,0,0,0-.18-0.17l-0.15-.14A0.91,0.91,0,0,1,1430.63,502.36Zm-2.33,2.13c0.08,0,.1.11,0,0.23l-0.21-.13A0.14,0.14,0,0,1,1428.3,504.49Zm0.65,0.22a0.29,0.29,0,0,1,.36,0,0.7,0.7,0,0,1,.09.13c-0.07.15-.13,0.3-0.21,0.44a0.17,0.17,0,0,1-.14,0l-0.33-.14a0.46,0.46,0,0,0-.37-0.05,0.2,0.2,0,0,1-.23-0.2,0.15,0.15,0,0,1,.11-0.09A0.9,0.9,0,0,0,1429,504.7Zm-0.54-1.57,0.05,0,0,0,0,0.06Zm0.13,1.36a0.17,0.17,0,0,1,.23.12C1428.6,504.63,1428.6,504.63,1428.54,504.5Zm0.58-1.43c0.35,0,.44,0,0.51.45a0.1,0.1,0,0,1-.14-0.09A0.39,0.39,0,0,0,1429.12,503.07Zm-0.82,13.48a0.94,0.94,0,0,0,0-.34,0.84,0.84,0,0,1,.54,0,0.5,0.5,0,0,1,0,.15l-0.34.76a1.85,1.85,0,0,0-.07.22,0.25,0.25,0,0,1-.21.21l0.06-.32,0.06-.32A0.3,0.3,0,0,1,1428.3,516.55Zm0.47-2.15c-0.12.13-.19,0.16-0.27,0.09a0.27,0.27,0,0,1,0-.36l0.26-.31a0.91,0.91,0,0,1,.1.14c0,0.08.06,0.17,0.1,0.26s0.1,0.16,0,.22A0.41,0.41,0,0,1,1428.78,514.4Zm0-2c0.18-.17.35-0.15,0.46,0.11Zm-0.53-3.63c0.12,0,.16,0,0.17.17a0.18,0.18,0,0,1-.12.21A0.27,0.27,0,0,1,1428,509,0.14,0.14,0,0,1,1428.2,508.81Zm-0.21,5a0.11,0.11,0,0,1,.14.11c0,0.11-.09.2-0.29,0.2a0.26,0.26,0,0,1-.1-0.1A0.25,0.25,0,0,1,1428,513.84Zm0.13,3.15,0,0,0,0,0,0A0.07,0.07,0,0,1,1428.12,517Zm-0.38,3.06,0,0a0.08,0.08,0,0,1,0,0l0,0A0.08,0.08,0,0,1,1427.74,520.06Zm-0.05-14.55,0,0-0.14-.1,0,0Zm-0.26-1.15a0.39,0.39,0,0,1,0-.14,0.37,0.37,0,0,1,.15.06,0.33,0.33,0,0,1,0,.16,0.09,0.09,0,0,1-.06,0A0.46,0.46,0,0,1,1427.43,504.35Zm0.22-2.2a0.26,0.26,0,0,1-.23-0.15A0.25,0.25,0,0,1,1427.64,502.15Zm-0.11,15.46a0.18,0.18,0,0,1,.2.15,0.24,0.24,0,0,1-.27.19,0.18,0.18,0,0,1-.19-0.15A0.22,0.22,0,0,1,1427.53,517.61Zm-0.59,2.36a0.56,0.56,0,0,0-.17.14,0.28,0.28,0,0,1-.37.21,0.28,0.28,0,0,0-.15.08,0.12,0.12,0,0,1-.2-0.06l-0.06-.14c0-.14,0-0.19.12-0.21a0.3,0.3,0,0,0,.26-0.17,0.16,0.16,0,0,1,.09-0.08,0.63,0.63,0,0,0,.45-0.26,0.15,0.15,0,0,1,.13,0,0.16,0.16,0,0,1,0,.15A0.3,0.3,0,0,0,1426.94,520Zm-0.34-2.37a0.2,0.2,0,0,1-.07.05,0.27,0.27,0,0,1-.07,0,0.12,0.12,0,0,1,0,0Zm0-1.7,0.15-.25c0.06,0.19.06,0.19-.1,0.28Zm-0.22,1.18-0.13,0-0.06.18c-0.11,0-.15,0-0.17-0.22l0.32-.14c0.06,0,.14-0.07.17,0S1426.43,517.06,1426.35,517.08Zm0.42,2.35a0.18,0.18,0,0,1-.14.15,1.11,1.11,0,0,1,.25-0.76l0.24,0.07,0,0-0.13-.21a2.64,2.64,0,0,1,.3,0,0.11,0.11,0,0,1,.09.19,0.55,0.55,0,0,1-.2.15A0.85,0.85,0,0,0,1426.77,519.43Zm0.14-1.85a0.19,0.19,0,0,1,.07-0.07,0.54,0.54,0,0,1,.13.12,0.49,0.49,0,0,1-.08.12A1.08,1.08,0,0,1,1426.91,517.58Zm0.36,9.48a0.22,0.22,0,0,1,.32,0l-0.36.32a0.52,0.52,0,0,1-.11-0.22A0.28,0.28,0,0,1,1427.27,527.06Zm-0.37-12.78a0.41,0.41,0,0,1,.38,0C1427.13,514.44,1427,514.44,1426.9,514.28Zm0.1-1-0.4.27c-0.19.14-.19,0.16,0,0.31l0,0.06a0.21,0.21,0,0,1,0,.06,0.56,0.56,0,0,1-.51-0.19,0.86,0.86,0,0,1,.56-0.55,0.45,0.45,0,0,0,.18-0.13c0.07-.06.13-0.09,0.19,0S1427.08,513.2,1427,513.24Zm-0.5-11a0.09,0.09,0,0,1,.08,0l0.34,0.1a0.31,0.31,0,0,1,.07.1,0.38,0.38,0,0,1-.17.09,1.47,1.47,0,0,1-.31-0.16A0.1,0.1,0,0,1,1426.5,502.22Zm-0.07,1.91,0.3,0.19c-0.13.22-.19,0.22-0.47,0Zm-0.26,1.92c-0.08.13-.15,0.08-0.27,0C1426,506,1426.1,506,1426.17,506.05Zm-0.11,11.35,0.24,0.17-0.58.3A1.14,1.14,0,0,1,1426.06,517.4Zm-0.4-12.29c0.17,0.1.18,0.11,0.09,0.32A0.25,0.25,0,0,1,1425.66,505.11Zm-0.19,9.56a0.35,0.35,0,0,1,.1-0.33C1425.7,514.59,1425.68,514.63,1425.47,514.67Zm-1.27,4.11a0.28,0.28,0,0,1-.19-0.1c-0.06-.08,0-0.14.07-0.19l0.13-.08,0.42,0.34A3.33,3.33,0,0,1,1424.21,518.78Zm0.3,1.28a0.27,0.27,0,0,1-.1.05,0.19,0.19,0,0,1-.07-0.05,0.28,0.28,0,0,1,.08-0.07A0.25,0.25,0,0,1,1424.51,520.06Zm-0.19-3.81-0.19-.45c0.13-.17.13-0.17,0.45,0l0.15-.18,0.33,0.76Zm0.42,1.63a0.5,0.5,0,0,1-.13.13,0.15,0.15,0,0,1-.16-0.15c0-.08,0-0.17.12-0.15A0.56,0.56,0,0,1,1424.75,517.88Zm0.12,7.55a0.23,0.23,0,0,1,.31.06,0.17,0.17,0,0,1-.08.22,0.26,0.26,0,0,1-.36,0l-0.16-.21Zm-0.13-6.42,0.52-.2C1425.21,519.07,1425.11,519.1,1424.73,519Zm0.16-.28a3.81,3.81,0,0,1-.12-0.52c0-.13.13-0.13,0.22-0.16a0.18,0.18,0,0,1,.23.1C1425.35,518.45,1425.28,518.6,1424.89,518.73Zm0.22-4,0,0,0,0h0Zm-0.18-1.72a0.48,0.48,0,0,1,.07-0.12,0.47,0.47,0,0,0,.26-0.35,0.18,0.18,0,0,1,.13-0.12,0.2,0.2,0,0,1,.12.13,0.3,0.3,0,0,1,0,.24A0.73,0.73,0,0,1,1424.93,513.05Zm0.64,5.08a0.09,0.09,0,0,1,0,.08,0.16,0.16,0,0,1-.22-0.12A0.15,0.15,0,0,1,1425.57,518.13Zm-0.24-15.82,0.23,0.26a0.1,0.1,0,0,1-.16.09A0.25,0.25,0,0,1,1425.34,502.31Zm0,2.75-0.26-.17C1425.37,504.89,1425.37,504.89,1425.36,505.06Zm-0.36,2.64v0.07l-0.23,0C1424.85,507.67,1424.91,507.65,1425,507.71Zm-0.25-5.23,0,0.06-0.17-.16C1424.68,502.35,1424.73,502.39,1424.75,502.48Zm-0.37-.36c0.06,0.08.05,0.14,0,.17a0.09,0.09,0,0,1-.08,0C1424.24,502.19,1424.28,502.15,1424.37,502.12Zm-0.42,4.14-0.15-.38C1424.1,506,1424.13,506.06,1424,506.26Zm0.4,1.66a0.55,0.55,0,0,1-.57.36A0.89,0.89,0,0,1,1424.35,507.92Zm-0.42,6.31c0,0.22,0,.36-0.16.38s-0.17-.14-0.25-0.23A0.52,0.52,0,0,1,1423.93,514.22Zm-0.31,4.68c0,0.12.09,0.27,0.13,0.42a0.23,0.23,0,0,1-.11.26l-0.33.18a1.18,1.18,0,0,1,0-.22c0-.23,0-0.23-0.22-0.31l-0.05,0a0.2,0.2,0,0,1,.2-0.2Zm-0.88-1.66a0.11,0.11,0,0,1,0-.17,0.16,0.16,0,0,1,.15,0,2.06,2.06,0,0,1,.19.25A0.34,0.34,0,0,1,1422.74,517.25Zm0.2-2a0.7,0.7,0,0,1-.28.11c-0.19,0-.19,0-0.27-0.17l-0.06-.09-0.13,0a0.24,0.24,0,0,1-.28-0.23,0.14,0.14,0,0,1,.09-0.1,0.88,0.88,0,0,1,.52,0,0.53,0.53,0,0,0,.17,0,0.59,0.59,0,0,1,.2,0A0.25,0.25,0,0,1,1422.94,515.21Zm-0.18-2.38c-0.19.13-.19,0.13-0.72,0a0.91,0.91,0,0,0,0-.19,1.26,1.26,0,0,0-.1-0.2l0.28-.22Zm-0.47-6.74a0.31,0.31,0,0,1,.2-0.31C1422.54,506,1422.52,506,1422.28,506.09Zm-0.36,12.34a0.14,0.14,0,0,1,.18.14,0.14,0.14,0,0,1-.23,0A0.11,0.11,0,0,1,1421.92,518.43Zm0,0.4H1422a0.36,0.36,0,0,1,.24.35,0.53,0.53,0,0,1-.35.34c-0.11,0-.2,0-0.17-0.11S1421.81,519,1421.89,518.83Zm0.41-13.39a1.8,1.8,0,0,0,.29-0.15,0.44,0.44,0,0,1,.35.21,0.21,0.21,0,0,1,0,.15,0.39,0.39,0,0,1-.18.07,0.12,0.12,0,0,1-.07,0,0.32,0.32,0,0,0-.36,0,0.11,0.11,0,0,1-.18-0.07C1422.15,505.5,1422.21,505.47,1422.3,505.44Zm-0.22-.18a0.14,0.14,0,0,1,0,.13,0.25,0.25,0,0,1-.28-0.14C1421.9,505.16,1422,505.15,1422.08,505.27Zm-0.29,7.3,0.09,0,0,0.06-0.09-.06A0.12,0.12,0,0,1,1421.79,512.57Zm-0.24-5.93a0.21,0.21,0,0,1,.06.06l-0.09,0a0.12,0.12,0,0,1,0,0Zm-0.21,8.07a0.63,0.63,0,0,0-.63-0.09c-0.25.06-.32,0-0.42-0.28l0.24,0s0.08,0,.12,0a0.48,0.48,0,0,0,.23-0.05,0.24,0.24,0,0,0,0-.18c0-.17,0-0.24.17-0.22a3.29,3.29,0,0,1,.32.08l-0.17.4A0.35,0.35,0,0,1,1421.35,514.71Zm-2.21.7a0.51,0.51,0,0,1,.63-0.28,0.39,0.39,0,0,1,.15.13c0.21,0.26.21,0.27,0.47,0.06h0.07l0.07,0.4a0.21,0.21,0,0,1-.11,0A8.7,8.7,0,0,1,1419.14,515.41Zm0.7,2.83c-0.13-.06-0.18-0.11-0.13-0.24A0.18,0.18,0,0,1,1419.84,518.24Zm0.13-4.16a1.12,1.12,0,0,1-.56-0.17l-0.56-.13v-0.05l0.41-.11A0.54,0.54,0,0,1,1420,514.09Zm-1-4.33a0.48,0.48,0,0,1-.48-0.09l0.76-.23A0.46,0.46,0,0,1,1419,509.76Zm0.52,2.77a0.12,0.12,0,0,1,.17-0.12c0.18,0,.35.12,0.52,0.18l-0.52.08A0.12,0.12,0,0,1,1419.52,512.53Zm1.41,0.52a0.34,0.34,0,0,1-.53-0.19c0-.1-0.12-0.18-0.17-0.28h0.3C1420.87,512.61,1420.95,512.7,1420.93,513.06Zm-0.4-3a0.64,0.64,0,0,1,.18-0.15,0.45,0.45,0,0,1,.14.16,0.16,0.16,0,0,1-.17.15A0.16,0.16,0,0,1,1420.53,510Zm0.15,6.92a0.24,0.24,0,0,1,0,.32,0.26,0.26,0,0,1-.36,0c-0.09-.07-0.18-0.13-0.26-0.21s-0.13-.15-0.21-0.24A0.73,0.73,0,0,1,1420.68,517Zm-0.17,5.5,0.26,0.38c-0.18.08-.31,0.07-0.36,0A0.34,0.34,0,0,1,1420.51,522.46Zm0.41-16.2c0.18,0.18.18,0.23,0,.48l-0.37-.19Zm-0.12,1.8a0.16,0.16,0,0,1,.13,0,1.84,1.84,0,0,1,.16.22l0,0.06h-0.62A0.63,0.63,0,0,1,1420.8,508.07Zm-0.36-3-0.26-.16C1420.37,504.88,1420.37,504.88,1420.44,505.11Zm-0.3,6a0.68,0.68,0,0,1-.49.18,0.48,0.48,0,0,1-.2-0.09v-0.07l0.67-.1Zm-0.57-1.85h0a0.07,0.07,0,0,1,0,0h0A0.07,0.07,0,0,1,1419.57,509.3Zm0.39-4.53a0.11,0.11,0,0,1,.07.09,0.11,0.11,0,0,1-.07.08,1.36,1.36,0,0,1-.24,0A0.19,0.19,0,0,1,1420,504.77Zm-0.07,3.71c-0.11.21-.23,0.23-0.36,0.08l-0.28-.31,0,0a2.17,2.17,0,0,0,.29.19A1.76,1.76,0,0,0,1419.9,508.48Zm-1.71-1.59a0.72,0.72,0,0,1,.14-0.12l-0.06-.27a0.84,0.84,0,0,0,.61-0.4l0.6,0.34a1,1,0,0,1-.36.12,1.07,1.07,0,0,1-.35-0.2,0.25,0.25,0,0,1-.14.37,0.64,0.64,0,0,0-.15.2,1.51,1.51,0,0,1-.23.26,0.1,0.1,0,0,1-.16-0.1A0.48,0.48,0,0,1,1418.19,506.89Zm0,2.5c0.09,0,.1.12,0,0.25l-0.21-.2C1418.07,509.33,1418.14,509.36,1418.21,509.4Zm0.24,2.54a2,2,0,0,0,.5.22l0.17,0-0.07.24a0.23,0.23,0,0,1-.28-0.08,0.69,0.69,0,0,0-.58-0.2h-0.33a0.15,0.15,0,0,1-.14-0.15,0.15,0.15,0,0,1,.14-0.18A0.75,0.75,0,0,1,1418.45,511.94Zm-0.8-5.39a0.34,0.34,0,0,1,.13.09l-0.11.16-0.15-.16A0.3,0.3,0,0,1,1417.65,506.55Zm0,4.15v0l-0.1,0v-0.06Zm-0.07-1.41h0l0,0,0,0Zm-0.3,3.71a1.31,1.31,0,0,1,0,.13c0.12,0,.25,0,0.37,0a0.56,0.56,0,0,1,.58.39l-1,.15a0.27,0.27,0,0,0-.32-0.29c-0.14,0-.19-0.11-0.11-0.23a1.26,1.26,0,0,1,.18-0.22C1417.1,512.78,1417.21,512.81,1417.28,513Zm-0.17,1.33a0.36,0.36,0,0,1-.32.16,0.33,0.33,0,0,1-.2-0.37l0.3-.15A0.37,0.37,0,0,1,1417.11,514.33Zm-1-5.39a0.31,0.31,0,0,1,.38,0c0.09,0.07.17,0.16,0.29,0.27a0.66,0.66,0,0,1-.16,0,3.55,3.55,0,0,1-.45,0,0.23,0.23,0,0,1-.17-0.12A0.25,0.25,0,0,1,1416.15,508.93Zm-0.52-1c0.06-.18.1-0.2,0.32-0.13a1.31,1.31,0,0,0-.15.19,0.61,0.61,0,0,0,.08.67s0.06,0.06.08,0.1a0.08,0.08,0,0,1,0,.07,0.11,0.11,0,0,1-.06,0,1.73,1.73,0,0,1-.43-0.31A2.6,2.6,0,0,1,1415.63,507.92Zm0.28,3.09h-0.07l0-.23A0.16,0.16,0,0,1,1415.91,511Zm-2.34,5.8a0.33,0.33,0,0,1,0,.18,0.16,0.16,0,0,1-.13,0,0.29,0.29,0,0,1-.13-0.16,0.7,0.7,0,0,1,.11-0.25A1.23,1.23,0,0,1,1413.58,516.81Zm-0.3-.62a0.27,0.27,0,0,1,.11.12,0.59,0.59,0,0,1,0,.2,0.72,0.72,0,0,1-.14-0.14,0.36,0.36,0,0,1,0-.16A0.11,0.11,0,0,1,1413.27,516.19Zm-0.49-1.7-0.18-.22C1412.77,514.28,1412.81,514.33,1412.79,514.49Zm-0.27,1.5a0.08,0.08,0,0,1,0,0l0,0a0.08,0.08,0,0,1,0,0Zm-1.3-.11a2.39,2.39,0,0,0,.31.15,1.28,1.28,0,0,1-1.09,0A0.57,0.57,0,0,1,1411.21,515.88Zm0.36,3.25a0.29,0.29,0,0,1-.32-0.1A0.23,0.23,0,0,1,1411.58,519.12Zm-1.27,3.75a0.81,0.81,0,0,1-.66,0A0.73,0.73,0,0,1,1410.31,522.87Zm-1.11,5.59a0.19,0.19,0,0,1,0-.31,2,2,0,0,1,.49-0.27Zm0.35,0.45,0,0,0-.06,0,0Zm-0.42-3.32a2.07,2.07,0,0,1,.26-0.24,0.26,0.26,0,0,1,.2,0,0.2,0.2,0,0,1,.06.17,0.23,0.23,0,0,1-.36.19Zm0.55-1.88a0.14,0.14,0,0,1,0-.13,0.13,0.13,0,0,1,.12-0.05,3.91,3.91,0,0,1,.35.18A0.37,0.37,0,0,1,1409.67,523.73Zm0.06-2.16,0,0,0,0a0.23,0.23,0,0,1,0,.06Zm-0.44-4.51a0.71,0.71,0,0,0,.37-0.36c0.07-.15.18-0.15,0.29,0l0.13,0.16,0.14,0.15a1.23,1.23,0,0,1-.61.29,2.19,2.19,0,0,0-.41.11C1409.14,517.19,1409.14,517.14,1409.29,517.07Zm-0.21,2.76-0.14-.31C1409.17,519.59,1409.19,519.63,1409.07,519.82Zm-0.34,2.48,0,0,0,0,0,0Zm-0.22,1c-0.07.09-.14,0.09-0.25,0h0.25Zm-0.82,4.84a7.45,7.45,0,0,1,.1-0.8,0.53,0.53,0,0,1,.65-0.28,0.17,0.17,0,0,1,.05.15,0.32,0.32,0,0,1-.09.15,1,1,0,0,0-.22,1.07H1408C1407.69,528.38,1407.68,528.38,1407.69,528.1Zm0.45,7.22a0.14,0.14,0,0,1-.07-0.09,0.62,0.62,0,0,1,.1-0.15,0.44,0.44,0,0,1,.09.15A0.28,0.28,0,0,1,1408.15,535.32Zm0.25-2.29a0.41,0.41,0,0,1-.36.2,0.39,0.39,0,0,1,.23-0.33,0.12,0.12,0,0,1,.11,0A0.15,0.15,0,0,1,1408.4,533Zm0.16-1.87a0.34,0.34,0,0,1-.3.3h-0.18a0.33,0.33,0,0,0-.41.18,1.88,1.88,0,0,1,.73-0.86A0.34,0.34,0,0,1,1408.56,531.16Zm0-.58a0.38,0.38,0,0,1-.38-0.2,1,1,0,0,0-.35-0.51,0.44,0.44,0,0,1,.08-0.75,1.11,1.11,0,0,0,.5-0.61c0.15,0,.13.13,0.09,0.21a0.7,0.7,0,0,0-.09.49,0.13,0.13,0,0,1-.13.16h0a0.33,0.33,0,0,0-.36.23,0.36,0.36,0,0,0,.2.36,1.26,1.26,0,0,0,.53.38,0.14,0.14,0,0,1,.07.11A0.28,0.28,0,0,1,1408.59,530.58Zm0-4.3h0a2.54,2.54,0,0,1-.42-0.21,0.24,0.24,0,0,1,0-.31,0.32,0.32,0,0,1,.35-0.15l0.56,0.12A1,1,0,0,1,1408.57,526.28Zm0.68,8.33-0.06,0c0-.11,0-0.15.17-0.17Zm-0.32-4.32c0.11-.21.18-0.4,0.28-0.57s0.25-.05.29,0.09a0.52,0.52,0,0,1,0,.43Zm0.62,1.32,0,0,0.06,0,0,0Zm0.22-1.86a0.62,0.62,0,0,1,0,.15,0.16,0.16,0,0,1-.05.07l-0.08-.08A0.7,0.7,0,0,1,1409.76,529.76Zm0.26,3.72a0.26,0.26,0,0,1-.34-0.09,0.31,0.31,0,0,1,.32-0.1,0.12,0.12,0,0,1,.09.07A0.16,0.16,0,0,1,1410,533.47Zm-0.21-1.93a0.1,0.1,0,0,1,.18,0,0.07,0.07,0,0,1,0,.06A0.11,0.11,0,0,1,1409.81,531.55Zm0.27-1.82c0-.08.11-0.07,0.2,0s-0.09.14-.17,0.1A0.09,0.09,0,0,1,1410.08,529.72Zm0.17,1.13a0.11,0.11,0,0,1-.06-0.06,0.08,0.08,0,0,1,0,0,0.39,0.39,0,0,1,.11,0A0.26,0.26,0,0,1,1410.25,530.85Zm0-1.5a0.19,0.19,0,0,1-.1-0.14,0.1,0.1,0,0,1,.13-0.11,0.93,0.93,0,0,1,.2.12A0.71,0.71,0,0,1,1410.25,529.35Zm0-2.36-0.35-.1a0.86,0.86,0,0,1,.69-0.07C1410.44,527,1410.39,527,1410.21,527Zm0.63,5.57a0.49,0.49,0,0,1-.06-0.09l0.1-.08a0.16,0.16,0,0,1,0,.07A0.36,0.36,0,0,1,1410.83,532.56Zm0-2.5-0.15,0c-0.07,0-.16-0.07-0.12-0.16a0.29,0.29,0,0,1,.15-0.14,0.26,0.26,0,0,1,.3.17C1411.06,530,1411,530,1410.85,530.05Zm-0.23-11.11a0.14,0.14,0,0,1,.05,0,0.17,0.17,0,0,1,.07,0,0.21,0.21,0,0,1,0,.06Zm0.14-.65a0.17,0.17,0,0,1-.24-0.12,0.66,0.66,0,0,1,.9.18,0.32,0.32,0,0,1-.36,0A0.27,0.27,0,0,0,1410.75,518.3Zm0.33,9.64a0.21,0.21,0,0,1,.31,0A0.19,0.19,0,0,1,1411.09,527.94Zm0.31-7.48-0.16,0c0.13-.1.13-0.1,0.28,0Zm0.14,10.38a0.23,0.23,0,0,1,.34.05C1411.71,531,1411.7,531,1411.54,530.84Zm0.32-10.47a0.06,0.06,0,0,1,0,0,0.14,0.14,0,0,1,0-.06,0.16,0.16,0,0,1,0,.06A0.06,0.06,0,0,1,1411.86,520.37Zm0.23-6.22-0.4-.1a0.6,0.6,0,0,0-.35,0,0.47,0.47,0,0,1-.47-0.09l0.32-.29a0.67,0.67,0,0,0,.56.22,0.9,0.9,0,0,1,.25.06C1412.09,514,1412.13,514,1412.09,514.15Zm0.52,5.19c-0.16.13-.28,0.12-0.5-0.06A0.7,0.7,0,0,1,1412.61,519.34Zm-0.39,2.59a1.44,1.44,0,0,1,.61-0.12,0.78,0.78,0,0,1,.17.09A0.78,0.78,0,0,1,1412.22,521.93Zm1.2-2.44h-0.1c-0.11,0-.25,0-0.29-0.14s0-.15.25-0.19l0.1,0a0.18,0.18,0,0,1,.21.16A0.17,0.17,0,0,1,1413.43,519.49Zm0.69-1a0.17,0.17,0,0,1-.1-0.12,0.17,0.17,0,0,1,.18-0.17,0.7,0.7,0,0,1,.17.12A0.21,0.21,0,0,1,1414.12,518.5Zm0.76,0.82a1.16,1.16,0,0,1,.2.13,0.42,0.42,0,0,1-.15.09,0.39,0.39,0,0,1-.13-0.12A0.21,0.21,0,0,1,1414.88,519.32Zm0,3.9a0.18,0.18,0,0,1,.15.18C1414.94,523.4,1414.91,523.34,1414.9,523.22Zm-0.07-2.39a1,1,0,0,0,.79-0.28c0.14-.12.23-0.09,0.31,0.07a0.25,0.25,0,0,1-.09,0,0.26,0.26,0,0,0-.28.13A0.51,0.51,0,0,1,1414.83,520.83Zm1,0.33a0.49,0.49,0,0,1-.22-0.07l0.33-.29A0.35,0.35,0,0,1,1415.88,521.16Zm0.93,2.67-0.61,0a0.65,0.65,0,0,1-.16-0.05c0.08-.27.16-0.31,0.37-0.21a1.35,1.35,0,0,0,.26.08,0.58,0.58,0,0,1,.15,0,0.63,0.63,0,0,1,.12.13A0.38,0.38,0,0,1,1416.81,523.83Zm0.7-.46a0.1,0.1,0,0,1-.09-0.06l0.15,0,0,0.06A0.3,0.3,0,0,1,1417.51,523.38Zm0.36-6-0.24-.24C1417.87,517.05,1417.92,517.09,1417.87,517.35Zm-0.2-1.24a0.23,0.23,0,0,1-.31-0.17,0.69,0.69,0,0,0-.23-0.38,0.34,0.34,0,0,1-.08-0.21,3.37,3.37,0,0,1,0-.46,0.23,0.23,0,0,1,.27-0.26,1,1,0,0,1,.55.07h0.07a2.76,2.76,0,0,1,.82.11,0.18,0.18,0,0,1,.1,0l0.26,0.23,0,0c-0.35-.05-0.7-0.12-1-0.15a1,1,0,0,0-.47.06,0.28,0.28,0,0,0-.11.37,0.5,0.5,0,0,1,.5.35l0.22,0.32H1418A2.54,2.54,0,0,0,1417.67,516.11Zm0.42,19.31c0.15-.24.19-0.24,0.33,0Zm0.4-12.1a0.58,0.58,0,0,1-.17,0,0.42,0.42,0,0,1,.06-0.17,0.84,0.84,0,0,1,.22-0.08,0.15,0.15,0,0,1,0,.07A0.91,0.91,0,0,1,1418.48,523.32Zm0.18-6a0.27,0.27,0,0,1-.26-0.2,0.7,0.7,0,0,0,.28-0.75l0.06,0,0.51,0.59,0.22-.08a0.14,0.14,0,0,1,0,.05,1.22,1.22,0,0,1-.11.32c-0.07.11-.18,0.08-0.23,0s0-.12-0.05-0.17-0.08-.14-0.14-0.25l-0.14.34A0.21,0.21,0,0,1,1418.66,517.32Zm0.73,0.41a0.32,0.32,0,0,1,0,.12,0.93,0.93,0,0,1-.1-0.16,0.11,0.11,0,0,1,.07,0A0.16,0.16,0,0,1,1419.39,517.72Zm-0.25-.06a0.25,0.25,0,0,1-.09.06,0.28,0.28,0,0,1-.09-0.06,0.19,0.19,0,0,1,.07-0.05A0.29,0.29,0,0,1,1419.14,517.66Zm0.12,16.61,0-.06,0.23,0.07C1419.37,534.39,1419.37,534.39,1419.26,534.28Zm0.3-11.26,0,0a0.26,0.26,0,0,1,0-.07l0.06,0Zm0.11,11.3a0.5,0.5,0,0,1-.06-0.12l0.08-.07a0.12,0.12,0,0,1,0,.05A0.68,0.68,0,0,1,1419.67,534.32Zm-0.3-12.45a0.54,0.54,0,0,1-.41-0.22,0.37,0.37,0,0,1,.37,0,0.69,0.69,0,0,0,.54,0,0.59,0.59,0,0,1,.47.19,0.22,0.22,0,0,1,0,.16,0.15,0.15,0,0,1-.13.05,1.63,1.63,0,0,1-.27-0.07C1419.74,522,1419.55,521.94,1419.37,521.87Zm0.86,9.36,0,0,0,0,0,0A0.08,0.08,0,0,1,1420.23,531.22Zm0-7.81a0.27,0.27,0,0,1-.3-0.09,2.05,2.05,0,0,1,.29-0.08,0.16,0.16,0,0,1,.09.1A0.12,0.12,0,0,1,1420.27,523.41Zm0.43,4.09a0.26,0.26,0,0,1-.1,0,0.77,0.77,0,0,1-.2-0.05,0.18,0.18,0,0,1-.08-0.13,0.11,0.11,0,0,1,.14-0.11,1,1,0,0,1,.25.05,0.17,0.17,0,0,1,.1.12A0.25,0.25,0,0,1,1420.7,527.5Zm0.31,6.84-0.05,0,0,0,0,0Zm-0.2-18.64a0.12,0.12,0,0,1,0,0,0.92,0.92,0,0,1,.91.37,0.39,0.39,0,0,1,.05.17,0.37,0.37,0,0,1,0,.23c-0.09.09-.19,0-0.28,0a0.66,0.66,0,0,1-.13-0.12Zm0.8,10a0.6,0.6,0,0,1-.09-0.13,0.37,0.37,0,0,1,.09-0.11,0.72,0.72,0,0,1,.08.17A0.22,0.22,0,0,1,1421.62,525.66Zm0.46-5.37-0.08-.18h-0.06c0,0.07,0,.14-0.08.21a3.62,3.62,0,0,1-.2.38c0,0.07-.09.06-0.26-0.05l0.19-.16a0.36,0.36,0,0,0,.18-0.34,0.45,0.45,0,0,1,.38-0.41,0.45,0.45,0,0,0,.3-0.1,0.35,0.35,0,0,1,.43,0c0.1,0.06.1,0.15,0,.22l-0.09,0c-0.17.09-.18,0.13-0.13,0.3a0.49,0.49,0,0,1,0,.14,0.17,0.17,0,0,1-.07.12A0.39,0.39,0,0,1,1422.08,520.29Zm0.4,12.17c0.08-.07.13-0.07,0.19,0A0.1,0.1,0,0,1,1422.48,532.46Zm2.1,19.73,0.47-.16C1424.94,552.31,1424.82,552.33,1424.59,552.19Zm0.42-16.82c0.1-.26.19-0.27,0.41,0A0.31,0.31,0,0,1,1425,535.36Zm4.43-4.22a3.51,3.51,0,0,1-7,0v-7h0v-2.44h1.7v9.49a1.81,1.81,0,1,0,3.63,0v-9.49h1.7v9.49Zm-0.09-10.91a0.14,0.14,0,0,1,0-.24,0.11,0.11,0,0,1,.1,0A0.16,0.16,0,0,1,1429.34,520.22Zm0.09-1.84c-0.07-.15,0-0.21.15-0.3C1429.73,518.31,1429.71,518.35,1429.43,518.39Zm-0.61-16.65a0.22,0.22,0,0,1-.17-0.07,0.25,0.25,0,0,0-.31-0.21c0-.28.06-0.34,0.28-0.22a1.7,1.7,0,0,1,.21.15,1.54,1.54,0,0,0,.25.18,0.21,0.21,0,0,0,.18,0,1.82,1.82,0,0,0,.21-0.23l-0.11-.13a0.15,0.15,0,0,1,.06-0.23l0.45-.11a0.26,0.26,0,0,1,0,.12,0.42,0.42,0,0,0,0,.3,0.68,0.68,0,0,1,0,.3,0.21,0.21,0,0,1-.22.18Zm0.88,16.17a0.22,0.22,0,0,1,.17-0.27l0.31-.17a0.4,0.4,0,0,1,.52.1,4.42,4.42,0,0,0-.46.26A1.73,1.73,0,0,1,1429.7,517.91Zm0.35,2.24a0.26,0.26,0,0,1-.07,0,0.13,0.13,0,0,1,0,0,0.32,0.32,0,0,1,.1,0A0.21,0.21,0,0,1,1430,520.15Zm0.08,34.26v0h0.14v0h-0.15ZM1430,518.94c-0.11-.09,0-0.18.05-0.28l0.22,0.17C1430.2,519,1430.11,519,1430,518.94Zm0.31,8.07c0-.12.12-0.09,0.21-0.08l0.07,0,0.37,0.23a0.3,0.3,0,0,1-.1,0l-0.4-.07A0.14,0.14,0,0,1,1430.32,527Zm1.21,27.8h-0.65a0.4,0.4,0,0,1-.19,0,0.25,0.25,0,0,1-.12-0.14,0.18,0.18,0,0,1,.1-0.13,0.47,0.47,0,0,1,.22,0,0.93,0.93,0,0,1,.22,0,0.44,0.44,0,0,0,.48,0,0.41,0.41,0,0,1,.09.1,0.41,0.41,0,0,1,0,.21A0.29,0.29,0,0,1,1431.53,554.81Zm0.21-38.13a0.09,0.09,0,0,1,.06,0,0.05,0.05,0,0,1,0,0l-0.05.07A0.17,0.17,0,0,1,1431.74,516.68Zm0.08,0.44a1.13,1.13,0,0,1,.14-0.18l0.08,0a0.93,0.93,0,0,1,0,.26,0.2,0.2,0,0,1-.13.12,0.17,0.17,0,0,1-.15-0.05A0.24,0.24,0,0,1,1431.82,517.12Zm0.34,1.68a0.36,0.36,0,0,1,0,.15l-0.32-.19A0.27,0.27,0,0,1,1432.16,518.8Zm0,2.26,0,0.07-0.09-.06a0.13,0.13,0,0,1,0,0A0.32,0.32,0,0,1,1432.15,521.06Zm0,7.82a4.26,4.26,0,0,1,.6,0l0.07,0a0.78,0.78,0,0,1-1,.2A0.31,0.31,0,0,1,1432.19,528.88Zm0,24.82a0.21,0.21,0,0,1-.12-0.11,0.16,0.16,0,0,1,.09-0.1c0.1,0,.21-0.05.36-0.09C1432.37,553.66,1432.29,553.73,1432.16,553.7Zm0.19-22.83a0.17,0.17,0,0,1,.26,0C1432.5,531,1432.42,531,1432.35,530.87ZM1433,531a0.86,0.86,0,0,1-.17-0.13l0-.08a1,1,0,0,1,.23,0,0.13,0.13,0,0,1,0,.12A0.13,0.13,0,0,1,1433,531Zm0.68-11.23-0.55-.26A0.44,0.44,0,0,1,1433.71,519.75Zm-0.22,33.79a0.25,0.25,0,0,1,.36,0A0.24,0.24,0,0,1,1433.48,553.55Zm1.31,1.61a0.53,0.53,0,0,0-.58.1c-0.08.09-.15,0.06-0.34-0.06l0.15-.08a1.31,1.31,0,0,0,.51-0.48c0.12-.19.21-0.18,0.34,0s0.16,0.21.25,0.32C1435,555.2,1435,555.22,1434.8,555.16Zm1.19,0.44a0.27,0.27,0,0,1-.31,0,0.4,0.4,0,0,1-.2-0.34,0.3,0.3,0,0,1,.08-0.14,0.25,0.25,0,0,1,.19,0,1.64,1.64,0,0,1,.23.16C1436.1,555.43,1436.1,555.51,1436,555.6Zm0.61,0.26a0.17,0.17,0,0,1-.12-0.08,0.4,0.4,0,0,1,.08-0.16,0.51,0.51,0,0,1,.12.15A0.13,0.13,0,0,1,1436.6,555.86Zm-0.19-2.27a0.39,0.39,0,0,0-.3-0.08,1.17,1.17,0,0,1-.33,0,0.37,0.37,0,0,1-.12-0.11,0.32,0.32,0,0,1,.12-0.11c0.24,0,.49,0,0.73-0.06a0.34,0.34,0,0,1,.18.07c0.07,0.05,0,.11,0,0.18a0.4,0.4,0,0,0,.08.18A0.35,0.35,0,0,1,1436.41,553.59Zm0.34-22.31a0.48,0.48,0,0,1,.27-0.12L1437,531c0.06-.1.19,0,0.24,0.09s0.06,0.17.09,0.27A0.64,0.64,0,0,1,1436.75,531.28Zm0.72,22.18a0.22,0.22,0,0,1-.15-0.3l0.25,0a0.11,0.11,0,0,1,.1.14A0.15,0.15,0,0,1,1437.47,553.46Zm0.26,1.86a0.11,0.11,0,0,1,0,0l0,0,0.07,0A0.18,0.18,0,0,1,1437.73,555.32Zm-0.35-4.53a0.48,0.48,0,0,1,.68,0A1.67,1.67,0,0,1,1437.38,550.79Zm0.8-17.52v-0.06l0.26,0C1438.33,533.4,1438.33,533.4,1438.18,533.27Zm0.4-1.73-0.49-.14a0.23,0.23,0,0,1-.07-0.07,1.64,1.64,0,0,1,1.14.07A0.63,0.63,0,0,1,1438.58,531.54Zm0.29,19.38a0.29,0.29,0,0,1,.38,0C1439.13,551.08,1439.06,551.08,1438.87,550.92Zm0.46-17.62a0.24,0.24,0,0,1-.28-0.06,0.53,0.53,0,0,1,.41-0.07A0.49,0.49,0,0,1,1439.32,533.3Zm-0.06-4.28a0.25,0.25,0,0,1-.15.07,2.38,2.38,0,0,1-.66-0.21,0.66,0.66,0,0,1,1-.07A2.32,2.32,0,0,1,1439.27,529Zm-0.22-2.15,0.17-.13,0,0.06A0.22,0.22,0,0,1,1439,526.87Zm0.31-1.83c-0.5,0-1,0-1.46,0v-0.07l0.26,0a1.11,1.11,0,0,0,.47-0.08,2.43,2.43,0,0,1,1-.12c0.17,0,.2.12,0.24,0.29C1439.64,524.88,1439.47,524.8,1439.36,525Zm0.33,29.06a0.31,0.31,0,0,1,.44,0A0.26,0.26,0,0,1,1439.69,554.1Zm2.25,0.34a1.17,1.17,0,0,1-1-.24,3.08,3.08,0,0,1-.4.11,0.19,0.19,0,0,1-.16-0.08c0-.08,0-0.12.11-0.13l0.2,0a3.21,3.21,0,0,1,1.27.14,0.43,0.43,0,0,1,.13.14A0.4,0.4,0,0,1,1441.93,554.43Zm0-1.89a0.71,0.71,0,0,1-.53,0A1.15,1.15,0,0,1,1441.91,552.54Zm-0.31-2.84a0.27,0.27,0,0,1,.07,0,0.21,0.21,0,0,1,.07.06,0.33,0.33,0,0,1-.09,0A0.13,0.13,0,0,1,1441.6,549.71Zm1.6,4.66a0.46,0.46,0,0,1-.37-0.24,0.36,0.36,0,0,1,.39,0A0.13,0.13,0,0,1,1443.19,554.36Zm2.45-1.62h0.26C1445.82,552.85,1445.82,552.85,1445.64,552.75Zm0.39-22a2.34,2.34,0,0,0-1.18.21,0.35,0.35,0,0,1-.32,0,2.69,2.69,0,0,1,1.75-.31A0.2,0.2,0,0,1,1446,530.74Zm0.48,18.94c0.12-.15.19-0.13,0.29,0Zm0.26-19.05a1,1,0,0,1,.83-0.24l0,0a1.26,1.26,0,0,0-.63.23A0.11,0.11,0,0,1,1446.78,530.63Zm0.75,22.3a0.66,0.66,0,0,1-.14-0.19c0-.1.07-0.12,0.15-0.12a0.11,0.11,0,0,1,.14.13A0.65,0.65,0,0,1,1447.52,552.93Zm0.23-24.41a0.1,0.1,0,0,1-.15,0v0.55h-4.13v0.32a0.2,0.2,0,0,1,.11,0,0.11,0.11,0,0,1,.06.09,0.14,0.14,0,0,1-.17.1v1.57l0.57,0.13a0.33,0.33,0,0,1-.13.07l-0.44-.07v3.37h-1.7v-3.18a0.32,0.32,0,0,1-.14-0.06,0.26,0.26,0,0,1,.07-0.12h0.07v-1.93a0.61,0.61,0,0,1-.85-0.09,7.83,7.83,0,0,0,.85,0v-5.74a2.23,2.23,0,0,1-.92-0.21l0.16,0a2.5,2.5,0,0,0,.6-0.07,0.45,0.45,0,0,1,.17,0v-1.41h5.83v1.7h-4.13v1.57h0a0.56,0.56,0,0,1,.2,0l1,0.12a0.61,0.61,0,0,1,.14.06,0.47,0.47,0,0,1-.13.07l-1.09,0a0.34,0.34,0,0,1-.15,0v2h4.13V528a0.33,0.33,0,0,1,.14.14,0.42,0.42,0,0,1,0,.17A0.27,0.27,0,0,1,1447.75,528.52Zm-3.82-1.56-0.21.14C1443.75,526.93,1443.75,526.93,1443.93,527Zm2.82-.2c0.12-.1.12-0.1,0.26,0C1446.93,526.85,1446.85,526.8,1446.75,526.76Zm0.82,0a0.11,0.11,0,0,1,0,0l0.12,0.07a0.28,0.28,0,0,1-.1.05A0.26,0.26,0,0,1,1447.58,526.8Zm0.06-1.46-0.6,0a0.47,0.47,0,0,1-.33-0.12,0.53,0.53,0,0,1,.44-0.22c0.32,0,.63.07,1,0.12A0.51,0.51,0,0,1,1447.64,525.34Zm0.42-13.4a0.76,0.76,0,0,1,.08-0.15,0.62,0.62,0,0,1,.1.09,0.31,0.31,0,0,1-.1.11A0.15,0.15,0,0,1,1448.06,511.94Zm0.12,9.52a0.27,0.27,0,0,1,.21-0.28c0.11,0,.22-0.11.31,0a0.19,0.19,0,0,1,0,.07,0.43,0.43,0,0,0-.36.22,0.13,0.13,0,0,1-.11,0A0.11,0.11,0,0,1,1448.18,521.46Zm0.78,5.84a1.21,1.21,0,0,1-.55-0.14c-0.21-.12-0.21-0.3,0-0.54v0.28a0.53,0.53,0,0,0,.36-0.22,0.22,0.22,0,0,1,.28-0.1,0.34,0.34,0,0,1,.25.29,2.62,2.62,0,0,0,.05.28A0.43,0.43,0,0,1,1449,527.3Zm0.36-4.1a0.89,0.89,0,0,1-.11-0.23,0.54,0.54,0,0,1,0-.19l0.08,0.13c0.08,0.16.08,0.16,0.23,0.07l0.09,0,0.24,0,0,0.06a4.46,4.46,0,0,1-.33.3A0.17,0.17,0,0,1,1449.32,523.19Zm0.14,6.63a0.07,0.07,0,0,1,0,0l0,0a0.07,0.07,0,0,1,0,0Zm0.12,21.49c0.13-.16.23-0.16,0.48,0A0.41,0.41,0,0,1,1449.59,551.32Zm0.7-17.56,0,0,0,0,0.06,0Zm0.57-4.12c-0.11,0-.23,0-0.38,0l-0.16-.25a0.81,0.81,0,0,1,.59,0,0.11,0.11,0,0,1,0,.1A0.16,0.16,0,0,1,1450.85,529.63Zm0.32-2.26-0.6-.07,0.23-.28,0.39,0.28Zm0.17-2c-0.1,0-.16,0-0.16-0.18l0.21,0.1A0.2,0.2,0,0,1,1451.34,525.34Zm0.14,1.89a0.07,0.07,0,0,1,0,0l0,0a0.07,0.07,0,0,1,0,0Zm0.3-.09a0.47,0.47,0,0,1,.5-0.08A0.52,0.52,0,0,1,1451.78,527.14Zm0.59-4.1a0.82,0.82,0,0,1-.18,0,0.46,0.46,0,0,0-.39,0,1.35,1.35,0,0,1-1.18,0,0.71,0.71,0,0,1-.26-0.23,0.15,0.15,0,0,1,.13-0.26,0.39,0.39,0,0,1,.17,0,0.31,0.31,0,0,0,.47-0.12l0.06,0,0,0.25a0.66,0.66,0,0,1,.44,0l-0.1.18c0.08,0.09.13,0,.18,0a0.75,0.75,0,0,1,.16-0.16c0.16-.07.32-0.13,0.5-0.2Zm0.1-2.07,0.29-.18C1452.71,521,1452.68,521.06,1452.47,521Zm0.46,2.32a0.07,0.07,0,0,1,0-.06c0-.08.1-0.07,0.18,0A0.1,0.1,0,0,1,1452.93,523.3Zm0-2.7a0.21,0.21,0,0,1-.18,0,0.28,0.28,0,0,1-.08-0.19,0.61,0.61,0,0,1,.07-0.19,0.22,0.22,0,0,0-.12-0.33l-0.18-.12a0.22,0.22,0,0,1,.25,0c0.31,0.07.31,0.07,0.49-.19a0.38,0.38,0,0,1,.08-0.07,0.25,0.25,0,0,1,.09.33,0.28,0.28,0,0,1-.36.22,0.29,0.29,0,0,0,.27.18,0.13,0.13,0,0,1,.14.13C1453.21,520.44,1453.06,520.53,1452.91,520.6Zm0.22-4.6c0.18-.13.2-0.13,0.27,0.11Zm0.15-1a0.46,0.46,0,0,0-.25-0.09l-0.26,0v-0.06l0.25-.14a1.93,1.93,0,0,0,.24-0.12,0.18,0.18,0,0,1,.21,0l0.4,0.19,0,0.16L1454,515l-0.08.19,0.24,0.11-0.56.35A0.78,0.78,0,0,0,1453.28,515Zm0.3,7.72a0.78,0.78,0,0,1,.56-0.49c0,0.1.06,0.2,0.08,0.3a0.19,0.19,0,0,1,0,.14,0.35,0.35,0,0,1-.5.11Zm0.16,4a0.12,0.12,0,0,1,0-.11c0-.1.16-0.11,0.34,0C1453.94,526.73,1453.83,526.79,1453.74,526.72Zm0.39-3.71a1.56,1.56,0,0,0,.4-0.21,0.23,0.23,0,0,1,.38.1,1.29,1.29,0,0,0,.21.25,0.15,0.15,0,0,1,0,.24l-0.27.33c-0.27-.13-0.54-0.24-0.78-0.39S1453.93,523.07,1454.13,523Zm1.06,5.28c-0.11.15-.18,0.16-0.42,0-0.25.22-.38,0.23-0.5,0.06l0.44-.26a0.18,0.18,0,0,1,.14,0Zm-0.22-3.11c0.12-.06.16,0,0.19,0.09s0,0.18-.12.21Zm-0.32,4.62a0.34,0.34,0,0,1-.38,0c-0.07-.06-0.07-0.16,0-0.19,0.23-.07.47-0.13,0.71-0.18a0.68,0.68,0,0,1,.24.05Zm0.69-3.26a0.26,0.26,0,0,1,.36-0.05l-0.34.1Zm0.11,0.3,0-.06,0.44-.17A0.32,0.32,0,0,1,1455.45,526.83Zm0.73-9a1.26,1.26,0,0,1-.14.21,0.29,0.29,0,0,0,0,.37,1.77,1.77,0,0,1,.09.21,0.43,0.43,0,0,1-.6-0.28l0.16-.17-0.1-.17a0.14,0.14,0,0,1,0-.07,0.54,0.54,0,0,0,.15-0.44,0.18,0.18,0,0,0-.07-0.14,0.24,0.24,0,0,0-.16,0,0.51,0.51,0,0,0-.07.07,0.14,0.14,0,0,1-.25-0.11c0-.21,0-0.43,0-0.66l-0.22-.21a1.67,1.67,0,0,1,.56,0,0.48,0.48,0,0,0,.42.49l-0.11.08c-0.12.09-.12,0.13,0,0.24l0.12,0.15a1,1,0,0,0,.19.19A0.15,0.15,0,0,1,1456.18,517.85Zm0.2-4.61a2.74,2.74,0,0,1,.38,0,1,1,0,0,0,.3,0,0.86,0.86,0,0,1,.52,0l0,0.07a0.76,0.76,0,0,0-.15.09,0.42,0.42,0,0,0-.06.13,0.75,0.75,0,0,0,.15,0,0.33,0.33,0,0,0,.11,0l0.47,0.35a0.49,0.49,0,0,1-.4,0l-0.38-.13a0.48,0.48,0,0,1-.18-0.08,0.71,0.71,0,0,0-.88-0.14l-0.09,0C1456.2,513.34,1456.24,513.27,1456.37,513.24Zm1.08,7.16a0.27,0.27,0,0,1,0,.09c-0.12,0-.16,0-0.19-0.15A0.72,0.72,0,0,1,1457.45,520.4Zm-0.19-.74a1.56,1.56,0,0,1-.62-0.33,0.33,0.33,0,0,1,0-.1l0.38,0a2.53,2.53,0,0,1,.29.08,0.17,0.17,0,0,1,.15.18A0.17,0.17,0,0,1,1457.27,519.66Zm0.12-4c-0.24-.07-0.47-0.17-0.73-0.27a0.67,0.67,0,0,1,.46-0.45,1.22,1.22,0,0,1,0,.16c0,0.22,0,.22.25,0.27l0.32,0.08A0.29,0.29,0,0,1,1457.39,515.63Zm0.09-.43a0.13,0.13,0,0,1,.09-0.18,0.07,0.07,0,0,1,.06,0,0.14,0.14,0,0,1-.12.19Zm0.54,1.19c0.07,0,.07,0,0,0.17l-0.37-.07-0.1-.21Zm-1.43,4.74a1,1,0,0,0,.56-0.2,0.17,0.17,0,0,1,.27,0l-0.15.09a0.47,0.47,0,0,0-.29.36,0.18,0.18,0,0,0,.19.24l0.29,0v0l-0.12.07c-0.11,0-.22.09-0.32,0.15a0.36,0.36,0,0,1-.54-0.08,0.5,0.5,0,0,1-.17-0.38,0.58,0.58,0,0,0-.08-0.22A0.54,0.54,0,0,1,1456.59,521.12Zm-0.29,2.42,0,0a1.31,1.31,0,0,0,.36.09,1.44,1.44,0,0,0,.37-0.12,0.27,0.27,0,0,1,0,.13,0.69,0.69,0,0,1-.71,0A0.3,0.3,0,0,1,1456.3,523.55Zm0.9,1.08,0,0-0.14-.07,0-.05Zm-0.38,7.11a0.25,0.25,0,0,1,0-.07,0.15,0.15,0,0,1,.06,0,0.08,0.08,0,0,1,0,0A0.28,0.28,0,0,1,1456.82,531.73Zm-0.25-1.92a0.53,0.53,0,0,1,.5-0.17A0.45,0.45,0,0,1,1456.56,529.82Zm0.5-.17a0.53,0.53,0,0,1,0-.17c0.07-.1.15-0.09,0.23,0A0.27,0.27,0,0,1,1457.07,529.64Zm-0.12-3.17,0.57-.05A0.53,0.53,0,0,1,1456.94,526.48Zm0.7,5.34a0.21,0.21,0,0,1-.1-0.09,0.42,0.42,0,0,1,.08-0.1l0.1,0.12A0.22,0.22,0,0,1,1457.65,531.82Zm0.08-14.46a1.2,1.2,0,0,1,.75.17,0.36,0.36,0,0,0,.45,0l0.2-.14a1.14,1.14,0,0,1,.07.23c0,0.17-.06.23-0.23,0.2a0.46,0.46,0,0,0-.48.11A1.07,1.07,0,0,1,1457.73,517.36Zm0.29,10.45-0.08-.08a0.5,0.5,0,0,1,.07-0.11,0.58,0.58,0,0,1,.05.13A0.15,0.15,0,0,1,1458,527.81Zm0-2.75a0.39,0.39,0,0,1-.11,0A0.25,0.25,0,0,1,1458,525a0.11,0.11,0,0,1,.06.06A0.08,0.08,0,0,1,1458,525.07Zm0.1,3-0.05-.06,0.09-.06a0.11,0.11,0,0,1,0,0Zm0.77-3.28a0.09,0.09,0,0,1,0-.07,0.08,0.08,0,0,1,.06,0,0.25,0.25,0,0,1,.08.08A0.23,0.23,0,0,1,1458.9,524.82Zm0.08-5.68a0.34,0.34,0,0,1,0,.07,1.05,1.05,0,0,1-.82,0,6.08,6.08,0,0,1,1-.48l0,0-0.12.1C1458.87,519,1458.87,519,1459,519.14Zm0.31,1.16-0.06-.16c0.33-.07.39-0.05,0.5,0.17l-0.31.19c-0.09.07-.12,0.23-0.29,0.19A0.34,0.34,0,0,1,1459.28,520.3Zm0.47,5.53a0.84,0.84,0,0,1,.41.33,1.14,1.14,0,0,1-1-.22A1.16,1.16,0,0,1,1459.75,525.83Zm0.16,1.76a0.08,0.08,0,0,1,0,0l0,0,0,0Zm-0.07,4a0.25,0.25,0,0,1,0-.08,0.07,0.07,0,0,1,0,0,0.35,0.35,0,0,1,.08.07Zm0.26,0a0.39,0.39,0,0,1,.52.19A0.64,0.64,0,0,1,1460.11,531.53Zm0.65,0.27-0.12-.08,0.14,0Zm0.45-3.84c-0.18-.07-0.34-0.17-0.51-0.26,0.19-.13.2-0.13,0.9,0.13A0.3,0.3,0,0,1,1461.21,528Zm-0.06-.63-0.27-.2a7.74,7.74,0,0,1,.87,0v0.06Zm1.07-2.73a0.15,0.15,0,0,1-.09-0.09,0.58,0.58,0,0,1,.12-0.14,0.42,0.42,0,0,1,.06.16A0.12,0.12,0,0,1,1462.22,524.6Zm0-.45c-0.11,0-.14-0.07-0.14-0.22a0.29,0.29,0,0,1,.11-0.1,0.23,0.23,0,0,1,.18.21A0.11,0.11,0,0,1,1462.25,524.16Z" transform="translate(-1363.45 -500.01)"/></svg>