<?xml version="1.0" encoding="UTF-8"?>
<svg width="41px" height="41px" viewBox="0 0 41 41" version="1.1" xmlns="http://www.w3.org/2000/svg" xmlns:xlink="http://www.w3.org/1999/xlink">
    <!-- Generator: Sketch 41.2 (35397) - http://www.bohemiancoding.com/sketch -->
    <title>female</title>
    <desc>Created with Sketch.</desc>
    <defs></defs>
    <g id="Page-1" stroke="none" stroke-width="1" fill="none" fill-rule="evenodd">
        <g id="Event-Page-2" transform="translate(-419.000000, -706.000000)" stroke="#CE5100" stroke-width="1.3">
            <g id="female" transform="translate(419.000000, 706.000000)">
                <path d="M39.7427027,20.3254054 C39.7427027,31.0216216 31.0681081,39.6962162 20.3675676,39.6962162 C9.66594595,39.6962162 0.996756757,31.0216216 0.996756757,20.3254054 C0.996756757,9.62378378 9.66594595,0.95027027 20.3675676,0.95027027 C31.0681081,0.95027027 39.7427027,9.62378378 39.7427027,20.3254054 Z" id="Stroke-1"></path>
                <path d="M12.3221622,13.2302703 C10.68,10.6378378 12.2378378,7.52540541 14.92,7.52540541 C17.9481081,7.52540541 19.9362162,12.627027 17.8594595,12.627027 C15.9589189,12.627027 16.2162162,7.17945946 20.1945946,7.17945946 C24.1718919,7.17945946 24.6075676,12.627027 22.7027027,12.627027 C20.5405405,12.627027 22.6183784,7.60972973 25.6421622,7.60972973 C28.4118919,7.60972973 29.9664865,10.6378378 28.2389189,13.3189189" id="Stroke-2" stroke-linecap="round" stroke-linejoin="round"></path>
                <path d="M29.5351351,24.3027027 C29.5351351,29.3664865 25.4302703,33.4713514 20.3675676,33.4713514 C15.3037838,33.4713514 11.1989189,29.3664865 11.1989189,24.3027027 C11.1989189,19.24 15.3037838,15.1351351 20.3675676,15.1351351 C25.4302703,15.1351351 29.5351351,19.24 29.5351351,24.3027027 Z" id="Stroke-3" stroke-linecap="round" stroke-linejoin="round"></path>
                <path d="M13.2767568,18.5091892 C14.92,16.4313514 17.5124324,15.1351351 20.3675676,15.1351351 C23.2216216,15.1351351 25.7308108,16.4313514 27.4572973,18.5091892 C27.2,16.9513514 27.2,15.1351351 28.4118919,13.3189189 C30.0551351,10.7264865 28.4962162,7.60972973 25.8151351,7.60972973 C24.8648649,7.60972973 23.9989189,8.12972973 23.307027,8.82162162 C22.7027027,7.87135135 21.7524324,7.17945946 20.2832432,7.17945946 C18.8972973,7.17945946 17.9481081,7.87135135 17.3394595,8.73297297 C16.7351351,8.04432432 15.8702703,7.60972973 14.92,7.60972973 C12.1491892,7.60972973 10.5956757,10.6378378 12.3221622,13.3189189 C13.4497297,15.0508108 13.5351351,16.867027 13.2767568,18.5091892 Z" id="Stroke-4" stroke-linecap="round" stroke-linejoin="round"></path>
                <path d="M24.7805405,26.8118919 C24.9491892,26.4648649 25.1221622,26.2032432 25.1221622,26.0302703 C25.0378378,26.0302703 24.9491892,26.3762162 24.7805405,26.8118919 Z" id="Stroke-5" stroke-linecap="round" stroke-linejoin="round"></path>
                <path d="M15.9589189,26.8118919 C15.6972973,26.3762162 15.6118919,26.0302703 15.6118919,26.0302703 C15.6118919,26.2032432 15.6972973,26.4648649 15.9589189,26.8118919 Z" id="Stroke-6" stroke-linecap="round" stroke-linejoin="round"></path>
                <path d="M25.0378378,26.0302703 C24.6075676,25.6 22.5297297,24.3027027 20.2832432,26.5502703 C18.0324324,24.3027027 15.9589189,25.6 15.5232432,26.0302703 C15.5232432,26.0302703 15.6118919,26.3762162 15.8702703,26.8118919 C16.3891892,27.8508108 17.6854054,29.5772973 20.2832432,29.5772973 C22.8756757,29.5772973 24.1718919,27.8508108 24.6918919,26.8118919 C24.9491892,26.3762162 25.0378378,26.0302703 25.0378378,26.0302703 Z" id="Stroke-7" stroke-linecap="round" stroke-linejoin="round"></path>
            </g>
        </g>
    </g>
</svg>