<?xml version="1.0" encoding="UTF-8" standalone="no"?>
<svg width="42px" height="42px" viewBox="0 0 42 42" version="1.1" xmlns="http://www.w3.org/2000/svg" xmlns:xlink="http://www.w3.org/1999/xlink">
    <!-- Generator: Sketch 3.6.1 (26313) - http://www.bohemiancoding.com/sketch -->
    <title>Group 2</title>
    <desc>Created with Sketch.</desc>
    <defs></defs>
    <g id="Page-1" stroke="#ffffff" stroke-width="1" fill="none" fill-rule="evenodd">
        <g id="CHEF-ONE_Relaunch_Home" transform="translate(-932.000000, 0.000000)" fill="#888B87">
            <g id="Group-2" transform="translate(932.000000, 0.000000)">
                <path d="M20.761,1.241 L20.761,1.741 C26.148,1.742 31.02,3.923 34.55,7.453 C38.08,10.983 40.261,15.855 40.261,21.241 C40.261,26.628 38.08,31.5 34.55,35.03 C31.02,38.56 26.148,40.741 20.761,40.741 C15.375,40.741 10.503,38.56 6.973,35.03 C3.443,31.5 1.262,26.628 1.261,21.241 C1.262,15.855 3.443,10.983 6.973,7.453 C10.503,3.923 15.375,1.742 20.761,1.741 L20.761,0.741 C9.439,0.742 0.262,9.919 0.261,21.241 C0.262,32.563 9.439,41.741 20.761,41.741 C32.083,41.741 41.261,32.563 41.261,21.241 C41.261,9.919 32.083,0.742 20.761,0.741 L20.761,1.241" id="Fill-11"></path>
                <path d="M12.904,13.675 C12.457,12.975 12.264,12.26 12.264,11.595 C12.264,10.763 12.568,10.008 13.08,9.464 C13.594,8.921 14.308,8.582 15.188,8.58 C16.1,8.575 16.959,9.136 17.598,9.923 C18.237,10.698 18.611,11.692 18.602,12.281 C18.604,12.516 18.547,12.664 18.499,12.722 C18.449,12.775 18.419,12.811 18.232,12.818 C18.129,12.817 18.059,12.794 17.986,12.749 C17.879,12.683 17.761,12.541 17.673,12.313 C17.584,12.088 17.53,11.786 17.53,11.452 C17.528,10.736 17.777,9.884 18.289,9.248 C18.806,8.612 19.547,8.162 20.678,8.157 C21.831,8.162 22.594,8.632 23.127,9.294 C23.656,9.956 23.913,10.836 23.911,11.557 C23.912,11.981 23.819,12.344 23.692,12.552 C23.629,12.658 23.563,12.724 23.502,12.763 C23.439,12.802 23.381,12.821 23.291,12.822 C23.07,12.816 23.014,12.768 22.961,12.71 C22.909,12.65 22.851,12.51 22.852,12.276 C22.842,11.7 23.23,10.717 23.886,9.95 C24.541,9.172 25.422,8.615 26.335,8.62 C27.216,8.622 27.93,8.961 28.444,9.503 C28.956,10.047 29.259,10.801 29.26,11.633 C29.259,12.298 29.066,13.014 28.619,13.715 C28.47,13.948 28.538,14.257 28.771,14.406 C29.004,14.554 29.313,14.486 29.461,14.253 C30.006,13.401 30.26,12.494 30.259,11.633 C30.26,10.557 29.865,9.554 29.172,8.818 C28.481,8.081 27.482,7.618 26.335,7.62 C25.01,7.625 23.898,8.386 23.122,9.306 C22.345,10.238 21.861,11.333 21.852,12.276 C21.852,12.657 21.937,13.039 22.191,13.349 C22.444,13.661 22.858,13.828 23.291,13.822 C23.562,13.823 23.825,13.745 24.04,13.605 C24.366,13.396 24.579,13.077 24.714,12.726 C24.849,12.373 24.91,11.976 24.91,11.557 C24.908,10.614 24.599,9.545 23.911,8.672 C23.227,7.801 22.124,7.151 20.678,7.157 C19.261,7.151 18.179,7.774 17.508,8.624 C16.833,9.473 16.533,10.519 16.531,11.452 C16.532,12.036 16.646,12.583 16.913,13.029 C17.047,13.252 17.224,13.45 17.45,13.593 C17.675,13.737 17.949,13.819 18.232,13.818 C18.648,13.826 19.054,13.647 19.288,13.335 C19.525,13.026 19.601,12.656 19.602,12.281 C19.594,11.343 19.132,10.236 18.375,9.292 C17.617,8.36 16.519,7.584 15.188,7.58 C14.041,7.578 13.043,8.042 12.352,8.779 C11.659,9.516 11.264,10.519 11.264,11.595 C11.264,12.455 11.517,13.362 12.062,14.213 C12.21,14.446 12.519,14.515 12.752,14.366 C12.985,14.217 13.053,13.908 12.904,13.675" id="Fill-12"></path>
                <path d="M20.761,15.903 L20.761,16.403 C23.239,16.403 25.478,17.406 27.102,19.03 C28.726,20.654 29.729,22.893 29.729,25.371 C29.729,27.849 28.726,30.087 27.102,31.712 C25.478,33.335 23.239,34.338 20.761,34.338 C18.284,34.338 16.045,33.335 14.421,31.712 C12.797,30.087 11.794,27.849 11.794,25.371 C11.794,22.893 12.797,20.654 14.421,19.03 C16.045,17.406 18.284,16.403 20.761,16.403 L20.761,15.403 C15.256,15.403 10.794,19.866 10.794,25.371 C10.794,30.876 15.256,35.338 20.761,35.338 C26.266,35.338 30.729,30.876 30.729,25.371 C30.729,19.866 26.266,15.403 20.761,15.403 L20.761,15.903" id="Fill-13"></path>
                <path d="M13.456,19.346 L13.842,19.665 C15.487,17.672 17.975,16.403 20.758,16.403 C23.555,16.403 26.046,17.683 27.696,19.688 C27.84,19.863 28.083,19.919 28.29,19.825 C28.496,19.731 28.613,19.511 28.576,19.288 C28.495,18.808 28.444,18.307 28.444,17.793 C28.445,16.647 28.694,15.449 29.457,14.254 C30.002,13.402 30.255,12.495 30.255,11.635 C30.255,10.559 29.86,9.555 29.167,8.818 C28.475,8.081 27.477,7.618 26.331,7.62 C25.166,7.622 24.16,8.217 23.411,8.988 L23.77,9.336 L24.193,9.071 C23.539,8.01 22.342,7.149 20.678,7.157 C19.064,7.149 17.893,7.961 17.252,8.984 L17.674,9.252 L18.031,8.903 C17.304,8.157 16.33,7.581 15.188,7.58 C14.04,7.578 13.042,8.041 12.351,8.778 C11.658,9.514 11.263,10.517 11.263,11.593 C11.263,12.454 11.517,13.361 12.062,14.213 C12.826,15.413 13.078,16.645 13.08,17.826 C13.08,18.32 13.034,18.805 12.962,19.27 C12.928,19.492 13.046,19.71 13.252,19.803 C13.457,19.895 13.699,19.838 13.842,19.665 L13.456,19.346 L13.951,19.423 C14.029,18.917 14.08,18.381 14.08,17.826 C14.081,16.502 13.788,15.057 12.904,13.675 C12.457,12.975 12.264,12.259 12.263,11.593 C12.263,10.761 12.567,10.007 13.079,9.464 C13.593,8.921 14.307,8.582 15.188,8.58 C15.977,8.578 16.711,8.983 17.316,9.602 C17.422,9.711 17.574,9.766 17.725,9.75 C17.876,9.734 18.014,9.649 18.095,9.521 C18.603,8.741 19.395,8.165 20.678,8.157 C21.997,8.164 22.819,8.779 23.346,9.602 C23.428,9.732 23.564,9.817 23.717,9.833 C23.87,9.85 24.021,9.795 24.128,9.685 C24.752,9.043 25.525,8.617 26.331,8.62 C27.211,8.621 27.925,8.961 28.439,9.504 C28.951,10.048 29.255,10.803 29.255,11.635 C29.254,12.3 29.061,13.015 28.615,13.715 C27.736,15.087 27.442,16.501 27.444,17.793 C27.444,18.373 27.502,18.93 27.589,19.453 L28.082,19.37 L28.469,19.053 C26.64,16.828 23.865,15.403 20.758,15.403 C17.667,15.403 14.896,16.815 13.071,19.028 L13.456,19.346 L13.951,19.423 L13.456,19.346" id="Fill-14"></path>
                <path d="M25.649,27.146 L26.007,26.798 C25.823,26.612 25.53,26.402 25.108,26.211 C24.69,26.024 24.151,25.871 23.532,25.87 C22.585,25.866 21.462,26.246 20.4,27.315 L20.753,27.669 L21.107,27.315 C20.031,26.232 18.913,25.845 17.969,25.849 C17.346,25.849 16.807,26.009 16.39,26.203 C15.97,26.399 15.678,26.618 15.501,26.796 C15.374,26.926 15.327,27.117 15.38,27.291 C15.386,27.313 15.5,27.684 15.767,28.192 L16.209,27.96 L16.626,27.683 L16.61,27.659 C16.463,27.438 16.167,27.371 15.938,27.506 C15.71,27.642 15.627,27.933 15.75,28.168 C16.053,28.744 16.562,29.512 17.373,30.149 C18.182,30.786 19.305,31.279 20.75,31.276 C22.194,31.279 23.317,30.786 24.126,30.149 C24.937,29.512 25.446,28.744 25.748,28.168 C25.872,27.933 25.789,27.642 25.561,27.506 C25.333,27.371 25.037,27.438 24.89,27.658 L24.874,27.683 L25.29,27.96 L25.728,28.2 C26.01,27.684 26.121,27.313 26.128,27.287 C26.179,27.114 26.133,26.927 26.007,26.798 L25.649,27.146 L25.169,27.005 L25.167,27.011 C25.152,27.058 25.058,27.34 24.851,27.72 C24.723,27.955 24.802,28.249 25.031,28.388 C25.259,28.526 25.557,28.46 25.705,28.238 L25.721,28.214 L25.306,27.936 L24.863,27.704 C24.607,28.194 24.17,28.845 23.509,29.362 C22.846,29.879 21.97,30.274 20.75,30.276 C19.529,30.274 18.653,29.879 17.99,29.362 C17.329,28.845 16.892,28.194 16.636,27.704 L16.193,27.936 L15.777,28.213 L15.793,28.237 C15.94,28.458 16.236,28.525 16.464,28.39 C16.693,28.254 16.775,27.962 16.652,27.728 C16.538,27.511 16.457,27.324 16.406,27.193 L16.351,27.044 L16.339,27.009 L16.337,27.001 L15.858,27.146 L16.215,27.496 C16.277,27.431 16.503,27.25 16.811,27.11 C17.121,26.965 17.519,26.849 17.969,26.849 C18.648,26.853 19.468,27.097 20.4,28.022 C20.493,28.115 20.622,28.169 20.753,28.169 C20.885,28.169 21.014,28.115 21.107,28.022 C22.02,27.116 22.841,26.875 23.532,26.87 C23.984,26.87 24.387,26.984 24.7,27.124 C25.01,27.26 25.239,27.438 25.29,27.495 L25.649,27.146 L25.169,27.005 L25.649,27.146" id="Fill-17"></path>
                <path d="M25.31,27.936 L25.734,28.2 C25.854,28.007 25.95,27.825 26.02,27.659 C26.088,27.487 26.142,27.358 26.149,27.15 C26.149,26.901 25.966,26.69 25.72,26.655 C25.473,26.62 25.239,26.771 25.169,27.01 L25.167,27.016 C25.153,27.062 25.063,27.334 24.868,27.702 C24.741,27.94 24.826,28.235 25.06,28.37 C25.295,28.504 25.592,28.429 25.734,28.2 L25.31,27.936 L25.751,28.17 C26.015,27.672 26.121,27.315 26.129,27.291 L25.649,27.15 L25.149,27.15 L25.305,27.15 L25.15,27.123 L25.149,27.15 L25.305,27.15 L25.15,27.123 C25.152,27.147 25.053,27.41 24.885,27.672 L25.31,27.936 L25.751,28.17 L25.31,27.936" id="Fill-15"></path>
                <path d="M16.201,27.936 L16.645,27.705 C16.534,27.493 16.456,27.313 16.407,27.188 L16.354,27.045 L16.343,27.011 L16.34,27.004 C16.268,26.768 16.033,26.619 15.789,26.655 C15.544,26.692 15.362,26.902 15.362,27.15 C15.368,27.354 15.42,27.484 15.489,27.658 C15.559,27.825 15.656,28.009 15.779,28.203 C15.922,28.43 16.218,28.503 16.451,28.369 C16.684,28.235 16.769,27.942 16.645,27.705 L16.201,27.936 L16.624,27.669 C16.527,27.517 16.454,27.375 16.41,27.27 L16.366,27.148 L16.361,27.125 L16.215,27.15 L16.362,27.15 L16.361,27.125 L16.215,27.15 L16.362,27.15 L15.862,27.15 L15.384,27.296 C15.391,27.318 15.5,27.672 15.758,28.167 L16.201,27.936 L16.624,27.669 L16.201,27.936" id="Fill-16"></path>
            </g>
        </g>
    </g>
</svg>