<?xml version="1.0" encoding="utf-8"?>
<!-- Generator: Adobe Illustrator 19.1.0, SVG Export Plug-In . SVG Version: 6.00 Build 0)  -->
<svg version="1.1" id="Ebene_1" xmlns="http://www.w3.org/2000/svg" xmlns:xlink="http://www.w3.org/1999/xlink" x="0px" y="0px"
	 viewBox="-879.8 521.2 45.7 40.9" style="enable-background:new -879.8 521.2 45.7 40.9;" xml:space="preserve">
<style type="text/css">
	.st0{fill:#666;}
</style>
<g>
	<path class="st0" d="M-841.8,546.6c-0.5,0-1-0.1-1.5-0.2c-1.8-0.6-3.1-2.2-3.7-4.6c-3.9,1.4-6.2,0.6-7.4-0.4
		c-1.5-1.2-2.2-3.3-1.8-5.4c0.4-2.1,1.6-3.7,3.4-4.3c6.6-2.3,8.4-4,10.1-9.6l0.3-0.8l0.6,0.6c0.3,0.3,6.2,6.8,7.3,11.1
		c1.2,4.6,0.3,8.9-2.6,11.6C-838.6,545.9-840.2,546.6-841.8,546.6z M-846.1,541.3c0.5,2.2,1.6,3.6,3.1,4.1c1.6,0.5,3.6-0.1,5.2-1.6
		c2.6-2.4,3.4-6.4,2.3-10.6c-0.9-3.3-5-8.3-6.5-10c-1.8,5.2-4,7.1-10.4,9.4c-1.4,0.5-2.5,1.8-2.8,3.6c-0.3,1.8,0.3,3.5,1.5,4.5
		c1.5,1.2,3.8,1.2,6.6,0.2c-0.1-1.2,0-2.5,0.7-3c0.4-0.3,0.8-0.3,1.3-0.1c0.4,0.2,0.7,0.5,0.8,1C-844.3,539.4-845,540.4-846.1,541.3
		z M-845.8,538.5c-0.1,0-0.1,0-0.1,0c-0.2,0.2-0.4,0.7-0.4,1.6c0.6-0.6,0.9-1.2,0.9-1.4c0,0,0-0.1-0.2-0.2
		C-845.7,538.5-845.7,538.5-845.8,538.5z"/>
	<path class="st0" d="M-861.4,562.1c-0.6,0-1.2-0.3-1.7-0.8c-0.5-0.5-0.7-1-0.7-1.7c0.1-1.7,1.9-3.7,4.4-6
		c-0.3-3.7-1.4-8.6-4.1-14.1c-6.5-13.4-15.8-16.8-15.9-16.8c-0.3-0.1-0.4-0.4-0.3-0.6c0.1-0.3,0.4-0.4,0.6-0.3
		c0.4,0.1,9.8,3.5,16.5,17.4c2.5,5.2,3.8,9.9,4.2,13.7c0.7-0.6,1.4-1.2,2.2-1.9c1-0.9,2.1-1.8,3.1-2.6c3.3-2.9,5.9-7.2,5.9-7.3
		c0.1-0.2,0.4-0.3,0.7-0.2c0.2,0.1,0.3,0.4,0.2,0.7c-0.1,0.2-2.7,4.5-6.1,7.5c-1,0.9-2,1.8-3.1,2.7c-0.9,0.8-1.9,1.6-2.7,2.4
		c0.2,4-0.6,6.8-1.9,7.7C-860.7,562-861,562.1-861.4,562.1z M-859.4,554.9c-2,1.8-3.4,3.5-3.5,4.7c0,0.4,0.1,0.7,0.4,0.9
		c0.9,0.9,1.4,0.5,1.5,0.4C-860,560.3-859.3,558.1-859.4,554.9z"/>
</g>
</svg>
