<?xml version="1.0" encoding="UTF-8" standalone="no"?>
<svg width="24px" height="21px" viewBox="0 0 24 21" version="1.1" xmlns="http://www.w3.org/2000/svg" xmlns:xlink="http://www.w3.org/1999/xlink">
    <!-- Generator: Sketch 41.2 (35397) - http://www.bohemiancoding.com/sketch -->
    <title>vegan</title>
    <desc>Created with Sketch.</desc>
    <defs></defs>
    <g id="Page-1" stroke="none" stroke-width="1" fill="none" fill-rule="evenodd">
        <g id="Confirm-2" transform="translate(-638.000000, -413.000000)" stroke="#CE5100" stroke-width="0.8">
            <g id="Content" transform="translate(130.000000, 110.000000)">
                <g id="Button-3" transform="translate(470.000000, 286.000000)">
                    <g id="vegan" transform="translate(38.000000, 17.000000)">
                        <path d="M16.6843243,9.74424242 C16.5363784,8.82363636 16.7837838,8.04909091 17.3301892,8.29090909 C17.8790811,8.48484848 17.4806216,9.21151515 16.6843243,9.74424242 C17.6285676,14.5454545 24.0443243,11.6854545 22.4535946,5.86666667 C21.9047027,3.83030303 18.8718108,0.582424242 18.8718108,0.582424242 C17.9785405,3.39515152 16.9827027,4.26606061 13.6999189,5.38121212 C11.0145135,6.30181818 11.5634054,11.7824242 16.6843243,9.74424242 Z" id="Stroke-1"></path>
                        <path d="M16.5848649,9.79393939 C16.5848649,9.79393939 15.2931351,11.9272727 13.6004595,13.3806061 C10.8659459,15.7575758 7.38424324,18.1345455 8.67845946,19.3466667 C10.4196216,21.0418182 12.1091892,16.0963636 8.52802703,8.87333333 C5.19613514,2.1830303 0.473675676,0.582424242 0.473675676,0.582424242" id="Stroke-2"></path>
                    </g>
                </g>
            </g>
        </g>
    </g>
</svg>