<?xml version="1.0" encoding="utf-8"?>
<!-- Generator: Adobe Illustrator 19.1.0, SVG Export Plug-In . SVG Version: 6.00 Build 0)  -->
<svg version="1.1" id="Ebene_1" xmlns="http://www.w3.org/2000/svg" xmlns:xlink="http://www.w3.org/1999/xlink" x="0px" y="0px"
	 viewBox="-909 491 44.8 43" style="enable-background:new -909 491 44.8 43;" xml:space="preserve">
<style type="text/css">
	.st0{fill:none;stroke:#CE5100;stroke-miterlimit:10;}
</style>
<path class="st0" d="M-872.6,509c3.7,1.9,5.4,6.2,3.7,10.8s-4.2,2.9-6.2,0c-2.6-3.9-4.5-8.9-2.8-10.8
	C-876.3,507.1-872.6,509-872.6,509z"/>
<path class="st0" d="M-908.4,507c-2.7-7.9,4.5-19.7,19.1-14.8c14.9,5,23.9,15.9,23.9,26.6c0,11.9-17.9,22.8-24.2,5
	C-892.7,514.9-903.5,521.8-908.4,507z"/>
<line class="st0" x1="-907.2" y1="491" x2="-864.2" y2="534"/>
<line class="st0" x1="-907.2" y1="534" x2="-864.2" y2="491"/>
</svg>
