<?xml version="1.0" encoding="UTF-8" standalone="no"?>
<svg width="16px" height="16px" viewBox="0 0 16 16" version="1.1" xmlns="http://www.w3.org/2000/svg" xmlns:xlink="http://www.w3.org/1999/xlink">
    <!-- Generator: Sketch 42 (36781) - http://www.bohemiancoding.com/sketch -->
    <title>whatsapp-logo</title>
    <desc>Created with Sketch.</desc>
    <defs></defs>
    <g id="Page-1" stroke="none" stroke-width="1" fill="none" fill-rule="evenodd">
        <g id="Frontpage-Host" transform="translate(-765.000000, -2346.000000)" fill-rule="nonzero" fill="#FFFFFF">
            <g id="Questions?" transform="translate(0.000000, 2241.000000)">
                <g id="Send-Copy" transform="translate(735.000000, 87.000000)">
                    <g id="whatsapp-logo" transform="translate(30.000000, 18.000000)">
                        <g id="Capa_1">
                            <path d="M16,7.79395556 C16,12.0984889 12.4837333,15.5879111 8.14542222,15.5879111 C6.76817778,15.5879111 5.47431111,15.2359111 4.34862222,14.6181333 L0,16 L1.41777778,11.8183111 C0.702577778,10.6439111 0.290666667,9.26648889 0.290666667,7.79395556 C0.290666667,3.48942222 3.80728889,0 8.14542222,0 C12.4840889,0 16,3.48942222 16,7.79395556 Z M8.14542222,1.24124444 C4.50382222,1.24124444 1.54168889,4.1808 1.54168889,7.79395556 C1.54168889,9.22773333 2.00906667,10.5555556 2.79964444,11.6357333 L1.97457778,14.0693333 L4.51235556,13.2627556 C5.55502222,13.9473778 6.80408889,14.3466667 8.1456,14.3466667 C11.7866667,14.3466667 14.7493333,11.4074667 14.7493333,7.79431111 C14.7493333,4.18115556 11.7868444,1.24124444 8.14542222,1.24124444 Z M12.1118222,9.58897778 C12.0632889,9.50951111 11.9351111,9.46151111 11.7427556,9.36604444 C11.5500444,9.27057778 10.6032,8.80817778 10.4272,8.74471111 C10.2506667,8.68106667 10.1219556,8.64906667 9.99377778,8.84017778 C9.8656,9.03146667 9.49653333,9.46151111 9.384,9.58897778 C9.27164444,9.7168 9.15946667,9.7328 8.96675556,9.63715556 C8.7744,9.54168889 8.15413333,9.33973333 7.41866667,8.68906667 C6.8464,8.18275556 6.45991111,7.55768889 6.34755556,7.36622222 C6.23537778,7.17511111 6.33582222,7.07182222 6.432,6.97671111 C6.51875556,6.89102222 6.62471111,6.7536 6.72088889,6.64213333 C6.81742222,6.53048889 6.84942222,6.45102222 6.91324444,6.32337778 C6.97777778,6.19591111 6.9456,6.08444444 6.89724444,5.98862222 C6.84924444,5.89315556 6.46382222,4.95306667 6.30346667,4.57048889 C6.14311111,4.18826667 5.98293333,4.25191111 5.8704,4.25191111 C5.75822222,4.25191111 5.62968889,4.23591111 5.50133333,4.23591111 C5.37297778,4.23591111 5.16426667,4.28373333 4.98773333,4.47484444 C4.81137778,4.66613333 4.31413333,5.12835556 4.31413333,6.06826667 C4.31413333,7.00835556 5.00373333,7.91662222 5.10026667,8.04391111 C5.19644444,8.1712 6.43182222,10.1630222 8.38915556,10.928 C10.3466667,11.6926222 10.3466667,11.4375111 10.6997333,11.4055111 C11.0524444,11.3736889 11.8385778,10.9434667 11.9996444,10.4976 C12.1596444,10.0510222 12.1596444,9.66862222 12.1118222,9.58897778 Z" id="WhatsApp"></path>
                        </g>
                    </g>
                </g>
            </g>
        </g>
    </g>
</svg>