<?xml version="1.0" encoding="UTF-8" standalone="no"?>
<svg width="14px" height="14px" viewBox="0 0 14 14" version="1.1" xmlns="http://www.w3.org/2000/svg" xmlns:xlink="http://www.w3.org/1999/xlink">
    <!-- Generator: Sketch 41.2 (35397) - http://www.bohemiancoding.com/sketch -->
    <title>Shape</title>
    <desc>Created with Sketch.</desc>
    <defs></defs>
    <g id="Page-1" stroke="none" stroke-width="1" fill="none" fill-rule="evenodd">
        <g id="Event-Page-1" transform="translate(-684.000000, -542.000000)" fill="#7F7F7F">
            <g id="Group-7" transform="translate(0.000000, 410.000000)">
                <g id="Group-3" transform="translate(202.000000, 99.000000)">
                    <g id="Location" transform="translate(427.000000, 2.000000)">
                        <g id="ic_help_outline" transform="translate(54.000000, 30.000000)">
                            <g id="Icon-24px">
                                <path d="M7.33333333,12 L8.66666667,12 L8.66666667,10.6666667 L7.33333333,10.6666667 L7.33333333,12 L7.33333333,12 Z M8,1.33333333 C4.32,1.33333333 1.33333333,4.32 1.33333333,8 C1.33333333,11.68 4.32,14.6666667 8,14.6666667 C11.68,14.6666667 14.6666667,11.68 14.6666667,8 C14.6666667,4.32 11.68,1.33333333 8,1.33333333 L8,1.33333333 Z M8,13.3333333 C5.06,13.3333333 2.66666667,10.94 2.66666667,8 C2.66666667,5.06 5.06,2.66666667 8,2.66666667 C10.94,2.66666667 13.3333333,5.06 13.3333333,8 C13.3333333,10.94 10.94,13.3333333 8,13.3333333 L8,13.3333333 Z M8,4 C6.52666667,4 5.33333333,5.19333333 5.33333333,6.66666667 L6.66666667,6.66666667 C6.66666667,5.93333333 7.26666667,5.33333333 8,5.33333333 C8.73333333,5.33333333 9.33333333,5.93333333 9.33333333,6.66666667 C9.33333333,8 7.33333333,7.83333333 7.33333333,10 L8.66666667,10 C8.66666667,8.5 10.6666667,8.33333333 10.6666667,6.66666667 C10.6666667,5.19333333 9.47333333,4 8,4 L8,4 Z" id="Shape"></path>
                            </g>
                        </g>
                    </g>
                </g>
            </g>
        </g>
    </g>
</svg>