<?xml version="1.0" encoding="UTF-8"?>
<svg width="61px" height="51px" viewBox="0 0 61 51" version="1.1" xmlns="http://www.w3.org/2000/svg" xmlns:xlink="http://www.w3.org/1999/xlink">
    <!-- Generator: Sketch 41.2 (35397) - http://www.bohemiancoding.com/sketch -->
    <title>left-quote</title>
    <desc>Created with Sketch.</desc>
    <defs></defs>
    <g id="Page-1" stroke="none" stroke-width="1" fill="none" fill-rule="evenodd" opacity="0.200000018">
        <g id="Job-Page@1x" transform="translate(-382.000000, -395.000000)" fill="#FFFFFF">
            <g id="Banner" transform="translate(0.000000, 360.000000)">
                <g id="left-quote" transform="translate(382.000000, 35.000000)">
                    <g id="Capa_1">
                        <g id="left-quote">
                            <path d="M19.2112593,23.2578889 C17.7328889,22.8322593 16.2545185,22.6162963 14.8164444,22.6162963 C12.5957407,22.6162963 10.7427407,23.1237778 9.30592593,23.7452222 C10.6911111,18.6741852 14.0187037,9.92422222 20.6474444,8.93885185 C21.2613333,8.84755556 21.7644074,8.40366667 21.9318889,7.80614815 L23.3806667,2.6242963 C23.5028148,2.18607407 23.4304074,1.717 23.1804444,1.3367037 C22.9304815,0.956407407 22.5287778,0.702666667 22.0785926,0.640962963 C21.5893704,0.574222222 21.0907037,0.540222222 20.5964444,0.540222222 C12.6398148,0.540222222 4.76,8.84503704 1.43492593,20.7362222 C-0.516925926,27.7125185 -1.08925926,38.2008889 3.71859259,44.8025556 C6.409,48.4965926 10.3341111,50.4692222 15.385,50.6662963 C15.4057778,50.6669259 15.4259259,50.6675556 15.4467037,50.6675556 C21.6787778,50.6675556 27.205037,46.4704444 28.8861481,40.4618889 C29.8904074,36.8698519 29.4364444,33.1027778 27.6067407,29.852 C25.7965556,26.6377407 22.8152593,24.2948889 19.2112593,23.2578889 Z" id="Shape"></path>
                            <path d="M58.2224815,29.8526296 C56.4122963,26.6377407 53.431,24.2948889 49.827,23.2578889 C48.3486296,22.8322593 46.8702593,22.6162963 45.4328148,22.6162963 C43.2121111,22.6162963 41.3584815,23.1237778 39.9216667,23.7452222 C41.3068519,18.6741852 44.6344444,9.92422222 51.2638148,8.93885185 C51.8777037,8.84755556 52.3801481,8.40366667 52.5482593,7.80614815 L53.997037,2.6242963 C54.1191852,2.18607407 54.0467778,1.717 53.7968148,1.3367037 C53.5474815,0.956407407 53.1457778,0.702666667 52.694963,0.640962963 C52.2063704,0.574222222 51.7077037,0.540222222 51.2128148,0.540222222 C43.2561852,0.540222222 35.3763704,8.84503704 32.0506667,20.7362222 C30.0994444,27.7125185 29.5271111,38.2008889 34.3355926,44.8038148 C37.0253704,48.4972222 40.9511111,50.4704815 46.0013704,50.6669259 C46.0221481,50.6675556 46.0422963,50.6681852 46.0637037,50.6681852 C52.2951481,50.6681852 57.822037,46.4710741 59.5031481,40.4625185 C60.5061481,36.8704815 60.0515556,33.1027778 58.2224815,29.8526296 Z" id="Shape"></path>
                        </g>
                    </g>
                </g>
            </g>
        </g>
    </g>
</svg>