<?xml version="1.0" encoding="utf-8"?>
<!-- Generator: Adobe Illustrator 19.1.0, SVG Export Plug-In . SVG Version: 6.00 Build 0)  -->
<svg version="1.1" id="Ebene_1" xmlns="http://www.w3.org/2000/svg" xmlns:xlink="http://www.w3.org/1999/xlink" x="0px" y="0px"
	 viewBox="-877.6 518.2 37.3 45.7" style="enable-background:new -877.6 518.2 37.3 45.7;" xml:space="preserve">
<style type="text/css">
	.st0{fill:#fff;}
</style>
<path class="st0" d="M-859,563.9c-10.3,0-18.6-8.3-18.6-18.6c0-10.3,8.3-18.6,18.6-18.6c10.3,0,18.6,8.3,18.6,18.6
	C-840.4,555.6-848.7,563.9-859,563.9z M-859,527.7c-9.7,0-17.6,7.9-17.6,17.6c0,9.7,7.9,17.6,17.6,17.6c9.7,0,17.6-7.9,17.6-17.6
	C-841.4,535.6-849.3,527.7-859,527.7z"/>
<path class="st0" d="M-855.7,560.9c-0.4,0-0.8-0.1-1.2-0.3c-1.7-0.8-2.8-3.2-1.7-7.6c-0.6-0.4-1.4-0.7-2.2-1.1
	c-7.1-3.3-16.5-7.5-16.6-7.5c-0.3-0.1-0.4-0.4-0.3-0.7c0.1-0.3,0.4-0.4,0.7-0.3c0.1,0,9.5,4.2,16.6,7.5c0.7,0.3,1.4,0.7,2,1
	c0.4-1.3,0.9-2.7,1.6-4.3c5.5-12.2,15.3-29.2,15.4-29.3c0.1-0.2,0.4-0.3,0.7-0.2c0.2,0.1,0.3,0.4,0.2,0.7
	c-0.1,0.2-9.9,17.1-15.4,29.3c-0.8,1.7-1.3,3.1-1.7,4.4c4.1,2.6,5,5.1,4.2,6.8C-853.7,560.3-854.7,560.9-855.7,560.9z M-857.7,553.5
	c-0.8,3.7,0,5.6,1.2,6.2c0.9,0.4,1.9,0,2.3-0.8C-853.6,557.7-854.3,555.7-857.7,553.5z"/>
</svg>
