<?xml version="1.0" encoding="utf-8"?>
<!-- Generator: Adobe Illustrator 19.1.0, SVG Export Plug-In . SVG Version: 6.00 Build 0)  -->
<svg version="1.1" id="Ebene_1" xmlns="http://www.w3.org/2000/svg" xmlns:xlink="http://www.w3.org/1999/xlink" x="0px" y="0px"
	 viewBox="0 0 200 60" style="enable-background:new 0 0 200 60;" xml:space="preserve">
<style type="text/css">
	.st0{clip-path:url(#SVGID_2_);fill:url(#SVGID_3_);}
	.st1{clip-path:url(#SVGID_5_);fill:url(#SVGID_6_);}
	.st2{clip-path:url(#SVGID_8_);fill:url(#SVGID_9_);}
	.st3{clip-path:url(#SVGID_11_);fill:url(#SVGID_12_);}
	.st4{fill:#FAFAFA;}
	.st5{fill:#FCFCFC;}
</style>
<g>
	<defs>
		<path id="SVGID_1_" d="M20.1,13.1v18.3v18.7c0,0.4,0.2,0.7,0.5,0.8l19.7-19.6L20.8,12.1C20.4,12.2,20.1,12.5,20.1,13.1"/>
	</defs>
	<clipPath id="SVGID_2_">
		<use xlink:href="#SVGID_1_"  style="overflow:visible;"/>
	</clipPath>
	
		<linearGradient id="SVGID_3_" gradientUnits="userSpaceOnUse" x1="-878.466" y1="602.8046" x2="-876.9845" y2="602.8046" gradientTransform="matrix(0 27.0879 27.0879 0 -16298.4521 23807.1641)">
		<stop  offset="0" style="stop-color:#207AB0"/>
		<stop  offset="0.3104" style="stop-color:#4897B5"/>
		<stop  offset="0.7749" style="stop-color:#7FBFBB"/>
		<stop  offset="1" style="stop-color:#95CEBE"/>
	</linearGradient>
	<rect x="20.1" y="12.1" class="st0" width="20.2" height="39"/>
</g>
<g>
	<defs>
		<path id="SVGID_4_" d="M20.8,12.1l19.6,19.4l5.4-5.4l-8.2-4.7c0,0,0,0-0.1-0.1h0c0,0,0,0,0,0l-15.2-8.8c-0.2-0.1-0.3-0.2-0.4-0.2
			c-0.3-0.2-0.6-0.2-0.8-0.2C21,12,20.9,12,20.8,12.1"/>
	</defs>
	<clipPath id="SVGID_5_">
		<use xlink:href="#SVGID_4_"  style="overflow:visible;"/>
	</clipPath>
	
		<linearGradient id="SVGID_6_" gradientUnits="userSpaceOnUse" x1="-809.05" y1="600.7997" x2="-807.5685" y2="600.7997" gradientTransform="matrix(17.328 0 0 -17.328 14039.3604 10432.4355)">
		<stop  offset="0" style="stop-color:#59BBAB"/>
		<stop  offset="1" style="stop-color:#E4E89A"/>
	</linearGradient>
	<rect x="20.8" y="12" class="st1" width="25" height="19.4"/>
</g>
<g>
	<defs>
		<path id="SVGID_7_" d="M20.6,51c0.2,0.1,0.5,0,0.9-0.2c0.7-0.4,12.8-7.4,15.6-9l0,0c0,0,0,0,0,0l0,0c0,0,0,0,0.1,0l0,0
			c0,0,0,0,0,0l0,0c0,0,0,0,0,0l0,0c0,0,0,0,0,0l0.1-0.1c0,0,0,0,0,0l0.1-0.1l8.2-4.7l-5.4-5.4L20.6,51z"/>
	</defs>
	<clipPath id="SVGID_8_">
		<use xlink:href="#SVGID_7_"  style="overflow:visible;"/>
	</clipPath>
	
		<linearGradient id="SVGID_9_" gradientUnits="userSpaceOnUse" x1="-897.1735" y1="634.0995" x2="-895.692" y2="634.0995" gradientTransform="matrix(0 13.6422 13.6422 0 -8617.3291 12270.9131)">
		<stop  offset="0" style="stop-color:#E53332"/>
		<stop  offset="0.1713" style="stop-color:#D43644"/>
		<stop  offset="0.7296" style="stop-color:#A23E7B"/>
		<stop  offset="1" style="stop-color:#8F4191"/>
	</linearGradient>
	<rect x="20.6" y="31.5" class="st2" width="25.2" height="19.6"/>
</g>
<g>
	<defs>
		<path id="SVGID_10_" d="M40.3,31.5l5.4,5.4l0,0l0,0l7.6-4.4c0,0,0,0,0,0l0.1,0c0,0,0,0,0,0l0,0c0,0,0,0,0.1,0h0c0,0,0.1,0,0.1,0
			c0.9-0.5,0.8-1.2,0.1-1.6l-0.1,0c0,0,0,0,0,0c-0.8-0.4-7.9-4.6-7.9-4.6L40.3,31.5z"/>
	</defs>
	<clipPath id="SVGID_11_">
		<use xlink:href="#SVGID_10_"  style="overflow:visible;"/>
	</clipPath>
	
		<linearGradient id="SVGID_12_" gradientUnits="userSpaceOnUse" x1="-930.8201" y1="690.4089" x2="-929.3384" y2="690.4089" gradientTransform="matrix(0 7.2754 7.2754 0 -4975.5938 6798.2075)">
		<stop  offset="0" style="stop-color:#F08779"/>
		<stop  offset="0.6326" style="stop-color:#F8B476"/>
		<stop  offset="1" style="stop-color:#FCCA74"/>
	</linearGradient>
	<rect x="40.3" y="26.1" class="st3" width="14.2" height="10.8"/>
</g>
<g>
	<path class="st4" d="M147.3,28.7c-1.2,0-2.1,0.3-2.6,1c-0.5,0.7-0.8,1.7-0.8,3.2v0.4c0,1.6,0.3,2.8,0.8,3.5
		c0.5,0.7,1.4,1.1,2.6,1.1c1,0,1.8-0.4,2.4-1.2c0.6-0.8,0.9-1.9,0.9-3.4c0-1.5-0.3-2.6-0.9-3.3C149.1,29.1,148.3,28.7,147.3,28.7
		 M147.5,39.3c-0.8,0-1.5-0.1-2.1-0.4c-0.6-0.3-1.2-0.7-1.6-1.3h-0.1c0.1,0.7,0.1,1.3,0.1,1.9v4.8h-1.8V27.4h1.4l0.2,1.6h0.1
		c0.5-0.6,1-1.1,1.6-1.4c0.6-0.3,1.3-0.4,2.1-0.4c1.5,0,2.7,0.5,3.6,1.6c0.8,1.1,1.3,2.5,1.3,4.5c0,1.9-0.4,3.4-1.3,4.5
		C150.2,38.8,149,39.3,147.5,39.3"/>
</g>
<rect x="154.7" y="22.5" class="st4" width="1.8" height="16.6"/>
<g>
	<path class="st4" d="M162.6,37.9c1.1,0,2-0.3,2.6-0.9c0.6-0.6,0.9-1.4,0.9-2.5v-1.1l-1.8,0.1c-1.4,0.1-2.4,0.3-3,0.7
		c-0.6,0.4-0.9,1-0.9,1.8c0,0.6,0.2,1.1,0.6,1.5C161.4,37.7,161.9,37.9,162.6,37.9 M166.6,39.1l-0.4-1.7h-0.1
		c-0.6,0.7-1.2,1.2-1.7,1.5c-0.6,0.3-1.3,0.4-2.2,0.4c-1.2,0-2.1-0.3-2.7-0.9c-0.7-0.6-1-1.4-1-2.5c0-2.4,1.9-3.6,5.7-3.7l2-0.1
		v-0.7c0-0.9-0.2-1.6-0.6-2c-0.4-0.4-1-0.7-1.9-0.7c-1,0-2.1,0.3-3.3,0.9l-0.5-1.4c0.6-0.3,1.2-0.6,1.9-0.7c0.7-0.2,1.4-0.3,2.1-0.3
		c1.4,0,2.4,0.3,3.1,0.9c0.7,0.6,1,1.6,1,3v8H166.6z"/>
	<path class="st4" d="M168.9,27.4h1.9l2.6,6.7c0.6,1.5,0.9,2.6,1,3.3h0.1c0.1-0.4,0.3-1,0.6-1.9s1.3-3.6,2.9-8.1h1.9l-5,13.3
		c-0.5,1.3-1.1,2.2-1.7,2.8c-0.7,0.5-1.5,0.8-2.4,0.8c-0.5,0-1.1-0.1-1.6-0.2v-1.4c0.4,0.1,0.8,0.1,1.3,0.1c1.2,0,2.1-0.7,2.6-2
		l0.7-1.7L168.9,27.4z"/>
	<path class="st4" d="M113.7,34.7c0.6-0.6,0.6-1.3,0.6-1.8c0-1.8-1-4.5-3.1-4.5c-0.6,0-1.3,0.3-1.7,0.8c-0.4,0.5-0.5,1.2-0.5,1.8
		c0,1.6,1,4.3,3.1,4.3C112.7,35.4,113.3,35.1,113.7,34.7 M113,39.4c-0.2,0-0.3,0-0.6,0c-0.2,0-1.5,0.1-2.6,0.4
		c-0.5,0.2-2.1,0.8-2.1,2.5c0,1.7,1.7,3,4.3,3c2.3,0,3.6-1.1,3.6-2.6C115.7,41.3,114.9,40.7,113,39.4 M114.8,28.5
		c0.6,0.5,1.7,1.4,1.7,3.3c0,1.8-1,2.7-2.1,3.5c-0.3,0.3-0.7,0.7-0.7,1.2c0,0.5,0.4,0.8,0.6,1.1l0.9,0.7c1.1,0.9,2.1,1.7,2.1,3.4
		c0,2.3-2.2,4.6-6.4,4.6c-3.5,0-5.2-1.7-5.2-3.5c0-0.9,0.4-2.1,1.9-3c1.5-0.9,3.6-1,4.7-1.1c-0.3-0.4-0.7-0.9-0.7-1.7
		c0-0.4,0.1-0.7,0.2-1c-0.3,0-0.5,0-0.8,0c-2.6,0-4.1-1.9-4.1-3.8c0-1.1,0.5-2.4,1.6-3.3c1.4-1.1,3.1-1.3,4.4-1.3h5l-1.6,0.9H114.8z
		"/>
	<path class="st4" d="M102.4,37c0.6-0.8,0.7-1.8,0.7-2.7c0-2.1-1-6.2-4-6.2c-0.8,0-1.6,0.3-2.2,0.8c-1,0.9-1.1,1.9-1.1,3
		c0,2.4,1.2,6.4,4.1,6.4C100.9,38.2,101.9,37.8,102.4,37 M99.4,39c-3.9,0-5.9-3-5.9-5.8c0-3.2,2.6-5.9,6.3-5.9
		c3.6,0,5.8,2.8,5.8,5.8C105.6,35.9,103.4,39,99.4,39"/>
	<path class="st4" d="M89.2,37c0.6-0.8,0.7-1.8,0.7-2.7c0-2.1-1-6.2-4-6.2c-0.8,0-1.6,0.3-2.2,0.8c-1,0.9-1.1,1.9-1.1,3
		c0,2.4,1.2,6.4,4.1,6.4C87.7,38.2,88.7,37.8,89.2,37 M86.2,39c-3.9,0-5.9-3-5.9-5.8c0-3.2,2.6-5.9,6.3-5.9c3.6,0,5.8,2.8,5.8,5.8
		C92.4,35.9,90.2,39,86.2,39"/>
	<path class="st4" d="M78.4,38.6l-3.5,0.8c-1.4,0.2-2.7,0.4-4,0.4c-6.8,0-9.3-5-9.3-8.9c0-4.8,3.7-9.2,9.9-9.2
		c1.3,0,2.6,0.2,3.7,0.5c1.8,0.5,2.7,1.2,3.2,1.5l-2,1.9l-0.9,0.2l0.6-1c-0.8-0.8-2.4-2.3-5.2-2.3c-3.9,0-6.8,2.9-6.8,7.2
		c0,4.6,3.3,8.9,8.7,8.9c1.6,0,2.4-0.3,3.1-0.6v-3.9l-3.7,0.2l2-1.1h5.2L78.7,34c-0.2,0.1-0.2,0.2-0.2,0.4c0,0.2,0,0.9,0,1.2V38.6z"
		/>
	<path class="st4" d="M122.5,37.9c-0.8-0.1-1-0.2-1-1.2v-0.3V22.8c0-0.1,0-0.1,0-0.2c0.1-0.9,0.3-1,1.1-1.4h-3.5l-1.8,0.9h1.9v0l0,0
		v14.3v0.8c0,0.5-0.1,0.6-0.7,1.3h4.3l0.9-0.5C123.3,38,122.9,37.9,122.5,37.9"/>
	<path class="st4" d="M130.2,30.9c0.5-0.2,0.7-0.3,0.7-0.7c0-1-1.1-2.1-2.4-2.1c-1,0-2.8,0.8-2.8,3.4c0,0.4,0,0.9,0.1,1.3
		L130.2,30.9z M132.5,38.1c-0.3,0.1-0.5,0.3-0.8,0.4c-0.8,0.4-1.6,0.5-2.4,0.5c-0.8,0-2-0.1-3.2-0.9c-1.7-1.2-2.5-3.3-2.5-5.1
		c0-3.8,3.1-5.6,5.6-5.6c0.9,0,1.8,0.2,2.5,0.7c1.2,0.8,1.5,1.8,1.7,2.4l-5.7,2.3l-1.9,0.1c0.6,3.1,2.7,4.9,5,4.9
		c1.2,0,2.1-0.4,3-0.9L132.5,38.1z"/>
</g>
<polygon class="st4" points="134.1,27.3 134.1,27.5 134.6,27.5 134.6,29.1 134.8,29.1 134.8,27.5 135.4,27.5 135.4,27.3 "/>
<polygon class="st4" points="137,29.1 137,27.5 137,27.5 136.5,29.1 136.4,29.1 135.9,27.5 135.9,27.5 135.9,29.1 135.7,29.1 
	135.7,27.3 136,27.3 136.4,28.7 136.4,28.7 136.9,27.3 137.2,27.3 137.2,29.1 "/>
<g>
	<path class="st5" d="M64.6,14.9c-0.4-1.3-0.7-2-0.7-2.1h-0.1c0,0.1-0.2,0.8-0.7,2.1H64.6z M66.4,17h-1.2c0-0.2-0.1-0.6-0.3-1.4H63
		c-0.2,0.8-0.4,1.2-0.4,1.4h-1.1c0-0.1,0.3-0.9,0.9-2.4c0.6-1.5,0.9-2.4,0.9-2.5h1.4c0,0.1,0.3,1,0.8,2.5C66.1,16,66.4,16.9,66.4,17
		"/>
	<path class="st5" d="M71.3,17h-0.9c0-0.1-0.3-0.7-1-1.6c-0.7-1-1.1-1.8-1.2-2.1H68c0.1,0.6,0.1,1.1,0.1,1.5c0,0.6,0,1.4,0.1,2.3
		h-0.9c0-0.8,0.1-1.7,0.1-2.6c0-0.9,0-1.7-0.1-2.4h1.1c0,0.1,0.3,0.7,0.9,1.6c0.7,1,1.1,1.7,1.1,2h0.1c-0.1-0.6-0.1-1.1-0.1-1.5
		c0-0.7,0-1.4-0.1-2.1h1c0,0.6-0.1,1.4-0.1,2.4C71.2,15.4,71.2,16.2,71.3,17"/>
	<path class="st5" d="M75.7,14.5c0-0.5-0.1-0.9-0.4-1.2C75,13,74.6,12.8,74,12.8c-0.1,0-0.3,0-0.4,0c0,0.5,0,1,0,1.6
		c0,0.6,0,1.2,0,1.8c0.2,0,0.3,0,0.5,0c0.5,0,0.9-0.2,1.2-0.5C75.6,15.4,75.7,15,75.7,14.5 M76.8,14.4c0,0.7-0.2,1.3-0.7,1.9
		c-0.5,0.5-1.1,0.8-1.9,0.8c-0.4,0-0.9,0-1.6,0c0-0.8,0-1.6,0-2.6c0-0.9,0-1.7,0-2.4h0.7c0.1,0,0.3,0,0.5,0c0.2,0,0.4,0,0.4,0
		c0.9,0,1.6,0.2,2,0.7C76.6,13.2,76.8,13.7,76.8,14.4"/>
	<path class="st5" d="M80.4,13.5c0-0.5-0.3-0.8-1-0.8c-0.2,0-0.4,0-0.6,0.1c0,0.4,0,0.9,0,1.5c0.1,0,0.3,0,0.4,0
		C80,14.3,80.4,14.1,80.4,13.5 M81.9,17h-1.1c-0.3-0.9-0.5-1.5-0.7-1.7c-0.2-0.2-0.4-0.3-0.8-0.3c-0.1,0-0.3,0-0.4,0
		c0,0.7,0,1.3,0,2h-1.1c0-0.8,0.1-1.6,0.1-2.6c0-0.9,0-1.7-0.1-2.4h0.7c0.1,0,0.2,0,0.5,0c0.2,0,0.5,0,0.7,0c1.2,0,1.7,0.4,1.7,1.2
		c0,0.6-0.3,1.1-1,1.3v0.1c0.3,0.1,0.5,0.3,0.7,0.6C81.3,15.5,81.5,16.1,81.9,17"/>
	<path class="st5" d="M86.3,14.5c0-0.5-0.1-1-0.4-1.3c-0.3-0.3-0.6-0.5-1-0.5c-0.4,0-0.7,0.2-0.9,0.5c-0.3,0.3-0.4,0.8-0.4,1.3
		c0,0.5,0.1,1,0.4,1.3c0.3,0.3,0.6,0.5,1,0.5c0.4,0,0.7-0.2,0.9-0.5C86.1,15.5,86.3,15.1,86.3,14.5 M87.3,14.4
		c0,0.8-0.2,1.4-0.7,1.9c-0.5,0.5-1.1,0.8-1.8,0.8c-0.7,0-1.2-0.2-1.7-0.7c-0.5-0.5-0.7-1.1-0.7-1.8c0-0.8,0.2-1.4,0.7-1.9
		c0.5-0.5,1.1-0.8,1.8-0.8c0.7,0,1.2,0.2,1.7,0.7C87.1,13.1,87.3,13.7,87.3,14.4"/>
	<path class="st5" d="M89.5,17h-1.1c0-0.8,0.1-1.7,0.1-2.6c0-0.9,0-1.7-0.1-2.4h1.1c0,0.6,0,1.4,0,2.4C89.4,15.4,89.4,16.2,89.5,17"
		/>
	<path class="st5" d="M93.9,14.5c0-0.5-0.1-0.9-0.4-1.2c-0.3-0.3-0.7-0.5-1.3-0.5c-0.1,0-0.3,0-0.4,0c0,0.5,0,1,0,1.6
		c0,0.6,0,1.2,0,1.8c0.2,0,0.3,0,0.5,0c0.5,0,0.9-0.2,1.2-0.5C93.8,15.4,93.9,15,93.9,14.5 M95,14.4c0,0.7-0.2,1.3-0.7,1.9
		c-0.5,0.5-1.1,0.8-1.9,0.8c-0.4,0-0.9,0-1.6,0c0-0.8,0-1.6,0-2.6c0-0.9,0-1.7,0-2.4h0.7c0.1,0,0.3,0,0.5,0c0.2,0,0.4,0,0.4,0
		c0.9,0,1.6,0.2,2,0.7C94.8,13.2,95,13.7,95,14.4"/>
	<path class="st5" d="M100.5,14.9c-0.4-1.3-0.7-2-0.7-2.1h-0.1c0,0.1-0.2,0.8-0.7,2.1H100.5z M102.3,17h-1.2c0-0.2-0.1-0.6-0.3-1.4
		H99c-0.2,0.8-0.4,1.2-0.4,1.4h-1.1c0-0.1,0.3-0.9,0.9-2.4c0.6-1.5,0.9-2.4,0.9-2.5h1.4c0,0.1,0.3,1,0.8,2.5
		C102,16,102.3,16.9,102.3,17"/>
	<path class="st5" d="M105.8,13.6c0-0.5-0.4-0.8-1.1-0.8c-0.2,0-0.4,0-0.6,0.1c0,0.5,0,1,0,1.6c0.1,0,0.1,0,0.2,0
		C105.3,14.4,105.8,14.1,105.8,13.6 M106.7,13.3c0,0.6-0.2,1.1-0.7,1.3c-0.5,0.3-1,0.4-1.7,0.4c-0.1,0-0.2,0-0.3,0
		c0,0.5,0,1.1,0,1.9h-1.1c0-0.7,0.1-1.6,0.1-2.6c0-0.9,0-1.7-0.1-2.4h0.7c0.1,0,0.3,0,0.5,0c0.3,0,0.5,0,0.7,0
		c0.5,0,0.9,0.1,1.2,0.3C106.6,12.6,106.7,12.9,106.7,13.3"/>
	<path class="st5" d="M110.3,13.6c0-0.5-0.4-0.8-1.1-0.8c-0.2,0-0.4,0-0.6,0.1c0,0.5,0,1,0,1.6c0.1,0,0.1,0,0.2,0
		C109.9,14.4,110.3,14.1,110.3,13.6 M111.3,13.3c0,0.6-0.2,1.1-0.7,1.3c-0.5,0.3-1,0.4-1.7,0.4c-0.1,0-0.2,0-0.3,0
		c0,0.5,0,1.1,0,1.9h-1.1c0-0.7,0.1-1.6,0.1-2.6c0-0.9,0-1.7-0.1-2.4h0.7c0.1,0,0.3,0,0.5,0c0.3,0,0.5,0,0.7,0
		c0.5,0,0.9,0.1,1.2,0.3C111.1,12.6,111.3,12.9,111.3,13.3"/>
	<path class="st5" d="M117.7,14.5c0-0.5-0.1-1-0.4-1.3c-0.3-0.3-0.6-0.5-1-0.5c-0.4,0-0.7,0.2-0.9,0.5c-0.3,0.3-0.4,0.8-0.4,1.3
		c0,0.5,0.1,1,0.4,1.3c0.3,0.3,0.6,0.5,1,0.5c0.4,0,0.7-0.2,0.9-0.5C117.6,15.5,117.7,15.1,117.7,14.5 M118.8,14.4
		c0,0.8-0.2,1.4-0.7,1.9c-0.5,0.5-1.1,0.8-1.8,0.8c-0.7,0-1.2-0.2-1.7-0.7c-0.5-0.5-0.7-1.1-0.7-1.8c0-0.8,0.2-1.4,0.7-1.9
		c0.5-0.5,1.1-0.8,1.8-0.8c0.7,0,1.2,0.2,1.7,0.7C118.5,13.1,118.8,13.7,118.8,14.4"/>
	<path class="st5" d="M123.9,17H123c0-0.1-0.3-0.7-1-1.6c-0.7-1-1.1-1.8-1.2-2.1h-0.1c0.1,0.6,0.1,1.1,0.1,1.5c0,0.6,0,1.4,0.1,2.3
		h-0.9c0-0.8,0.1-1.7,0.1-2.6c0-0.9,0-1.7-0.1-2.4h1.1c0,0.1,0.3,0.7,0.9,1.6c0.7,1,1.1,1.7,1.1,2h0.1c-0.1-0.6-0.1-1.1-0.1-1.5
		c0-0.7,0-1.4-0.1-2.1h1c0,0.6-0.1,1.4-0.1,2.4C123.9,15.4,123.9,16.2,123.9,17"/>
</g>
</svg>
