<?xml version="1.0" encoding="utf-8"?>
<!-- Generator: Adobe Illustrator 19.1.0, SVG Export Plug-In . SVG Version: 6.00 Build 0)  -->
<svg version="1.1" id="Ebene_1" xmlns="http://www.w3.org/2000/svg" xmlns:xlink="http://www.w3.org/1999/xlink" x="0px" y="0px"
	 viewBox="0 0 200 60" style="enable-background:new 0 0 200 60;" xml:space="preserve">
<style type="text/css">
	.st0{fill:#FFFFFF;}
</style>
<g>
	<g>
		<path class="st0" d="M44.6,29.7c0-4.8,3.9-7.1,4.1-7.2c-2.2-3.3-5.7-3.7-6.9-3.7c-2.9-0.3-5.7,1.7-7.2,1.7c-1.5,0-3.8-1.7-6.3-1.7
			c-3.2,0-6.1,1.9-7.8,4.7c-3.4,5.8-0.9,14.4,2.4,19.1c1.6,2.3,3.5,4.9,5.9,4.8c2.4-0.1,3.3-1.5,6.2-1.5c2.9,0,3.7,1.5,6.2,1.5
			c2.6,0,4.2-2.3,5.8-4.6c1.9-2.6,2.6-5.2,2.6-5.4C49.6,37.3,44.7,35.4,44.6,29.7"/>
		<path class="st0" d="M39.9,15.6c1.3-1.6,2.2-3.8,1.9-6.1c-1.9,0.1-4.2,1.3-5.6,2.9c-1.2,1.4-2.3,3.7-2,5.8
			C36.4,18.4,38.5,17.2,39.9,15.6"/>
		<path class="st0" d="M73.7,38.8L72,33.7c-0.2-0.5-0.5-1.8-1-3.7H71c-0.2,0.8-0.5,2.1-0.9,3.7l-1.6,5.1H73.7z M79.5,47h-3.4
			l-1.8-5.8h-6.4L66.1,47h-3.3l6.3-19.7h3.9L79.5,47z"/>
		<path class="st0" d="M92.6,39.9c0-1.4-0.3-2.5-0.9-3.4C91,35.5,90,35,88.9,35c-0.8,0-1.5,0.3-2.1,0.8c-0.6,0.5-1,1.2-1.2,2
			c-0.1,0.4-0.1,0.7-0.1,1v2.4c0,1,0.3,1.9,1,2.6c0.6,0.7,1.5,1.1,2.5,1.1c1.2,0,2.1-0.5,2.8-1.4C92.2,42.6,92.6,41.4,92.6,39.9
			 M95.8,39.7c0,2.4-0.7,4.3-2,5.7c-1.2,1.2-2.6,1.9-4.4,1.9c-1.9,0-3.2-0.7-4-2h-0.1v7.5h-3.2V37.5c0-1.5,0-3.1-0.1-4.7h2.8
			l0.2,2.3h0.1c1.1-1.7,2.7-2.5,4.8-2.5c1.7,0,3.1,0.7,4.2,2C95.2,35.8,95.8,37.6,95.8,39.7"/>
		<path class="st0" d="M108.9,39.9c0-1.4-0.3-2.5-0.9-3.4c-0.7-0.9-1.6-1.4-2.7-1.4c-0.8,0-1.5,0.3-2.1,0.8c-0.6,0.5-1,1.2-1.2,2
			c-0.1,0.4-0.1,0.7-0.1,1v2.4c0,1,0.3,1.9,0.9,2.6c0.6,0.7,1.5,1.1,2.5,1.1c1.2,0,2.1-0.5,2.8-1.4
			C108.6,42.6,108.9,41.4,108.9,39.9 M112.1,39.7c0,2.4-0.7,4.3-2,5.7c-1.2,1.2-2.6,1.9-4.4,1.9c-1.9,0-3.2-0.7-4-2h-0.1v7.5h-3.2
			V37.5c0-1.5,0-3.1-0.1-4.7h2.8l0.2,2.3h0.1c1.1-1.7,2.7-2.5,4.8-2.5c1.7,0,3.1,0.7,4.2,2C111.6,35.8,112.1,37.6,112.1,39.7"/>
		<path class="st0" d="M130.4,41.5c0,1.7-0.6,3-1.8,4.1c-1.3,1.2-3.1,1.7-5.4,1.7c-2.1,0-3.8-0.4-5.1-1.2l0.7-2.6
			c1.4,0.8,2.9,1.3,4.6,1.3c1.2,0,2.1-0.3,2.8-0.8c0.7-0.5,1-1.3,1-2.2c0-0.8-0.3-1.5-0.8-2c-0.5-0.5-1.5-1.1-2.7-1.5
			c-3.5-1.3-5.2-3.2-5.2-5.7c0-1.6,0.6-2.9,1.8-4c1.2-1,2.8-1.6,4.8-1.6c1.8,0,3.3,0.3,4.5,0.9l-0.8,2.6c-1.1-0.6-2.4-0.9-3.8-0.9
			c-1.1,0-2,0.3-2.6,0.8c-0.5,0.5-0.8,1.1-0.8,1.8c0,0.8,0.3,1.4,0.9,1.9c0.5,0.5,1.5,1,2.9,1.5c1.7,0.7,2.9,1.5,3.7,2.4
			C130,39,130.4,40.1,130.4,41.5"/>
		<path class="st0" d="M140.9,35.2h-3.5v6.9c0,1.8,0.6,2.6,1.8,2.6c0.6,0,1,0,1.4-0.1l0.1,2.4c-0.6,0.2-1.4,0.3-2.5,0.3
			c-1.2,0-2.2-0.4-2.9-1.1c-0.7-0.8-1.1-2-1.1-3.8v-7.2h-2.1v-2.4h2.1v-2.6l3.1-0.9v3.5h3.5V35.2z"/>
		<path class="st0" d="M153.3,39.9c0-1.3-0.3-2.4-0.8-3.4c-0.7-1.1-1.6-1.7-2.8-1.7c-1.3,0-2.2,0.6-2.9,1.7
			c-0.6,0.9-0.8,2.1-0.8,3.4c0,1.3,0.3,2.4,0.8,3.4c0.7,1.1,1.6,1.7,2.9,1.7c1.2,0,2.2-0.6,2.8-1.7C153,42.4,153.3,41.2,153.3,39.9
			 M156.6,39.8c0,2.2-0.6,4-1.9,5.4c-1.3,1.4-3,2.2-5.2,2.2c-2.1,0-3.7-0.7-5-2.1c-1.2-1.4-1.9-3.1-1.9-5.2c0-2.2,0.6-4,1.9-5.4
			c1.3-1.4,3-2.1,5.2-2.1c2.1,0,3.8,0.7,5,2.1C156,35.9,156.6,37.7,156.6,39.8"/>
		<path class="st0" d="M166.8,35.6c-0.3-0.1-0.6-0.1-1-0.1c-1.1,0-2,0.4-2.6,1.3c-0.5,0.7-0.8,1.7-0.8,2.8V47h-3.2l0-9.7
			c0-1.6,0-3.1-0.1-4.5h2.8l0.1,2.7h0.1c0.3-0.9,0.9-1.7,1.6-2.3c0.7-0.5,1.5-0.8,2.3-0.8c0.3,0,0.6,0,0.8,0.1V35.6z"/>
		<path class="st0" d="M178,38.4c0-0.9-0.2-1.7-0.6-2.4c-0.5-0.9-1.4-1.3-2.5-1.3c-1,0-1.9,0.4-2.5,1.3c-0.5,0.7-0.8,1.5-0.9,2.5
			L178,38.4L178,38.4z M181,39.2c0,0.6,0,1-0.1,1.4h-9.5c0,1.4,0.5,2.5,1.4,3.2c0.8,0.7,1.8,1,3.1,1c1.4,0,2.7-0.2,3.8-0.7l0.5,2.2
			c-1.3,0.6-2.9,0.9-4.8,0.9c-2.2,0-3.9-0.6-5.2-1.9c-1.3-1.3-1.9-3-1.9-5.2c0-2.1,0.6-3.9,1.8-5.4c1.2-1.5,2.9-2.3,5-2.3
			c2,0,3.6,0.8,4.7,2.3C180.6,36,181,37.5,181,39.2"/>
		<path class="st0" d="M71,15.2c0-1.1-0.3-2-0.9-2.6c-0.6-0.6-1.5-0.9-2.6-0.9c-0.5,0-0.9,0-1.3,0.1v7.2c0.2,0,0.5,0,1,0
			c1.2,0,2.1-0.3,2.8-1C70.7,17.5,71,16.5,71,15.2 M72.7,15.2c0,1.7-0.5,3.1-1.6,3.9c-1,0.8-2.3,1.2-4.1,1.2c-0.9,0-1.6,0-2.3-0.1
			v-9.5c0.8-0.1,1.7-0.2,2.7-0.2c1.7,0,3,0.4,3.8,1.1C72.2,12.4,72.7,13.6,72.7,15.2"/>
		<path class="st0" d="M79.7,16.8c0-0.6-0.1-1.2-0.4-1.7c-0.3-0.6-0.8-0.8-1.4-0.8c-0.6,0-1.1,0.3-1.4,0.8c-0.3,0.5-0.4,1-0.4,1.7
			c0,0.6,0.1,1.2,0.4,1.7c0.3,0.6,0.8,0.8,1.4,0.8c0.6,0,1.1-0.3,1.4-0.9C79.6,18,79.7,17.4,79.7,16.8 M81.3,16.7
			c0,1.1-0.3,2-0.9,2.6c-0.6,0.7-1.5,1.1-2.6,1.1c-1,0-1.8-0.3-2.5-1c-0.6-0.7-0.9-1.5-0.9-2.6c0-1.1,0.3-2,0.9-2.7
			c0.6-0.7,1.5-1,2.5-1c1,0,1.8,0.3,2.5,1C81,14.8,81.3,15.7,81.3,16.7"/>
		<path class="st0" d="M93,13.3l-2.2,7h-1.4l-0.9-3c-0.2-0.8-0.4-1.5-0.6-2.3h0c-0.1,0.8-0.3,1.5-0.6,2.3l-1,3h-1.4l-2.1-7h1.6
			l0.8,3.3c0.2,0.8,0.3,1.5,0.5,2.2h0c0.1-0.6,0.3-1.3,0.6-2.2l1-3.3h1.3l0.9,3.3c0.2,0.8,0.4,1.6,0.6,2.3h0
			c0.1-0.7,0.3-1.5,0.5-2.3l0.8-3.3L93,13.3L93,13.3z"/>
		<path class="st0" d="M101,20.3h-1.6v-4c0-1.2-0.5-1.8-1.4-1.8c-0.5,0-0.8,0.2-1.1,0.5c-0.3,0.3-0.4,0.7-0.4,1.2v4.1H95v-5
			c0-0.6,0-1.3-0.1-2h1.4l0.1,1.1h0c0.2-0.3,0.5-0.6,0.8-0.8c0.4-0.3,0.9-0.4,1.4-0.4c0.7,0,1.2,0.2,1.6,0.6
			c0.5,0.5,0.8,1.3,0.8,2.3V20.3z"/>
	</g>
	<rect x="103.8" y="10.1" class="st0" width="1.6" height="10.2"/>
	<g>
		<path class="st0" d="M112.8,16.8c0-0.6-0.1-1.2-0.4-1.7c-0.3-0.6-0.8-0.8-1.4-0.8c-0.6,0-1.1,0.3-1.4,0.8c-0.3,0.5-0.4,1-0.4,1.7
			c0,0.6,0.1,1.2,0.4,1.7c0.3,0.6,0.8,0.8,1.4,0.8c0.6,0,1.1-0.3,1.4-0.9C112.7,18,112.8,17.4,112.8,16.8 M114.5,16.7
			c0,1.1-0.3,2-0.9,2.6c-0.6,0.7-1.5,1.1-2.6,1.1c-1,0-1.8-0.3-2.5-1c-0.6-0.7-0.9-1.5-0.9-2.6c0-1.1,0.3-2,0.9-2.7
			c0.6-0.7,1.5-1,2.5-1c1,0,1.8,0.3,2.5,1C114.2,14.8,114.5,15.7,114.5,16.7"/>
		<path class="st0" d="M120.4,17.9v-1.1c-1.7,0-2.6,0.4-2.6,1.4c0,0.4,0.1,0.6,0.3,0.8c0.2,0.2,0.5,0.3,0.8,0.3
			c0.3,0,0.7-0.1,0.9-0.3c0.3-0.2,0.5-0.5,0.5-0.8C120.3,18.1,120.4,18,120.4,17.9 M122,20.3h-1.4l-0.1-0.8h0c-0.5,0.6-1.2,1-2,1
			c-0.7,0-1.2-0.2-1.6-0.6c-0.4-0.4-0.5-0.9-0.5-1.4c0-0.9,0.4-1.5,1.1-2c0.7-0.5,1.7-0.7,3-0.7v-0.1c0-0.9-0.5-1.4-1.5-1.4
			c-0.7,0-1.3,0.2-1.8,0.5l-0.3-1c0.6-0.4,1.5-0.6,2.4-0.6c1.8,0,2.7,1,2.7,2.9v2.6C121.9,19.3,121.9,19.8,122,20.3"/>
		<path class="st0" d="M129.2,17.3v-1.2c0-0.2,0-0.4,0-0.5c-0.1-0.4-0.3-0.7-0.6-0.9c-0.3-0.3-0.6-0.4-1-0.4c-0.6,0-1,0.2-1.4,0.7
			c-0.3,0.5-0.5,1-0.5,1.8c0,0.7,0.2,1.3,0.5,1.7c0.3,0.5,0.8,0.7,1.4,0.7c0.5,0,0.9-0.2,1.2-0.6C129,18.2,129.2,17.8,129.2,17.3
			 M130.8,20.3h-1.4l-0.1-1.1h0c-0.4,0.9-1.2,1.3-2.2,1.3c-0.8,0-1.5-0.3-2.1-1c-0.6-0.7-0.8-1.5-0.8-2.6c0-1.1,0.3-2,0.9-2.7
			c0.6-0.7,1.3-1,2.2-1c0.9,0,1.6,0.3,2,0.9h0v-4h1.6v8.3C130.7,19.1,130.8,19.7,130.8,20.3"/>
		<path class="st0" d="M142.5,16.8c0-0.6-0.1-1.2-0.4-1.7c-0.3-0.6-0.8-0.8-1.4-0.8c-0.6,0-1.1,0.3-1.4,0.8c-0.3,0.5-0.4,1-0.4,1.7
			c0,0.6,0.1,1.2,0.4,1.7c0.3,0.6,0.8,0.8,1.4,0.8c0.6,0,1.1-0.3,1.4-0.9C142.3,18,142.5,17.4,142.5,16.8 M144.1,16.7
			c0,1.1-0.3,2-0.9,2.6c-0.6,0.7-1.5,1.1-2.6,1.1c-1,0-1.8-0.3-2.5-1c-0.6-0.7-0.9-1.5-0.9-2.6c0-1.1,0.3-2,0.9-2.7
			c0.6-0.7,1.5-1,2.5-1c1,0,1.8,0.3,2.5,1C143.8,14.8,144.1,15.7,144.1,16.7"/>
		<path class="st0" d="M152.4,20.3h-1.6v-4c0-1.2-0.5-1.8-1.4-1.8c-0.5,0-0.8,0.2-1.1,0.5c-0.3,0.3-0.4,0.7-0.4,1.2v4.1h-1.6v-5
			c0-0.6,0-1.3-0.1-2h1.4l0.1,1.1h0c0.2-0.3,0.5-0.6,0.8-0.8c0.4-0.3,0.9-0.4,1.4-0.4c0.7,0,1.2,0.2,1.6,0.6
			c0.5,0.5,0.8,1.3,0.8,2.3V20.3z"/>
		<path class="st0" d="M162.9,14.4h-1.7v3.4c0,0.9,0.3,1.3,0.9,1.3c0.3,0,0.5,0,0.7-0.1l0,1.2c-0.3,0.1-0.7,0.2-1.2,0.2
			c-0.6,0-1.1-0.2-1.4-0.6c-0.3-0.4-0.5-1-0.5-1.9v-3.5h-1v-1.2h1V12l1.5-0.5v1.7h1.7L162.9,14.4L162.9,14.4z"/>
		<path class="st0" d="M171.1,20.3h-1.6v-4c0-1.3-0.5-1.9-1.4-1.9c-0.7,0-1.2,0.4-1.5,1.1c0,0.2-0.1,0.3-0.1,0.6v4.2H165V10.1h1.6
			v4.2h0c0.5-0.8,1.2-1.1,2.1-1.1c0.6,0,1.2,0.2,1.6,0.6c0.5,0.5,0.8,1.3,0.8,2.3V20.3z"/>
		<path class="st0" d="M178.1,16c0-0.5-0.1-0.9-0.3-1.2c-0.3-0.4-0.7-0.6-1.2-0.6c-0.5,0-0.9,0.2-1.2,0.6c-0.3,0.3-0.4,0.7-0.5,1.2
			H178.1z M179.6,16.4c0,0.3,0,0.5-0.1,0.7h-4.7c0,0.7,0.2,1.2,0.7,1.6c0.4,0.3,0.9,0.5,1.5,0.5c0.7,0,1.3-0.1,1.9-0.3l0.2,1.1
			c-0.7,0.3-1.4,0.4-2.3,0.4c-1.1,0-1.9-0.3-2.5-1c-0.6-0.6-0.9-1.5-0.9-2.6c0-1.1,0.3-1.9,0.9-2.6c0.6-0.7,1.4-1.1,2.4-1.1
			c1,0,1.8,0.4,2.3,1.1C179.4,14.8,179.6,15.6,179.6,16.4"/>
	</g>
</g>
</svg>
