<?xml version="1.0" encoding="utf-8"?>
<!-- Generator: Adobe Illustrator 19.2.1, SVG Export Plug-In . SVG Version: 6.00 Build 0)  -->
<svg version="1.1" id="Ebene_1" xmlns="http://www.w3.org/2000/svg" xmlns:xlink="http://www.w3.org/1999/xlink" x="0px" y="0px"
	 viewBox="0 0 233.9 233.9" style="enable-background:new 0 0 233.9 233.9;" xml:space="preserve">
<style type="text/css">
	.st0{fill:#B6A900;}
</style>
<g>
	<path class="st0" d="M117,199.6c3.1,1.4,6.8,0.1,8.2-2.9c1.7-3.6,0.1-11-12.7-19.6C110.4,187.3,110.6,196.7,117,199.6z"/>
	<path class="st0" d="M116.9,0C52.4,0,0,52.4,0,116.9s52.4,116.9,116.9,116.9s116.9-52.4,116.9-116.9S181.5,0,116.9,0z M179.3,42.2
		c-0.4,0.7-38,66.2-59.4,113.3c-2.1,4.6-4.4,10.5-6.1,16.5c15.9,10.2,19,20.2,15.9,26.8c-1.9,4-5.9,6.4-10.1,6.4
		c-1.6,0-3.2-0.3-4.7-1c-6.7-3.1-11-12.5-6.9-29.9c-2.4-1.4-5-2.7-8-4.1c-27.2-12.7-63.6-28.8-64-29c-1.3-0.6-1.8-2-1.3-3.3
		c0.6-1.3,2-1.8,3.3-1.3c0.4,0.2,36.9,16.3,64.1,29c2.6,1.2,5,2.4,7.2,3.7c1.4-4.7,3.4-10,6.1-15.8c21.6-47.3,59.3-113.1,59.6-113.7
		c0.7-1.2,2.2-1.6,3.4-0.9C179.6,39.5,180,41,179.3,42.2z"/>
</g>
</svg>
