<?xml version="1.0" encoding="utf-8"?>
<!-- Generator: Adobe Illustrator 19.2.1, SVG Export Plug-In . SVG Version: 6.00 Build 0)  -->
<svg version="1.1" id="Ebene_1" xmlns="http://www.w3.org/2000/svg" xmlns:xlink="http://www.w3.org/1999/xlink" x="0px" y="0px"
	 viewBox="0 0 400 400" style="enable-background:new 0 0 400 400;" xml:space="preserve">
<style type="text/css">
	.st0{fill:#CE5100;}
</style>
<g>
	<path class="st0" d="M165.1,151.7v-50.1v-38c0-13.1-10.6-23.8-23.8-23.8h-0.3v62.5v93.8v5.6c0,18,5.6,32.8,17.6,44.6
		c12,11.7,27,17.6,45.2,17.6c18.2,0,33.7-7.1,46.4-21.2l16.4-19.3c0,0-17.9-5.4-29.6,5.8c-6.3,5.9-10.8,9-15.9,11.3
		c-5.1,2.4-11.1,3.5-18.1,3.5c-11.3,0-21.1-4.1-29.3-12.4c-8.2-8.2-12.4-18.5-12.4-30.7c0-12.3,4.1-22.3,12.4-30.2
		c8.3-7.9,18.5-11.8,30.7-11.8c6.9,0,12.9,1.1,18.1,3.3c5.1,2.2,10.6,6,16.3,11.6c12.5,12.2,27.7,3.6,27.7,3.6L252,159.5
		c-12.6-13.8-28.2-20.7-46.9-20.7l-1.7,0.1c-14.5,0-27.6,4.9-38.3,13 M237,180.4c-5.8-5.6-11.5-9.6-16.9-12
		c-5.3-2.3-11.7-3.4-18.8-3.4c-7.1,0-13.7,1.3-19.6,3.9c6.9-4.8,15.1-7.2,24.4-7.2c6.6,0,12.4,1.1,17.3,3.1
		c5,2.1,10.3,5.9,15.7,11.2c4.8,4.7,10.6,7.1,17,7.1c0.9,0,1.7,0,2.6-0.1l1.4,1.7c-2,0.8-5.1,1.7-8.8,1.7
		C245.9,186.4,241.1,184.4,237,180.4z M218.5,170.5c5,2.1,10.3,6.3,15.7,11.6c4.8,4.7,9.9,7.3,16.4,7.3c0.1,0,2.3,1.4,2.3,1.4
		c-2,0.8-5.1,0.9-8.8,0.9c-5.4,0-10.2-2-14.3-6c-5.8-5.6-11.5-9.6-16.9-12c-5.3-2.3-11.7-3.4-18.8-3.4c-4.9,0-9.5,0.6-13.8,1.9
		c6.2-3.4,13.2-5.1,21-5.1C207.8,167,213.6,168.4,218.5,170.5z M81.8,354.1c2.1,0,4-0.4,5.5-1.1c1.5-0.7,3.2-1.9,4.9-3.5l4,4.1
		c-3.9,4.3-8.6,6.5-14.2,6.5c-5.6,0-10.2-1.8-13.9-5.4c-3.7-3.6-5.5-8.1-5.5-13.6s1.9-10.1,5.6-13.7c3.7-3.7,8.5-5.5,14.2-5.5
		c5.7,0,10.5,2.1,14.3,6.3l-4,4.3c-1.8-1.7-3.4-2.9-5-3.5c-1.6-0.7-3.4-1-5.5-1c-3.7,0-6.9,1.2-9.4,3.6c-2.5,2.4-3.8,5.5-3.8,9.2
		c0,3.7,1.3,6.9,3.8,9.4C75.4,352.9,78.4,354.1,81.8,354.1z M103.8,359.8v-36.9h6.2v16h18.3v-16h6.2v36.9h-6.2v-15.1H110v15.1H103.8
		z M170.7,322.9v5.9H151v9.8h17.7v5.5H151v9.9h20.3v5.9h-26.5v-36.9H170.7z M186,328.7v10.1h16.3v5.7H186v15.2h-6.2v-36.9h24.6
		l-0.1,5.8H186z M208.2,359c-0.8-0.8-1.1-1.7-1.1-2.8c0-1.1,0.4-2,1.1-2.8s1.7-1.1,2.8-1.1c1.1,0,2,0.4,2.8,1.1
		c0.8,0.8,1.2,1.7,1.2,2.8c0,1.1-0.4,2-1.2,2.8c-0.8,0.8-1.7,1.2-2.8,1.2C209.9,360.2,209,359.8,208.2,359z M253.3,354.7
		c-3.7,3.6-8.3,5.5-13.8,5.5c-5.5,0-10.1-1.8-13.8-5.5c-3.7-3.6-5.6-8.2-5.6-13.6c0-5.4,1.9-10,5.6-13.6c3.7-3.6,8.3-5.5,13.8-5.5
		c5.5,0,10.1,1.8,13.8,5.5c3.7,3.6,5.6,8.2,5.6,13.6C258.9,346.5,257,351.1,253.3,354.7z M248.8,331.6c-2.5-2.6-5.6-3.9-9.3-3.9
		s-6.7,1.3-9.3,3.9c-2.5,2.6-3.8,5.8-3.8,9.5c0,3.7,1.3,6.9,3.8,9.5c2.5,2.6,5.6,3.9,9.3,3.9s6.7-1.3,9.3-3.9
		c2.5-2.6,3.8-5.8,3.8-9.5C252.5,337.4,251.3,334.2,248.8,331.6z M294.4,322.9h6.2v36.9h-6.8L273,332.9v26.9h-6.2v-36.9h6.2
		l21.4,27.5V322.9z M336.8,322.9v5.9h-19.7v9.8h17.7v5.5h-17.7v9.9h20.3v5.9h-26.5v-36.9H336.8z"/>
</g>
</svg>
