<?xml version="1.0" encoding="utf-8"?>
<!-- Generator: Adobe Illustrator 19.2.1, SVG Export Plug-In . SVG Version: 6.00 Build 0)  -->
<svg version="1.1" id="Ebene_1" xmlns="http://www.w3.org/2000/svg" xmlns:xlink="http://www.w3.org/1999/xlink" x="0px" y="0px"
	 viewBox="0 0 402.3 41.1" style="enable-background:new 0 0 402.3 41.1;" xml:space="preserve">
<style type="text/css">
	.st0{fill:#CE5100;}
</style>
<g>
	<path class="st0" d="M11.1,21.5c-0.9,1.2-1.8,2-2.7,2.5c-0.9,0.5-1.7,0.7-2.5,0.6c-0.8-0.1-1.6-0.3-2.3-0.9c-0.7-0.5-1.3-1.2-1.8-2
		C1.3,20.9,0.8,20,0.5,19C0.2,18,0,17,0,16c0-1,0.1-2,0.4-3c0.3-1,0.8-1.9,1.5-2.6c0.4,0.1,0.5,0.3,0.6,0.5c0,0.2,0.1,0.5,0.1,0.8
		c0,0.4,0,0.7-0.1,1.1c-0.1,0.3-0.2,0.7-0.2,1C2.1,14.1,2,14.4,2,14.8c-0.1,0.4-0.1,0.8-0.1,1.2c0,0.3,0,0.6,0.1,1.1
		c0.1,0.4,0.2,0.9,0.3,1.4c0.1,0.5,0.3,1,0.5,1.4c0.2,0.5,0.4,0.9,0.7,1.3c0.3,0.4,0.6,0.7,0.9,1c0.3,0.3,0.7,0.4,1.1,0.4
		c0.4,0,0.8-0.1,1.3-0.3c0.5-0.2,1-0.5,1.5-0.9c0.5-0.4,0.9-0.7,1.2-1.2s0.5-0.9,0.5-1.3l0.2-4.3c0-0.1,0-0.1,0.1-0.2
		c0.1-0.1,0.2-0.1,0.3-0.2c0.1-0.1,0.2-0.1,0.3-0.1c0.1,0,0.2-0.1,0.2-0.1c0.3,0,0.5,0.2,0.6,0.6c0.1,0.4,0.2,0.9,0.3,1.5
		c0.1,0.6,0.1,1.3,0.2,2c0.1,0.7,0.2,1.4,0.5,2c0.2,0.6,0.6,1.1,1,1.5c0.4,0.4,1.1,0.6,1.9,0.6c0.8,0,1.5-0.2,1.9-0.5
		c0.5-0.3,0.8-0.7,1.1-1.3c0.2-0.5,0.3-1.1,0.3-1.8c0-0.6-0.1-1.3-0.3-1.9c-0.2-0.6-0.4-1.3-0.7-1.9c-0.3-0.6-0.6-1.1-0.9-1.6
		c0-0.2,0-0.3,0-0.4c0-0.1,0.1-0.1,0.2-0.2c0.1,0,0.2-0.1,0.3-0.1c0.1,0,0.2,0,0.3,0c0.4,0.1,0.7,0.4,1.1,0.9
		c0.4,0.5,0.8,1.1,1.1,1.8c0.3,0.7,0.5,1.4,0.7,2.3c0.2,0.8,0.2,1.7,0.1,2.5c-0.1,0.8-0.3,1.6-0.7,2.3c-0.4,0.7-1,1.3-1.8,1.7
		c-1,0.1-1.8,0.1-2.4,0.1c-0.6,0-1.1,0-1.5-0.1c-0.4-0.1-0.7-0.1-1-0.3c-0.2-0.1-0.5-0.3-0.7-0.5c-0.2-0.2-0.5-0.5-0.7-0.7
		C11.8,22.2,11.5,21.8,11.1,21.5"/>
	<path class="st0" d="M22.5,15.8c0-1.1,0.2-2.2,0.5-3.3c0.3-1,0.8-2,1.5-2.8c0.6-0.8,1.4-1.4,2.4-1.9c0.9-0.5,2-0.7,3.3-0.7
		c0.7,0.1,1.4,0.3,1.9,0.6c0.5,0.3,1,0.7,1.3,1.1c0.3,0.5,0.6,1,0.7,1.6c0.1,0.6,0.2,1.2,0.2,1.8c0,0.8-0.2,1.5-0.7,2.1
		c-0.5,0.6-1,1.2-1.7,1.6c-0.7,0.4-1.5,0.8-2.3,1s-1.6,0.3-2.3,0.3h-0.8c-0.3,0-0.5,0-0.7-0.1c-0.2-0.1-0.4-0.2-0.5-0.4
		C25.1,16.7,25,16.4,25,16c0-0.1,0-0.2,0-0.3c0-0.1,0.1-0.1,0.3-0.2c0.2,0,0.4,0,0.7,0c0.3,0,0.7,0.1,1.3,0.2c0.3,0,0.8-0.1,1.3-0.3
		c0.6-0.2,1.2-0.5,1.8-0.8c0.6-0.3,1.1-0.7,1.6-1.1c0.4-0.4,0.7-0.9,0.7-1.3c0-0.4-0.1-0.9-0.2-1.3c-0.1-0.4-0.4-0.8-0.6-1.1
		c-0.3-0.3-0.6-0.6-1-0.8c-0.4-0.2-0.8-0.3-1.3-0.2c-0.8,0.1-1.5,0.3-2.1,0.6c-0.6,0.4-1.2,0.8-1.6,1.4c-0.4,0.6-0.8,1.2-1,1.9
		c-0.2,0.7-0.4,1.4-0.4,2.1c0,0.6,0,1.1,0,1.7c0,0.6,0.1,1.1,0.2,1.7c0.1,0.6,0.4,1.1,0.7,1.6c0.3,0.5,0.8,1,1.4,1.3
		c0.6,0.4,1.4,0.7,2.3,1c0.9,0.3,2.1,0.4,3.4,0.5l5.9-0.4C38,22.6,37.6,23,37,23.3c-0.5,0.3-1.1,0.6-1.7,0.7
		c-0.6,0.2-1.2,0.3-1.8,0.4c-0.6,0.1-1.2,0.1-1.7,0.1c-1.3,0-2.5-0.2-3.6-0.6c-1.1-0.4-2.1-1-3-1.8c-0.9-0.8-1.5-1.7-2-2.8
		C22.7,18.4,22.5,17.1,22.5,15.8"/>
	<path class="st0" d="M54.6,17.7c0.2,0.8,0.4,1.5,0.6,2.1c0.2,0.6,0.4,1.1,0.6,1.5c0.3,0.4,0.6,0.7,0.9,0.8c0.4,0.2,0.8,0.3,1.4,0.3
		c0.7,0,1.5-0.2,2.2-0.6c0.8-0.4,1.5-0.9,2.2-1.6c0.7-0.6,1.2-1.3,1.7-2.1c0.4-0.8,0.7-1.5,0.7-2.2v-0.4v-0.4
		c-1.2-1.1-2.2-2-3.2-2.5c-1-0.5-1.9-0.7-2.6-0.8c-0.8,0-1.4,0.2-2,0.5c-0.6,0.4-1,0.8-1.4,1.4c-0.4,0.6-0.6,1.2-0.8,1.9
		C54.7,16.4,54.6,17.1,54.6,17.7 M52.6,17.1c0-0.8,0.1-1.7,0.3-2.6c0.2-0.9,0.5-1.7,1-2.5c0.5-0.8,1-1.4,1.7-1.9
		c0.7-0.5,1.5-0.7,2.6-0.7c0.5,0,1.1,0.1,1.6,0.2s1.1,0.4,1.6,0.7c0.6,0.3,1.1,0.6,1.7,1c0.6,0.4,1.2,0.8,1.9,1.3
		c0.1-0.9,0.1-1.8-0.1-2.7c-0.2-0.9-0.4-1.9-0.6-2.8c-0.2-0.9-0.5-1.8-0.7-2.6c-0.3-0.8-0.4-1.5-0.5-2.2C63,1.7,63,1.2,63,0.8
		c0.1-0.4,0.4-0.7,0.8-0.8c0.6,0.4,1.1,1.1,1.5,1.9c0.4,0.8,0.8,1.7,1.1,2.8C66.8,5.7,67,6.8,67.2,8c0.2,1.2,0.4,2.4,0.5,3.6
		c0.1,1.2,0.2,2.4,0.3,3.6c0.1,1.2,0.2,2.2,0.2,3.2s0.2,1.8,0.2,2.5c0.1,0.7,0.2,1.2,0.3,1.5c0,0.4-0.1,0.6-0.4,0.7
		c-0.3,0.1-0.5,0.1-0.8,0.1c-0.2,0-0.4-0.1-0.6-0.2c-0.2-0.2-0.3-0.4-0.4-0.6c-0.1-0.2-0.2-0.5-0.2-0.7c-0.1-0.3-0.2-0.5-0.2-0.8
		c-0.1-0.2-0.2-0.4-0.3-0.6c-0.1-0.2-0.3-0.2-0.4-0.2c0,0-0.1,0-0.2,0c-0.1,0-0.1,0-0.1,0c-0.4,0.6-0.9,1.1-1.5,1.7
		c-0.6,0.5-1.2,1-1.8,1.4c-0.7,0.4-1.4,0.7-2.1,1c-0.7,0.2-1.5,0.4-2.2,0.4c-0.8,0-1.6-0.3-2.2-0.8c-0.6-0.5-1.2-1.2-1.6-2
		c-0.4-0.8-0.7-1.6-1-2.4C52.7,18.5,52.6,17.8,52.6,17.1"/>
	<path class="st0" d="M71.9,17.6c0,0.7,0.1,1.3,0.4,2c0.3,0.6,0.6,1.2,1.1,1.6c0.4,0.5,1,0.8,1.6,1.1c0.6,0.3,1.3,0.4,2,0.4
		c0.4,0,0.8,0,1.4-0.2c0.5-0.2,1.1-0.4,1.6-0.7c0.5-0.3,1.1-0.7,1.6-1.2c0.5-0.5,0.9-0.9,1.2-1.5c0.3-0.5,0.5-1.1,0.6-1.7
		c0.1-0.6,0-1.2-0.3-1.7c-0.3-0.6-0.8-1.1-1.5-1.7c-0.7-0.5-1.7-1-3-1.5c-0.7,0-1.5,0.1-2.3,0.3c-0.8,0.2-1.5,0.5-2.1,0.9
		c-0.6,0.4-1.2,0.9-1.6,1.6C72.1,16.1,71.9,16.8,71.9,17.6 M70.3,17.9c0-1.2,0.3-2.3,0.8-3.2c0.5-0.9,1.2-1.7,2.1-2.3
		c0.9-0.6,1.8-1.1,2.9-1.4c1.1-0.3,2.1-0.4,3.2-0.4c0.6,0,1.1,0.1,1.6,0.3c0.5,0.2,1,0.5,1.4,0.9c0.5,0.4,0.9,0.8,1.2,1.3
		c0.4,0.5,0.7,1,0.9,1.5c0.3,0.5,0.4,1,0.6,1.5c0.1,0.5,0.2,1,0.2,1.5c0,1.1-0.2,2.1-0.7,3c-0.4,0.9-1,1.6-1.8,2.2
		c-0.7,0.6-1.6,1.1-2.5,1.4c-0.9,0.3-1.9,0.5-2.9,0.5c-1,0-1.9-0.2-2.8-0.5c-0.8-0.3-1.6-0.8-2.2-1.3c-0.6-0.6-1.1-1.3-1.5-2.1
		C70.5,19.9,70.3,18.9,70.3,17.9"/>
	<path class="st0" d="M87.1,11.7c0-0.2,0.1-0.3,0.2-0.4c0.1-0.1,0.3-0.1,0.5-0.1c0.1,0,0.2,0,0.3,0.1c0.1,0.1,0.1,0.1,0.1,0.2
		c0,0.1,0.1,0.2,0.1,0.2c0,0.1,0.1,0.1,0.2,0.1c0.3,0,0.7-0.1,1.1-0.4c0.4-0.2,0.9-0.5,1.4-0.8c0.5-0.3,1.1-0.5,1.6-0.8
		c0.6-0.2,1.2-0.4,1.7-0.4c0.7,0,1.4,0.2,2.1,0.6c0.6,0.4,1.2,0.9,1.7,1.5c0.5,0.6,0.9,1.4,1.3,2.1s0.6,1.6,0.9,2.4
		c0.2,0.8,0.4,1.6,0.5,2.4c0.1,0.8,0.2,1.5,0.2,2c0,0.2,0,0.5-0.1,0.9c0,0.4-0.1,0.8-0.2,1.2c-0.1,0.4-0.2,0.7-0.4,1
		c-0.2,0.3-0.4,0.4-0.7,0.4c0,0-0.1,0-0.2,0c-0.1,0-0.2,0-0.3-0.1c-0.1,0-0.2-0.1-0.3-0.1c-0.1,0-0.1-0.1-0.1-0.2
		c0.2-1.7,0.2-3.3,0-4.8c-0.2-1.5-0.5-2.8-1-3.9c-0.4-1.1-1-2-1.6-2.7c-0.6-0.7-1.3-1-2-1c-0.7,0-1.3,0.1-1.9,0.3
		c-0.6,0.2-1.1,0.5-1.6,1c-0.4,0.4-0.8,0.9-1,1.5c-0.3,0.6-0.4,1.2-0.4,1.9c0,0.7,0.1,1.4,0.2,2.1c0.1,0.7,0.3,1.4,0.4,2.1
		c0.2,0.7,0.3,1.4,0.4,2.1c0.1,0.7,0.2,1.4,0.2,2.1c-0.6,0-1.1-0.3-1.6-0.8c-0.4-0.5-0.8-1.2-1-1.9c-0.3-0.8-0.5-1.7-0.6-2.7
		c-0.1-1-0.2-2-0.3-2.9c-0.1-1-0.1-1.9-0.1-2.7V11.7z"/>
	<path class="st0" d="M102.3,19c0-0.4,0.1-0.8,0.3-1.3c0.2-0.5,0.5-1,0.9-1.4c0.4-0.5,0.9-0.9,1.6-1.2c0.6-0.4,1.4-0.6,2.3-0.8
		c0.9-0.2,1.9-0.2,3,0c1.1,0.1,2.3,0.5,3.7,1V15l0-0.3c0-0.6-0.2-1.2-0.5-1.7c-0.3-0.6-0.8-1.1-1.3-1.6c-0.5-0.5-1.1-0.9-1.7-1.2
		c-0.6-0.3-1.2-0.4-1.7-0.4c-0.2,0-0.4,0-0.6,0.1c-0.2,0.1-0.3,0.1-0.5,0.2c-0.2,0.1-0.3,0.2-0.4,0.3c-0.1,0.1-0.3,0.1-0.5,0.1
		c0,0-0.1,0-0.1,0c0,0,0,0-0.1-0.1c0,0-0.1-0.1-0.2-0.2c-0.1-0.1-0.1-0.1-0.1-0.1c0-0.4,0.1-0.7,0.2-1c0.1-0.3,0.3-0.5,0.6-0.7
		c0.3-0.2,0.5-0.3,0.9-0.4c0.3-0.1,0.7-0.1,1-0.1c0.9,0.1,1.7,0.4,2.5,0.8c0.8,0.5,1.5,1,2.2,1.7c0.7,0.7,1.3,1.5,1.8,2.4
		c0.5,0.9,0.9,1.8,1.3,2.8c0.3,1,0.6,1.9,0.7,2.9c0.1,1,0.1,2,0,2.8c0,0-0.1,0-0.2,0c-0.1,0-0.2,0-0.4,0c-0.1,0-0.2,0-0.3,0l-0.2,0
		c-0.5-1-1-1.9-1.6-2.5c-0.6-0.6-1.1-1.1-1.7-1.5c-0.6-0.4-1.1-0.6-1.6-0.8c-0.5-0.1-0.9-0.2-1.2-0.3c-0.3,0-0.7,0-1.2,0.1
		c-0.5,0-0.9,0.1-1.4,0.2c-0.5,0.1-1,0.3-1.5,0.4c-0.5,0.2-0.9,0.4-1.3,0.7c-0.4,0.3-0.7,0.6-0.9,0.9c-0.2,0.4-0.3,0.8-0.3,1.3
		c0,0.5,0.2,1,0.6,1.3c0.4,0.4,0.9,0.7,1.5,0.9c0.6,0.2,1.2,0.4,1.8,0.5c0.6,0.1,1.1,0.1,1.5,0.1c0.6,0,1.2,0,1.8-0.1
		c0.6-0.1,1.2-0.1,1.8-0.2c0.6-0.1,1.2-0.2,1.7-0.2c0.6-0.1,1.1-0.1,1.7-0.1h0.2c0.1,0,0.2,0,0.3,0c0.1,0,0.2,0,0.3,0h0.2
		c0.2,0.1,0.3,0.2,0.3,0.3c0,0.1,0,0.3,0,0.4s-0.1,0.3-0.4,0.4c-0.3,0.2-0.6,0.3-1.1,0.5c-0.4,0.2-0.9,0.3-1.5,0.5
		c-0.5,0.2-1.1,0.3-1.6,0.4c-0.5,0.1-1,0.2-1.4,0.3c-0.4,0.1-0.7,0.1-0.9,0.1c-0.9,0-1.9-0.1-2.9-0.2c-1-0.2-2-0.4-2.8-0.8
		c-0.9-0.4-1.6-1-2.1-1.7C102.6,21.1,102.3,20.2,102.3,19"/>
	<path class="st0" d="M123.3,13.3h-0.9c-0.4,0-0.9,0-1.4-0.1c-0.5-0.1-0.9-0.2-1.3-0.4c-0.4-0.2-0.6-0.4-0.6-0.8c0-0.1,0-0.2,0-0.4
		c0-0.2,0.1-0.2,0.3-0.2l3.4-0.3c0.1-0.8,0.2-1.5,0.2-2c0-0.5,0.1-1,0-1.5c0-0.5,0-0.9-0.1-1.4c0-0.5-0.1-1.1-0.1-1.9
		c0-0.2,0-0.3,0.1-0.4c0.1-0.1,0.1-0.2,0.2-0.2c0.1,0,0.2-0.1,0.3-0.1c0.1,0,0.2,0,0.3,0c0.1,0,0.3,0,0.4,0.1
		c0.1,0.1,0.3,0.2,0.4,0.3c0.1,0.1,0.2,0.3,0.3,0.4c0.1,0.1,0.1,0.3,0.1,0.4l0.3,6.2l2.8,0.1c0.4,0,0.7,0,1,0.2
		c0.3,0.2,0.5,0.5,0.5,1c-0.3,0.3-0.6,0.5-1,0.5c-0.4,0.1-0.8,0.1-1.2,0.1c-0.4,0-0.8,0-1.2,0c-0.4,0-0.7,0.1-1.1,0.3
		c0,0.1,0,0.5,0,1.1c0,0.6,0,1.3,0.1,2.1c0,0.8,0.1,1.7,0.1,2.6c0,0.9,0.1,1.8,0.1,2.6c0,0.8,0,1.4,0,2c0,0.5,0,0.9,0,0.9
		c-0.5,0.3-0.9,0.3-1.2-0.1c-0.3-0.4-0.6-0.9-0.7-1.6c-0.2-0.7-0.3-1.6-0.4-2.5c-0.1-1-0.1-1.9-0.1-2.8c0-0.9,0-1.8,0-2.6
		S123.2,13.6,123.3,13.3"/>
	<path class="st0" d="M130.5,15.8c0-1.1,0.2-2.2,0.5-3.3c0.3-1,0.8-2,1.5-2.8c0.6-0.8,1.4-1.4,2.4-1.9c0.9-0.5,2-0.7,3.3-0.7
		c0.7,0.1,1.4,0.3,1.9,0.6c0.5,0.3,1,0.7,1.3,1.1c0.3,0.5,0.6,1,0.7,1.6c0.1,0.6,0.2,1.2,0.2,1.8c0,0.8-0.2,1.5-0.7,2.1
		c-0.5,0.6-1,1.2-1.7,1.6c-0.7,0.4-1.5,0.8-2.3,1c-0.8,0.2-1.6,0.3-2.3,0.3h-0.8c-0.3,0-0.5,0-0.7-0.1c-0.2-0.1-0.4-0.2-0.5-0.4
		c-0.1-0.2-0.2-0.4-0.2-0.8c0-0.1,0-0.2,0-0.3c0-0.1,0.1-0.1,0.3-0.2c0.2,0,0.4,0,0.7,0c0.3,0,0.7,0.1,1.3,0.2
		c0.3,0,0.8-0.1,1.3-0.3c0.6-0.2,1.2-0.5,1.8-0.8c0.6-0.3,1.1-0.7,1.6-1.1c0.4-0.4,0.7-0.9,0.7-1.3c0-0.4-0.1-0.9-0.2-1.3
		c-0.1-0.4-0.4-0.8-0.6-1.1c-0.3-0.3-0.6-0.6-1-0.8c-0.4-0.2-0.8-0.3-1.3-0.2c-0.8,0.1-1.5,0.3-2.1,0.6c-0.6,0.4-1.2,0.8-1.6,1.4
		c-0.4,0.6-0.8,1.2-1,1.9c-0.2,0.7-0.4,1.4-0.4,2.1c0,0.6,0,1.1,0,1.7c0,0.6,0.1,1.1,0.2,1.7c0.1,0.6,0.4,1.1,0.7,1.6
		c0.3,0.5,0.8,1,1.4,1.3c0.6,0.4,1.4,0.7,2.3,1c0.9,0.3,2.1,0.4,3.4,0.5l5.9-0.4c-0.4,0.5-0.8,0.9-1.3,1.2c-0.5,0.3-1.1,0.6-1.7,0.7
		c-0.6,0.2-1.2,0.3-1.8,0.4c-0.6,0.1-1.2,0.1-1.7,0.1c-1.3,0-2.5-0.2-3.6-0.6c-1.1-0.4-2.1-1-3-1.8c-0.9-0.8-1.5-1.7-2-2.8
		C130.7,18.4,130.5,17.1,130.5,15.8"/>
	<path class="st0" d="M166,24v-0.2c0-0.1,0-0.2,0-0.3c0-0.1,0-0.2,0-0.3v-0.2c0-0.2,0-0.5,0-1c0-0.4,0.1-0.9,0.1-1.4
		c0-0.5,0.1-1.1,0.1-1.6c0-0.6,0.1-1.1,0.1-1.6c0-0.5,0.1-1,0.1-1.4c0-0.4,0-0.7,0-1v-0.4c0-0.1,0-0.3,0-0.4c0-0.1-0.1-0.2-0.2-0.3
		c-0.1-0.1-0.3-0.2-0.4-0.2c-0.1,0.1-0.2,0.3-0.5,0.5c-0.2,0.3-0.5,0.5-0.7,0.9c-0.3,0.3-0.6,0.7-0.9,1c-0.3,0.4-0.6,0.7-0.9,1
		c-0.3,0.3-0.6,0.5-0.9,0.7c-0.3,0.2-0.5,0.3-0.7,0.3c-0.5,0-0.8-0.3-0.8-0.8V17c0,0,0.1-0.1,0.1-0.2c0.1-0.1,0.1-0.2,0.2-0.3
		c0.1-0.1,0.1-0.2,0.2-0.3c0.1-0.1,0.1-0.1,0.1-0.2l6-6.3c0.2-0.2,0.3-0.4,0.4-0.8c0.1-0.3,0.2-0.7,0.3-1.1c0.1-0.4,0.1-0.8,0.2-1.2
		c0.1-0.4,0.1-0.7,0.2-1c0.1-0.3,0.2-0.6,0.4-0.8c0.2-0.2,0.4-0.3,0.6-0.3c0.1,0,0.3,0,0.4,0c0.1,0,0.2,0.1,0.3,0.3v0.2
		c0,0.1,0,0.2,0,0.3c0,0.1,0,0.2,0,0.3v0.2c0,0.1,0,0.4-0.1,1c-0.1,0.6-0.1,1.3-0.2,2.2c-0.1,0.9-0.2,1.9-0.3,3
		c-0.1,1.1-0.3,2.2-0.4,3.4c-0.2,1.1-0.3,2.2-0.5,3.3c-0.2,1.1-0.3,2-0.5,2.9c-0.2,0.8-0.3,1.5-0.5,2c-0.2,0.5-0.3,0.8-0.4,0.8
		c-0.2,0-0.4,0-0.5-0.1C166.3,24.4,166.1,24.2,166,24"/>
	<path class="st0" d="M184.4,22.1c0.2,0.2,0.4,0.3,0.6,0.3c0.2,0,0.4,0,0.7,0c0.5,0,1-0.1,1.4-0.3c0.5-0.2,0.9-0.4,1.2-0.8
		c0.4-0.3,0.7-0.7,0.9-1.2c0.2-0.5,0.3-0.9,0.3-1.4c0-0.2,0-0.5-0.1-0.7c-0.1-0.3-0.2-0.5-0.3-0.8c-0.1-0.3-0.3-0.5-0.5-0.6
		c-0.2-0.2-0.4-0.3-0.7-0.3c-0.5,0-0.9,0.2-1.4,0.5c-0.4,0.4-0.8,0.8-1.1,1.3c-0.3,0.5-0.6,1.1-0.7,1.6c-0.2,0.6-0.3,1.1-0.3,1.5
		v0.4C184.3,21.9,184.3,22,184.4,22.1 M182.7,21.3c0-0.4,0.1-0.8,0.2-1.4c0.1-0.5,0.3-1,0.5-1.5c0.2-0.5,0.5-1,0.8-1.5
		c0.3-0.5,0.7-0.9,1-1.3c0.4-0.4,0.8-0.7,1.2-0.9c0.4-0.2,0.9-0.3,1.3-0.3c0.5,0,0.9,0.1,1.4,0.4c0.4,0.3,0.8,0.6,1.1,1
		c0.3,0.4,0.6,0.9,0.8,1.4c0.2,0.5,0.3,1,0.3,1.4c0,0.6-0.2,1.3-0.5,2c-0.3,0.7-0.7,1.3-1.2,1.9c-0.5,0.6-1.1,1-1.7,1.4
		c-0.6,0.4-1.3,0.5-1.9,0.5c-0.5,0-0.9-0.1-1.3-0.2c-0.4-0.1-0.8-0.3-1.1-0.6c-0.3-0.2-0.5-0.5-0.7-0.9
		C182.8,22.3,182.7,21.8,182.7,21.3 M175.5,23.7c0-0.4,0.2-1,0.5-1.8c0.3-0.8,0.8-1.7,1.3-2.7s1.2-2.1,1.9-3.2
		c0.7-1.1,1.5-2.3,2.3-3.4c0.8-1.1,1.5-2.2,2.3-3.2c0.8-1,1.5-1.9,2.1-2.7c0.6-0.8,1.2-1.4,1.6-1.9c0.5-0.5,0.8-0.7,0.9-0.7
		c0.1,0,0.2,0,0.2,0.1c0.1,0.1,0.1,0.2,0.1,0.3c0,0.1,0,0.2,0,0.3v0.2c-0.5,0.9-1.1,1.7-1.7,2.4c-0.6,0.7-1.2,1.4-1.8,2.1
		c-0.6,0.7-1.2,1.5-1.7,2.3c-0.5,0.8-1,1.7-1.5,2.7c-0.1,0.2-0.3,0.6-0.6,1.2c-0.3,0.6-0.6,1.3-1,2c-0.4,0.7-0.8,1.5-1.3,2.4
		c-0.4,0.8-0.9,1.6-1.3,2.3c-0.4,0.7-0.8,1.2-1.1,1.7c-0.3,0.4-0.5,0.7-0.7,0.7c-0.3,0-0.4-0.1-0.5-0.3
		C175.6,24.1,175.5,23.9,175.5,23.7 M172.9,10.8c0,0.2,0,0.4,0,0.7c0,0.3,0.1,0.5,0.2,0.7c0.1,0.2,0.2,0.4,0.4,0.6
		c0.2,0.2,0.4,0.3,0.6,0.4c0.3,0.1,0.7,0.1,1.1,0c0.4-0.1,0.9-0.3,1.3-0.5c0.4-0.2,0.7-0.5,1-0.9c0.3-0.3,0.4-0.7,0.4-1.1
		c0-0.3-0.1-0.6-0.2-1c-0.2-0.3-0.4-0.6-0.6-0.8c-0.3-0.2-0.6-0.4-0.9-0.6c-0.3-0.1-0.6-0.2-0.9-0.2c-0.4,0-0.7,0.1-1,0.3
		c-0.3,0.2-0.6,0.4-0.8,0.7c-0.2,0.3-0.4,0.6-0.5,0.9C173,10.2,172.9,10.5,172.9,10.8 M171,11c0-0.5,0.1-1.1,0.3-1.7
		c0.2-0.6,0.5-1.1,0.9-1.5c0.4-0.4,0.8-0.8,1.3-1.1c0.5-0.3,1.1-0.4,1.6-0.4c0.5,0,1,0.1,1.6,0.3s1,0.5,1.5,0.9
		c0.4,0.4,0.8,0.8,1.1,1.3c0.3,0.5,0.4,1,0.4,1.6c0,0.6-0.1,1.2-0.4,1.7c-0.2,0.6-0.6,1-1,1.5c-0.4,0.4-0.9,0.8-1.4,1
		c-0.5,0.3-1.1,0.4-1.7,0.4c-0.5,0-1-0.1-1.5-0.3c-0.5-0.2-0.9-0.5-1.3-0.8c-0.4-0.4-0.7-0.8-1-1.2C171.2,12,171,11.5,171,11"/>
	<path class="st0" d="M205.6,19c0-0.4,0.1-0.8,0.3-1.3c0.2-0.5,0.5-1,0.9-1.4c0.4-0.5,0.9-0.9,1.6-1.2c0.6-0.4,1.4-0.6,2.3-0.8
		c0.9-0.2,1.9-0.2,3,0c1.1,0.1,2.3,0.5,3.7,1V15l0-0.3c0-0.6-0.2-1.2-0.5-1.7c-0.3-0.6-0.8-1.1-1.3-1.6c-0.5-0.5-1.1-0.9-1.7-1.2
		c-0.6-0.3-1.2-0.4-1.7-0.4c-0.2,0-0.4,0-0.6,0.1c-0.2,0.1-0.3,0.1-0.5,0.2c-0.2,0.1-0.3,0.2-0.4,0.3c-0.1,0.1-0.3,0.1-0.5,0.1
		c0,0-0.1,0-0.1,0c0,0,0,0-0.1-0.1c0,0-0.1-0.1-0.2-0.2c-0.1-0.1-0.1-0.1-0.1-0.1c0-0.4,0.1-0.7,0.2-1c0.1-0.3,0.3-0.5,0.6-0.7
		c0.3-0.2,0.5-0.3,0.9-0.4c0.3-0.1,0.7-0.1,1-0.1c0.9,0.1,1.7,0.4,2.5,0.8c0.8,0.5,1.5,1,2.2,1.7c0.7,0.7,1.3,1.5,1.8,2.4
		c0.5,0.9,0.9,1.8,1.3,2.8c0.3,1,0.6,1.9,0.7,2.9c0.1,1,0.1,2,0,2.8c0,0-0.1,0-0.2,0c-0.1,0-0.2,0-0.4,0c-0.1,0-0.2,0-0.3,0l-0.2,0
		c-0.5-1-1-1.9-1.6-2.5c-0.6-0.6-1.1-1.1-1.7-1.5c-0.6-0.4-1.1-0.6-1.6-0.8c-0.5-0.1-0.9-0.2-1.2-0.3c-0.3,0-0.7,0-1.2,0.1
		c-0.5,0-0.9,0.1-1.4,0.2c-0.5,0.1-1,0.3-1.5,0.4c-0.5,0.2-0.9,0.4-1.3,0.7s-0.7,0.6-0.9,0.9c-0.2,0.4-0.3,0.8-0.3,1.3
		c0,0.5,0.2,1,0.6,1.3c0.4,0.4,0.9,0.7,1.5,0.9c0.6,0.2,1.2,0.4,1.8,0.5c0.6,0.1,1.1,0.1,1.5,0.1c0.6,0,1.2,0,1.8-0.1
		c0.6-0.1,1.2-0.1,1.8-0.2c0.6-0.1,1.2-0.2,1.7-0.2c0.6-0.1,1.1-0.1,1.7-0.1h0.2c0.1,0,0.2,0,0.3,0c0.1,0,0.2,0,0.3,0h0.2
		c0.2,0.1,0.3,0.2,0.3,0.3c0,0.1,0,0.3,0,0.4s-0.1,0.3-0.4,0.4c-0.3,0.2-0.6,0.3-1.1,0.5c-0.4,0.2-0.9,0.3-1.5,0.5
		c-0.5,0.2-1.1,0.3-1.6,0.4c-0.5,0.1-1,0.2-1.4,0.3c-0.4,0.1-0.7,0.1-0.9,0.1c-0.9,0-1.9-0.1-2.9-0.2c-1-0.2-2-0.4-2.8-0.8
		c-0.9-0.4-1.6-1-2.1-1.7C205.8,21.1,205.6,20.2,205.6,19"/>
	<path class="st0" d="M224.5,18.7c0,0.4,0.1,0.8,0.2,1.1c0.1,0.4,0.3,0.7,0.5,1c0.2,0.3,0.5,0.5,0.9,0.7c0.3,0.2,0.7,0.2,1.1,0.2
		c1.1,0,2-0.2,2.6-0.7c0.6-0.4,1-1,1.2-1.7c0.2-0.7,0.3-1.4,0.3-2.1c0-0.8-0.1-1.5-0.1-2.1c0-0.3,0-0.6-0.1-0.9
		c0-0.3-0.1-0.6-0.3-0.9c-0.1-0.3-0.3-0.5-0.5-0.6c-0.2-0.2-0.5-0.2-0.9-0.2c-0.7,0-1.4,0.2-2,0.6c-0.6,0.4-1.1,0.9-1.6,1.5
		c-0.4,0.6-0.8,1.3-1,2C224.7,17.4,224.5,18.1,224.5,18.7 M217.6,33.8c-0.1-0.3-0.1-0.6,0-0.8c0.1-0.2,0.2-0.4,0.4-0.6
		c0.2-0.2,0.4-0.3,0.6-0.3c0.2,0,0.4,0,0.5,0.1c0.1,0.1,0.2,0.3,0.3,0.5c0,0.3,0,0.6-0.2,1.1c0,0.5,0.2,1,0.6,1.4
		c0.4,0.5,0.9,0.9,1.6,1.3c0.6,0.4,1.4,0.7,2.1,1c0.8,0.3,1.5,0.6,2.2,0.8c0.7,0.2,1.4,0.4,1.9,0.5c0.5,0.1,0.9,0.2,1.2,0.2
		c0.5,0,1-0.1,1.4-0.4c0.4-0.3,0.7-0.7,1-1.1c0.3-0.5,0.5-1,0.7-1.6c0.2-0.6,0.3-1.2,0.4-1.7c0.1-0.6,0.1-1.1,0.2-1.7
		c0-0.6,0-1,0-1.4c0-0.2,0-0.5,0-1c0-0.5-0.1-1-0.1-1.6c-0.1-0.6-0.1-1.3-0.2-1.9c-0.1-0.7-0.2-1.3-0.3-1.8c-0.1-0.6-0.2-1-0.3-1.4
		c-0.1-0.4-0.2-0.5-0.4-0.5c-0.2,0-0.5,0.1-0.8,0.2c-0.3,0.1-0.6,0.3-0.9,0.4c-0.3,0.2-0.6,0.3-1,0.4c-0.3,0.1-0.6,0.2-1,0.2
		c-0.6,0-1.2-0.1-1.8-0.4c-0.6-0.3-1.1-0.6-1.5-1c-0.4-0.4-0.8-0.9-1-1.5c-0.3-0.6-0.4-1.2-0.4-1.8c0-1,0.2-2,0.6-3
		c0.4-1,0.9-1.9,1.6-2.8c0.7-0.8,1.5-1.5,2.4-2c0.9-0.5,1.9-0.8,2.9-0.8c0.8,0.2,1.4,0.7,1.9,1.5c0.5,0.8,0.9,1.7,1.2,2.9
		c0.3,1.1,0.5,2.4,0.6,3.8c0.1,1.4,0.2,2.8,0.2,4.3c0,1.5,0.1,2.9,0.1,4.3c0,1.4,0.1,2.7,0.2,3.8c0,0.5,0,1.1-0.1,1.8
		c-0.1,0.7-0.1,1.4-0.3,2.1c-0.1,0.7-0.3,1.4-0.5,2.2c-0.2,0.7-0.5,1.4-0.9,1.9c-0.4,0.6-0.8,1-1.4,1.4c-0.5,0.3-1.2,0.5-1.9,0.5
		c-0.6,0-1.3-0.1-2.1-0.2c-0.8-0.1-1.6-0.3-2.5-0.6c-0.9-0.3-1.7-0.6-2.6-1.1c-0.9-0.4-1.6-0.9-2.3-1.4c-0.7-0.5-1.2-1.1-1.7-1.8
		C217.8,35.3,217.6,34.6,217.6,33.8"/>
	<path class="st0" d="M235,19c0-0.4,0.1-0.8,0.3-1.3c0.2-0.5,0.5-1,0.9-1.4c0.4-0.5,0.9-0.9,1.6-1.2c0.6-0.4,1.4-0.6,2.3-0.8
		c0.9-0.2,1.9-0.2,3,0c1.1,0.1,2.3,0.5,3.7,1V15l0-0.3c0-0.6-0.2-1.2-0.5-1.7c-0.3-0.6-0.8-1.1-1.3-1.6c-0.5-0.5-1.1-0.9-1.7-1.2
		c-0.6-0.3-1.2-0.4-1.7-0.4c-0.2,0-0.4,0-0.6,0.1c-0.2,0.1-0.3,0.1-0.5,0.2c-0.2,0.1-0.3,0.2-0.4,0.3c-0.1,0.1-0.3,0.1-0.5,0.1
		c0,0-0.1,0-0.1,0c0,0,0,0-0.1-0.1c0,0-0.1-0.1-0.2-0.2c-0.1-0.1-0.1-0.1-0.1-0.1c0-0.4,0.1-0.7,0.2-1c0.1-0.3,0.3-0.5,0.6-0.7
		c0.3-0.2,0.5-0.3,0.9-0.4c0.3-0.1,0.7-0.1,1-0.1c0.9,0.1,1.7,0.4,2.5,0.8c0.8,0.5,1.5,1,2.2,1.7c0.7,0.7,1.3,1.5,1.8,2.4
		c0.5,0.9,0.9,1.8,1.3,2.8c0.3,1,0.6,1.9,0.7,2.9c0.1,1,0.1,2,0,2.8c0,0-0.1,0-0.2,0c-0.1,0-0.2,0-0.4,0c-0.1,0-0.2,0-0.3,0l-0.2,0
		c-0.5-1-1-1.9-1.6-2.5c-0.6-0.6-1.1-1.1-1.7-1.5c-0.6-0.4-1.1-0.6-1.6-0.8c-0.5-0.1-0.9-0.2-1.2-0.3c-0.3,0-0.7,0-1.2,0.1
		c-0.5,0-0.9,0.1-1.4,0.2c-0.5,0.1-1,0.3-1.5,0.4c-0.5,0.2-0.9,0.4-1.3,0.7c-0.4,0.3-0.7,0.6-0.9,0.9c-0.2,0.4-0.3,0.8-0.3,1.3
		c0,0.5,0.2,1,0.6,1.3c0.4,0.4,0.9,0.7,1.5,0.9c0.6,0.2,1.2,0.4,1.8,0.5c0.6,0.1,1.1,0.1,1.5,0.1c0.6,0,1.2,0,1.8-0.1
		c0.6-0.1,1.2-0.1,1.8-0.2c0.6-0.1,1.2-0.2,1.7-0.2c0.6-0.1,1.1-0.1,1.7-0.1h0.2c0.1,0,0.2,0,0.3,0c0.1,0,0.2,0,0.3,0h0.2
		c0.2,0.1,0.3,0.2,0.3,0.3c0,0.1,0,0.3,0,0.4s-0.1,0.3-0.4,0.4c-0.3,0.2-0.6,0.3-1.1,0.5c-0.4,0.2-0.9,0.3-1.5,0.5
		c-0.5,0.2-1.1,0.3-1.6,0.4c-0.5,0.1-1,0.2-1.4,0.3c-0.4,0.1-0.7,0.1-0.9,0.1c-0.9,0-1.9-0.1-2.9-0.2c-1-0.2-2-0.4-2.8-0.8
		c-0.9-0.4-1.6-1-2.1-1.7C235.3,21.1,235,20.2,235,19"/>
	<path class="st0" d="M253.6,13.2v-0.5c0-0.2,0-0.5,0-0.8c0-0.3,0-0.5,0-0.8v-0.5c-0.1-0.7,0.1-1,0.6-1c0.2,0,0.4,0.1,0.6,0.2
		c0.2,0.1,0.3,0.3,0.4,0.5c-0.1,1.1,0,2.3,0.1,3.3c0.2,1.1,0.4,2.1,0.6,3.2c0.2,1,0.4,2.1,0.6,3.2c0.2,1.1,0.3,2.2,0.3,3.3
		c0,0.3-0.1,0.6-0.3,0.9c-0.2,0.3-0.5,0.5-0.8,0.5c-0.3,0-0.5-0.2-0.7-0.7c-0.2-0.5-0.4-1.1-0.5-1.9c-0.2-0.8-0.3-1.6-0.4-2.5
		c-0.1-0.9-0.2-1.8-0.2-2.7c-0.1-0.8-0.1-1.6-0.1-2.3C253.6,13.9,253.6,13.4,253.6,13.2 M251.9,4.9c0-0.3,0.1-0.4,0.2-0.5
		c0.2-0.1,0.4-0.1,0.6-0.1c0.2,0,0.4,0.1,0.6,0.3c0.3,0.2,0.5,0.4,0.6,0.7c0.2,0.3,0.3,0.5,0.3,0.7c0,0.3-0.1,0.4-0.5,0.5h-0.2
		c-0.3,0-0.6,0-0.8-0.1c-0.2,0-0.4-0.1-0.5-0.2c-0.1-0.1-0.2-0.2-0.3-0.4C251.9,5.5,251.9,5.3,251.9,4.9"/>
	<path class="st0" d="M258.4,11.7c0-0.2,0.1-0.3,0.2-0.4c0.1-0.1,0.3-0.1,0.5-0.1c0.1,0,0.2,0,0.3,0.1c0.1,0.1,0.1,0.1,0.1,0.2
		c0,0.1,0.1,0.2,0.1,0.2c0,0.1,0.1,0.1,0.2,0.1c0.3,0,0.7-0.1,1.1-0.4c0.4-0.2,0.9-0.5,1.4-0.8c0.5-0.3,1.1-0.5,1.6-0.8
		c0.6-0.2,1.2-0.4,1.7-0.4c0.7,0,1.4,0.2,2.1,0.6c0.6,0.4,1.2,0.9,1.7,1.5c0.5,0.6,0.9,1.4,1.3,2.1s0.6,1.6,0.9,2.4
		c0.2,0.8,0.4,1.6,0.5,2.4c0.1,0.8,0.2,1.5,0.2,2c0,0.2,0,0.5,0,0.9c0,0.4-0.1,0.8-0.2,1.2c-0.1,0.4-0.2,0.7-0.4,1
		c-0.2,0.3-0.4,0.4-0.7,0.4c0,0-0.1,0-0.2,0c-0.1,0-0.2,0-0.3-0.1c-0.1,0-0.2-0.1-0.3-0.1c-0.1,0-0.1-0.1-0.1-0.2
		c0.2-1.7,0.2-3.3,0-4.8c-0.2-1.5-0.5-2.8-1-3.9c-0.4-1.1-1-2-1.6-2.7c-0.6-0.7-1.3-1-2-1c-0.7,0-1.3,0.1-1.9,0.3
		c-0.6,0.2-1.1,0.5-1.6,1c-0.4,0.4-0.8,0.9-1,1.5c-0.3,0.6-0.4,1.2-0.4,1.9c0,0.7,0.1,1.4,0.2,2.1c0.1,0.7,0.3,1.4,0.4,2.1
		c0.2,0.7,0.3,1.4,0.4,2.1c0.1,0.7,0.2,1.4,0.2,2.1c-0.6,0-1.1-0.3-1.6-0.8c-0.4-0.5-0.8-1.2-1-1.9c-0.3-0.8-0.5-1.7-0.6-2.7
		c-0.1-1-0.2-2-0.3-2.9c-0.1-1-0.1-1.9-0.1-2.7V11.7z"/>
	<path class="st0" d="M273.5,20.6c0.2-0.1,0.3-0.2,0.5-0.2c0.1,0,0.3,0,0.5,0c0.2,0,0.4,0,0.6,0.1c0.2,0.1,0.4,0.2,0.5,0.4
		c0.2,0.1,0.3,0.3,0.5,0.4c0.2,0.1,0.4,0.2,0.6,0.3c0.6,0.2,1,0.4,1.4,0.6c0.3,0.2,0.7,0.3,0.9,0.4c0.3,0.1,0.6,0.1,1,0.2
		c0.4,0,0.9,0,1.5,0c0.5,0,1,0,1.7,0c0.7,0,1.3,0,1.9-0.2c0.6-0.1,1.1-0.3,1.5-0.7s0.6-0.8,0.6-1.5c0-0.6-0.1-1.1-0.5-1.5
		c-0.4-0.4-0.9-0.6-1.5-0.8c-0.6-0.2-1.3-0.3-2.1-0.4c-0.8-0.1-1.6-0.2-2.4-0.2c-0.8-0.1-1.6-0.2-2.4-0.4c-0.8-0.2-1.5-0.4-2.1-0.8
		c-0.6-0.4-1.1-0.8-1.5-1.5c-0.4-0.6-0.6-1.4-0.6-2.4c0.1-0.7,0.5-1.3,1-1.8c0.6-0.5,1.2-0.8,2-1.1c0.8-0.3,1.6-0.4,2.5-0.4
		c0.9,0,1.7,0.1,2.4,0.3c0.7,0.2,1.4,0.6,1.8,1.1c0.5,0.5,0.8,1.1,0.8,1.9c0,0.4,0,0.8-0.1,1.1c-0.1,0.3-0.3,0.5-0.4,0.6
		c-0.2,0.1-0.4,0.2-0.6,0.2c-0.2,0-0.4-0.1-0.5-0.2c-0.1-0.1-0.2-0.4-0.1-0.6c0-0.3,0.1-0.6,0.4-1c-0.1-0.4-0.3-0.7-0.8-1
		c-0.4-0.2-0.9-0.4-1.5-0.5c-0.5-0.1-1.1-0.1-1.8-0.1c-0.6,0.1-1.2,0.2-1.7,0.3c-0.5,0.2-0.9,0.4-1.3,0.7c-0.3,0.3-0.5,0.6-0.4,1
		c0,0.7,0.2,1.2,0.6,1.5c0.4,0.4,0.9,0.6,1.5,0.8c0.6,0.2,1.3,0.3,2.1,0.4c0.8,0.1,1.6,0.2,2.5,0.2c0.8,0.1,1.7,0.2,2.5,0.3
		c0.8,0.1,1.5,0.4,2.1,0.7c0.6,0.3,1.1,0.8,1.5,1.3c0.4,0.6,0.6,1.3,0.6,2.2c0,0.7-0.2,1.3-0.5,1.8s-0.8,0.9-1.3,1.2
		c-0.5,0.3-1.1,0.6-1.8,0.7c-0.6,0.2-1.2,0.2-1.8,0.2c-0.6,0-1.2,0-1.8,0c-0.6,0-1.3,0-2-0.1c-0.7-0.1-1.3-0.2-2-0.3
		c-0.7-0.1-1.3-0.4-1.9-0.7c-0.6-0.3-1.1-0.7-1.6-1.1C274.2,21.9,273.8,21.3,273.5,20.6"/>
	<path class="st0" d="M294.8,13.3h-0.9c-0.4,0-0.9,0-1.4-0.1c-0.5-0.1-0.9-0.2-1.3-0.4c-0.4-0.2-0.6-0.4-0.6-0.8c0-0.1,0-0.2,0-0.4
		c0-0.2,0.1-0.2,0.3-0.2l3.4-0.3c0.1-0.8,0.2-1.5,0.2-2c0-0.5,0.1-1,0-1.5c0-0.5,0-0.9-0.1-1.4c0-0.5-0.1-1.1-0.1-1.9
		c0-0.2,0-0.3,0.1-0.4c0.1-0.1,0.1-0.2,0.2-0.2c0.1,0,0.2-0.1,0.3-0.1c0.1,0,0.2,0,0.3,0c0.1,0,0.3,0,0.4,0.1
		c0.1,0.1,0.3,0.2,0.4,0.3c0.1,0.1,0.2,0.3,0.3,0.4c0.1,0.1,0.1,0.3,0.1,0.4l0.3,6.2l2.8,0.1c0.4,0,0.7,0,1,0.2
		c0.3,0.2,0.5,0.5,0.5,1c-0.3,0.3-0.6,0.5-1,0.5c-0.4,0.1-0.8,0.1-1.2,0.1c-0.4,0-0.8,0-1.2,0c-0.4,0-0.7,0.1-1.1,0.3
		c0,0.1,0,0.5,0,1.1c0,0.6,0,1.3,0.1,2.1c0,0.8,0,1.7,0.1,2.6c0,0.9,0.1,1.8,0.1,2.6c0,0.8,0,1.4,0,2c0,0.5,0,0.9,0,0.9
		c-0.5,0.3-0.9,0.3-1.2-0.1c-0.3-0.4-0.6-0.9-0.7-1.6c-0.2-0.7-0.3-1.6-0.4-2.5c-0.1-1-0.1-1.9-0.1-2.8c0-0.9,0-1.8,0-2.6
		S294.8,13.6,294.8,13.3"/>
	<path class="st0" d="M324.9,24c0-0.6,0.1-1.2,0.1-1.8c0-0.6,0.1-1.2,0.1-1.8c0-0.6,0.1-1.2,0.1-1.8c0-0.6,0-1.1,0-1.6
		c0-0.7-0.1-1.4-0.3-2c-0.2-0.6-0.5-1.2-0.9-1.7c-0.4-0.5-0.8-0.8-1.4-1.1c-0.6-0.3-1.2-0.4-2-0.4c-0.3,0-0.6,0-0.8,0.1
		c-0.2,0-0.4,0.1-0.7,0.2c-0.2,0.1-0.5,0.2-0.7,0.4c-0.3,0.2-0.6,0.4-0.9,0.6c0,0,0,0.1,0,0.2c0,0.1,0,0.2,0,0.2
		c0,0.5,0,1.1,0.1,1.9c0.1,0.8,0.2,1.6,0.3,2.5c0.1,0.9,0.2,1.7,0.3,2.5c0.1,0.8,0.2,1.5,0.2,2v0.3c0,0.1,0,0.3,0,0.4
		c0,0.2,0,0.3,0,0.4v0.3c-0.1,0.3-0.3,0.5-0.5,0.6c-0.2,0.1-0.4,0.1-0.7,0.1c-0.3,0-0.5-0.1-0.6-0.6c-0.1-0.4-0.2-1-0.3-1.8
		c-0.1-0.8-0.1-1.7-0.2-2.9c-0.1-1.1-0.1-2.4-0.2-3.7c-0.1-1.3-0.2-2.8-0.4-4.3c-0.2-1.5-0.5-3.1-0.8-4.6c-0.2-0.6-0.3-1.1-0.4-1.6
		c-0.1-0.4-0.2-0.8-0.3-1.2c-0.1-0.3-0.2-0.7-0.2-1.1c-0.1-0.4-0.1-0.8-0.2-1.3V1.5c0-0.1,0.1-0.2,0.2-0.2c0.1-0.1,0.2-0.1,0.4-0.2
		c0.1-0.1,0.3-0.1,0.4-0.1c0.1,0,0.3,0,0.3,0c0.4,1.1,0.8,2,1,2.8c0.3,0.8,0.5,1.4,0.6,2c0.2,0.6,0.3,1,0.3,1.4
		c0.1,0.4,0.1,0.7,0.2,1.1c0,0.4,0.1,0.7,0.1,1.1c0,0.4,0.1,0.8,0.1,1.4c1.1-0.7,2.2-1.1,3.1-1.2c0.9-0.1,1.8,0.1,2.5,0.4
		c0.7,0.3,1.4,0.9,1.9,1.6c0.5,0.7,1,1.5,1.3,2.4c0.4,0.9,0.6,1.8,0.8,2.8c0.2,1,0.3,1.9,0.4,2.9c0.1,0.9,0,1.8-0.1,2.6
		c-0.1,0.8-0.2,1.4-0.4,1.9c-0.2,0.5-0.5,0.7-0.8,0.8C325.7,24.7,325.3,24.5,324.9,24"/>
	<path class="st0" d="M341.2,19.8c-0.5,0.3-0.9,0.6-1.3,1c-0.4,0.4-0.7,0.8-1.1,1.2c-0.4,0.4-0.8,0.7-1.2,0.9
		c-0.5,0.3-1,0.4-1.7,0.4c-0.8,0-1.5-0.2-2.1-0.5c-0.6-0.3-1.2-0.8-1.7-1.4c-0.5-0.6-0.9-1.2-1.3-2c-0.4-0.7-0.7-1.5-0.9-2.3
		c-0.2-0.8-0.4-1.6-0.5-2.3c-0.1-0.8-0.2-1.4-0.2-2.1c-0.2-1.2-0.1-2.1,0.1-2.8c0.2-0.7,0.5-1.1,0.9-1.3c0.3-0.2,0.6-0.1,0.9,0.1
		c0.2,0.3,0.3,0.8,0.1,1.4c0,0.1-0.1,0.2-0.1,0.4c0,0.2,0,0.4-0.1,0.6c0,0.2,0,0.4-0.1,0.6c0,0.2,0,0.3,0,0.4c0,0.5,0,1,0.1,1.6
		c0.1,0.6,0.2,1.3,0.4,2c0.2,0.7,0.4,1.4,0.7,2c0.3,0.7,0.6,1.3,1,1.8c0.4,0.5,0.9,1,1.4,1.3c0.5,0.3,1.1,0.5,1.7,0.5
		c0.4,0,0.8-0.2,1.4-0.6c0.5-0.4,1-0.8,1.4-1.4c0.5-0.5,0.8-1.1,1.2-1.7c0.3-0.6,0.5-1.1,0.5-1.5c0-0.2,0-0.6,0-1.1c0-0.5,0-1,0-1.6
		c0-0.6,0-1.1,0-1.6c0-0.5,0-0.9,0-1.1c0.1-0.2,0.3-0.4,0.4-0.5c0.2-0.1,0.3-0.2,0.6-0.2c0.3,0,0.5,0.2,0.7,0.5
		c0.2,0.4,0.3,0.8,0.4,1.4c0.1,0.6,0.2,1.1,0.2,1.8c0,0.6,0.1,1.3,0.1,1.8c0,0.6,0,1.1,0.1,1.6c0,0.5,0.1,0.8,0.1,0.9
		c0.1,0.4,0.3,0.9,0.5,1.5c0.2,0.5,0.4,1.1,0.6,1.6c0.2,0.5,0.4,1,0.5,1.4c0.2,0.4,0.2,0.8,0.2,1c0,0.3-0.1,0.5-0.3,0.6
		c-0.2,0.1-0.4,0.1-0.7,0.1c-0.4,0-0.6-0.1-0.8-0.3c-0.2-0.2-0.3-0.4-0.4-0.7c-0.1-0.3-0.1-0.6-0.2-0.9c0-0.3-0.1-0.7-0.2-1
		c-0.1-0.4-0.2-0.7-0.4-1C341.9,20.3,341.6,20,341.2,19.8"/>
	<path class="st0" d="M346.5,11.7c0-0.2,0.1-0.3,0.2-0.4c0.1-0.1,0.3-0.1,0.5-0.1c0.1,0,0.2,0,0.3,0.1c0.1,0.1,0.1,0.1,0.1,0.2
		c0,0.1,0.1,0.2,0.1,0.2c0,0.1,0.1,0.1,0.2,0.1c0.3,0,0.7-0.1,1.1-0.4c0.4-0.2,0.9-0.5,1.4-0.8c0.5-0.3,1.1-0.5,1.6-0.8
		c0.6-0.2,1.2-0.4,1.7-0.4c0.7,0,1.4,0.2,2.1,0.6c0.6,0.4,1.2,0.9,1.7,1.5c0.5,0.6,0.9,1.4,1.3,2.1c0.4,0.8,0.6,1.6,0.9,2.4
		c0.2,0.8,0.4,1.6,0.5,2.4c0.1,0.8,0.2,1.5,0.2,2c0,0.2,0,0.5-0.1,0.9c0,0.4-0.1,0.8-0.2,1.2c-0.1,0.4-0.2,0.7-0.4,1
		c-0.2,0.3-0.4,0.4-0.7,0.4c0,0-0.1,0-0.2,0c-0.1,0-0.2,0-0.3-0.1c-0.1,0-0.2-0.1-0.3-0.1c-0.1,0-0.1-0.1-0.1-0.2
		c0.2-1.7,0.2-3.3,0-4.8c-0.2-1.5-0.5-2.8-1-3.9c-0.4-1.1-1-2-1.6-2.7c-0.6-0.7-1.3-1-2-1c-0.7,0-1.3,0.1-1.9,0.3
		c-0.6,0.2-1.1,0.5-1.6,1c-0.4,0.4-0.8,0.9-1,1.5c-0.3,0.6-0.4,1.2-0.4,1.9c0,0.7,0.1,1.4,0.2,2.1c0.1,0.7,0.3,1.4,0.4,2.1
		c0.2,0.7,0.3,1.4,0.4,2.1c0.1,0.7,0.2,1.4,0.2,2.1c-0.6,0-1.1-0.3-1.6-0.8c-0.4-0.5-0.8-1.2-1-1.9c-0.3-0.8-0.5-1.7-0.6-2.7
		c-0.1-1-0.2-2-0.3-2.9c-0.1-1-0.1-1.9-0.1-2.7V11.7z"/>
	<path class="st0" d="M363.6,18.7c0,0.4,0.1,0.8,0.2,1.1c0.1,0.4,0.3,0.7,0.5,1c0.2,0.3,0.5,0.5,0.9,0.7c0.3,0.2,0.7,0.2,1.1,0.2
		c1.1,0,2-0.2,2.6-0.7c0.6-0.4,1-1,1.2-1.7c0.2-0.7,0.3-1.4,0.3-2.1c0-0.8-0.1-1.5-0.1-2.1c0-0.3,0-0.6-0.1-0.9
		c0-0.3-0.1-0.6-0.3-0.9c-0.1-0.3-0.3-0.5-0.5-0.6c-0.2-0.2-0.5-0.2-0.9-0.2c-0.7,0-1.4,0.2-2,0.6s-1.1,0.9-1.6,1.5
		c-0.4,0.6-0.8,1.3-1,2C363.7,17.4,363.6,18.1,363.6,18.7 M356.7,33.8c-0.1-0.3-0.1-0.6,0-0.8c0.1-0.2,0.2-0.4,0.4-0.6
		c0.2-0.2,0.4-0.3,0.6-0.3c0.2,0,0.4,0,0.5,0.1c0.1,0.1,0.2,0.3,0.3,0.5c0,0.3,0,0.6-0.2,1.1c0,0.5,0.2,1,0.6,1.4
		c0.4,0.5,0.9,0.9,1.6,1.3c0.6,0.4,1.4,0.7,2.1,1c0.8,0.3,1.5,0.6,2.2,0.8c0.7,0.2,1.4,0.4,1.9,0.5c0.5,0.1,0.9,0.2,1.2,0.2
		c0.5,0,1-0.1,1.4-0.4c0.4-0.3,0.7-0.7,1-1.1c0.3-0.5,0.5-1,0.7-1.6c0.2-0.6,0.3-1.2,0.4-1.7c0.1-0.6,0.1-1.1,0.2-1.7
		c0-0.6,0-1,0-1.4c0-0.2,0-0.5,0-1c0-0.5-0.1-1-0.1-1.6c-0.1-0.6-0.1-1.3-0.2-1.9c-0.1-0.7-0.2-1.3-0.3-1.8c-0.1-0.6-0.2-1-0.3-1.4
		c-0.1-0.4-0.2-0.5-0.4-0.5c-0.2,0-0.5,0.1-0.8,0.2c-0.3,0.1-0.6,0.3-0.9,0.4c-0.3,0.2-0.6,0.3-1,0.4c-0.3,0.1-0.6,0.2-1,0.2
		c-0.6,0-1.2-0.1-1.8-0.4c-0.6-0.3-1.1-0.6-1.5-1c-0.4-0.4-0.8-0.9-1-1.5c-0.3-0.6-0.4-1.2-0.4-1.8c0-1,0.2-2,0.6-3
		c0.4-1,0.9-1.9,1.6-2.8c0.7-0.8,1.5-1.5,2.4-2c0.9-0.5,1.9-0.8,2.9-0.8c0.8,0.2,1.4,0.7,1.9,1.5c0.5,0.8,0.9,1.7,1.2,2.9
		c0.3,1.1,0.5,2.4,0.6,3.8c0.1,1.4,0.2,2.8,0.2,4.3c0,1.5,0.1,2.9,0.1,4.3c0,1.4,0.1,2.7,0.2,3.8c0,0.5,0,1.1-0.1,1.8
		c-0.1,0.7-0.1,1.4-0.3,2.1c-0.1,0.7-0.3,1.4-0.5,2.2c-0.2,0.7-0.5,1.4-0.9,1.9c-0.4,0.6-0.8,1-1.4,1.4c-0.5,0.3-1.2,0.5-1.9,0.5
		c-0.6,0-1.3-0.1-2.1-0.2c-0.8-0.1-1.6-0.3-2.5-0.6c-0.9-0.3-1.7-0.6-2.6-1.1c-0.9-0.4-1.6-0.9-2.3-1.4c-0.7-0.5-1.2-1.1-1.6-1.8
		C356.9,35.3,356.7,34.6,356.7,33.8"/>
	<path class="st0" d="M374.1,15.8c0-1.1,0.2-2.2,0.5-3.3c0.3-1,0.8-2,1.5-2.8c0.6-0.8,1.4-1.4,2.4-1.9c0.9-0.5,2-0.7,3.3-0.7
		c0.7,0.1,1.4,0.3,1.9,0.6c0.5,0.3,1,0.7,1.3,1.1c0.3,0.5,0.6,1,0.7,1.6c0.1,0.6,0.2,1.2,0.2,1.8c0,0.8-0.2,1.5-0.7,2.1
		c-0.5,0.6-1,1.2-1.7,1.6c-0.7,0.4-1.5,0.8-2.3,1c-0.8,0.2-1.6,0.3-2.3,0.3h-0.8c-0.3,0-0.5,0-0.7-0.1c-0.2-0.1-0.4-0.2-0.5-0.4
		c-0.1-0.2-0.2-0.4-0.2-0.8c0-0.1,0-0.2,0-0.3c0-0.1,0.1-0.1,0.3-0.2c0.2,0,0.4,0,0.7,0c0.3,0,0.7,0.1,1.3,0.2
		c0.3,0,0.8-0.1,1.3-0.3c0.6-0.2,1.2-0.5,1.8-0.8c0.6-0.3,1.1-0.7,1.6-1.1c0.4-0.4,0.7-0.9,0.7-1.3c0-0.4-0.1-0.9-0.2-1.3
		c-0.1-0.4-0.4-0.8-0.6-1.1c-0.3-0.3-0.6-0.6-1-0.8c-0.4-0.2-0.8-0.3-1.3-0.2c-0.8,0.1-1.5,0.3-2.1,0.6c-0.6,0.4-1.2,0.8-1.6,1.4
		c-0.4,0.6-0.8,1.2-1,1.9c-0.2,0.7-0.4,1.4-0.4,2.1c0,0.6,0,1.1,0,1.7c0,0.6,0.1,1.1,0.2,1.7c0.1,0.6,0.4,1.1,0.7,1.6
		c0.3,0.5,0.8,1,1.4,1.3c0.6,0.4,1.4,0.7,2.3,1c0.9,0.3,2.1,0.4,3.4,0.5l5.9-0.4c-0.4,0.5-0.8,0.9-1.3,1.2c-0.5,0.3-1.1,0.6-1.7,0.7
		c-0.6,0.2-1.2,0.3-1.8,0.4c-0.6,0.1-1.2,0.1-1.7,0.1c-1.3,0-2.5-0.2-3.6-0.6c-1.1-0.4-2.1-1-3-1.8c-0.9-0.8-1.5-1.7-2-2.8
		C374.3,18.4,374.1,17.1,374.1,15.8"/>
	<path class="st0" d="M394.5,24.6c-0.5-0.9-0.9-1.8-1.3-2.9c-0.4-1-0.6-2.1-0.9-3.1c-0.2-1.1-0.4-2.1-0.6-3.1
		c-0.1-1-0.2-1.9-0.3-2.7c0-0.2,0-0.3,0-0.5c0-0.2,0-0.4,0-0.6c0-0.2,0-0.4,0.1-0.6c0.1-0.2,0.1-0.3,0.3-0.5h0.1c0,0,0,0,0,0
		c0,0,0,0,0,0c0,0,0,0,0,0c0,0,0,0,0.1,0h0.1c0,0,0.2,0.1,0.3,0.1c0.2,0.1,0.3,0.1,0.3,0.2c0.4-0.1,0.8-0.3,1.2-0.5
		c0.4-0.2,0.8-0.4,1.3-0.5c0.4-0.2,0.9-0.3,1.3-0.4c0.4-0.1,0.9-0.2,1.3-0.2c0.3,0,0.6,0,0.8,0c0.2,0,0.5,0.1,0.7,0.1
		c0.2,0.1,0.5,0.1,0.7,0.2c0.3,0.1,0.6,0.2,0.9,0.3c0.2,0.1,0.3,0.3,0.5,0.4c0.1,0.1,0.3,0.3,0.4,0.4c0.1,0.2,0.2,0.3,0.3,0.6
		c0.1,0.2,0.1,0.5,0.1,0.9c-0.4,0-0.8,0-1.2-0.1c-0.5-0.1-1-0.2-1.5-0.4c-0.5-0.2-1.1-0.3-1.6-0.4c-0.5-0.1-1.1-0.2-1.6-0.1
		c-0.5,0-1,0.2-1.4,0.4c-0.5,0.2-0.9,0.6-1.2,1.2c-0.2,0.6-0.2,1.3-0.2,1.9c0,0.6,0.1,1.2,0.2,1.8c0.1,0.6,0.3,1.2,0.5,1.7
		c0.2,0.6,0.4,1.2,0.6,1.7c0.2,0.6,0.4,1.2,0.5,1.7c0.2,0.6,0.3,1.2,0.3,1.7c0,0.2-0.1,0.5-0.4,0.7
		C395.1,24.5,394.8,24.6,394.5,24.6"/>
</g>
</svg>
