<?xml version="1.0" encoding="utf-8"?>
<!-- Generator: Adobe Illustrator 19.2.1, SVG Export Plug-In . SVG Version: 6.00 Build 0)  -->
<svg version="1.1" id="Ebene_1" xmlns="http://www.w3.org/2000/svg" xmlns:xlink="http://www.w3.org/1999/xlink" x="0px" y="0px"
	 viewBox="0 0 233.9 233.9" style="enable-background:new 0 0 233.9 233.9;" xml:space="preserve">
<style type="text/css">
	.st0{fill:#CA5400;}
</style>
<g>
	<path class="st0" d="M175.6,85.9c8.1-10.5,7.1-13.5,6.2-14.3c-0.1-0.1-0.2-0.1-0.4-0.1c-2.6,0.1-9.2,8.1-14.5,14.5
		c-8,9.7-13.5,16-17.2,16.2c-0.8,0-1.6-0.2-2.1-0.8c-4.3-4.3,4.2-13,13.2-22.2c5.9-6.1,14-14.4,12-16.5c-0.2-0.2-0.4-0.3-0.8-0.3
		c0,0,0,0,0,0c-2.8,0-8.7,5.9-14.4,11.7c-7.4,7.4-15,15.1-20.3,15.1c0,0,0,0,0,0c-1.3,0-2.5-0.5-3.4-1.4c-0.5-0.5-0.8-1.2-0.8-2
		c0.2-3.5,6.1-8.8,16-17c6.5-5.4,14.5-12.1,14.6-14.8c0-0.2,0-0.3-0.1-0.4c-1.2-1.2-7.3-2.9-35.8,25.7c-5.3,5.3-8.4,12.9-11.9,21.6
		c-0.9,2.1-1.7,4.3-2.7,6.5c0,0,0,0,0,0c0,0,0,0,0,0c-4.4,10.3-10,21.4-21,32.4c-19,19-34.7,25.1-39.9,26.7
		c4.4,3.5,9.2,3.4,11.9,2.9c0.6-2.5,1.7-4.6,2.9-5.8c1.9-1.9,3.6-1.5,4.6-0.4l0.4,0.4c0.8,0.8,1,1.7,0.8,2.7c-0.5,2-3.2,3.8-6.7,4.8
		c-0.2,0-0.4,0.1-0.6,0.1c-0.5,4.4,1.3,9.1,3.2,11.8c1.7-5.3,7.8-20.9,26.7-39.8c13.3-13.3,26.9-18.8,38.9-23.7
		c8.7-3.5,16.2-6.6,21.6-11.9C164.6,99,171.1,91.8,175.6,85.9z"/>
	<path class="st0" d="M127.6,124.4c-2.5,1.1-4.7,2.1-6.8,3.2c4.9,2.7,9.5,6.2,14.1,10.8c19,19,25.1,34.7,26.7,39.9
		c3.8-4.8,3.3-10.3,2.8-12.5c-0.1-0.3,0-0.7,0.3-0.9c0.2-0.2,0.6-0.3,0.9-0.3c2.3,0.5,7.7,1,12.5-2.8c-5.2-1.6-20.9-7.7-39.9-26.7
		c-2.7-2.7-6-6.1-10.4-10.7C127.7,124.4,127.7,124.4,127.6,124.4z"/>
	<path class="st0" d="M111.2,107.3c0-0.1,0.1-0.1,0.1-0.2c-11.1-11.6-23.7-24.7-34-34.5c-14.4-13.7-18.1-15-19-15
		c-0.1,0-0.2,0-0.2,0c-3.8,3.8-4.4,11-1.5,19.6c3.1,9.3,9.9,19.5,19.1,28.7c10.6,10.6,19.3,13,28.4,15.5
		C106.6,117.2,108.8,112.8,111.2,107.3z"/>
	<path class="st0" d="M71.2,165.6c0.1-0.2,0.1-0.5-0.2-0.8l-0.4-0.4c-0.1-0.1-0.3-0.3-0.6-0.3c-0.3,0-0.7,0.2-1.2,0.7
		c-1.2,1.2-2,2.5-2.4,4C69.2,168,71,166.6,71.2,165.6z"/>
	<path class="st0" d="M117,0C52.4,0,0,52.4,0,116.9S52.4,233.9,117,233.9s116.9-52.4,116.9-116.9S181.5,0,117,0z M139.6,133.6
		c22.4,22.4,40.6,26.6,40.7,26.6c0.4,0.1,0.6,0.3,0.7,0.7s0,0.7-0.3,1c-5,5-10.9,5.2-14.3,4.8c0.4,3.3,0.2,9.3-4.8,14.3
		c-0.2,0.2-0.4,0.3-0.7,0.3c-0.1,0-0.2,0-0.3,0c-0.4-0.1-0.6-0.4-0.7-0.7c0-0.2-4.2-18.3-26.6-40.7c-4.8-4.8-9.7-8.5-14.8-11.1
		c-7.1,3.7-14.3,8.6-21.5,15.7c-22.4,22.4-26.6,40.6-26.6,40.7c-0.1,0.4-0.3,0.6-0.7,0.7c-0.1,0-0.2,0-0.3,0c-0.3,0-0.5-0.1-0.7-0.3
		c-4.3-4.3-5.4-9.8-4.8-14.3c-3.5,0.4-9.3,0.2-14.3-4.8c-0.3-0.3-0.4-0.6-0.3-1c0.1-0.4,0.4-0.6,0.7-0.7c0.2,0,18.3-4.2,40.7-26.6
		c5-5,8.9-10.1,12-15.1c-8.8-2.4-17.9-5.1-28.7-15.9c-9.4-9.4-16.4-19.9-19.6-29.5c-3.2-9.5-2.5-17.2,2-21.6
		c0.3-0.3,0.8-0.6,1.6-0.6c5.5,0.1,23.9,18.2,53.9,49.5c0.7-1.7,1.4-3.4,2.1-5.1c3.6-8.9,6.7-16.6,12.4-22.3
		c21.6-21.6,34.3-30,38.6-25.7c0.5,0.5,0.7,1.2,0.7,1.9c-0.1,3.3-5.9,8.3-15.4,16.2c-6.7,5.6-15.1,12.6-15.3,15.5
		c0,0.3,0.1,0.4,0.2,0.5c0.5,0.5,1.2,0.8,2,0.8c0,0,0,0,0,0c4.5,0,12.1-7.7,18.9-14.5c6.5-6.6,12.2-12.2,15.8-12.2c0,0,0,0,0,0
		c0.8,0,1.6,0.3,2.2,0.9c3.4,3.4-3.4,10.4-12,19.3c-7.2,7.4-16.1,16.6-13.2,19.4c0.2,0.2,0.3,0.2,0.6,0.2c3-0.1,10.1-8.7,15.7-15.5
		c7.7-9.3,12.7-15,15.9-15.2c0.7,0,1.4,0.2,1.9,0.7c2.7,2.7,0.7,8.1-6.1,17c-4.5,5.9-11.1,13.2-19.6,21.7
		c-5.6,5.6-13.3,8.8-22.3,12.4c-1.8,0.7-3.7,1.5-5.7,2.3C133.9,127.8,137.1,131.1,139.6,133.6z"/>
</g>
</svg>
