<?xml version="1.0" encoding="UTF-8" standalone="no"?>
<svg
   xmlns:dc="http://purl.org/dc/elements/1.1/"
   xmlns:cc="http://creativecommons.org/ns#"
   xmlns:rdf="http://www.w3.org/1999/02/22-rdf-syntax-ns#"
   xmlns:svg="http://www.w3.org/2000/svg"
   xmlns="http://www.w3.org/2000/svg"
   viewBox="0 0 800 195.85333"
   height="195.85333"
   width="800"
   xml:space="preserve"
   id="svg2"
   version="1.1"><metadata
     id="metadata8"><rdf:RDF><cc:Work
         rdf:about=""><dc:format>image/svg+xml</dc:format><dc:type
           rdf:resource="http://purl.org/dc/dcmitype/StillImage" /></cc:Work></rdf:RDF></metadata><defs
     id="defs6"><clipPath
       id="clipPath20"
       clipPathUnits="userSpaceOnUse"><path
         id="path18"
         d="M 0,1468.86 V 0 h 6000 v 1468.86 z" /></clipPath></defs><g
     transform="matrix(1.3333333,0,0,-1.3333333,0,195.85333)"
     id="g10"><g
       transform="scale(0.1)"
       id="g12"><g
         id="g14"><g
           clip-path="url(#clipPath20)"
           id="g16"><path
             id="path22"
             style="fill:#ffffff;fill-opacity:1;fill-rule:nonzero;stroke:none"
             d="m 155.254,746.984 v 568.476 c 0,84.71 -68.6407,153.4 -153.34384,153.4 L 0,1468.86 V 424.578 C 0,308.691 35.9844,212.871 113.637,137.082 191.242,61.3398 287.496,23.4414 405.246,23.4414 c 117.703,0 217.094,45.6797 299.543,137.0386 l 105.805,124.309 c 0,0 -115.254,34.52 -190.996,-37.398 -40.395,-38.289 -69.914,-57.782 -102.575,-72.95 -32.703,-15.23 -71.773,-22.871 -117.062,-22.871 -72.805,0 -135.77,26.59 -188.844,79.66 -53.121,53.122 -79.707,119.219 -79.707,198.34 0,79.121 26.735,144.09 80.246,194.961 53.465,50.871 119.563,76.332 198.293,76.332 44.555,0 83.379,-7.051 116.43,-21.152 33.047,-14.102 68.394,-38.727 105.312,-74.664 80.739,-78.633 178.559,-23.356 178.559,-23.356 l -94.984,114.715 c -80.981,89.156 -181.84,133.711 -302.528,133.711 l -10.769,-0.488 c -93.321,0 -178.071,-31.531 -246.813,-83.527" /><path
             id="path24"
             style="fill:#ffffff;fill-opacity:1;fill-rule:nonzero;stroke:none"
             d="M 4113.78,138.691 C 4035.1,61.8711 3937.86,23.4297 3822.07,23.4297 c -115.79,0 -213.08,38.4414 -291.76,115.2613 -78.68,76.809 -117.99,172.579 -117.99,287.25 0,114.711 39.31,210.481 117.99,287.297 78.68,76.821 175.97,115.254 291.76,115.254 115.79,0 213.03,-38.433 291.71,-115.254 78.68,-76.816 118.04,-172.586 118.04,-287.297 0,-114.671 -39.36,-210.441 -118.04,-287.25 m -96.31,487.153 c -53.07,54.933 -118.24,82.351 -195.4,82.351 -77.21,0 -142.38,-27.418 -195.4,-82.351 -53.12,-54.934 -79.66,-121.571 -79.66,-199.903 0,-78.293 26.54,-144.929 79.66,-199.863 53.02,-54.93 118.19,-82.348 195.4,-82.348 77.16,0 142.33,27.418 195.4,82.348 53.08,54.934 79.61,121.57 79.61,199.863 0,78.332 -26.53,144.969 -79.61,199.903" /><path
             id="path26"
             style="fill:#ffffff;fill-opacity:1;fill-rule:nonzero;stroke:none"
             d="M 5036.83,809.523 V 228.309 L 4584.78,809.523 H 4453.37 V 31.25 h 131.41 V 599.094 L 5025.72,31.25 h 142.52 v 778.273 h -131.41" /><path
             id="path28"
             style="fill:#ffffff;fill-opacity:1;fill-rule:nonzero;stroke:none"
             d="M 5439.89,809.523 V 31.25 H 6000 v 123.621 h -428.7 v 208.18 h 372.98 V 479.973 H 5571.3 v 205.976 h 415.29 v 123.574 h -546.7" /><path
             id="path30"
             style="fill:#ffffff;fill-opacity:1;fill-rule:nonzero;stroke:none"
             d="m 701.922,528.977 c 23.648,0 44.062,5.972 56.844,10.867 l -9.254,11.117 c -5.633,-0.539 -11.262,-0.832 -16.746,-0.832 -41.813,0 -78.778,15.422 -109.965,45.777 -34.91,33.977 -69.035,58.262 -101.399,72.071 -31.336,13.363 -68.84,20.121 -111.433,20.121 -59.879,0 -112.563,-15.571 -157.215,-46.414 37.992,16.843 80.148,25.363 126.172,25.363 46.074,0 86.906,-7.492 121.422,-22.231 35.3,-15.031 72.023,-41.027 109.183,-77.211 26.293,-25.605 57.383,-38.628 92.391,-38.628" /><path
             id="path32"
             style="fill:#ffffff;fill-opacity:1;fill-rule:nonzero;stroke:none"
             d="m 176.633,583.59 c 4.012,5.828 8.222,11.508 12.777,17.039 -4.555,-5.531 -8.765,-11.211 -12.777,-17.039" /><path
             id="path34"
             style="fill:#ffffff;fill-opacity:1;fill-rule:nonzero;stroke:none"
             d="m 378.918,654.289 c -50.527,0 -95.914,-11.113 -135.719,-33.144 27.906,8.031 57.672,12.043 89.156,12.043 46.071,0 86.907,-7.442 121.422,-22.18 35.301,-15.078 72.024,-41.078 109.184,-77.258 26.293,-25.605 57.383,-38.582 92.387,-38.582 23.648,0 44.066,5.926 56.843,10.82 l -8.566,10.332 c -0.59,0 -1.227,0 -1.813,0 -41.863,0 -78.874,15.422 -110.062,45.778 -34.91,33.976 -69.035,58.214 -101.398,72.07 -31.336,13.367 -68.84,20.121 -111.434,20.121" /><path
             id="path36"
             style="fill:#ffffff;fill-opacity:1;fill-rule:nonzero;stroke:none"
             d="M 3309.58,63.0117 C 3309.58,28.1992 3281.38,0 3246.57,0 c -34.77,0 -63.02,28.1992 -63.02,63.0117 0,34.8086 28.25,63.0083 63.02,63.0083 34.81,0 63.01,-28.1997 63.01,-63.0083" /><path
             id="path38"
             style="fill:#ffffff;fill-opacity:1;fill-rule:nonzero;stroke:none"
             d="M 1461.07,811.156 V 473.57 H 1074.43 V 811.156 H 943.02 V 32.3398 h 131.41 V 351.02 h 386.64 V 32.3398 h 131.51 V 811.156 h -131.51" /><path
             id="path40"
             style="fill:#ffffff;fill-opacity:1;fill-rule:nonzero;stroke:none"
             d="M 1811.3,811.156 V 32.3398 h 560.45 V 156.059 h -428.94 v 208.332 h 373.22 v 116.964 h -373.22 v 206.176 h 415.53 V 811.156 H 1811.3" /><path
             id="path42"
             style="fill:#ffffff;fill-opacity:1;fill-rule:nonzero;stroke:none"
             d="M 2595.69,811.156 V 32.3398 h 131.46 V 353.23 h 345.37 v 121.469 h -345.37 v 213.906 h 386.6 l 1.12,122.551 h -519.18" /></g></g></g></g></svg>