<?xml version="1.0" encoding="utf-8"?>
<!-- Generator: Adobe Illustrator 19.2.1, SVG Export Plug-In . SVG Version: 6.00 Build 0)  -->
<svg version="1.1" id="Ebene_1" xmlns="http://www.w3.org/2000/svg" xmlns:xlink="http://www.w3.org/1999/xlink" x="0px" y="0px"
	 viewBox="0 0 152.1 158.4" style="enable-background:new 0 0 152.1 158.4;" xml:space="preserve">
<style type="text/css">
	.st0{fill:url(#SVGID_1_);}
	.st1{fill:url(#SVGID_2_);}
	.st2{fill:url(#SVGID_3_);}
</style>
<g>
	
		<radialGradient id="SVGID_1_" cx="77.6169" cy="151.19" r="42.147" gradientTransform="matrix(1 0 0 -1 0 227.89)" gradientUnits="userSpaceOnUse">
		<stop  offset="0" style="stop-color:#EC6839"/>
		<stop  offset="1" style="stop-color:#CE5100"/>
	</radialGradient>
	<path class="st0" d="M59.6,76.6V53.4V35.7c0-6.1-4.9-11-11-11h-0.1v29v43.5v2.6c0,8.3,2.6,15.2,8.2,20.7c5.6,5.4,12.5,8.2,21,8.2
		s15.6-3.3,21.5-9.9l7.6-8.9c0,0-8.3-2.5-13.7,2.7c-2.9,2.8-5,4.2-7.4,5.2c-2.4,1.1-5.2,1.6-8.4,1.6c-5.2,0-9.8-1.9-13.6-5.7
		c-3.8-3.8-5.7-8.6-5.7-14.3s1.9-10.4,5.8-14c3.8-3.7,8.6-5.5,14.3-5.5c3.2,0,6,0.5,8.4,1.5s4.9,2.8,7.6,5.4
		c5.8,5.7,12.8,1.7,12.8,1.7l-6.8-8.3c-5.8-6.4-13.1-9.6-21.8-9.6h-0.8C70.7,70.7,64.6,72.9,59.6,76.6"/>
	
		<radialGradient id="SVGID_2_" cx="85.5" cy="140.9045" r="13.4827" gradientTransform="matrix(1 0 0 -1 0 227.89)" gradientUnits="userSpaceOnUse">
		<stop  offset="0" style="stop-color:#EC6839"/>
		<stop  offset="1" style="stop-color:#CE5100"/>
	</radialGradient>
	<path class="st1" d="M99.6,92.7c1.7,0,3.2-0.4,4.1-0.8l-0.7-0.8c-0.4,0-0.8,0.1-1.2,0.1c-3,0-5.7-1.1-7.9-3.3
		c-2.5-2.4-5-4.2-7.3-5.2s-4.9-1.4-8-1.4c-4.3,0-8.1,1.1-11.3,3.3c2.7-1.2,5.8-1.8,9.1-1.8c3.3,0,6.3,0.5,8.7,1.6
		c2.5,1.1,5.2,3,7.9,5.6C94.9,91.8,97.1,92.7,99.6,92.7z"/>
	
		<radialGradient id="SVGID_3_" cx="83.45" cy="138.4713" r="12.6103" gradientTransform="matrix(1 0 0 -1 0 227.89)" gradientUnits="userSpaceOnUse">
		<stop  offset="0" style="stop-color:#EC6839"/>
		<stop  offset="1" style="stop-color:#CE5100"/>
	</radialGradient>
	<path class="st2" d="M76.4,83.7c-3.6,0-6.9,0.8-9.8,2.4c2-0.6,4.1-0.9,6.4-0.9c3.3,0,6.3,0.5,8.7,1.6c2.5,1.1,5.2,3,7.9,5.6
		c1.9,1.8,4.1,2.8,6.6,2.8c1.7,0,3.2-0.1,4.1-0.4c0,0-1-0.7-1.1-0.7c-3,0-5.4-1.2-7.6-3.4c-2.5-2.4-5-4.4-7.3-5.4
		C82.1,84.4,79.4,83.7,76.4,83.7z"/>
</g>
</svg>
