<?xml version="1.0" encoding="UTF-8" standalone="no"?>
<svg width="800px" height="196px" viewBox="0 0 800 196" version="1.1" xmlns="http://www.w3.org/2000/svg" xmlns:xlink="http://www.w3.org/1999/xlink">
    <!-- Generator: Sketch 3.6.1 (26313) - http://www.bohemiancoding.com/sketch -->
    <title>logo</title>
    <desc>Created with Sketch.</desc>
    <defs>
        <path id="path-1" d="M0,195.847995 L0,0 L799.99998,0 L799.99998,195.847995 L0,195.847995 Z"></path>
    </defs>
    <g id="Page-1" stroke="none" stroke-width="1" fill="none" fill-rule="evenodd">
        <g id="logo-chef-one" transform="translate(0.000000, -1.000000)">
            <g id="svg2">
                <g id="g10" transform="translate(400.000000, 98.853330) scale(1, -1) translate(-400.000000, -98.853330) translate(0.000000, 0.853330)">
                    <g id="g12" transform="translate(0.000000, -0.000000)">
                        <g id="g14">
                            <g id="logo">
                                <mask id="mask-2" fill="white">
                                    <use xlink:href="#path-1"></use>
                                </mask>
                                <g id="path18"></g>
                                <g id="g16" mask="url(#mask-2)" fill="#CE5100">
                                    <path d="M20.7005328,99.5978642 L20.7005328,175.394662 C20.7005328,186.689329 11.5484397,195.847995 0.254687994,195.847995 L0,195.847995 L0,56.6103986 C0,41.158799 4.79791988,28.3827993 15.1515996,18.2775995 C25.4989327,8.1786398 38.332799,3.12551992 54.0327986,3.12551992 C69.7265316,3.12551992 82.9786646,9.21614644 93.9718643,21.3973328 L108.079197,37.9718657 C108.079197,37.9718657 92.7119977,42.5745323 82.6130646,32.9854658 C77.2270647,27.880266 73.2911982,25.2811994 68.9363983,23.2587994 C64.5759984,21.2281328 59.3666652,20.2093328 53.328132,20.2093328 C43.6207989,20.2093328 35.2254658,23.7546661 28.1489326,30.8306659 C21.0661328,37.9135991 17.5213329,46.7265322 17.5213329,57.2759986 C17.5213329,67.825465 21.0859995,76.4879981 28.2207993,83.2707979 C35.3494658,90.0535977 44.1625322,93.4483977 54.6598653,93.4483977 C60.6005318,93.4483977 65.777065,92.5082644 70.1838649,90.6281311 C74.5901315,88.7478644 79.3030647,85.4645312 84.2254646,80.6729313 C94.9906643,70.1885316 108.033331,77.5587981 108.033331,77.5587981 L95.3687976,92.854131 C84.5713312,104.741597 71.1234649,110.682264 55.031732,110.682264 L53.5958653,110.617197 C41.1530656,110.617197 29.8530659,106.413064 20.6874661,99.4802642" id="path22"></path>
                                    <path d="M548.503986,18.4921329 C538.01332,8.24947979 525.047987,3.12395992 509.609321,3.12395992 C494.170654,3.12395992 481.198655,8.24947979 470.707988,18.4921329 C460.217322,28.7333326 454.975989,41.5026656 454.975989,56.7921319 C454.975989,72.0869315 460.217322,84.8562645 470.707988,95.0983976 C481.198655,105.341197 494.170654,110.465597 509.609321,110.465597 C525.047987,110.465597 538.01332,105.341197 548.503986,95.0983976 C558.994653,84.8562645 564.242653,72.0869315 564.242653,56.7921319 C564.242653,41.5026656 558.994653,28.7333326 548.503986,18.4921329 M535.662653,83.4458646 C528.586653,90.7702644 519.89732,94.4259976 509.609321,94.4259976 C499.314654,94.4259976 490.625321,90.7702644 483.555988,83.4458646 C476.473321,76.1213314 472.934655,67.2363983 472.934655,56.7921319 C472.934655,46.3530655 476.473321,37.4682657 483.555988,30.1437326 C490.625321,22.8197328 499.314654,19.1639995 509.609321,19.1639995 C519.89732,19.1639995 528.586653,22.8197328 535.662653,30.1437326 C542.739986,37.4682657 546.27732,46.3530655 546.27732,56.7921319 C546.27732,67.2363983 542.739986,76.1213314 535.662653,83.4458646" id="path24"></path>
                                    <path d="M671.577317,107.936397 L671.577317,30.4411992 L611.303985,107.936397 L593.782652,107.936397 L593.782652,4.16666656 L611.303985,4.16666656 L611.303985,79.879198 L670.095983,4.16666656 L689.098649,4.16666656 L689.098649,107.936397 L671.577317,107.936397" id="path26"></path>
                                    <path d="M725.318649,107.936397 L725.318649,4.16666656 L799.99998,4.16666656 L799.99998,20.6494662 L742.839981,20.6494662 L742.839981,48.4067988 L792.570647,48.4067988 L792.570647,63.9963984 L742.839981,63.9963984 L742.839981,91.4598644 L798.21198,91.4598644 L798.21198,107.936397 L725.318649,107.936397" id="path28"></path>
                                    <path d="M93.5895977,70.5302649 C96.7426642,70.5302649 99.4645308,71.3265316 101.168797,71.9791982 L99.9349308,73.4614648 C99.1838642,73.3895982 98.4333309,73.3505315 97.7021309,73.3505315 C92.1270644,73.3505315 87.1983978,75.4067981 83.0401313,79.4541313 C78.3854647,83.9843979 73.8354648,87.2223978 69.5202649,89.0635978 C65.3421317,90.8453311 60.3415985,91.7463977 54.662532,91.7463977 C46.6786655,91.7463977 39.6541323,89.6702644 33.7005325,85.5578645 C38.7661324,87.8035978 44.3869322,88.9395978 50.5234654,88.9395978 C56.6666653,88.9395978 62.1109318,87.9406645 66.713065,85.9754645 C71.4197315,83.9713312 76.3161314,80.505198 81.270798,75.6806648 C84.7765312,72.2666649 88.9218644,70.5302649 93.5895977,70.5302649" id="path30"></path>
                                    <path d="M23.5510661,77.8119981 C24.0859994,78.5890647 24.6473327,79.346398 25.254666,80.0838647 C24.6473327,79.346398 24.0859994,78.5890647 23.5510661,77.8119981" id="path32"></path>
                                    <path d="M50.5223987,87.2385312 C43.7854656,87.2385312 37.7338657,85.7567979 32.4265325,82.8193313 C36.1473324,83.8901312 40.1161323,84.4250646 44.3139989,84.4250646 C50.4567987,84.4250646 55.9015986,83.4327979 60.5035985,81.4677313 C65.2103984,79.4573313 70.1067982,75.9906648 75.0614648,71.1666649 C78.567198,67.752665 82.7125313,66.0223983 87.3797311,66.0223983 C90.5327977,66.0223983 93.2551977,66.8125317 94.9587976,67.465065 L93.8166643,68.8426649 L93.574931,68.8426649 C87.9931978,68.8426649 83.0583979,70.8989316 78.899998,74.9463981 C74.2453315,79.4765313 69.6953316,82.7082646 65.380265,84.5557312 C61.2021318,86.3379978 56.2015986,87.2385312 50.5223987,87.2385312" id="path34"></path>
                                    <path d="M441.277322,8.40155979 C441.277322,3.75989324 437.517322,0 432.875989,0 C428.239989,0 424.473323,3.75989324 424.473323,8.40155979 C424.473323,13.0427063 428.239989,16.8026662 432.875989,16.8026662 C437.517322,16.8026662 441.277322,13.0427063 441.277322,8.40155979" id="path36"></path>
                                    <path d="M194.809328,108.154131 L194.809328,63.1426651 L143.25733,63.1426651 L143.25733,108.154131 L125.735997,108.154131 L125.735997,4.31197323 L143.25733,4.31197323 L143.25733,46.8026655 L194.809328,46.8026655 L194.809328,4.31197323 L212.343995,4.31197323 L212.343995,108.154131 L194.809328,108.154131" id="path38"></path>
                                    <path d="M241.506661,108.154131 L241.506661,4.31197323 L316.233325,4.31197323 L316.233325,20.8078661 L259.041327,20.8078661 L259.041327,48.5854655 L308.803992,48.5854655 L308.803992,64.1806651 L259.041327,64.1806651 L259.041327,91.6707977 L314.445325,91.6707977 L314.445325,108.154131 L241.506661,108.154131" id="path40"></path>
                                    <path d="M346.091991,108.154131 L346.091991,4.31197323 L363.619991,4.31197323 L363.619991,47.0973322 L409.669323,47.0973322 L409.669323,63.2931984 L363.619991,63.2931984 L363.619991,91.8139977 L415.166656,91.8139977 L415.31599,108.154131 L346.091991,108.154131" id="path42"></path>
                                </g>
                            </g>
                        </g>
                    </g>
                </g>
            </g>
        </g>
    </g>
</svg>