<?xml version="1.0" encoding="UTF-8" standalone="no"?>
<svg width="145px" height="259px" viewBox="0 0 145 259" version="1.1" xmlns="http://www.w3.org/2000/svg" xmlns:xlink="http://www.w3.org/1999/xlink" xmlns:sketch="http://www.bohemiancoding.com/sketch/ns">
    <!-- Generator: Sketch 3.3.3 (12072) - http://www.bohemiancoding.com/sketch -->
    <title>signe</title>
    <desc>Created with Sketch.</desc>
    <defs>
        <path id="path-1" d="M0,0.445 L144.96,0.445 L144.96,258.94 L0,258.94"></path>
    </defs>
    <g id="Welcome" stroke="none" stroke-width="1" fill="none" fill-rule="evenodd" sketch:type="MSPage">
        <g id="home" sketch:type="MSArtboardGroup" transform="translate(-891.000000, -355.000000)">
            <g id="signe-+-button" sketch:type="MSLayerGroup" transform="translate(762.000000, 355.000000)">
                <g id="signe" transform="translate(129.000000, 0.000000)" fill="#CE5100">
                    <g id="Group-3">
                        <mask id="mask-2" sketch:name="Clip 2" fill="white">
                            <use xlink:href="#path-1"></use>
                        </mask>
                        <g id="Clip-2"></g>
                        <path d="M27.771,129.572 L27.771,27.877 C27.771,12.727 15.488,0.445 0.335,0.445 L0,0.445 L0,187.248 C0,207.976 6.436,225.118 20.323,238.669 C34.207,252.223 51.43,259 72.488,259 C93.544,259 111.326,250.827 126.074,234.485 L145,212.251 C145,212.251 124.383,206.075 110.832,218.937 C103.611,225.792 98.327,229.271 92.483,231.994 C86.635,234.719 79.65,236.079 71.547,236.079 C58.524,236.079 47.258,231.328 37.759,221.829 C28.259,212.329 23.508,200.502 23.508,186.35 C23.508,172.201 28.288,160.575 37.858,151.473 C47.422,142.371 59.247,137.823 73.334,137.823 C81.304,137.823 88.245,139.084 94.158,141.609 C100.072,144.132 106.396,148.537 112.993,154.96 C127.439,169.029 144.938,159.139 144.938,159.139 L127.943,138.619 C113.459,122.673 95.422,114.702 73.83,114.702 L71.898,114.783 C55.206,114.783 40.05,120.426 27.75,129.73" id="Fill-1" fill="#FFFFFF" sketch:type="MSShapeGroup" mask="url(#mask-2)"></path>
                    </g>
                    <path d="M127.189,169.591 C131.423,169.591 135.069,168.527 137.354,167.648 L135.706,165.656 C134.697,165.755 133.69,165.804 132.705,165.804 C125.231,165.804 118.613,163.048 113.032,157.615 C106.791,151.536 100.688,147.201 94.894,144.725 C89.292,142.335 82.586,141.123 74.964,141.123 C64.255,141.123 54.828,143.914 46.842,149.434 C53.64,146.415 61.181,144.897 69.409,144.897 C77.65,144.897 84.96,146.231 91.131,148.865 C97.442,151.562 104.014,156.209 110.658,162.681 C115.367,167.266 120.93,169.591 127.189,169.591" id="Fill-4" fill="#FFFFFF" sketch:type="MSShapeGroup"></path>
                    <path d="M69.409,147.175 C60.375,147.175 52.251,149.162 45.134,153.099 C50.121,151.669 55.444,150.949 61.08,150.949 C69.321,150.949 76.628,152.283 82.799,154.917 C89.113,157.614 95.682,162.261 102.329,168.733 C107.038,173.318 112.598,175.643 118.86,175.643 C123.093,175.643 126.739,175.505 129.025,174.629 C129.025,174.629 126.505,172.977 126.396,172.977 C118.909,172.977 113.058,170.026 107.48,164.593 C101.236,158.516 95.133,153.716 89.339,151.242 C83.738,148.85 77.034,147.175 69.409,147.175" id="Fill-5" fill="#FFFFFF" sketch:type="MSShapeGroup"></path>
                </g>
            </g>
        </g>
    </g>
</svg>