<?xml version="1.0" encoding="utf-8"?>
<!-- Generator: Adobe Illustrator 19.2.1, SVG Export Plug-In . SVG Version: 6.00 Build 0)  -->
<svg version="1.1" id="Ebene_1" xmlns="http://www.w3.org/2000/svg" xmlns:xlink="http://www.w3.org/1999/xlink" x="0px" y="0px"
	 viewBox="0 0 210 297" style="enable-background:new 0 0 210 297;" xml:space="preserve">
<style type="text/css">
	.st0{fill:#FFFFFF;stroke:#999999;stroke-miterlimit:10;}
	.st1{opacity:0.5;}
	.st2{fill:url(#SVGID_1_);}
	.st3{fill-rule:evenodd;clip-rule:evenodd;fill:#119AD7;}
	.st4{fill-rule:evenodd;clip-rule:evenodd;fill:#262D61;}
	.st5{fill-rule:evenodd;clip-rule:evenodd;fill:#FFFFFF;stroke:#999999;stroke-width:0.5;stroke-miterlimit:10;}
	.st6{fill:#0A67B1;}
	.st7{fill:#F7A535;}
	.st8{fill:#E40520;}
	.st9{fill:#FAB31E;}
	.st10{fill:#FFFFFF;}
</style>
<g>
	<path class="st0" d="M248.9,202.5h-286c-3.9,0-7-3.1-7-7v-92.2c0-3.9,3.1-7,7-7h286c3.9,0,7,3.1,7,7v92.2
		C255.8,199.3,252.7,202.5,248.9,202.5z"/>
	<g class="st1">
		<linearGradient id="SVGID_1_" gradientUnits="userSpaceOnUse" x1="-28.2243" y1="149.3453" x2="239.8929" y2="149.3453">
			<stop  offset="0" style="stop-color:#FFFFFF"/>
			<stop  offset="0.5" style="stop-color:#000000"/>
			<stop  offset="1" style="stop-color:#FFFFFF"/>
		</linearGradient>
		<path class="st2" d="M-28.2,149.3c0,0,4.2,0,11.5-0.1c7.3,0,17.8-0.1,30.4-0.2c25.1-0.1,58.7-0.1,92.2-0.2
			c33.5,0.1,67,0.2,92.2,0.2c12.6,0,23,0.1,30.4,0.2c7.3,0.1,11.5,0.1,11.5,0.1s-4.2,0-11.5,0.1c-7.3,0-17.8,0.2-30.4,0.2
			c-25.1,0.1-58.7,0.1-92.2,0.2c-33.5-0.1-67-0.2-92.2-0.2c-12.6-0.1-23-0.1-30.4-0.2C-24,149.4-28.2,149.3-28.2,149.3z"/>
	</g>
	<path class="st3" d="M141.2,112.1c-2.9,0-5.2,0.8-6.9,1.1l-0.5,4.4c0.9-0.4,3.6-1.2,5.9-1.3c2.3-0.1,3.6,0.4,3.1,2.4
		c-6.8,0-11.3,1.4-12.3,5.8c-1.3,7.5,6.9,7.3,10.2,4l-0.4,1.8h6l2.6-11.9C150.1,113.3,145.4,112.1,141.2,112.1z M141.6,124.4
		c-0.3,1.6-1.6,2.3-3.1,2.4c-1.3,0.1-2.5-1.1-1.7-2.5c0.7-1.2,2.5-1.5,3.7-1.5c0.5,0,1,0,1.5,0C141.8,123.3,141.7,123.8,141.6,124.4
		z"/>
	<polygon class="st3" points="154.1,107.4 149.2,130.3 155.3,130.3 160.3,107.4 154.1,107.4 154.1,107.4 	"/>
	<path class="st3" d="M126,107.5h-11.2l-5,22.8h6.5l1.7-7.6h4.6c4.6,0,8.3-2.8,9.3-7.5C133.1,109.9,129.2,107.5,126,107.5z
		 M125.8,115.3c-0.4,1.7-2.1,3.1-3.8,3.1h-3l1.3-6.3h3.2C125.2,112.1,126.2,113.5,125.8,115.3z"/>
	<path class="st4" d="M82.5,112.1c-2.8,0-5.1,0.8-6.7,1.1l-0.5,4.4c0.8-0.4,3.5-1.2,5.8-1.3c2.2-0.1,3.6,0.4,3.2,2.4
		c-6.7,0-11.2,1.4-12.1,5.8c-1.3,7.5,6.8,7.3,10,4l-0.4,1.8h6l2.6-11.9C91.3,113.3,86.7,112.1,82.5,112.1z M83,124.4
		c-0.3,1.6-1.7,2.3-3.2,2.4c-1.3,0.1-2.4-1.1-1.6-2.5c0.7-1.2,2.5-1.5,3.6-1.5c0.5,0,1,0,1.5,0C83.2,123.3,83.1,123.8,83,124.4z"/>
	<polygon class="st4" points="92.9,112.5 98.9,112.5 99.9,123.1 105.8,112.5 112,112.5 97.7,137.9 90.9,137.9 95.3,130.4 
		92.9,112.5 92.9,112.5 	"/>
	<path class="st4" d="M67.6,107.5H56.3l-5,22.8h6.6l1.6-7.6h4.7c4.5,0,8.3-2.8,9.3-7.5C74.7,109.9,70.9,107.5,67.6,107.5z
		 M67.4,115.3c-0.4,1.7-2.1,3.1-3.8,3.1h-3.1l1.4-6.3h3.2C66.8,112.1,67.8,113.5,67.4,115.3z"/>
	<g>
		<g>
			<path class="st5" d="M98.3,192H54.8c-2.2,0-4-1.8-4-4v-24.6c0-2.2,1.8-4,4-4h43.6c2.2,0,4,1.8,4,4v24.6
				C102.4,190.2,100.6,192,98.3,192z"/>
			<g>
				<g>
					<polygon class="st6" points="74,181.8 70.8,181.8 72.8,169.6 76,169.6 					"/>
					<path class="st6" d="M68.1,169.6l-3,8.4l-0.4-1.8l0,0l-1.1-5.5c0,0-0.1-1.1-1.5-1.1h-5l-0.1,0.2c0,0,1.5,0.3,3.3,1.4l2.8,10.6
						h3.3l5.1-12.2H68.1z"/>
					<path class="st6" d="M93.1,181.8H96l-2.5-12.2h-2.6c-1.2,0-1.5,0.9-1.5,0.9l-4.7,11.3H88l0.7-1.8h4L93.1,181.8z M89.6,177.4
						l1.7-4.6l0.9,4.6H89.6z"/>
					<path class="st6" d="M85,172.5l0.5-2.6c0,0-1.4-0.5-2.9-0.5c-1.6,0-5.3,0.7-5.3,4c0,3.2,4.4,3.2,4.4,4.9c0,1.7-3.9,1.4-5.2,0.3
						l-0.5,2.7c0,0,1.4,0.7,3.6,0.7c2.2,0,5.4-1.1,5.4-4.2c0-3.2-4.4-3.5-4.4-4.9C80.5,171.6,83.6,171.7,85,172.5z"/>
				</g>
				<path class="st7" d="M64.7,176.1l-1.1-5.5c0,0-0.1-1.1-1.5-1.1h-5l-0.1,0.2c0,0,2.4,0.5,4.7,2.4C64,173.9,64.7,176.1,64.7,176.1
					z"/>
			</g>
		</g>
		<g>
			<path class="st5" d="M156.9,192.2h-43.6c-2.2,0-4-1.8-4-4v-24.6c0-2.2,1.8-4,4-4h43.6c2.2,0,4,1.8,4,4v24.6
				C160.9,190.4,159.1,192.2,156.9,192.2z"/>
			<g>
				<g>
					<g>
						<g>
							<circle class="st8" cx="129.1" cy="175.9" r="9"/>
							<g>
								<path class="st9" d="M141.1,166.9c-2.3,0-4.4,0.9-6,2.3c-0.3,0.3-0.6,0.6-0.9,0.9h1.8c0.2,0.3,0.5,0.6,0.7,0.9h-3.2
									c-0.2,0.3-0.4,0.6-0.5,0.9h4.2c0.1,0.3,0.3,0.6,0.4,0.9h-5c-0.1,0.3-0.2,0.6-0.3,0.9h5.5c0.1,0.6,0.2,1.2,0.2,1.9
									c0,1-0.2,2-0.5,2.8h-5c0.1,0.3,0.2,0.6,0.4,0.9h4.2c-0.2,0.3-0.3,0.6-0.5,0.9h-3.2c0.2,0.3,0.4,0.6,0.7,0.9h1.8
									c-0.3,0.3-0.6,0.7-0.9,0.9c1.6,1.4,3.7,2.3,6,2.3c5,0,9-4,9-9C150.1,170.9,146.1,166.9,141.1,166.9z"/>
							</g>
						</g>
					</g>
					<g>
						<g>
							<polygon class="st10" points="124.9,178.3 123.9,178.3 124.5,174.8 123.2,178.3 122.6,178.3 122.5,174.8 121.9,178.3 
								121,178.3 121.7,173.7 123.1,173.7 123.2,176.5 124.1,173.7 125.6,173.7 							"/>
							<path class="st10" d="M127.3,176.6c-0.1,0-0.1,0-0.2,0c-0.6,0-0.8,0.2-0.8,0.6c0,0.2,0.1,0.4,0.3,0.4
								C127,177.5,127.3,177.2,127.3,176.6z M128,178.3c-0.1,0-0.8,0-0.8,0l0-0.4c-0.2,0.3-0.6,0.4-1,0.4c-0.5,0-0.9-0.4-0.9-1
								c0-0.9,0.6-1.4,1.7-1.4c0.1,0,0.3,0,0.4,0c0-0.1,0-0.2,0-0.2c0-0.2-0.2-0.3-0.6-0.3c-0.5,0-0.9,0.1-1,0.2
								c0-0.1,0.1-0.8,0.1-0.8c0.5-0.1,0.8-0.2,1.2-0.2c0.8,0,1.3,0.4,1.3,1.1c0,0.2,0,0.4-0.1,0.7C128.2,176.8,128,178,128,178.3z"
								/>
							<path class="st10" d="M141,173.8l-0.2,1c-0.3-0.2-0.6-0.2-0.9-0.2c-0.7,0-1.2,0.7-1.2,1.7c0,0.7,0.3,1.1,0.9,1.1
								c0.2,0,0.5-0.1,0.8-0.2l-0.2,1c-0.4,0.1-0.6,0.1-0.9,0.1c-1,0-1.7-0.8-1.7-2c0-1.6,0.9-2.8,2.2-2.8
								C140.4,173.6,140.9,173.8,141,173.8z"/>
							<path class="st10" d="M142.6,176.6c-0.1,0-0.1,0-0.2,0c-0.6,0-0.8,0.2-0.8,0.6c0,0.2,0.1,0.4,0.3,0.4
								C142.3,177.5,142.6,177.2,142.6,176.6z M143.3,178.3c-0.1,0-0.8,0-0.8,0l0-0.4c-0.2,0.3-0.6,0.4-1,0.4c-0.5,0-0.9-0.4-0.9-1
								c0-0.9,0.6-1.4,1.7-1.4c0.1,0,0.3,0,0.4,0c0-0.1,0-0.2,0-0.2c0-0.2-0.2-0.3-0.6-0.3c-0.5,0-0.9,0.1-1,0.2
								c0-0.1,0.1-0.8,0.1-0.8c0.5-0.1,0.8-0.2,1.2-0.2c0.8,0,1.3,0.4,1.3,1.1c0,0.2,0,0.4-0.1,0.7
								C143.5,176.8,143.4,178,143.3,178.3z"/>
							<path class="st10" d="M132.3,178.2c-0.3,0.1-0.5,0.1-0.7,0.1c-0.5,0-0.8-0.3-0.8-0.8c0-0.2,0.1-0.6,0.1-1
								c0.1-0.3,0.4-2.5,0.4-2.5h1l-0.1,0.6h0.5l-0.1,0.9h-0.5c-0.1,0.7-0.3,1.6-0.3,1.7c0,0.2,0.1,0.3,0.3,0.3c0.1,0,0.2,0,0.3,0
								L132.3,178.2z"/>
							<path class="st10" d="M135.3,178.2c-0.3,0.1-0.7,0.2-1,0.1c-1.1,0-1.6-0.6-1.6-1.7c0-1.3,0.7-2.2,1.7-2.2
								c0.8,0,1.3,0.5,1.3,1.3c0,0.3,0,0.5-0.1,0.9h-1.9c-0.1,0.5,0.3,0.8,0.8,0.8c0.3,0,0.7-0.1,1-0.2L135.3,178.2z M134.7,176
								c0-0.1,0.1-0.7-0.5-0.7c-0.3,0-0.5,0.2-0.6,0.7H134.7z"/>
							<path class="st10" d="M128.6,175.7c0,0.5,0.2,0.8,0.7,1c0.4,0.2,0.5,0.2,0.5,0.4c0,0.2-0.2,0.3-0.6,0.3c-0.3,0-0.6,0-0.9-0.1
								c0,0-0.1,0.8-0.1,0.9c0.2,0,0.4,0.1,1,0.1c1,0,1.5-0.4,1.5-1.2c0-0.5-0.2-0.8-0.7-1c-0.4-0.2-0.5-0.2-0.5-0.4
								c0-0.2,0.2-0.3,0.5-0.3c0.2,0,0.5,0,0.7,0.1l0.1-0.9c-0.3,0-0.6-0.1-0.9-0.1C128.9,174.5,128.6,175,128.6,175.7z"/>
							<path class="st10" d="M148.5,178.3h-0.9l0-0.3c-0.3,0.3-0.5,0.4-0.9,0.4c-0.7,0-1.2-0.6-1.2-1.5c0-1.2,0.7-2.3,1.6-2.3
								c0.4,0,0.7,0.2,0.9,0.5l0.2-1.3h1L148.5,178.3z M147,177.4c0.5,0,0.8-0.5,0.8-1.2c0-0.5-0.2-0.7-0.5-0.7
								c-0.4,0-0.8,0.5-0.8,1.2C146.5,177.2,146.7,177.4,147,177.4z"/>
							<path class="st10" d="M144.2,174.6c-0.1,1.1-0.3,2.3-0.5,3.5l0,0.2h1c0.3-2.3,0.4-2.7,1-2.6c0.1-0.5,0.2-0.9,0.4-1.1
								c-0.4-0.1-0.6,0.1-0.9,0.6c0-0.2,0.1-0.4,0.1-0.6H144.2z"/>
							<path class="st10" d="M136.2,174.6c-0.1,1.1-0.3,2.3-0.5,3.5l0,0.2h1c0.3-2.3,0.4-2.7,1-2.6c0.1-0.5,0.2-0.9,0.4-1.1
								c-0.4-0.1-0.6,0.1-0.9,0.6c0-0.2,0.1-0.4,0.1-0.6H136.2z"/>
							<g>
								<path class="st10" d="M148.9,178c0-0.2,0.1-0.3,0.3-0.3c0.2,0,0.3,0.1,0.3,0.3c0,0.2-0.1,0.3-0.3,0.3
									C149,178.3,148.9,178.1,148.9,178z M149.2,178.2c0.1,0,0.2-0.1,0.2-0.2c0-0.1-0.1-0.2-0.2-0.2c-0.1,0-0.2,0.1-0.2,0.2
									C149,178.1,149.1,178.2,149.2,178.2z M149.2,178.1L149.2,178.1l-0.1-0.3h0.1c0,0,0,0,0.1,0c0,0,0,0,0,0.1c0,0,0,0.1,0,0.1
									l0,0.1H149.2l0-0.1h0V178.1z M149.2,178L149.2,178C149.2,178,149.2,178,149.2,178C149.2,177.9,149.2,177.9,149.2,178
									C149.2,177.9,149.2,177.9,149.2,178C149.2,177.9,149.2,177.9,149.2,178L149.2,178L149.2,178z"/>
							</g>
						</g>
					</g>
				</g>
			</g>
		</g>
	</g>
</g>
</svg>
