<?xml version="1.0" encoding="utf-8"?>
<!-- Generator: Adobe Illustrator 19.0.0, SVG Export Plug-In . SVG Version: 6.00 Build 0)  -->
<svg version="1.1" id="Ebene_1" xmlns="http://www.w3.org/2000/svg" xmlns:xlink="http://www.w3.org/1999/xlink" x="0px" y="0px"
	 viewBox="-155 366.2 299.2 61.8" style="enable-background:new -155 366.2 299.2 61.8;" xml:space="preserve">
<style type="text/css">
	.st0{fill:#D84D15;}
	.st1{font-family:'IndieFlower';}
	.st2{font-size:26.1626px;}
	.st3{fill:none;stroke:#D84D15;stroke-width:1.381;stroke-linecap:round;stroke-linejoin:round;stroke-miterlimit:10;}
</style>
<g>
	<text transform="matrix(1 0 0 1 -146.957 413.7176)" class="st0 st1 st2">Become a CHEF</text>
	<g>
		<path class="st3" d="M131.4,367.9c2.6,0,1,29.1,1,41c0,11.8,3.7,17.6,3.7,17.6c-4.9,0-6.9-5.9-5-5.9h0.2c1.9,0-0.1,5.9-5,5.9
			c0,0,3.7-5.7,3.7-17.6c0-11.8-6.9-12.3-6.9-23.6C123.2,375.1,127.1,367.9,131.4,367.9z M102.9,384.2c0-6.6,0.4-16.2,3-16.2
			c2.6,0-1.6,16.5,1.1,16.5c4.1,0,0.6-16.5,3.5-16.5c3,0,0,16.5,3.5,16.5c2.8,0-1.4-16.5,1.1-16.5c2.6,0,3,9.6,3,16.2
			s-6.4,12.9-6.4,24.8c0,11.8,3.7,17.6,3.7,17.6c-4.9,0-6.9-5.9-5-5.9h0.2c1.9,0-0.1,5.9-5,5.9c0,0,3.7-5.7,3.7-17.6
			C109.3,397.1,102.9,390.8,102.9,384.2"/>
	</g>
</g>
</svg>
