<?xml version="1.0" encoding="UTF-8" standalone="no"?>
<svg width="100px" height="112px" viewBox="0 0 100 112" version="1.1" xmlns="http://www.w3.org/2000/svg" xmlns:xlink="http://www.w3.org/1999/xlink">
    <!-- Generator: Sketch 41.2 (35397) - http://www.bohemiancoding.com/sketch -->
    <title>chef</title>
    <desc>Created with Sketch.</desc>
    <defs></defs>
    <g id="Page-1" stroke="none" stroke-width="1" fill="none" fill-rule="evenodd">
        <g id="Successful" transform="translate(-670.000000, -199.000000)" fill="#CE5100">
            <g id="chef" transform="translate(670.000000, 199.000000)">
                <g id="Capa_1">
                    <g id="Group">
                        <path d="M98.0753425,108.299346 L86.4125571,108.299346 C86.1675799,100.938364 84.036758,95.20837 80.0684932,91.2541766 C74.6821918,85.8869039 67.9175799,85.8731557 67.6468037,85.8754471 L59.0689498,85.8754471 L59.0689498,83.1411718 C64.5486301,80.862418 68.0130137,77.0688487 70.1237443,73.7793778 C73.4189498,68.6444486 74.1623288,63.7026807 74.1922374,63.4948547 C74.2041096,63.4132824 74.2100457,63.3307936 74.2100457,63.2483048 L74.2100457,62.880313 C75.4127854,62.5826658 76.4591324,61.9598752 77.2899543,61.0366878 C79.7143836,58.3427403 79.5737443,54.0927329 79.4006849,52.3904844 C79.2689498,51.0949516 78.6849315,50.0077031 77.7116438,49.2462854 C76.6468037,48.4133774 75.3027397,48.1226043 74.210274,48.0417194 L74.210274,42.9024367 L74.210274,35.0478968 C81.1164384,34.2177385 86.4888128,28.3060395 86.4888128,21.1547168 C86.4888128,13.4367418 80.2326484,7.15796759 72.5426941,7.15796759 C71.597032,7.15796759 70.8303653,7.92740499 70.8303653,8.87648472 C70.8303653,9.82556446 71.597032,10.5950019 72.5426941,10.5950019 C78.3442922,10.5950019 83.0641553,15.3321516 83.0641553,21.1547168 C83.0641553,26.977282 78.3442922,31.7144318 72.5426941,31.7144318 C72.5351598,31.7144318 72.5278539,31.7153484 72.5203196,31.7155775 C72.5127854,31.7155775 72.5054795,31.7144318 72.4979452,31.7144318 C71.5522831,31.7144318 70.7856164,32.4838692 70.7856164,33.432949 L70.7856164,41.1839195 L29.133105,41.1839195 L29.133105,33.432949 C29.133105,32.4838692 28.3664384,31.7144318 27.4207763,31.7144318 C21.6191781,31.7144318 16.8990868,26.977282 16.8990868,21.1547168 C16.8990868,15.3321516 21.6191781,10.5950019 27.4207763,10.5950019 C33.2223744,10.5950019 37.9424658,15.3321516 37.9424658,21.1547168 C37.9424658,22.1037966 38.7091324,22.873234 39.6547945,22.873234 C40.6004566,22.873234 41.3671233,22.1037966 41.3671233,21.1547168 C41.3671233,18.5450913 40.6497717,16.1013599 39.4057078,14.0079769 C39.4057078,14.0043107 39.4061644,14.0006446 39.4061644,13.9969784 C39.4063927,8.17418405 44.1262557,3.43703428 49.9278539,3.43703428 C55.7294521,3.43703428 60.4490868,8.17418405 60.4490868,13.9967493 C60.4490868,14.945829 61.2157534,15.7152664 62.1614155,15.7152664 C63.1070776,15.7152664 63.8737443,14.945829 63.8737443,13.9967493 C63.8737443,6.27900335 57.6175799,0 49.9278539,0 C43.4474886,0 37.9858447,4.45920827 36.4278539,10.4806632 C33.9958904,8.41042288 30.8522831,7.15796759 27.4210046,7.15796759 C19.7308219,7.15796759 13.4746575,13.4367418 13.4746575,21.1547168 C13.4746575,28.2904583 18.8239726,34.1918461 25.7086758,35.0421684 L25.7086758,42.9024367 L25.7086758,48.0385115 C24.6093607,48.115272 23.2447489,48.4030663 22.1666667,49.2462854 C21.193379,50.0074739 20.6091324,51.0947224 20.4773973,52.3907135 C20.3045662,54.092962 20.1639269,58.3431986 22.5881279,61.0369169 C23.4280822,61.9704154 24.4890411,62.5959557 25.7084475,62.8894784 L25.7084475,63.2485339 C25.7084475,63.3310227 25.7143836,63.4135115 25.7262557,63.4950838 C25.7561644,63.7029098 26.4995434,68.6446777 29.7947489,73.7796069 C31.9054795,77.0690779 35.369863,80.8626472 40.8495434,83.1414009 L40.8495434,85.8756762 L32.28379,85.8756762 C31.9956621,85.8733849 25.2353881,85.8878204 19.85,91.2544057 C15.8817352,95.2085991 13.7511416,100.938364 13.5059361,108.299575 L1.84315068,108.299575 C0.897488584,108.299575 0.130821918,109.069013 0.130821918,110.018092 C0.130821918,110.967172 0.897488584,111.73661 1.84315068,111.73661 L98.0753425,111.73661 C99.0210046,111.73661 99.7876712,110.967172 99.7876712,110.018092 C99.7876712,109.068784 99.0210046,108.299346 98.0753425,108.299346 Z M67.6527397,89.3124814 C68.2643836,89.3127105 82.2924658,89.5402422 82.9833333,108.299117 L43.9872146,108.299117 C44.4130137,108.013385 44.693379,107.526701 44.693379,106.974026 C44.693379,106.093916 43.9824201,105.380617 43.1057078,105.380617 C42.2287671,105.380617 41.5178082,106.094145 41.5178082,106.974026 C41.5178082,107.526701 41.7984018,108.013385 42.2239726,108.299117 L35.1570776,108.299117 L35.1570776,89.607608 C35.1570776,89.5067884 35.1468037,89.4084892 35.130137,89.3122522 L42.5618721,89.3122522 L57.356621,89.3122522 L67.6527397,89.3122522 L67.6527397,89.3124814 Z M75.6059361,51.9569598 C75.7714612,52.0864214 75.9468037,52.2804993 75.993379,52.7392288 C76.197032,54.7416449 75.9767123,57.3679974 74.7481735,58.7329583 C74.5835616,58.9158085 74.4038813,59.0665797 74.2098174,59.1930626 L74.2098174,51.4941058 C74.7369863,51.5557433 75.2671233,51.692079 75.6059361,51.9569598 Z M25.1294521,58.7329583 C23.9011416,57.3679974 23.6808219,54.7416449 23.8842466,52.7392288 C23.9305936,52.2825615 24.1041096,52.089171 24.2678082,51.9599385 C24.6143836,51.6865797 25.1641553,51.5488692 25.7082192,51.4899814 L25.7082192,59.2184966 C25.4988584,59.0874311 25.3054795,58.928411 25.1294521,58.7329583 Z M32.7422374,72.0244281 C30.0630137,67.8974665 29.256621,63.8117493 29.133105,63.1080738 L29.133105,44.6211829 L70.7851598,44.6211829 L70.7851598,63.1076155 C70.6600457,63.8195399 69.852968,67.9013618 67.1760274,72.0244281 C63.3385845,77.9356688 57.5995434,81.1864158 50.1182648,81.686848 L49.7997717,81.686848 C42.3187215,81.1861867 36.5796804,77.9354396 32.7422374,72.0244281 Z M49.6333333,85.1202161 C49.6700913,85.1225075 49.7070776,85.1238823 49.7440639,85.1238823 L50.1746575,85.1238823 C50.2116438,85.1238823 50.2486301,85.1227366 50.2853881,85.1202161 C52.2257991,84.9939624 54.006621,84.7004396 55.6445205,84.2797466 L55.6445205,85.8756762 L44.2744292,85.8756762 L44.2744292,84.2797466 C45.9121005,84.7004396 47.6926941,84.9939624 49.6333333,85.1202161 Z M31.7561644,89.3344784 C31.7417808,89.4238413 31.7324201,89.514579 31.7324201,89.6078372 L31.7324201,108.299346 L16.9349315,108.299346 C17.5605023,91.3194803 29.1118721,89.5219113 31.7561644,89.3344784 Z" id="Shape"></path>
                        <ellipse id="Oval" cx="37.8045662" cy="52.171889" rx="2.04360731" ry="2.05099292"></ellipse>
                        <ellipse id="Oval" cx="62.1139269" cy="52.171889" rx="2.04360731" ry="2.05099292"></ellipse>
                        <ellipse id="Oval" cx="43.1054795" cy="101.3185" rx="1.58789954" ry="1.59363823"></ellipse>
                        <ellipse id="Oval" cx="43.1054795" cy="95.6627459" rx="1.58789954" ry="1.59363823"></ellipse>
                        <path d="M49.5175799,63.3367511 L50.4006849,63.3367511 C52.6075342,63.3367511 54.4084475,61.5806557 54.5013699,59.3882861 C54.5073059,59.330544 54.510274,59.2716561 54.510274,59.21231 L54.510274,52.4548715 C54.510274,51.5057917 53.7436073,50.7363543 52.7979452,50.7363543 C51.8522831,50.7363543 51.0856164,51.5057917 51.0856164,52.4548715 L51.0856164,59.21231 C51.0856164,59.5913003 50.7783105,59.8997168 50.4006849,59.8997168 L49.5175799,59.8997168 C49.1399543,59.8997168 48.8326484,59.5913003 48.8326484,59.21231 C48.8326484,58.2632303 48.0659817,57.4937928 47.1203196,57.4937928 C46.1746575,57.4937928 45.4079909,58.2632303 45.4079909,59.21231 C45.4079909,61.486481 47.2515982,63.3367511 49.5175799,63.3367511 Z" id="Shape"></path>
                        <path d="M60.5742009,71.6578111 C61.1680365,70.9188487 61.0525114,69.8370995 60.3164384,69.2413469 C59.580137,68.6453651 58.5022831,68.7615369 57.9086758,69.500041 C57.890411,69.5229545 55.8335616,71.7774199 50.3810502,71.7774199 C44.716895,71.7774199 41.9557078,69.4184687 41.8207763,69.3000056 C41.1221461,68.6698826 40.0461187,68.722813 39.4116438,69.4209892 C38.7744292,70.1223733 38.8244292,71.2093927 39.5232877,71.8486811 C39.673516,71.9861624 43.283105,75.2144542 50.3810502,75.2144542 C57.510274,75.2146833 60.2817352,72.0219076 60.5742009,71.6578111 Z" id="Shape" transform="translate(49.959217, 72.037353) rotate(-360.000000) translate(-49.959217, -72.037353) "></path>
                    </g>
                </g>
            </g>
        </g>
    </g>
</svg>